<svg width="334" height="144" viewBox="0 0 334 144" fill="none" xmlns="http://www.w3.org/2000/svg">
<g clip-path="url(#clip0_4838_87238)">
<path d="M167.103 99.9921C191.737 99.9921 211.707 96.2608 211.707 91.6579C211.707 87.0551 191.737 83.3237 167.103 83.3237C142.47 83.3237 122.5 87.0551 122.5 91.6579C122.5 96.2608 142.47 99.9921 167.103 99.9921Z" fill="#F3F4F6"/>
<path fill-rule="evenodd" clip-rule="evenodd" d="M202.786 67.1738L187.046 47.8021C186.291 46.8902 185.187 46.3383 184.025 46.3383H150.182C149.021 46.3383 147.917 46.8902 147.161 47.8021L131.422 67.1738V77.2942H202.787V67.1738H202.786Z" fill="#9CA3AF"/>
<path fill-rule="evenodd" clip-rule="evenodd" d="M144.757 21.3356H189.449C190.147 21.3356 190.817 21.6128 191.31 22.1063C191.804 22.5999 192.081 23.2692 192.081 23.9671V85.3777C192.081 86.0756 191.804 86.7449 191.31 87.2385C190.817 87.732 190.147 88.0092 189.449 88.0092H144.757C144.059 88.0092 143.389 87.732 142.896 87.2385C142.402 86.7449 142.125 86.0756 142.125 85.3777V23.9671C142.125 23.2692 142.402 22.5999 142.896 22.1063C143.389 21.6128 144.059 21.3356 144.757 21.3356V21.3356Z" fill="#F3F4F6"/>
<path fill-rule="evenodd" clip-rule="evenodd" d="M150.579 27.8835H183.63C183.979 27.8835 184.313 28.0222 184.56 28.2689C184.807 28.5157 184.946 28.8504 184.946 29.1993V45.6184C184.946 45.9674 184.807 46.3021 184.56 46.5488C184.313 46.7956 183.979 46.9342 183.63 46.9342H150.579C150.23 46.9342 149.895 46.7956 149.649 46.5488C149.402 46.3021 149.263 45.9674 149.263 45.6184V29.1993C149.263 28.8504 149.402 28.5157 149.649 28.2689C149.895 28.0222 150.23 27.8835 150.579 27.8835ZM150.751 54.077H183.457C183.852 54.077 184.231 54.2338 184.51 54.5128C184.789 54.7919 184.946 55.1704 184.946 55.5651C184.946 55.9598 184.789 56.3383 184.51 56.6174C184.231 56.8965 183.852 57.0533 183.457 57.0533H150.751C150.357 57.0533 149.978 56.8965 149.699 56.6174C149.42 56.3383 149.263 55.9598 149.263 55.5651C149.263 55.1704 149.42 54.7919 149.699 54.5128C149.978 54.2338 150.357 54.077 150.751 54.077ZM150.751 61.8158H183.457C183.852 61.8158 184.231 61.9726 184.51 62.2518C184.789 62.5309 184.946 62.9095 184.946 63.3043C184.946 63.699 184.789 64.0776 184.51 64.3568C184.231 64.6359 183.852 64.7928 183.457 64.7928H150.751C150.357 64.7928 149.978 64.6359 149.699 64.3568C149.42 64.0776 149.263 63.699 149.263 63.3043C149.263 62.9095 149.42 62.5309 149.699 62.2518C149.978 61.9726 150.357 61.8158 150.751 61.8158ZM202.642 90.4355C202.132 92.4559 200.341 93.9618 198.211 93.9618H135.998C133.868 93.9618 132.077 92.4553 131.568 90.4355C131.471 90.0505 131.422 89.6549 131.422 89.2579V67.1743H148.736C150.649 67.1743 152.19 68.7849 152.19 70.7401V70.7664C152.19 72.721 153.75 74.2993 155.662 74.2993H178.547C180.459 74.2993 182.019 72.7066 182.019 70.7513V70.7434C182.019 68.7881 183.56 67.1737 185.473 67.1737H202.787V89.2585C202.787 89.6645 202.736 90.0585 202.642 90.4355Z" fill="#D1D5DB"/>
<path fill-rule="evenodd" clip-rule="evenodd" d="M204.82 22.4026L200.327 24.1461C200.211 24.1909 200.085 24.2023 199.964 24.1789C199.842 24.1555 199.73 24.0982 199.639 24.0137C199.549 23.9292 199.484 23.8208 199.452 23.7011C199.421 23.5813 199.423 23.4551 199.46 23.3368L200.735 19.2533C199.031 17.3164 198.031 14.9546 198.031 12.4059C198.031 5.83026 204.688 0.5 212.9 0.5C221.11 0.5 227.767 5.83026 227.767 12.4059C227.767 18.9816 221.11 24.3118 212.899 24.3118C209.92 24.3118 207.146 23.6105 204.82 22.4026Z" fill="#D1D5DB"/>
<path d="M218.749 14.5559C219.785 14.5559 220.624 13.7267 220.624 12.7039C220.624 11.6811 219.785 10.8519 218.749 10.8519C217.714 10.8519 216.875 11.6811 216.875 12.7039C216.875 13.7267 217.714 14.5559 218.749 14.5559Z" fill="white"/>
<path fill-rule="evenodd" clip-rule="evenodd" d="M208.913 14.3243H205.164L207.071 11.0835L208.913 14.3243ZM211.256 11.0835H214.535V14.3243H211.256V11.0835Z" fill="white"/>
<path d="M11.108 129.79H8.98295C8.92235 129.441 8.81061 129.133 8.64773 128.864C8.48485 128.591 8.2822 128.36 8.03977 128.17C7.79735 127.981 7.52083 127.839 7.21023 127.744C6.90341 127.646 6.57197 127.597 6.21591 127.597C5.58333 127.597 5.02273 127.756 4.53409 128.074C4.04545 128.388 3.66288 128.85 3.38636 129.46C3.10985 130.066 2.97159 130.807 2.97159 131.682C2.97159 132.572 3.10985 133.322 3.38636 133.932C3.66667 134.538 4.04924 134.996 4.53409 135.307C5.02273 135.614 5.58144 135.767 6.21023 135.767C6.55871 135.767 6.88447 135.722 7.1875 135.631C7.49432 135.536 7.76894 135.398 8.01136 135.216C8.25758 135.034 8.46402 134.811 8.63068 134.545C8.80114 134.28 8.91856 133.977 8.98295 133.636L11.108 133.648C11.0284 134.201 10.8561 134.72 10.5909 135.205C10.3295 135.689 9.98674 136.117 9.5625 136.489C9.13826 136.856 8.64205 137.144 8.07386 137.352C7.50568 137.557 6.875 137.659 6.18182 137.659C5.15909 137.659 4.24621 137.422 3.44318 136.949C2.64015 136.475 2.00758 135.792 1.54545 134.898C1.08333 134.004 0.852273 132.932 0.852273 131.682C0.852273 130.428 1.08523 129.356 1.55114 128.466C2.01705 127.572 2.65152 126.888 3.45455 126.415C4.25758 125.941 5.16667 125.705 6.18182 125.705C6.82955 125.705 7.43182 125.795 7.98864 125.977C8.54545 126.159 9.04167 126.426 9.47727 126.778C9.91288 127.127 10.2708 127.555 10.5511 128.062C10.8352 128.566 11.0208 129.142 11.108 129.79ZM12.9474 137.5V128.773H14.9418V130.227H15.0327C15.1918 129.723 15.4645 129.335 15.8509 129.062C16.241 128.786 16.6861 128.648 17.1861 128.648C17.2997 128.648 17.4266 128.653 17.5668 128.665C17.7107 128.672 17.83 128.686 17.9247 128.705V130.597C17.8376 130.566 17.6993 130.54 17.5099 130.517C17.3243 130.491 17.1444 130.477 16.9702 130.477C16.5952 130.477 16.258 130.559 15.9588 130.722C15.6634 130.881 15.4304 131.102 15.2599 131.386C15.0895 131.67 15.0043 131.998 15.0043 132.369V137.5H12.9474ZM22.7955 137.67C21.9205 137.67 21.1648 137.489 20.5284 137.125C19.8958 136.758 19.4091 136.239 19.0682 135.568C18.7273 134.894 18.5568 134.1 18.5568 133.188C18.5568 132.29 18.7273 131.502 19.0682 130.824C19.4129 130.142 19.8939 129.612 20.5114 129.233C21.1288 128.85 21.8542 128.659 22.6875 128.659C23.2254 128.659 23.733 128.746 24.2102 128.92C24.6913 129.091 25.1155 129.356 25.483 129.716C25.8542 130.076 26.1458 130.534 26.358 131.091C26.5701 131.644 26.6761 132.303 26.6761 133.068V133.699H19.5227V132.312H24.7045C24.7008 131.919 24.6155 131.568 24.4489 131.261C24.2822 130.951 24.0492 130.706 23.75 130.528C23.4545 130.35 23.1098 130.261 22.7159 130.261C22.2955 130.261 21.9261 130.364 21.608 130.568C21.2898 130.769 21.0417 131.034 20.8636 131.364C20.6894 131.689 20.6004 132.047 20.5966 132.438V133.648C20.5966 134.155 20.6894 134.591 20.875 134.955C21.0606 135.314 21.3201 135.591 21.6534 135.784C21.9867 135.973 22.3769 136.068 22.8239 136.068C23.1231 136.068 23.3939 136.027 23.6364 135.943C23.8788 135.856 24.089 135.729 24.267 135.562C24.4451 135.396 24.5795 135.189 24.6705 134.943L26.5909 135.159C26.4697 135.667 26.2386 136.11 25.8977 136.489C25.5606 136.864 25.1288 137.155 24.6023 137.364C24.0758 137.568 23.4735 137.67 22.7955 137.67ZM30.9276 137.676C30.3745 137.676 29.8764 137.578 29.4332 137.381C28.9938 137.18 28.6454 136.884 28.3878 136.494C28.134 136.104 28.0071 135.623 28.0071 135.051C28.0071 134.559 28.098 134.152 28.2798 133.83C28.4616 133.508 28.7098 133.25 29.0241 133.057C29.3385 132.864 29.6927 132.718 30.0866 132.619C30.4844 132.517 30.8954 132.443 31.3196 132.398C31.831 132.345 32.2457 132.297 32.5639 132.256C32.8821 132.21 33.1132 132.142 33.2571 132.051C33.4048 131.956 33.4787 131.811 33.4787 131.614V131.58C33.4787 131.152 33.3518 130.82 33.098 130.585C32.8442 130.35 32.4787 130.233 32.0014 130.233C31.4976 130.233 31.098 130.343 30.8026 130.562C30.5109 130.782 30.3139 131.042 30.2116 131.341L28.2912 131.068C28.4427 130.538 28.6927 130.095 29.0412 129.739C29.3897 129.379 29.8158 129.11 30.3196 128.932C30.8234 128.75 31.3802 128.659 31.9901 128.659C32.4105 128.659 32.8291 128.708 33.2457 128.807C33.6624 128.905 34.0431 129.068 34.3878 129.295C34.7325 129.519 35.009 129.824 35.2173 130.21C35.4295 130.597 35.5355 131.08 35.5355 131.659V137.5H33.5582V136.301H33.4901C33.3651 136.544 33.1889 136.771 32.9616 136.983C32.7382 137.191 32.456 137.36 32.1151 137.489C31.7779 137.614 31.3821 137.676 30.9276 137.676ZM31.4616 136.165C31.8745 136.165 32.2325 136.083 32.5355 135.92C32.8385 135.754 33.0715 135.534 33.2344 135.261C33.401 134.989 33.4844 134.691 33.4844 134.369V133.341C33.42 133.394 33.3101 133.443 33.1548 133.489C33.0033 133.534 32.8329 133.574 32.6435 133.608C32.4541 133.642 32.2666 133.672 32.081 133.699C31.8954 133.725 31.7344 133.748 31.598 133.767C31.2912 133.809 31.0166 133.877 30.7741 133.972C30.5317 134.066 30.3404 134.199 30.2003 134.369C30.0601 134.536 29.9901 134.752 29.9901 135.017C29.9901 135.396 30.1283 135.682 30.4048 135.875C30.6813 136.068 31.0336 136.165 31.4616 136.165ZM41.9616 128.773V130.364H36.9446V128.773H41.9616ZM38.1832 126.682H40.2401V134.875C40.2401 135.152 40.2817 135.364 40.3651 135.511C40.4522 135.655 40.5658 135.754 40.706 135.807C40.8461 135.86 41.0014 135.886 41.1719 135.886C41.3007 135.886 41.4181 135.877 41.5241 135.858C41.634 135.839 41.7173 135.822 41.7741 135.807L42.1207 137.415C42.0109 137.453 41.8537 137.494 41.6491 137.54C41.4484 137.585 41.2022 137.612 40.9105 137.619C40.3954 137.634 39.9313 137.557 39.5185 137.386C39.1056 137.212 38.7779 136.943 38.5355 136.58C38.2969 136.216 38.1795 135.761 38.1832 135.216V126.682ZM47.4517 137.67C46.5767 137.67 45.821 137.489 45.1847 137.125C44.5521 136.758 44.0653 136.239 43.7244 135.568C43.3835 134.894 43.2131 134.1 43.2131 133.188C43.2131 132.29 43.3835 131.502 43.7244 130.824C44.0691 130.142 44.5502 129.612 45.1676 129.233C45.785 128.85 46.5104 128.659 47.3438 128.659C47.8816 128.659 48.3892 128.746 48.8665 128.92C49.3475 129.091 49.7718 129.356 50.1392 129.716C50.5104 130.076 50.8021 130.534 51.0142 131.091C51.2263 131.644 51.3324 132.303 51.3324 133.068V133.699H44.179V132.312H49.3608C49.357 131.919 49.2718 131.568 49.1051 131.261C48.9384 130.951 48.7055 130.706 48.4062 130.528C48.1108 130.35 47.7661 130.261 47.3722 130.261C46.9517 130.261 46.5824 130.364 46.2642 130.568C45.946 130.769 45.6979 131.034 45.5199 131.364C45.3456 131.689 45.2566 132.047 45.2528 132.438V133.648C45.2528 134.155 45.3456 134.591 45.5312 134.955C45.7169 135.314 45.9763 135.591 46.3097 135.784C46.643 135.973 47.0331 136.068 47.4801 136.068C47.7794 136.068 48.0502 136.027 48.2926 135.943C48.535 135.856 48.7453 135.729 48.9233 135.562C49.1013 135.396 49.2358 135.189 49.3267 134.943L51.2472 135.159C51.1259 135.667 50.8949 136.11 50.554 136.489C50.2169 136.864 49.785 137.155 49.2585 137.364C48.732 137.568 48.1297 137.67 47.4517 137.67ZM59.5526 137.676C58.9995 137.676 58.5014 137.578 58.0582 137.381C57.6188 137.18 57.2704 136.884 57.0128 136.494C56.759 136.104 56.6321 135.623 56.6321 135.051C56.6321 134.559 56.723 134.152 56.9048 133.83C57.0866 133.508 57.3348 133.25 57.6491 133.057C57.9635 132.864 58.3177 132.718 58.7116 132.619C59.1094 132.517 59.5204 132.443 59.9446 132.398C60.456 132.345 60.8707 132.297 61.1889 132.256C61.5071 132.21 61.7382 132.142 61.8821 132.051C62.0298 131.956 62.1037 131.811 62.1037 131.614V131.58C62.1037 131.152 61.9768 130.82 61.723 130.585C61.4692 130.35 61.1037 130.233 60.6264 130.233C60.1226 130.233 59.723 130.343 59.4276 130.562C59.1359 130.782 58.9389 131.042 58.8366 131.341L56.9162 131.068C57.0677 130.538 57.3177 130.095 57.6662 129.739C58.0147 129.379 58.4408 129.11 58.9446 128.932C59.4484 128.75 60.0052 128.659 60.6151 128.659C61.0355 128.659 61.4541 128.708 61.8707 128.807C62.2874 128.905 62.6681 129.068 63.0128 129.295C63.3575 129.519 63.634 129.824 63.8423 130.21C64.0545 130.597 64.1605 131.08 64.1605 131.659V137.5H62.1832V136.301H62.1151C61.9901 136.544 61.8139 136.771 61.5866 136.983C61.3632 137.191 61.081 137.36 60.7401 137.489C60.4029 137.614 60.0071 137.676 59.5526 137.676ZM60.0866 136.165C60.4995 136.165 60.8575 136.083 61.1605 135.92C61.4635 135.754 61.6965 135.534 61.8594 135.261C62.026 134.989 62.1094 134.691 62.1094 134.369V133.341C62.045 133.394 61.9351 133.443 61.7798 133.489C61.6283 133.534 61.4579 133.574 61.2685 133.608C61.0791 133.642 60.8916 133.672 60.706 133.699C60.5204 133.725 60.3594 133.748 60.223 133.767C59.9162 133.809 59.6416 133.877 59.3991 133.972C59.1567 134.066 58.9654 134.199 58.8253 134.369C58.6851 134.536 58.6151 134.752 58.6151 135.017C58.6151 135.396 58.7533 135.682 59.0298 135.875C59.3063 136.068 59.6586 136.165 60.0866 136.165ZM70.1974 128.773H72.2543V138C72.2543 138.629 72.1349 139.148 71.8963 139.557C71.6577 139.966 71.313 140.271 70.8622 140.472C70.4115 140.672 69.8641 140.773 69.2202 140.773C69.1444 140.773 69.0743 140.771 69.0099 140.767C68.9455 140.767 68.8755 140.765 68.7997 140.761V139.085C68.8565 139.089 68.9077 139.091 68.9531 139.091C68.9986 139.095 69.0459 139.097 69.0952 139.097C69.4891 139.097 69.7713 139 69.9418 138.807C70.1122 138.617 70.1974 138.339 70.1974 137.972V128.773ZM71.2202 127.534C70.8906 127.534 70.6084 127.426 70.3736 127.21C70.1425 126.991 70.027 126.727 70.027 126.42C70.027 126.11 70.1425 125.847 70.3736 125.631C70.6084 125.411 70.8906 125.301 71.2202 125.301C71.5459 125.301 71.8243 125.411 72.0554 125.631C72.2902 125.847 72.4077 126.11 72.4077 126.42C72.4077 126.727 72.2902 126.991 72.0554 127.21C71.8243 127.426 71.5459 127.534 71.2202 127.534ZM78.1761 137.67C77.3239 137.67 76.5852 137.483 75.9602 137.108C75.3352 136.733 74.8504 136.208 74.5057 135.534C74.1648 134.86 73.9943 134.072 73.9943 133.17C73.9943 132.269 74.1648 131.479 74.5057 130.801C74.8504 130.123 75.3352 129.597 75.9602 129.222C76.5852 128.847 77.3239 128.659 78.1761 128.659C79.0284 128.659 79.767 128.847 80.392 129.222C81.017 129.597 81.5 130.123 81.8409 130.801C82.1856 131.479 82.358 132.269 82.358 133.17C82.358 134.072 82.1856 134.86 81.8409 135.534C81.5 136.208 81.017 136.733 80.392 137.108C79.767 137.483 79.0284 137.67 78.1761 137.67ZM78.1875 136.023C78.6496 136.023 79.036 135.896 79.3466 135.642C79.6572 135.384 79.8883 135.04 80.0398 134.608C80.1951 134.176 80.2727 133.695 80.2727 133.165C80.2727 132.631 80.1951 132.148 80.0398 131.716C79.8883 131.28 79.6572 130.934 79.3466 130.676C79.036 130.419 78.6496 130.29 78.1875 130.29C77.714 130.29 77.3201 130.419 77.0057 130.676C76.6951 130.934 76.4621 131.28 76.3068 131.716C76.1553 132.148 76.0795 132.631 76.0795 133.165C76.0795 133.695 76.1553 134.176 76.3068 134.608C76.4621 135.04 76.6951 135.384 77.0057 135.642C77.3201 135.896 77.714 136.023 78.1875 136.023ZM89.6662 133.83V128.773H91.723V137.5H89.7287V135.949H89.6378C89.4408 136.437 89.117 136.837 88.6662 137.148C88.2192 137.458 87.6681 137.614 87.0128 137.614C86.4408 137.614 85.9351 137.487 85.4957 137.233C85.0601 136.975 84.7192 136.602 84.473 136.114C84.2268 135.621 84.1037 135.027 84.1037 134.33V128.773H86.1605V134.011C86.1605 134.564 86.312 135.004 86.6151 135.33C86.9181 135.655 87.3158 135.818 87.8082 135.818C88.1113 135.818 88.4048 135.744 88.6889 135.597C88.973 135.449 89.206 135.229 89.3878 134.938C89.5734 134.642 89.6662 134.273 89.6662 133.83ZM93.8381 137.5V128.773H95.8324V130.227H95.9233C96.0824 129.723 96.3551 129.335 96.7415 129.062C97.1316 128.786 97.5767 128.648 98.0767 128.648C98.1903 128.648 98.3172 128.653 98.4574 128.665C98.6013 128.672 98.7206 128.686 98.8153 128.705V130.597C98.7282 130.566 98.59 130.54 98.4006 130.517C98.215 130.491 98.035 130.477 97.8608 130.477C97.4858 130.477 97.1487 130.559 96.8494 130.722C96.554 130.881 96.321 131.102 96.1506 131.386C95.9801 131.67 95.8949 131.998 95.8949 132.369V137.5H93.8381ZM102.239 132.386V137.5H100.182V128.773H102.148V130.256H102.25C102.451 129.767 102.771 129.379 103.21 129.091C103.653 128.803 104.201 128.659 104.852 128.659C105.455 128.659 105.979 128.788 106.426 129.045C106.877 129.303 107.225 129.676 107.472 130.165C107.722 130.653 107.845 131.246 107.841 131.943V137.5H105.784V132.261C105.784 131.678 105.633 131.222 105.33 130.892C105.03 130.562 104.616 130.398 104.085 130.398C103.725 130.398 103.405 130.477 103.125 130.636C102.848 130.792 102.631 131.017 102.472 131.312C102.316 131.608 102.239 131.966 102.239 132.386ZM113.795 137.67C112.92 137.67 112.165 137.489 111.528 137.125C110.896 136.758 110.409 136.239 110.068 135.568C109.727 134.894 109.557 134.1 109.557 133.188C109.557 132.29 109.727 131.502 110.068 130.824C110.413 130.142 110.894 129.612 111.511 129.233C112.129 128.85 112.854 128.659 113.688 128.659C114.225 128.659 114.733 128.746 115.21 128.92C115.691 129.091 116.116 129.356 116.483 129.716C116.854 130.076 117.146 130.534 117.358 131.091C117.57 131.644 117.676 132.303 117.676 133.068V133.699H110.523V132.312H115.705C115.701 131.919 115.616 131.568 115.449 131.261C115.282 130.951 115.049 130.706 114.75 130.528C114.455 130.35 114.11 130.261 113.716 130.261C113.295 130.261 112.926 130.364 112.608 130.568C112.29 130.769 112.042 131.034 111.864 131.364C111.689 131.689 111.6 132.047 111.597 132.438V133.648C111.597 134.155 111.689 134.591 111.875 134.955C112.061 135.314 112.32 135.591 112.653 135.784C112.987 135.973 113.377 136.068 113.824 136.068C114.123 136.068 114.394 136.027 114.636 135.943C114.879 135.856 115.089 135.729 115.267 135.562C115.445 135.396 115.58 135.189 115.67 134.943L117.591 135.159C117.47 135.667 117.239 136.11 116.898 136.489C116.561 136.864 116.129 137.155 115.602 137.364C115.076 137.568 114.473 137.67 113.795 137.67ZM120.445 140.773C120.164 140.773 119.905 140.75 119.666 140.705C119.431 140.663 119.244 140.614 119.104 140.557L119.581 138.955C119.88 139.042 120.147 139.083 120.382 139.08C120.617 139.076 120.823 139.002 121.001 138.858C121.183 138.718 121.337 138.483 121.462 138.153L121.638 137.682L118.473 128.773H120.655L122.666 135.364H122.757L124.774 128.773H126.962L123.467 138.557C123.304 139.019 123.089 139.415 122.82 139.744C122.551 140.078 122.221 140.331 121.831 140.506C121.445 140.684 120.982 140.773 120.445 140.773ZM136.712 128.773V130.364H131.695V128.773H136.712ZM132.933 126.682H134.99V134.875C134.99 135.152 135.032 135.364 135.115 135.511C135.202 135.655 135.316 135.754 135.456 135.807C135.596 135.86 135.751 135.886 135.922 135.886C136.051 135.886 136.168 135.877 136.274 135.858C136.384 135.839 136.467 135.822 136.524 135.807L136.871 137.415C136.761 137.453 136.604 137.494 136.399 137.54C136.198 137.585 135.952 137.612 135.661 137.619C135.145 137.634 134.681 137.557 134.268 137.386C133.856 137.212 133.528 136.943 133.286 136.58C133.047 136.216 132.929 135.761 132.933 135.216V126.682ZM142.145 137.67C141.293 137.67 140.554 137.483 139.929 137.108C139.304 136.733 138.819 136.208 138.474 135.534C138.134 134.86 137.963 134.072 137.963 133.17C137.963 132.269 138.134 131.479 138.474 130.801C138.819 130.123 139.304 129.597 139.929 129.222C140.554 128.847 141.293 128.659 142.145 128.659C142.997 128.659 143.736 128.847 144.361 129.222C144.986 129.597 145.469 130.123 145.81 130.801C146.154 131.479 146.327 132.269 146.327 133.17C146.327 134.072 146.154 134.86 145.81 135.534C145.469 136.208 144.986 136.733 144.361 137.108C143.736 137.483 142.997 137.67 142.145 137.67ZM142.156 136.023C142.618 136.023 143.005 135.896 143.315 135.642C143.626 135.384 143.857 135.04 144.009 134.608C144.164 134.176 144.241 133.695 144.241 133.165C144.241 132.631 144.164 132.148 144.009 131.716C143.857 131.28 143.626 130.934 143.315 130.676C143.005 130.419 142.618 130.29 142.156 130.29C141.683 130.29 141.289 130.419 140.974 130.676C140.664 130.934 140.431 131.28 140.276 131.716C140.124 132.148 140.048 132.631 140.048 133.165C140.048 133.695 140.124 134.176 140.276 134.608C140.431 135.04 140.664 135.384 140.974 135.642C141.289 135.896 141.683 136.023 142.156 136.023ZM155.905 137.67C155.03 137.67 154.274 137.489 153.638 137.125C153.005 136.758 152.518 136.239 152.178 135.568C151.837 134.894 151.666 134.1 151.666 133.188C151.666 132.29 151.837 131.502 152.178 130.824C152.522 130.142 153.003 129.612 153.621 129.233C154.238 128.85 154.964 128.659 155.797 128.659C156.335 128.659 156.842 128.746 157.32 128.92C157.801 129.091 158.225 129.356 158.592 129.716C158.964 130.076 159.255 130.534 159.467 131.091C159.679 131.644 159.786 132.303 159.786 133.068V133.699H152.632V132.312H157.814C157.81 131.919 157.725 131.568 157.558 131.261C157.392 130.951 157.159 130.706 156.859 130.528C156.564 130.35 156.219 130.261 155.825 130.261C155.405 130.261 155.036 130.364 154.717 130.568C154.399 130.769 154.151 131.034 153.973 131.364C153.799 131.689 153.71 132.047 153.706 132.438V133.648C153.706 134.155 153.799 134.591 153.984 134.955C154.17 135.314 154.429 135.591 154.763 135.784C155.096 135.973 155.486 136.068 155.933 136.068C156.232 136.068 156.503 136.027 156.746 135.943C156.988 135.856 157.198 135.729 157.376 135.562C157.554 135.396 157.689 135.189 157.78 134.943L159.7 135.159C159.579 135.667 159.348 136.11 159.007 136.489C158.67 136.864 158.238 137.155 157.712 137.364C157.185 137.568 156.583 137.67 155.905 137.67ZM163.582 132.386V137.5H161.526V128.773H163.491V130.256H163.594C163.795 129.767 164.115 129.379 164.554 129.091C164.997 128.803 165.545 128.659 166.196 128.659C166.798 128.659 167.323 128.788 167.77 129.045C168.221 129.303 168.569 129.676 168.815 130.165C169.065 130.653 169.188 131.246 169.185 131.943V137.5H167.128V132.261C167.128 131.678 166.976 131.222 166.673 130.892C166.374 130.562 165.959 130.398 165.429 130.398C165.069 130.398 164.749 130.477 164.469 130.636C164.192 130.792 163.974 131.017 163.815 131.312C163.66 131.608 163.582 131.966 163.582 132.386ZM175.071 140.955C174.332 140.955 173.698 140.854 173.168 140.653C172.637 140.456 172.211 140.191 171.889 139.858C171.567 139.525 171.344 139.155 171.219 138.75L173.071 138.301C173.154 138.472 173.276 138.64 173.435 138.807C173.594 138.977 173.808 139.117 174.077 139.227C174.349 139.341 174.692 139.398 175.105 139.398C175.688 139.398 176.171 139.256 176.554 138.972C176.937 138.691 177.128 138.229 177.128 137.585V135.932H177.026C176.92 136.144 176.764 136.362 176.56 136.585C176.359 136.809 176.092 136.996 175.759 137.148C175.429 137.299 175.014 137.375 174.514 137.375C173.844 137.375 173.236 137.218 172.69 136.903C172.149 136.585 171.717 136.112 171.395 135.483C171.077 134.85 170.918 134.059 170.918 133.108C170.918 132.15 171.077 131.341 171.395 130.682C171.717 130.019 172.151 129.517 172.696 129.176C173.241 128.831 173.849 128.659 174.52 128.659C175.031 128.659 175.452 128.746 175.781 128.92C176.115 129.091 176.38 129.297 176.577 129.54C176.774 129.778 176.923 130.004 177.026 130.216H177.139V128.773H179.168V137.642C179.168 138.388 178.99 139.006 178.634 139.494C178.277 139.983 177.791 140.348 177.173 140.591C176.556 140.833 175.855 140.955 175.071 140.955ZM175.088 135.761C175.524 135.761 175.895 135.655 176.202 135.443C176.509 135.231 176.741 134.926 176.901 134.528C177.06 134.131 177.139 133.653 177.139 133.097C177.139 132.547 177.06 132.066 176.901 131.653C176.745 131.241 176.514 130.92 176.207 130.693C175.904 130.462 175.531 130.347 175.088 130.347C174.63 130.347 174.247 130.466 173.94 130.705C173.634 130.943 173.402 131.271 173.247 131.688C173.092 132.1 173.014 132.57 173.014 133.097C173.014 133.631 173.092 134.098 173.247 134.5C173.406 134.898 173.639 135.208 173.946 135.432C174.257 135.652 174.637 135.761 175.088 135.761ZM183.787 137.676C183.234 137.676 182.736 137.578 182.293 137.381C181.853 137.18 181.505 136.884 181.247 136.494C180.993 136.104 180.866 135.623 180.866 135.051C180.866 134.559 180.957 134.152 181.139 133.83C181.321 133.508 181.569 133.25 181.884 133.057C182.198 132.864 182.552 132.718 182.946 132.619C183.344 132.517 183.755 132.443 184.179 132.398C184.69 132.345 185.105 132.297 185.423 132.256C185.741 132.21 185.973 132.142 186.116 132.051C186.264 131.956 186.338 131.811 186.338 131.614V131.58C186.338 131.152 186.211 130.82 185.957 130.585C185.704 130.35 185.338 130.233 184.861 130.233C184.357 130.233 183.957 130.343 183.662 130.562C183.37 130.782 183.173 131.042 183.071 131.341L181.151 131.068C181.302 130.538 181.552 130.095 181.901 129.739C182.249 129.379 182.675 129.11 183.179 128.932C183.683 128.75 184.24 128.659 184.849 128.659C185.27 128.659 185.688 128.708 186.105 128.807C186.522 128.905 186.902 129.068 187.247 129.295C187.592 129.519 187.868 129.824 188.077 130.21C188.289 130.597 188.395 131.08 188.395 131.659V137.5H186.418V136.301H186.349C186.224 136.544 186.048 136.771 185.821 136.983C185.598 137.191 185.315 137.36 184.974 137.489C184.637 137.614 184.241 137.676 183.787 137.676ZM184.321 136.165C184.734 136.165 185.092 136.083 185.395 135.92C185.698 135.754 185.931 135.534 186.094 135.261C186.26 134.989 186.344 134.691 186.344 134.369V133.341C186.279 133.394 186.17 133.443 186.014 133.489C185.863 133.534 185.692 133.574 185.503 133.608C185.313 133.642 185.126 133.672 184.94 133.699C184.755 133.725 184.594 133.748 184.457 133.767C184.151 133.809 183.876 133.877 183.634 133.972C183.391 134.066 183.2 134.199 183.06 134.369C182.92 134.536 182.849 134.752 182.849 135.017C182.849 135.396 182.988 135.682 183.264 135.875C183.541 136.068 183.893 136.165 184.321 136.165ZM194.259 140.955C193.52 140.955 192.885 140.854 192.355 140.653C191.825 140.456 191.399 140.191 191.077 139.858C190.755 139.525 190.531 139.155 190.406 138.75L192.259 138.301C192.342 138.472 192.463 138.64 192.622 138.807C192.781 138.977 192.995 139.117 193.264 139.227C193.537 139.341 193.88 139.398 194.293 139.398C194.876 139.398 195.359 139.256 195.741 138.972C196.124 138.691 196.315 138.229 196.315 137.585V135.932H196.213C196.107 136.144 195.952 136.362 195.747 136.585C195.546 136.809 195.279 136.996 194.946 137.148C194.616 137.299 194.202 137.375 193.702 137.375C193.031 137.375 192.423 137.218 191.878 136.903C191.336 136.585 190.904 136.112 190.582 135.483C190.264 134.85 190.105 134.059 190.105 133.108C190.105 132.15 190.264 131.341 190.582 130.682C190.904 130.019 191.338 129.517 191.884 129.176C192.429 128.831 193.037 128.659 193.707 128.659C194.219 128.659 194.639 128.746 194.969 128.92C195.302 129.091 195.567 129.297 195.764 129.54C195.961 129.778 196.111 130.004 196.213 130.216H196.327V128.773H198.355V137.642C198.355 138.388 198.177 139.006 197.821 139.494C197.465 139.983 196.978 140.348 196.361 140.591C195.743 140.833 195.043 140.955 194.259 140.955ZM194.276 135.761C194.711 135.761 195.082 135.655 195.389 135.443C195.696 135.231 195.929 134.926 196.088 134.528C196.247 134.131 196.327 133.653 196.327 133.097C196.327 132.547 196.247 132.066 196.088 131.653C195.933 131.241 195.702 130.92 195.395 130.693C195.092 130.462 194.719 130.347 194.276 130.347C193.817 130.347 193.435 130.466 193.128 130.705C192.821 130.943 192.59 131.271 192.435 131.688C192.279 132.1 192.202 132.57 192.202 133.097C192.202 133.631 192.279 134.098 192.435 134.5C192.594 134.898 192.827 135.208 193.134 135.432C193.444 135.652 193.825 135.761 194.276 135.761ZM204.327 137.67C203.452 137.67 202.696 137.489 202.06 137.125C201.427 136.758 200.94 136.239 200.599 135.568C200.259 134.894 200.088 134.1 200.088 133.188C200.088 132.29 200.259 131.502 200.599 130.824C200.944 130.142 201.425 129.612 202.043 129.233C202.66 128.85 203.385 128.659 204.219 128.659C204.757 128.659 205.264 128.746 205.741 128.92C206.223 129.091 206.647 129.356 207.014 129.716C207.385 130.076 207.677 130.534 207.889 131.091C208.101 131.644 208.207 132.303 208.207 133.068V133.699H201.054V132.312H206.236C206.232 131.919 206.147 131.568 205.98 131.261C205.813 130.951 205.58 130.706 205.281 130.528C204.986 130.35 204.641 130.261 204.247 130.261C203.827 130.261 203.457 130.364 203.139 130.568C202.821 130.769 202.573 131.034 202.395 131.364C202.221 131.689 202.132 132.047 202.128 132.438V133.648C202.128 134.155 202.221 134.591 202.406 134.955C202.592 135.314 202.851 135.591 203.185 135.784C203.518 135.973 203.908 136.068 204.355 136.068C204.654 136.068 204.925 136.027 205.168 135.943C205.41 135.856 205.62 135.729 205.798 135.562C205.976 135.396 206.111 135.189 206.202 134.943L208.122 135.159C208.001 135.667 207.77 136.11 207.429 136.489C207.092 136.864 206.66 137.155 206.134 137.364C205.607 137.568 205.005 137.67 204.327 137.67ZM215.195 140.773C214.914 140.773 214.655 140.75 214.416 140.705C214.181 140.663 213.994 140.614 213.854 140.557L214.331 138.955C214.63 139.042 214.897 139.083 215.132 139.08C215.367 139.076 215.573 139.002 215.751 138.858C215.933 138.718 216.087 138.483 216.212 138.153L216.388 137.682L213.223 128.773H215.405L217.416 135.364H217.507L219.524 128.773H221.712L218.217 138.557C218.054 139.019 217.839 139.415 217.57 139.744C217.301 140.078 216.971 140.331 216.581 140.506C216.195 140.684 215.732 140.773 215.195 140.773ZM226.645 137.67C225.793 137.67 225.054 137.483 224.429 137.108C223.804 136.733 223.319 136.208 222.974 135.534C222.634 134.86 222.463 134.072 222.463 133.17C222.463 132.269 222.634 131.479 222.974 130.801C223.319 130.123 223.804 129.597 224.429 129.222C225.054 128.847 225.793 128.659 226.645 128.659C227.497 128.659 228.236 128.847 228.861 129.222C229.486 129.597 229.969 130.123 230.31 130.801C230.654 131.479 230.827 132.269 230.827 133.17C230.827 134.072 230.654 134.86 230.31 135.534C229.969 136.208 229.486 136.733 228.861 137.108C228.236 137.483 227.497 137.67 226.645 137.67ZM226.656 136.023C227.118 136.023 227.505 135.896 227.815 135.642C228.126 135.384 228.357 135.04 228.509 134.608C228.664 134.176 228.741 133.695 228.741 133.165C228.741 132.631 228.664 132.148 228.509 131.716C228.357 131.28 228.126 130.934 227.815 130.676C227.505 130.419 227.118 130.29 226.656 130.29C226.183 130.29 225.789 130.419 225.474 130.676C225.164 130.934 224.931 131.28 224.776 131.716C224.624 132.148 224.548 132.631 224.548 133.165C224.548 133.695 224.624 134.176 224.776 134.608C224.931 135.04 225.164 135.384 225.474 135.642C225.789 135.896 226.183 136.023 226.656 136.023ZM238.135 133.83V128.773H240.192V137.5H238.197V135.949H238.107C237.91 136.437 237.586 136.837 237.135 137.148C236.688 137.458 236.137 137.614 235.482 137.614C234.91 137.614 234.404 137.487 233.964 137.233C233.529 136.975 233.188 136.602 232.942 136.114C232.696 135.621 232.572 135.027 232.572 134.33V128.773H234.629V134.011C234.629 134.564 234.781 135.004 235.084 135.33C235.387 135.655 235.785 135.818 236.277 135.818C236.58 135.818 236.874 135.744 237.158 135.597C237.442 135.449 237.675 135.229 237.857 134.938C238.042 134.642 238.135 134.273 238.135 133.83ZM242.307 137.5V128.773H244.301V130.227H244.392C244.551 129.723 244.824 129.335 245.21 129.062C245.6 128.786 246.045 128.648 246.545 128.648C246.659 128.648 246.786 128.653 246.926 128.665C247.07 128.672 247.189 128.686 247.284 128.705V130.597C247.197 130.566 247.059 130.54 246.869 130.517C246.684 130.491 246.504 130.477 246.33 130.477C245.955 130.477 245.617 130.559 245.318 130.722C245.023 130.881 244.79 131.102 244.619 131.386C244.449 131.67 244.364 131.998 244.364 132.369V137.5H242.307ZM256.426 137.67C255.555 137.67 254.807 137.479 254.182 137.097C253.561 136.714 253.081 136.186 252.744 135.511C252.411 134.833 252.244 134.053 252.244 133.17C252.244 132.284 252.415 131.502 252.756 130.824C253.097 130.142 253.578 129.612 254.199 129.233C254.824 128.85 255.563 128.659 256.415 128.659C257.123 128.659 257.75 128.79 258.295 129.051C258.845 129.309 259.282 129.674 259.608 130.148C259.934 130.617 260.119 131.167 260.165 131.795H258.199C258.119 131.375 257.93 131.025 257.631 130.744C257.335 130.46 256.939 130.318 256.443 130.318C256.023 130.318 255.653 130.432 255.335 130.659C255.017 130.883 254.769 131.205 254.591 131.625C254.417 132.045 254.33 132.549 254.33 133.136C254.33 133.731 254.417 134.242 254.591 134.67C254.765 135.095 255.009 135.422 255.324 135.653C255.642 135.881 256.015 135.994 256.443 135.994C256.746 135.994 257.017 135.937 257.256 135.824C257.498 135.706 257.701 135.538 257.864 135.318C258.027 135.098 258.138 134.831 258.199 134.517H260.165C260.116 135.134 259.934 135.682 259.619 136.159C259.305 136.633 258.877 137.004 258.335 137.273C257.794 137.538 257.157 137.67 256.426 137.67ZM267.416 133.83V128.773H269.473V137.5H267.479V135.949H267.388C267.191 136.437 266.867 136.837 266.416 137.148C265.969 137.458 265.418 137.614 264.763 137.614C264.191 137.614 263.685 137.487 263.246 137.233C262.81 136.975 262.469 136.602 262.223 136.114C261.977 135.621 261.854 135.027 261.854 134.33V128.773H263.911V134.011C263.911 134.564 264.062 135.004 264.365 135.33C264.668 135.655 265.066 135.818 265.558 135.818C265.861 135.818 266.155 135.744 266.439 135.597C266.723 135.449 266.956 135.229 267.138 134.938C267.323 134.642 267.416 134.273 267.416 133.83ZM278.486 131.08L276.611 131.284C276.558 131.095 276.465 130.917 276.332 130.75C276.204 130.583 276.029 130.449 275.81 130.347C275.59 130.244 275.321 130.193 275.003 130.193C274.575 130.193 274.215 130.286 273.923 130.472C273.635 130.657 273.493 130.898 273.497 131.193C273.493 131.447 273.586 131.653 273.776 131.812C273.969 131.972 274.287 132.102 274.73 132.205L276.219 132.523C277.045 132.701 277.658 132.983 278.06 133.369C278.465 133.756 278.67 134.261 278.673 134.886C278.67 135.436 278.509 135.92 278.19 136.341C277.876 136.758 277.438 137.083 276.878 137.318C276.317 137.553 275.673 137.67 274.946 137.67C273.878 137.67 273.018 137.447 272.366 137C271.715 136.549 271.327 135.922 271.202 135.119L273.207 134.926C273.298 135.32 273.491 135.617 273.787 135.818C274.082 136.019 274.467 136.119 274.94 136.119C275.429 136.119 275.821 136.019 276.116 135.818C276.416 135.617 276.565 135.369 276.565 135.074C276.565 134.824 276.469 134.617 276.276 134.455C276.086 134.292 275.791 134.167 275.389 134.08L273.901 133.767C273.063 133.593 272.444 133.299 272.043 132.886C271.641 132.47 271.442 131.943 271.446 131.307C271.442 130.769 271.588 130.303 271.884 129.909C272.183 129.511 272.598 129.205 273.128 128.989C273.662 128.769 274.277 128.659 274.974 128.659C275.997 128.659 276.802 128.877 277.389 129.312C277.98 129.748 278.346 130.337 278.486 131.08ZM284.727 128.773V130.364H279.71V128.773H284.727ZM280.949 126.682H283.006V134.875C283.006 135.152 283.047 135.364 283.131 135.511C283.218 135.655 283.331 135.754 283.472 135.807C283.612 135.86 283.767 135.886 283.938 135.886C284.066 135.886 284.184 135.877 284.29 135.858C284.4 135.839 284.483 135.822 284.54 135.807L284.886 137.415C284.777 137.453 284.619 137.494 284.415 137.54C284.214 137.585 283.968 137.612 283.676 137.619C283.161 137.634 282.697 137.557 282.284 137.386C281.871 137.212 281.544 136.943 281.301 136.58C281.063 136.216 280.945 135.761 280.949 135.216V126.682ZM290.161 137.67C289.308 137.67 288.57 137.483 287.945 137.108C287.32 136.733 286.835 136.208 286.49 135.534C286.149 134.86 285.979 134.072 285.979 133.17C285.979 132.269 286.149 131.479 286.49 130.801C286.835 130.123 287.32 129.597 287.945 129.222C288.57 128.847 289.308 128.659 290.161 128.659C291.013 128.659 291.751 128.847 292.376 129.222C293.001 129.597 293.484 130.123 293.825 130.801C294.17 131.479 294.342 132.269 294.342 133.17C294.342 134.072 294.17 134.86 293.825 135.534C293.484 136.208 293.001 136.733 292.376 137.108C291.751 137.483 291.013 137.67 290.161 137.67ZM290.172 136.023C290.634 136.023 291.02 135.896 291.331 135.642C291.642 135.384 291.873 135.04 292.024 134.608C292.179 134.176 292.257 133.695 292.257 133.165C292.257 132.631 292.179 132.148 292.024 131.716C291.873 131.28 291.642 130.934 291.331 130.676C291.02 130.419 290.634 130.29 290.172 130.29C289.698 130.29 289.304 130.419 288.99 130.676C288.679 130.934 288.446 131.28 288.291 131.716C288.14 132.148 288.064 132.631 288.064 133.165C288.064 133.695 288.14 134.176 288.291 134.608C288.446 135.04 288.679 135.384 288.99 135.642C289.304 135.896 289.698 136.023 290.172 136.023ZM296.088 137.5V128.773H298.054V130.256H298.156C298.338 129.756 298.639 129.366 299.06 129.085C299.48 128.801 299.982 128.659 300.565 128.659C301.156 128.659 301.654 128.803 302.06 129.091C302.469 129.375 302.757 129.763 302.923 130.256H303.014C303.207 129.771 303.533 129.384 303.991 129.097C304.454 128.805 305.001 128.659 305.634 128.659C306.437 128.659 307.092 128.913 307.599 129.42C308.107 129.928 308.361 130.669 308.361 131.642V137.5H306.298V131.96C306.298 131.419 306.154 131.023 305.866 130.773C305.579 130.519 305.226 130.392 304.81 130.392C304.313 130.392 303.925 130.547 303.645 130.858C303.368 131.165 303.23 131.564 303.23 132.057V137.5H301.213V131.875C301.213 131.424 301.077 131.064 300.804 130.795C300.535 130.527 300.183 130.392 299.747 130.392C299.452 130.392 299.183 130.468 298.94 130.619C298.698 130.767 298.505 130.977 298.361 131.25C298.217 131.519 298.145 131.833 298.145 132.193V137.5H296.088ZM314.311 137.67C313.436 137.67 312.68 137.489 312.044 137.125C311.411 136.758 310.925 136.239 310.584 135.568C310.243 134.894 310.072 134.1 310.072 133.188C310.072 132.29 310.243 131.502 310.584 130.824C310.929 130.142 311.41 129.612 312.027 129.233C312.644 128.85 313.37 128.659 314.203 128.659C314.741 128.659 315.249 128.746 315.726 128.92C316.207 129.091 316.631 129.356 316.999 129.716C317.37 130.076 317.661 130.534 317.874 131.091C318.086 131.644 318.192 132.303 318.192 133.068V133.699H311.038V132.312H316.22C316.216 131.919 316.131 131.568 315.964 131.261C315.798 130.951 315.565 130.706 315.266 130.528C314.97 130.35 314.625 130.261 314.232 130.261C313.811 130.261 313.442 130.364 313.124 130.568C312.805 130.769 312.557 131.034 312.379 131.364C312.205 131.689 312.116 132.047 312.112 132.438V133.648C312.112 134.155 312.205 134.591 312.391 134.955C312.576 135.314 312.836 135.591 313.169 135.784C313.502 135.973 313.893 136.068 314.339 136.068C314.639 136.068 314.91 136.027 315.152 135.943C315.394 135.856 315.605 135.729 315.783 135.562C315.961 135.396 316.095 135.189 316.186 134.943L318.107 135.159C317.985 135.667 317.754 136.11 317.413 136.489C317.076 136.864 316.644 137.155 316.118 137.364C315.591 137.568 314.989 137.67 314.311 137.67ZM319.932 137.5V128.773H321.926V130.227H322.017C322.176 129.723 322.449 129.335 322.835 129.062C323.225 128.786 323.67 128.648 324.17 128.648C324.284 128.648 324.411 128.653 324.551 128.665C324.695 128.672 324.814 128.686 324.909 128.705V130.597C324.822 130.566 324.684 130.54 324.494 130.517C324.309 130.491 324.129 130.477 323.955 130.477C323.58 130.477 323.242 130.559 322.943 130.722C322.648 130.881 322.415 131.102 322.244 131.386C322.074 131.67 321.989 131.998 321.989 132.369V137.5H319.932ZM333.173 131.08L331.298 131.284C331.245 131.095 331.152 130.917 331.02 130.75C330.891 130.583 330.717 130.449 330.497 130.347C330.277 130.244 330.009 130.193 329.69 130.193C329.262 130.193 328.902 130.286 328.611 130.472C328.323 130.657 328.181 130.898 328.185 131.193C328.181 131.447 328.274 131.653 328.463 131.812C328.656 131.972 328.974 132.102 329.418 132.205L330.906 132.523C331.732 132.701 332.346 132.983 332.747 133.369C333.152 133.756 333.357 134.261 333.361 134.886C333.357 135.436 333.196 135.92 332.878 136.341C332.563 136.758 332.126 137.083 331.565 137.318C331.005 137.553 330.361 137.67 329.634 137.67C328.565 137.67 327.705 137.447 327.054 137C326.402 136.549 326.014 135.922 325.889 135.119L327.895 134.926C327.986 135.32 328.179 135.617 328.474 135.818C328.77 136.019 329.154 136.119 329.628 136.119C330.116 136.119 330.509 136.019 330.804 135.818C331.103 135.617 331.253 135.369 331.253 135.074C331.253 134.824 331.156 134.617 330.963 134.455C330.774 134.292 330.478 134.167 330.077 134.08L328.588 133.767C327.751 133.593 327.132 133.299 326.73 132.886C326.329 132.47 326.13 131.943 326.134 131.307C326.13 130.769 326.276 130.303 326.571 129.909C326.87 129.511 327.285 129.205 327.815 128.989C328.349 128.769 328.965 128.659 329.662 128.659C330.685 128.659 331.49 128.877 332.077 129.312C332.668 129.748 333.033 130.337 333.173 131.08Z" fill="#4B5563"/>
</g>
<defs>
<clipPath id="clip0_4838_87238">
<rect width="334" height="143" fill="white" transform="translate(0 0.5)"/>
</clipPath>
</defs>
</svg>
