<svg width="18" height="18" viewBox="0 0 18 18" fill="none" xmlns="http://www.w3.org/2000/svg">
<path fill-rule="evenodd" clip-rule="evenodd" d="M9 1.6875C4.96125 1.6875 1.6875 4.96125 1.6875 9C1.6875 13.0387 4.96125 16.3125 9 16.3125C13.0387 16.3125 16.3125 13.0387 16.3125 9C16.3125 4.96125 13.0387 1.6875 9 1.6875ZM7.71 6.915C7.6585 6.85974 7.5964 6.81541 7.5274 6.78466C7.4584 6.75392 7.38392 6.73739 7.30839 6.73606C7.23286 6.73472 7.15784 6.74862 7.0878 6.77691C7.01776 6.8052 6.95414 6.84731 6.90072 6.90072C6.84731 6.95414 6.8052 7.01776 6.77691 7.0878C6.74862 7.15784 6.73472 7.23286 6.73606 7.30839C6.73739 7.38392 6.75392 7.4584 6.78466 7.5274C6.81541 7.5964 6.85974 7.6585 6.915 7.71L8.205 9L6.915 10.29C6.85974 10.3415 6.81541 10.4036 6.78466 10.4726C6.75392 10.5416 6.73739 10.6161 6.73606 10.6916C6.73472 10.7671 6.74862 10.8422 6.77691 10.9122C6.8052 10.9822 6.84731 11.0459 6.90072 11.0993C6.95414 11.1527 7.01776 11.1948 7.0878 11.2231C7.15784 11.2514 7.23286 11.2653 7.30839 11.2639C7.38392 11.2626 7.4584 11.2461 7.5274 11.2153C7.5964 11.1846 7.6585 11.1403 7.71 11.085L9 9.795L10.29 11.085C10.3415 11.1403 10.4036 11.1846 10.4726 11.2153C10.5416 11.2461 10.6161 11.2626 10.6916 11.2639C10.7671 11.2653 10.8422 11.2514 10.9122 11.2231C10.9822 11.1948 11.0459 11.1527 11.0993 11.0993C11.1527 11.0459 11.1948 10.9822 11.2231 10.9122C11.2514 10.8422 11.2653 10.7671 11.2639 10.6916C11.2626 10.6161 11.2461 10.5416 11.2153 10.4726C11.1846 10.4036 11.1403 10.3415 11.085 10.29L9.795 9L11.085 7.71C11.1403 7.6585 11.1846 7.5964 11.2153 7.5274C11.2461 7.4584 11.2626 7.38392 11.2639 7.30839C11.2653 7.23286 11.2514 7.15784 11.2231 7.0878C11.1948 7.01776 11.1527 6.95414 11.0993 6.90072C11.0459 6.84731 10.9822 6.8052 10.9122 6.77691C10.8422 6.74862 10.7671 6.73472 10.6916 6.73606C10.6161 6.73739 10.5416 6.75392 10.4726 6.78466C10.4036 6.81541 10.3415 6.85974 10.29 6.915L9 8.205L7.71 6.915Z" fill="#4B5563"/>
</svg>
