<svg width="20" height="20" viewBox="0 0 20 20" fill="none" xmlns="http://www.w3.org/2000/svg">
<path fill-rule="evenodd" clip-rule="evenodd" d="M19.5999 9.9999C19.5999 15.3018 15.3018 19.5999 9.9999 19.5999C4.69797 19.5999 0.399902 15.3018 0.399902 9.9999C0.399902 4.69797 4.69797 0.399902 9.9999 0.399902C15.3018 0.399902 19.5999 4.69797 19.5999 9.9999ZM12.3999 6.3999C12.3999 7.72539 11.3254 8.7999 9.9999 8.7999C8.67442 8.7999 7.5999 7.72539 7.5999 6.3999C7.5999 5.07442 8.67442 3.9999 9.9999 3.9999C11.3254 3.9999 12.3999 5.07442 12.3999 6.3999ZM9.99982 11.1999C7.57877 11.1999 5.49264 12.6338 4.54438 14.6988C5.86474 16.2303 7.81908 17.1999 9.99988 17.1999C12.1806 17.1999 14.1349 16.2304 15.4553 14.6989C14.5071 12.6339 12.4209 11.1999 9.99982 11.1999Z" fill="#28282E"/>
</svg>
