<svg width="20" height="20" viewBox="0 0 20 20" fill="none" xmlns="http://www.w3.org/2000/svg">
<path fill-rule="evenodd" clip-rule="evenodd" d="M9.9999 19.5999C15.3018 19.5999 19.5999 15.3018 19.5999 9.9999C19.5999 4.69797 15.3018 0.399902 9.9999 0.399902C4.69797 0.399902 0.399902 4.69797 0.399902 9.9999C0.399902 15.3018 4.69797 19.5999 9.9999 19.5999ZM10.9999 5.1999C10.9999 4.64762 10.5522 4.1999 9.9999 4.1999C9.44762 4.1999 8.9999 4.64762 8.9999 5.1999V9.9999C8.9999 10.2651 9.10526 10.5195 9.2928 10.707L12.6869 14.1011C13.0774 14.4916 13.7106 14.4916 14.1011 14.1011C14.4916 13.7106 14.4916 13.0774 14.1011 12.6869L10.9999 9.58569V5.1999Z" fill="#111827"/>
</svg>
