<svg width="51" height="50" viewBox="0 0 51 50" fill="none" xmlns="http://www.w3.org/2000/svg">
<path d="M50.1494 19.7908L50.0807 19.6041L43.1395 1.17118C42.9991 0.809244 42.7491 0.502212 42.4258 0.29453C42.1846 0.137322 41.9105 0.0398345 41.6256 0.00987764C41.3407 -0.0200793 41.0529 0.0183296 40.7852 0.122025C40.5175 0.22572 40.2774 0.391818 40.0842 0.607005C39.8909 0.822193 39.7498 1.08048 39.6723 1.36118L34.987 15.9642H16.0134L11.3282 1.36118C11.25 1.0809 11.1086 0.823098 10.9153 0.608323C10.7219 0.393547 10.4819 0.227744 10.2144 0.124133C9.94695 0.0205224 9.6594 -0.0180284 9.3747 0.0115561C9.09 0.0411405 8.81604 0.13804 8.57464 0.29453C8.25136 0.502212 8.00137 0.809244 7.86088 1.17118L0.923017 19.6075L0.850986 19.7908C-0.147863 22.4484 -0.270918 25.3646 0.500373 28.0997C1.27166 30.8347 2.89549 33.2404 5.12699 34.9538L5.15319 34.9738L5.21212 35.0205L15.7712 43.077L21.0098 47.1069L24.1922 49.5569C24.5656 49.844 25.0208 49.9994 25.4888 49.9994C25.9567 49.9994 26.4119 49.844 26.7853 49.5569L29.9678 47.1069L35.2063 43.077L45.8407 34.9738L45.8702 34.9505C48.1015 33.2377 49.7256 30.8328 50.4974 28.0984C51.2693 25.3641 51.1472 22.4483 50.1494 19.7908Z" fill="#E24329"/>
<path d="M50.1493 19.7902L50.0805 19.6035C46.6986 20.31 43.5121 21.7693 40.7493 23.8768L25.5082 35.6098L35.2127 43.0764L45.8471 34.9732L45.8765 34.9499C48.1068 33.2362 49.7295 30.8309 50.5001 28.0966C51.2708 25.3623 51.1477 22.447 50.1493 19.7902Z" fill="#FC6D26"/>
<path d="M15.771 43.0778L21.0096 47.1078L24.192 49.5577C24.5654 49.8449 25.0206 50.0002 25.4886 50.0002C25.9565 50.0002 26.4117 49.8449 26.7851 49.5577L29.9676 47.1078L35.2062 43.0778L25.5017 35.6113L15.771 43.0778Z" fill="#FCA326"/>
<path d="M10.251 23.8773C7.48913 21.7709 4.30367 20.3128 0.923017 19.6074L0.850986 19.7907C-0.147863 22.4484 -0.270918 25.3646 0.500373 28.0996C1.27166 30.8347 2.89549 33.2403 5.12699 34.9538L5.15319 34.9738L5.21212 35.0204L15.7712 43.0769L25.4822 35.6104L10.251 23.8773Z" fill="#FC6D26"/>
</svg>
