<svg width="28" height="28" viewBox="0 0 28 28" fill="none" xmlns="http://www.w3.org/2000/svg">
<path d="M12.6602 1.4812C15.3888 1.1662 18.2098 1.8074 20.5464 3.2466C22.7864 4.6158 24.5812 6.6976 25.6032 9.1168C26.6868 11.6564 26.894 14.5572 26.1772 17.2242C25.3106 20.4946 23.072 23.3744 20.1152 25.018C17.7296 26.3536 14.896 26.8618 12.1926 26.4656C9.91482 26.1408 7.73782 25.1636 5.97102 23.6908C3.96482 22.0276 2.48502 19.7316 1.82142 17.2088C1.02482 14.2422 1.36782 10.9844 2.78602 8.2572C4.67602 4.5388 8.51062 1.9082 12.6602 1.4812ZM13.202 3.1388C11.025 3.2998 8.90402 4.1356 7.20302 5.5062C5.47262 6.8894 4.17342 8.80879 3.55182 10.9382C2.87282 13.2314 2.97222 15.7514 3.85422 17.9774C4.76422 20.3084 6.50582 22.2992 8.68842 23.5228C10.745 24.6904 13.1936 25.151 15.533 24.8038C17.5924 24.5154 19.5622 23.6194 21.1302 22.253C22.9264 20.7018 24.2032 18.5556 24.6806 16.2288C25.1104 14.2366 24.9438 12.1268 24.2256 10.2214C23.3632 7.9072 21.686 5.9108 19.5636 4.6494C17.6638 3.5126 15.4112 2.9722 13.202 3.1388Z" fill="white"/>
<path d="M16.8252 8.42099C16.9372 7.98419 17.4524 7.71119 17.8724 7.89319C18.1706 7.98979 18.333 8.27679 18.4254 8.55679C19.0372 10.269 19.6546 11.9798 20.272 13.6906C21.028 13.7172 21.7896 13.636 22.54 13.7326C23.0846 13.874 23.2442 14.6244 22.8648 15.0136C22.617 15.3202 22.1928 15.2852 21.84 15.2908C21.0924 15.2726 20.3434 15.3104 19.5972 15.274C19.2584 15.2684 18.9952 14.9996 18.9042 14.6902C18.48 13.5562 18.0936 12.4082 17.6568 11.2784C17.5896 11.4604 17.5056 11.6368 17.4398 11.8202C16.6558 14.3472 15.8564 16.8686 15.0626 19.3928C14.9576 19.845 14.4606 20.167 14.0084 20.0102C13.7326 19.9402 13.5702 19.6868 13.4638 19.4418C12.4852 17.2368 11.508 15.0304 10.5252 12.8268C10.0128 13.5618 9.54802 14.329 9.01602 15.05C8.76962 15.3692 8.32722 15.3062 7.97302 15.3188C7.17782 15.302 6.38402 15.3328 5.58882 15.3076C5.17862 15.3216 4.80762 14.9702 4.78662 14.5628C4.74042 14.1106 5.13802 13.6766 5.59442 13.6976C6.39662 13.6752 7.20022 13.7004 8.00382 13.692C8.67442 12.6966 9.32402 11.6858 10.0002 10.6946C10.311 10.1584 11.2196 10.2256 11.4254 10.8192C12.3368 12.8562 13.2314 14.9002 14.14 16.9372C15.0374 14.0994 15.9194 11.256 16.8252 8.42099Z" fill="white"/>
</svg>
