<svg width="28" height="28" viewBox="0 0 28 28" fill="none" xmlns="http://www.w3.org/2000/svg">
<path d="M6.53329 23.3042C5.58051 23.3042 4.76871 22.9688 4.09787 22.2979C3.42704 21.6271 3.09163 20.8153 3.09163 19.8625H1.16663V6.41667C1.16663 5.95 1.34163 5.54167 1.69163 5.19167C2.04163 4.84167 2.44996 4.66667 2.91663 4.66667H19.8041V9.5375H22.8666L26.8333 14.8167V19.8625H24.7624C24.7624 20.8153 24.427 21.6271 23.7562 22.2979C23.0854 22.9688 22.2736 23.3042 21.3208 23.3042C20.368 23.3042 19.5562 22.9688 18.8854 22.2979C18.2145 21.6271 17.8791 20.8153 17.8791 19.8625H9.97496C9.97496 20.8153 9.63954 21.6271 8.96871 22.2979C8.29787 22.9688 7.48607 23.3042 6.53329 23.3042ZM6.53329 21.5542C6.99996 21.5542 7.39857 21.3889 7.72912 21.0583C8.05968 20.7278 8.22496 20.3292 8.22496 19.8625C8.22496 19.3958 8.05968 18.9972 7.72912 18.6667C7.39857 18.3361 6.99996 18.1708 6.53329 18.1708C6.06662 18.1708 5.66801 18.3361 5.33746 18.6667C5.0069 18.9972 4.84162 19.3958 4.84162 19.8625C4.84162 20.3292 5.0069 20.7278 5.33746 21.0583C5.66801 21.3889 6.06662 21.5542 6.53329 21.5542ZM2.91663 18.1125H3.55829C3.88885 17.5875 4.3069 17.1695 4.81246 16.8583C5.31801 16.5472 5.8819 16.3917 6.50412 16.3917C7.12635 16.3917 7.6951 16.5521 8.21037 16.8729C8.72565 17.1938 9.14857 17.607 9.47912 18.1125H18.0541V6.41667H2.91663V18.1125ZM21.3208 21.5542C21.7874 21.5542 22.1861 21.3889 22.5166 21.0583C22.8472 20.7278 23.0124 20.3292 23.0124 19.8625C23.0124 19.3958 22.8472 18.9972 22.5166 18.6667C22.1861 18.3361 21.7874 18.1708 21.3208 18.1708C20.8541 18.1708 20.4555 18.3361 20.125 18.6667C19.7944 18.9972 19.6291 19.3958 19.6291 19.8625C19.6291 20.3292 19.7944 20.7278 20.125 21.0583C20.4555 21.3889 20.8541 21.5542 21.3208 21.5542ZM19.8041 15.6042H25.2291L21.9916 11.2875H19.8041V15.6042Z" fill="white"/>
</svg>
