<svg width="28" height="28" viewBox="0 0 28 28" fill="none" xmlns="http://www.w3.org/2000/svg">
<path d="M21.5468 15.0573V13.176H26.25V15.0573H21.5468ZM23.1146 24.15L19.3207 21.3281L20.4494 19.8231L24.2433 22.645L23.1146 24.15ZM20.5435 8.37885L19.4148 6.87385L23.1146 4.08333L24.2433 5.58833L20.5435 8.37885ZM5.24267 22.8958V17.8792H3.04788C2.52531 17.8792 2.08112 17.6963 1.71532 17.3305C1.34953 16.9647 1.16663 16.5205 1.16663 15.9979V12.2354C1.16663 11.7128 1.34953 11.2687 1.71532 10.9029C2.08112 10.5371 2.52531 10.3542 3.04788 10.3542H8.69163L14.9625 6.59166V21.6417L8.69163 17.8792H7.12392V22.8958H5.24267ZM16.2166 18.3181V9.9152C16.781 10.4169 17.2356 11.0283 17.5805 11.7494C17.9254 12.4706 18.0979 13.2596 18.0979 14.1167C18.0979 14.9737 17.9254 15.7627 17.5805 16.4839C17.2356 17.205 16.781 17.8164 16.2166 18.3181ZM3.04788 12.2354V15.9979H9.1933L13.0812 18.3181V9.9152L9.1933 12.2354H3.04788Z" fill="white"/>
</svg>
