<svg width="28" height="28" viewBox="0 0 28 28" fill="none" xmlns="http://www.w3.org/2000/svg">
<path d="M11.3167 25.6667L10.7334 21.9917C10.3639 21.8555 9.97504 21.6708 9.56671 21.4375C9.15837 21.2041 8.79865 20.9611 8.48754 20.7083L5.04587 22.2833L2.33337 17.5L5.48337 15.1958C5.44449 15.0208 5.42018 14.8215 5.41046 14.5979C5.40074 14.3743 5.39587 14.175 5.39587 14C5.39587 13.825 5.40074 13.6257 5.41046 13.4021C5.42018 13.1785 5.44449 12.9791 5.48337 12.8041L2.33337 10.5L5.04587 5.71665L8.48754 7.29165C8.79865 7.03887 9.15837 6.79581 9.56671 6.56248C9.97504 6.32915 10.3639 6.15415 10.7334 6.03748L11.3167 2.33331H16.6834L17.2667 6.00831C17.6362 6.14442 18.0299 6.32429 18.448 6.5479C18.866 6.77151 19.2209 7.01942 19.5125 7.29165L22.9542 5.71665L25.6667 10.5L22.5167 12.7458C22.5556 12.9403 22.5799 13.1493 22.5896 13.3729C22.5993 13.5965 22.6042 13.8055 22.6042 14C22.6042 14.1944 22.5993 14.3986 22.5896 14.6125C22.5799 14.8264 22.5556 15.0305 22.5167 15.225L25.6667 17.5L22.9542 22.2833L19.5125 20.7083C19.2014 20.9611 18.8466 21.209 18.448 21.4521C18.0493 21.6951 17.6556 21.875 17.2667 21.9917L16.6834 25.6667H11.3167ZM14 17.7916C15.05 17.7916 15.9445 17.4222 16.6834 16.6833C17.4223 15.9444 17.7917 15.05 17.7917 14C17.7917 12.95 17.4223 12.0555 16.6834 11.3166C15.9445 10.5778 15.05 10.2083 14 10.2083C12.95 10.2083 12.0556 10.5778 11.3167 11.3166C10.5778 12.0555 10.2084 12.95 10.2084 14C10.2084 15.05 10.5778 15.9444 11.3167 16.6833C12.0556 17.4222 12.95 17.7916 14 17.7916ZM14 16.0416C13.4362 16.0416 12.9549 15.8423 12.5563 15.4437C12.1577 15.0451 11.9584 14.5639 11.9584 14C11.9584 13.4361 12.1577 12.9548 12.5563 12.5562C12.9549 12.1576 13.4362 11.9583 14 11.9583C14.5639 11.9583 15.0452 12.1576 15.4438 12.5562C15.8424 12.9548 16.0417 13.4361 16.0417 14C16.0417 14.5639 15.8424 15.0451 15.4438 15.4437C15.0452 15.8423 14.5639 16.0416 14 16.0416ZM12.7167 23.9166H15.2834L15.6917 20.65C16.3334 20.4944 16.941 20.2514 17.5146 19.9208C18.0882 19.5903 18.6084 19.1916 19.075 18.725L22.1667 20.0667L23.3334 17.9666L20.5917 15.9541C20.6695 15.6236 20.7327 15.2979 20.7813 14.9771C20.8299 14.6562 20.8542 14.3305 20.8542 14C20.8542 13.6694 20.8348 13.3437 20.7959 13.0229C20.757 12.7021 20.6889 12.3764 20.5917 12.0458L23.3334 10.0333L22.1667 7.93331L19.075 9.27498C18.6278 8.76942 18.1223 8.34651 17.5584 8.00623C16.9945 7.66595 16.3723 7.4472 15.6917 7.34998L15.2834 4.08331H12.7167L12.3084 7.34998C11.6473 7.48609 11.0299 7.71943 10.4563 8.04998C9.88268 8.38054 9.37226 8.78887 8.92504 9.27498L5.83337 7.93331L4.66671 10.0333L7.40837 12.0458C7.3306 12.3764 7.2674 12.7021 7.21879 13.0229C7.17018 13.3437 7.14587 13.6694 7.14587 14C7.14587 14.3305 7.17018 14.6562 7.21879 14.9771C7.2674 15.2979 7.3306 15.6236 7.40837 15.9541L4.66671 17.9666L5.83337 20.0667L8.92504 18.725C9.39171 19.1916 9.91185 19.5903 10.4855 19.9208C11.0591 20.2514 11.6667 20.4944 12.3084 20.65L12.7167 23.9166Z" fill="white"/>
</svg>
