<svg width="28" height="28" viewBox="0 0 28 28" fill="none" xmlns="http://www.w3.org/2000/svg">
<path d="M5.77504 19.8917C4.60837 18.7639 3.7431 17.4708 3.17921 16.0125C2.61532 14.5542 2.33337 13.1056 2.33337 11.6667C2.33337 10.2278 2.61532 8.77916 3.17921 7.32083C3.7431 5.8625 4.60837 4.56944 5.77504 3.44167L6.79587 4.4625C5.82365 5.41528 5.0799 6.54791 4.56462 7.86041C4.04935 9.17291 3.79171 10.4417 3.79171 11.6667C3.79171 12.8917 4.04935 14.1604 4.56462 15.4729C5.0799 16.7854 5.82365 17.9181 6.79587 18.8708L5.77504 19.8917ZM8.45837 17.2083C7.6806 16.4889 7.10699 15.6187 6.73754 14.5979C6.3681 13.5771 6.18337 12.6 6.18337 11.6667C6.18337 10.7333 6.3681 9.75625 6.73754 8.73541C7.10699 7.71458 7.6806 6.84444 8.45837 6.125L9.47921 7.14583C8.91532 7.70972 8.4681 8.41458 8.13754 9.26041C7.80699 10.1062 7.64171 10.9083 7.64171 11.6667C7.64171 12.3472 7.81185 13.1201 8.15212 13.9854C8.4924 14.8507 8.93476 15.5847 9.47921 16.1875L8.45837 17.2083ZM8.57504 25.6667L12.4542 13.8542C12.1237 13.6208 11.8563 13.3194 11.6521 12.95C11.448 12.5806 11.3459 12.1528 11.3459 11.6667C11.3459 10.9278 11.6035 10.3007 12.1188 9.78541C12.6341 9.27014 13.2612 9.0125 14 9.0125C14.7389 9.0125 15.366 9.27014 15.8813 9.78541C16.3966 10.3007 16.6542 10.9278 16.6542 11.6667C16.6542 12.1528 16.5521 12.5806 16.348 12.95C16.1438 13.3194 15.8764 13.6208 15.5459 13.8542L19.425 25.6667H17.7042L16.8584 23.0417H11.1709L10.2959 25.6667H8.57504ZM11.725 21.2917H16.275L14 14.35L11.725 21.2917ZM19.5417 17.2083L18.5209 16.1875C19.0848 15.6236 19.532 14.9187 19.8625 14.0729C20.1931 13.2271 20.3584 12.425 20.3584 11.6667C20.3584 10.9861 20.1882 10.2132 19.848 9.34791C19.5077 8.48264 19.0653 7.74861 18.5209 7.14583L19.5417 6.125C20.3 6.84444 20.8688 7.71458 21.248 8.73541C21.6271 9.75625 21.8167 10.7333 21.8167 11.6667C21.8167 12.5806 21.6271 13.5528 21.248 14.5833C20.8688 15.6139 20.3 16.4889 19.5417 17.2083ZM22.225 19.8917L21.2042 18.8708C22.157 17.9181 22.8959 16.7854 23.4209 15.4729C23.9459 14.1604 24.2084 12.8917 24.2084 11.6667C24.2084 10.4417 23.9459 9.17291 23.4209 7.86041C22.8959 6.54791 22.157 5.41528 21.2042 4.4625L22.225 3.44167C23.3917 4.56944 24.257 5.8625 24.8209 7.32083C25.3848 8.77916 25.6667 10.2278 25.6667 11.6667C25.6667 13.125 25.3993 14.5785 24.8646 16.0271C24.3299 17.4757 23.45 18.7639 22.225 19.8917Z" fill="white"/>
</svg>
