<svg width="28" height="28" viewBox="0 0 28 28" fill="none" xmlns="http://www.w3.org/2000/svg">
<path d="M14 12.8333C10.8694 12.8333 8.33681 12.3569 6.40208 11.4042C4.46736 10.4514 3.5 9.37222 3.5 8.16667C3.5 6.94167 4.46736 5.85764 6.40208 4.91458C8.33681 3.97153 10.8694 3.5 14 3.5C17.1306 3.5 19.6632 3.97153 21.5979 4.91458C23.5326 5.85764 24.5 6.94167 24.5 8.16667C24.5 9.37222 23.5326 10.4514 21.5979 11.4042C19.6632 12.3569 17.1306 12.8333 14 12.8333ZM14 18.6667C11.1611 18.6667 8.70139 18.2389 6.62083 17.3833C4.54028 16.5278 3.5 15.4972 3.5 14.2917V11.375C3.5 12.1333 3.86458 12.7896 4.59375 13.3438C5.32292 13.8979 6.22708 14.3549 7.30625 14.7146C8.38542 15.0743 9.53264 15.3368 10.7479 15.5021C11.9632 15.6674 13.0472 15.75 14 15.75C14.9722 15.75 16.0611 15.6674 17.2667 15.5021C18.4722 15.3368 19.6146 15.0792 20.6937 14.7292C21.7729 14.3792 22.6771 13.9271 23.4062 13.3729C24.1354 12.8187 24.5 12.1528 24.5 11.375V14.2917C24.5 15.4972 23.4597 16.5278 21.3792 17.3833C19.2986 18.2389 16.8389 18.6667 14 18.6667ZM14 24.5C11.1611 24.5 8.70139 24.0722 6.62083 23.2167C4.54028 22.3611 3.5 21.3306 3.5 20.125V17.2083C3.5 17.9667 3.86458 18.6229 4.59375 19.1771C5.32292 19.7312 6.22708 20.1882 7.30625 20.5479C8.38542 20.9076 9.53264 21.1701 10.7479 21.3354C11.9632 21.5007 13.0472 21.5833 14 21.5833C14.9722 21.5833 16.0611 21.5007 17.2667 21.3354C18.4722 21.1701 19.6146 20.9125 20.6937 20.5625C21.7729 20.2125 22.6771 19.7604 23.4062 19.2062C24.1354 18.6521 24.5 17.9861 24.5 17.2083V20.125C24.5 21.3306 23.4597 22.3611 21.3792 23.2167C19.2986 24.0722 16.8389 24.5 14 24.5Z" fill="white"/>
</svg>
