<svg width="28" height="28" viewBox="0 0 28 28" fill="none" xmlns="http://www.w3.org/2000/svg">
<path d="M8.75 22.1375C8.28333 22.1375 7.875 21.9625 7.525 21.6125C7.175 21.2625 7 20.8542 7 20.3875V4.05417C7 3.5875 7.175 3.17917 7.525 2.82917C7.875 2.47917 8.28333 2.30417 8.75 2.30417H21.5833C22.05 2.30417 22.4583 2.47917 22.8083 2.82917C23.1583 3.17917 23.3333 3.5875 23.3333 4.05417V20.3875C23.3333 20.8542 23.1583 21.2625 22.8083 21.6125C22.4583 21.9625 22.05 22.1375 21.5833 22.1375H8.75ZM8.75 20.3875H21.5833V4.05417H8.75V20.3875ZM5.25 25.6375C4.78333 25.6375 4.375 25.4625 4.025 25.1125C3.675 24.7625 3.5 24.3542 3.5 23.8875V6.3H5.25V23.8875H19.075V25.6375H5.25ZM8.75 4.05417V20.3875V4.05417Z" fill="white"/>
</svg>
