<svg width="28" height="28" viewBox="0 0 28 28" fill="none" xmlns="http://www.w3.org/2000/svg">
<path d="M1.10828 23.3333V20.5917C1.10828 19.9111 1.28328 19.2937 1.63328 18.7396C1.98328 18.1854 2.46939 17.7722 3.09161 17.5C4.51105 16.8778 5.78953 16.4305 6.92703 16.1583C8.06453 15.8861 9.23605 15.75 10.4416 15.75C11.6472 15.75 12.8138 15.8861 13.9416 16.1583C15.0694 16.4305 16.343 16.8778 17.7624 17.5C18.3847 17.7722 18.8756 18.1854 19.2354 18.7396C19.5951 19.2937 19.7749 19.9111 19.7749 20.5917V23.3333H1.10828ZM21.5249 23.3333V20.5917C21.5249 19.3667 21.2138 18.3604 20.5916 17.5729C19.9694 16.7854 19.1527 16.1486 18.1416 15.6625C19.4833 15.8181 20.7472 16.0465 21.9333 16.3479C23.1194 16.6493 24.0819 16.9944 24.8208 17.3833C25.4624 17.7528 25.968 18.2097 26.3374 18.7542C26.7069 19.2986 26.8916 19.9111 26.8916 20.5917V23.3333H21.5249ZM10.4416 13.9708C9.15827 13.9708 8.10827 13.5625 7.29161 12.7458C6.47494 11.9292 6.06661 10.8792 6.06661 9.59583C6.06661 8.3125 6.47494 7.2625 7.29161 6.44583C8.10827 5.62917 9.15827 5.22083 10.4416 5.22083C11.7249 5.22083 12.7749 5.62917 13.5916 6.44583C14.4083 7.2625 14.8166 8.3125 14.8166 9.59583C14.8166 10.8792 14.4083 11.9292 13.5916 12.7458C12.7749 13.5625 11.7249 13.9708 10.4416 13.9708ZM16.5666 13.9708C16.3527 13.9708 16.1145 13.9562 15.852 13.9271C15.5895 13.8979 15.3513 13.8444 15.1374 13.7667C15.6041 13.2806 15.959 12.6826 16.202 11.9729C16.4451 11.2632 16.5666 10.4708 16.5666 9.59583C16.5666 8.72083 16.4451 7.94792 16.202 7.27708C15.959 6.60625 15.6041 5.98889 15.1374 5.425C15.3513 5.36667 15.5895 5.31806 15.852 5.27917C16.1145 5.24028 16.3527 5.22083 16.5666 5.22083C17.8499 5.22083 18.8999 5.62917 19.7166 6.44583C20.5333 7.2625 20.9416 8.3125 20.9416 9.59583C20.9416 10.8792 20.5333 11.9292 19.7166 12.7458C18.8999 13.5625 17.8499 13.9708 16.5666 13.9708ZM2.85828 21.5833H18.0249V20.5917C18.0249 20.2805 17.9326 19.9792 17.7479 19.6875C17.5631 19.3958 17.3347 19.1917 17.0624 19.075C15.6624 18.4528 14.4861 18.0347 13.5333 17.8208C12.5805 17.6069 11.5499 17.5 10.4416 17.5C9.33327 17.5 8.29786 17.6069 7.33536 17.8208C6.37286 18.0347 5.19161 18.4528 3.79161 19.075C3.51939 19.1917 3.29578 19.3958 3.12078 19.6875C2.94578 19.9792 2.85828 20.2805 2.85828 20.5917V21.5833ZM10.4416 12.2208C11.1999 12.2208 11.827 11.9729 12.3229 11.4771C12.8187 10.9812 13.0666 10.3542 13.0666 9.59583C13.0666 8.8375 12.8187 8.21042 12.3229 7.71458C11.827 7.21875 11.1999 6.97083 10.4416 6.97083C9.68327 6.97083 9.05619 7.21875 8.56036 7.71458C8.06453 8.21042 7.81661 8.8375 7.81661 9.59583C7.81661 10.3542 8.06453 10.9812 8.56036 11.4771C9.05619 11.9729 9.68327 12.2208 10.4416 12.2208Z" fill="white"/>
</svg>
