<svg width="28" height="28" viewBox="0 0 28 28" fill="none" xmlns="http://www.w3.org/2000/svg">
<path d="M13.3996 1.16667H14.0831C16.3781 1.2208 18.6298 1.9594 20.5642 3.18319C20.6616 2.53168 21.0434 1.92939 21.598 1.57214C22.2643 1.13223 23.1643 1.07367 23.8793 1.43092C24.5406 1.75568 25.016 2.41555 25.1395 3.1389C25.2551 3.74957 25.0917 4.39566 24.7222 4.89216C25.7004 5.50676 26.3391 6.61934 26.3608 7.7767V9.07183C26.346 9.42957 26.0567 9.72285 25.7103 9.78042C26.1354 11.0342 26.3446 12.3559 26.3608 13.6786V13.7018C26.3618 15.6548 25.9258 17.6103 25.0573 19.3621C25.294 20.0662 25.1621 20.8772 24.7232 21.4755C25.7019 22.0901 26.3401 23.2042 26.3608 24.3615V25.696C26.3195 26.0356 26.0414 26.3165 25.7019 26.3608H20.0076C19.7946 26.3195 19.5894 26.2068 19.4747 26.0179C19.2907 25.7315 19.3773 25.3767 19.3576 25.0578C17.6412 25.9239 15.7172 26.3456 13.7986 26.3608H13.7799C11.8535 26.3495 9.92258 25.9254 8.19885 25.0568C8.17818 25.3605 8.25741 25.6892 8.1088 25.9711C8.00251 26.1798 7.78895 26.3087 7.56604 26.3608H1.84716C1.62229 26.319 1.40627 26.1935 1.29506 25.9878C1.16515 25.7748 1.1991 25.5159 1.19566 25.2783C1.20648 24.7395 1.15678 24.1918 1.28423 23.6623C1.48401 22.7657 2.05876 21.9656 2.83476 21.4765C2.39238 20.8796 2.26149 20.0662 2.49818 19.3616C1.77138 17.8391 1.29358 16.1877 1.1932 14.4994C1.18631 14.3606 1.17647 14.2219 1.16663 14.0836V13.4045C1.17745 13.2466 1.18729 13.0886 1.19664 12.9312C1.33934 10.7523 2.10255 8.62749 3.33323 6.82749C4.89212 4.53885 7.19207 2.75705 9.81088 1.84918C10.9643 1.44272 12.1792 1.2272 13.3996 1.16667ZM6.54548 5.3675C4.47779 7.17883 3.08768 9.75385 2.74225 12.4839C2.49522 14.3793 2.77325 16.3388 3.54039 18.0896C4.05657 17.8012 4.68003 17.69 5.25576 17.8445C6.1592 18.0733 6.87862 18.8848 6.99819 19.8084C7.08332 20.3954 6.90076 20.9967 6.55828 21.4741C7.16107 21.8628 7.65462 22.4282 7.92526 23.0954C7.95921 23.1692 7.97692 23.2632 8.05959 23.3001C10.0894 24.5451 12.537 25.0588 14.8999 24.8236C16.5429 24.6578 18.1668 24.1455 19.5603 23.2524C19.7892 22.655 20.1661 22.1133 20.667 21.7127C18.2027 19.242 15.731 16.7782 13.2657 14.308C13.1068 14.1545 13.0315 13.932 13.0409 13.7136C13.0409 10.0412 13.0409 6.36838 13.0409 2.69604C10.6533 2.81217 8.33269 3.78647 6.54548 5.3675ZM14.5156 2.69604C14.5151 6.14449 14.5156 9.59294 14.5151 13.0409C17.9636 13.0434 21.4125 13.0419 24.861 13.0419C24.7876 11.9259 24.5446 10.8216 24.142 9.77796C22.7987 9.77747 21.4553 9.77845 20.1124 9.77796C19.8925 9.7814 19.673 9.68446 19.5328 9.51421C19.3827 9.34592 19.3443 9.11268 19.3566 8.89469C19.3753 8.26778 19.3015 7.62858 19.4604 7.01447C19.644 6.25914 20.0923 5.57614 20.7024 5.09637C18.9497 3.68855 16.759 2.83874 14.5156 2.69604ZM22.592 2.71474C22.1447 2.85153 21.8918 3.39429 22.0778 3.82485C22.2298 4.27264 22.7982 4.47095 23.2145 4.27461C23.6283 4.10533 23.8138 3.56553 23.6258 3.16744C23.461 2.78264 22.9871 2.574 22.592 2.71474ZM21.2831 6.57161C20.886 7.05236 20.7999 7.70141 20.8328 8.30469C22.1836 8.30518 23.5338 8.30518 24.8846 8.30469C24.887 8.00649 24.8954 7.70387 24.827 7.41108C24.7192 6.89441 24.4038 6.41808 23.9486 6.144C23.1146 5.61994 21.8997 5.78823 21.2831 6.57161ZM15.5573 14.5151C17.2392 16.1971 18.9206 17.879 20.6025 19.5609C20.7669 18.8257 21.3259 18.2082 22.0266 17.9434C22.6658 17.6816 23.4211 17.7353 24.0156 18.0881C24.4865 16.9519 24.7832 15.7399 24.8555 14.5112C21.7565 14.5201 18.6569 14.5122 15.5573 14.5151ZM4.42957 19.2976C3.98621 19.4344 3.73131 19.9718 3.91289 20.4008C4.06789 20.8324 4.60425 21.0592 5.02301 20.8708C5.46981 20.7089 5.6568 20.1317 5.44816 19.7188C5.28184 19.3453 4.80895 19.1677 4.42957 19.2976ZM22.5915 19.2976C22.1309 19.4379 21.879 20.0101 22.0921 20.4432C22.2736 20.8752 22.8375 21.0656 23.2479 20.8427C23.6554 20.6518 23.8064 20.1066 23.6081 19.7149C23.4398 19.3439 22.9694 19.1687 22.5915 19.2976ZM3.19446 23.0684C2.74126 23.5531 2.63301 24.2479 2.67139 24.8876C4.02164 24.8881 5.37238 24.8881 6.72312 24.8876C6.76347 24.2336 6.64439 23.5206 6.16855 23.0354C5.40338 22.2107 3.94044 22.2245 3.19446 23.0684ZM21.3057 23.1264C20.8904 23.6092 20.7984 24.2725 20.8328 24.8876C22.1836 24.8881 23.5338 24.8881 24.8846 24.8876C24.886 24.6076 24.8959 24.3246 24.8383 24.0491C24.7448 23.5452 24.4614 23.0713 24.0343 22.782C23.2091 22.2018 21.9508 22.3367 21.3057 23.1264Z" fill="white"/>
</svg>
