<svg width="28" height="28" viewBox="0 0 28 28" fill="none" xmlns="http://www.w3.org/2000/svg">
<path d="M5.25 24.5C4.78333 24.5 4.375 24.325 4.025 23.975C3.675 23.625 3.5 23.2167 3.5 22.75V5.25C3.5 4.78333 3.675 4.375 4.025 4.025C4.375 3.675 4.78333 3.5 5.25 3.5H22.75C23.2167 3.5 23.625 3.675 23.975 4.025C24.325 4.375 24.5 4.78333 24.5 5.25V22.75C24.5 23.2167 24.325 23.625 23.975 23.975C23.625 24.325 23.2167 24.5 22.75 24.5H5.25ZM5.25 22.75H13.125V5.25H5.25V22.75ZM14.875 22.75H22.75V13.9708H14.875V22.75ZM14.875 12.2208H22.75V5.25H14.875V12.2208Z" fill="white"/>
</svg>
