<svg width="684" height="154" viewBox="0 0 684 154" fill="none" xmlns="http://www.w3.org/2000/svg">
<ellipse cx="56.1462" cy="95.78" rx="39.1963" ry="39.3761" fill="#A5F3FC"/>
<path d="M50.8493 73.4312C40.2557 75.9853 35.1355 85.8471 33.8995 90.4587L39.1963 91.5229C40.4676 83.4348 47.4947 79.6391 50.8493 78.7523V73.4312Z" fill="#06B6D4"/>
<path d="M60.3836 119.192C71.6393 116.488 77.0795 106.046 78.3927 101.163L72.7648 100.036C71.4142 108.6 63.9479 112.619 60.3836 113.558V119.192Z" fill="#06B6D4"/>
<path d="M48.2009 64.9175C32.9461 68.7487 26.6606 81.7676 25.4247 87.7982L29.6621 88.8624C33.4758 76.5175 43.9635 71.3028 48.7306 70.2386L48.2009 64.9175Z" fill="#06B6D4"/>
<path d="M63.056 127.707C79.0042 123.62 85.5755 109.733 86.8676 103.3L82.4375 102.165C78.4505 115.333 67.4861 120.896 62.5023 122.031L63.056 127.707Z" fill="#06B6D4"/>
<ellipse cx="56.1462" cy="95.7796" rx="9.53425" ry="9.57798" fill="#06B6D4"/>
<ellipse cx="18.0092" cy="18.0918" rx="4.23744" ry="4.25688" fill="#A5F3FC"/>
<ellipse cx="18.0092" cy="135.156" rx="4.23744" ry="4.25688" fill="#A5F3FC"/>
<ellipse cx="94.2831" cy="135.156" rx="4.23744" ry="4.25688" fill="#A5F3FC"/>
<ellipse cx="94.2831" cy="18.0918" rx="4.23744" ry="4.25688" fill="#A5F3FC"/>
<ellipse cx="56.1462" cy="31.9264" rx="12.7123" ry="12.7706" fill="#A5F3FC"/>
<ellipse cx="56.1461" cy="31.9268" rx="4.23744" ry="4.25688" fill="#06B6D4"/>
<rect x="2.5" y="2.5" width="106.233" height="148.248" rx="9.5" stroke="#A5F3FC" stroke-width="5"/>
<path d="M142.675 54.5V110H132.175V54.5H142.675ZM150.349 89.075C150.349 84.875 151.174 81.15 152.824 77.9C154.524 74.65 156.799 72.15 159.649 70.4C162.549 68.65 165.774 67.775 169.324 67.775C172.424 67.775 175.124 68.4 177.424 69.65C179.774 70.9 181.649 72.475 183.049 74.375V68.45H193.624V110H183.049V103.925C181.699 105.875 179.824 107.5 177.424 108.8C175.074 110.05 172.349 110.675 169.249 110.675C165.749 110.675 162.549 109.775 159.649 107.975C156.799 106.175 154.524 103.65 152.824 100.4C151.174 97.1 150.349 93.325 150.349 89.075ZM183.049 89.225C183.049 86.675 182.549 84.5 181.549 82.7C180.549 80.85 179.199 79.45 177.499 78.5C175.799 77.5 173.974 77 172.024 77C170.074 77 168.274 77.475 166.624 78.425C164.974 79.375 163.624 80.775 162.574 82.625C161.574 84.425 161.074 86.575 161.074 89.075C161.074 91.575 161.574 93.775 162.574 95.675C163.624 97.525 164.974 98.95 166.624 99.95C168.324 100.95 170.124 101.45 172.024 101.45C173.974 101.45 175.799 100.975 177.499 100.025C179.199 99.025 180.549 97.625 181.549 95.825C182.549 93.975 183.049 91.775 183.049 89.225ZM243.104 68.45V110H232.529V104.75C231.179 106.55 229.404 107.975 227.204 109.025C225.054 110.025 222.704 110.525 220.154 110.525C216.904 110.525 214.029 109.85 211.529 108.5C209.029 107.1 207.054 105.075 205.604 102.425C204.204 99.725 203.504 96.525 203.504 92.825V68.45H214.004V91.325C214.004 94.625 214.829 97.175 216.479 98.975C218.129 100.725 220.379 101.6 223.229 101.6C226.129 101.6 228.404 100.725 230.054 98.975C231.704 97.175 232.529 94.625 232.529 91.325V68.45H243.104ZM250.764 89.075C250.764 84.875 251.589 81.15 253.239 77.9C254.939 74.65 257.239 72.15 260.139 70.4C263.039 68.65 266.264 67.775 269.814 67.775C272.514 67.775 275.089 68.375 277.539 69.575C279.989 70.725 281.939 72.275 283.389 74.225V54.5H294.039V110H283.389V103.85C282.089 105.9 280.264 107.55 277.914 108.8C275.564 110.05 272.839 110.675 269.739 110.675C266.239 110.675 263.039 109.775 260.139 107.975C257.239 106.175 254.939 103.65 253.239 100.4C251.589 97.1 250.764 93.325 250.764 89.075ZM283.464 89.225C283.464 86.675 282.964 84.5 281.964 82.7C280.964 80.85 279.614 79.45 277.914 78.5C276.214 77.5 274.389 77 272.439 77C270.489 77 268.689 77.475 267.039 78.425C265.389 79.375 264.039 80.775 262.989 82.625C261.989 84.425 261.489 86.575 261.489 89.075C261.489 91.575 261.989 93.775 262.989 95.675C264.039 97.525 265.389 98.95 267.039 99.95C268.739 100.95 270.539 101.45 272.439 101.45C274.389 101.45 276.214 100.975 277.914 100.025C279.614 99.025 280.964 97.625 281.964 95.825C282.964 93.975 283.464 91.775 283.464 89.225ZM320.194 110.675C316.794 110.675 313.744 110.075 311.044 108.875C308.344 107.625 306.194 105.95 304.594 103.85C303.044 101.75 302.194 99.425 302.044 96.875H312.619C312.819 98.475 313.594 99.8 314.944 100.85C316.344 101.9 318.069 102.425 320.119 102.425C322.119 102.425 323.669 102.025 324.769 101.225C325.919 100.425 326.494 99.4 326.494 98.15C326.494 96.8 325.794 95.8 324.394 95.15C323.044 94.45 320.869 93.7 317.869 92.9C314.769 92.15 312.219 91.375 310.219 90.575C308.269 89.775 306.569 88.55 305.119 86.9C303.719 85.25 303.019 83.025 303.019 80.225C303.019 77.925 303.669 75.825 304.969 73.925C306.319 72.025 308.219 70.525 310.669 69.425C313.169 68.325 316.094 67.775 319.444 67.775C324.394 67.775 328.344 69.025 331.294 71.525C334.244 73.975 335.869 77.3 336.169 81.5H326.119C325.969 79.85 325.269 78.55 324.019 77.6C322.819 76.6 321.194 76.1 319.144 76.1C317.244 76.1 315.769 76.45 314.719 77.15C313.719 77.85 313.219 78.825 313.219 80.075C313.219 81.475 313.919 82.55 315.319 83.3C316.719 84 318.894 84.725 321.844 85.475C324.844 86.225 327.319 87 329.269 87.8C331.219 88.6 332.894 89.85 334.294 91.55C335.744 93.2 336.494 95.4 336.544 98.15C336.544 100.55 335.869 102.7 334.519 104.6C333.219 106.5 331.319 108 328.819 109.1C326.369 110.15 323.494 110.675 320.194 110.675ZM355.663 74.45C357.013 72.55 358.863 70.975 361.213 69.725C363.613 68.425 366.338 67.775 369.388 67.775C372.938 67.775 376.138 68.65 378.988 70.4C381.888 72.15 384.163 74.65 385.813 77.9C387.513 81.1 388.363 84.825 388.363 89.075C388.363 93.325 387.513 97.1 385.813 100.4C384.163 103.65 381.888 106.175 378.988 107.975C376.138 109.775 372.938 110.675 369.388 110.675C366.338 110.675 363.638 110.05 361.288 108.8C358.988 107.55 357.113 105.975 355.663 104.075V129.8H345.163V68.45H355.663V74.45ZM377.638 89.075C377.638 86.575 377.113 84.425 376.063 82.625C375.063 80.775 373.713 79.375 372.013 78.425C370.363 77.475 368.563 77 366.613 77C364.713 77 362.913 77.5 361.213 78.5C359.563 79.45 358.213 80.85 357.163 82.7C356.163 84.55 355.663 86.725 355.663 89.225C355.663 91.725 356.163 93.9 357.163 95.75C358.213 97.6 359.563 99.025 361.213 100.025C362.913 100.975 364.713 101.45 366.613 101.45C368.563 101.45 370.363 100.95 372.013 99.95C373.713 98.95 375.063 97.525 376.063 95.675C377.113 93.825 377.638 91.625 377.638 89.075ZM434.618 88.325C434.618 89.825 434.518 91.175 434.318 92.375H403.943C404.193 95.375 405.243 97.725 407.093 99.425C408.943 101.125 411.218 101.975 413.918 101.975C417.818 101.975 420.593 100.3 422.243 96.95H433.568C432.368 100.95 430.068 104.25 426.668 106.85C423.268 109.4 419.093 110.675 414.143 110.675C410.143 110.675 406.543 109.8 403.343 108.05C400.193 106.25 397.718 103.725 395.918 100.475C394.168 97.225 393.293 93.475 393.293 89.225C393.293 84.925 394.168 81.15 395.918 77.9C397.668 74.65 400.118 72.15 403.268 70.4C406.418 68.65 410.043 67.775 414.143 67.775C418.093 67.775 421.618 68.625 424.718 70.325C427.868 72.025 430.293 74.45 431.993 77.6C433.743 80.7 434.618 84.275 434.618 88.325ZM423.743 85.325C423.693 82.625 422.718 80.475 420.818 78.875C418.918 77.225 416.593 76.4 413.843 76.4C411.243 76.4 409.043 77.2 407.243 78.8C405.493 80.35 404.418 82.525 404.018 85.325H423.743ZM439.582 89.075C439.582 84.875 440.407 81.15 442.057 77.9C443.757 74.65 446.032 72.15 448.882 70.4C451.782 68.65 455.007 67.775 458.557 67.775C461.657 67.775 464.357 68.4 466.657 69.65C469.007 70.9 470.882 72.475 472.282 74.375V68.45H482.857V110H472.282V103.925C470.932 105.875 469.057 107.5 466.657 108.8C464.307 110.05 461.582 110.675 458.482 110.675C454.982 110.675 451.782 109.775 448.882 107.975C446.032 106.175 443.757 103.65 442.057 100.4C440.407 97.1 439.582 93.325 439.582 89.075ZM472.282 89.225C472.282 86.675 471.782 84.5 470.782 82.7C469.782 80.85 468.432 79.45 466.732 78.5C465.032 77.5 463.207 77 461.257 77C459.307 77 457.507 77.475 455.857 78.425C454.207 79.375 452.857 80.775 451.807 82.625C450.807 84.425 450.307 86.575 450.307 89.075C450.307 91.575 450.807 93.775 451.807 95.675C452.857 97.525 454.207 98.95 455.857 99.95C457.557 100.95 459.357 101.45 461.257 101.45C463.207 101.45 465.032 100.975 466.732 100.025C468.432 99.025 469.782 97.625 470.782 95.825C471.782 93.975 472.282 91.775 472.282 89.225ZM517.713 110L503.613 92.3V110H493.113V54.5H503.613V86.075L517.563 68.45H531.213L512.913 89.3L531.363 110H517.713ZM575.536 88.325C575.536 89.825 575.436 91.175 575.236 92.375H544.861C545.111 95.375 546.161 97.725 548.011 99.425C549.861 101.125 552.136 101.975 554.836 101.975C558.736 101.975 561.511 100.3 563.161 96.95H574.486C573.286 100.95 570.986 104.25 567.586 106.85C564.186 109.4 560.011 110.675 555.061 110.675C551.061 110.675 547.461 109.8 544.261 108.05C541.111 106.25 538.636 103.725 536.836 100.475C535.086 97.225 534.211 93.475 534.211 89.225C534.211 84.925 535.086 81.15 536.836 77.9C538.586 74.65 541.036 72.15 544.186 70.4C547.336 68.65 550.961 67.775 555.061 67.775C559.011 67.775 562.536 68.625 565.636 70.325C568.786 72.025 571.211 74.45 572.911 77.6C574.661 80.7 575.536 84.275 575.536 88.325ZM564.661 85.325C564.611 82.625 563.636 80.475 561.736 78.875C559.836 77.225 557.511 76.4 554.761 76.4C552.161 76.4 549.961 77.2 548.161 78.8C546.411 80.35 545.336 82.525 544.936 85.325H564.661ZM593.7 74.9C595.05 72.7 596.8 70.975 598.95 69.725C601.15 68.475 603.65 67.85 606.45 67.85V78.875H603.675C600.375 78.875 597.875 79.65 596.175 81.2C594.525 82.75 593.7 85.45 593.7 89.3V110H583.2V68.45H593.7V74.9Z" fill="#A5F3FC"/>
</svg>
