<svg width="684" height="154" viewBox="0 0 684 154" fill="none" xmlns="http://www.w3.org/2000/svg">
<ellipse cx="56.1462" cy="95.78" rx="39.1963" ry="39.3761" fill="black"/>
<path d="M50.8493 73.4312C40.2557 75.9853 35.1355 85.8471 33.8995 90.4587L39.1963 91.5229C40.4676 83.4348 47.4947 79.6391 50.8493 78.7523V73.4312Z" fill="white"/>
<path d="M60.3836 119.192C71.6393 116.488 77.0795 106.046 78.3927 101.163L72.7648 100.036C71.4142 108.6 63.9479 112.619 60.3836 113.558V119.192Z" fill="white"/>
<path d="M48.2009 64.9175C32.9461 68.7487 26.6606 81.7676 25.4247 87.7982L29.6621 88.8624C33.4758 76.5175 43.9635 71.3028 48.7306 70.2386L48.2009 64.9175Z" fill="white"/>
<path d="M63.056 127.707C79.0042 123.62 85.5755 109.733 86.8676 103.3L82.4375 102.165C78.4505 115.333 67.4861 120.896 62.5023 122.031L63.056 127.707Z" fill="white"/>
<ellipse cx="56.1462" cy="95.7796" rx="9.53425" ry="9.57798" fill="white"/>
<ellipse cx="18.0092" cy="18.0918" rx="4.23744" ry="4.25688" fill="black"/>
<ellipse cx="18.0092" cy="135.156" rx="4.23744" ry="4.25688" fill="black"/>
<ellipse cx="94.2831" cy="135.156" rx="4.23744" ry="4.25688" fill="black"/>
<ellipse cx="94.2831" cy="18.0918" rx="4.23744" ry="4.25688" fill="black"/>
<ellipse cx="56.1462" cy="31.9264" rx="12.7123" ry="12.7706" fill="black"/>
<ellipse cx="56.1461" cy="31.9268" rx="4.23744" ry="4.25688" fill="white"/>
<rect x="2.5" y="2.5" width="106.233" height="148.248" rx="9.5" stroke="black" stroke-width="5"/>
<path d="M142.675 77.5V133H132.175V77.5H142.675ZM150.349 112.075C150.349 107.875 151.174 104.15 152.824 100.9C154.524 97.65 156.799 95.15 159.649 93.4C162.549 91.65 165.774 90.775 169.324 90.775C172.424 90.775 175.124 91.4 177.424 92.65C179.774 93.9 181.649 95.475 183.049 97.375V91.45H193.624V133H183.049V126.925C181.699 128.875 179.824 130.5 177.424 131.8C175.074 133.05 172.349 133.675 169.249 133.675C165.749 133.675 162.549 132.775 159.649 130.975C156.799 129.175 154.524 126.65 152.824 123.4C151.174 120.1 150.349 116.325 150.349 112.075ZM183.049 112.225C183.049 109.675 182.549 107.5 181.549 105.7C180.549 103.85 179.199 102.45 177.499 101.5C175.799 100.5 173.974 100 172.024 100C170.074 100 168.274 100.475 166.624 101.425C164.974 102.375 163.624 103.775 162.574 105.625C161.574 107.425 161.074 109.575 161.074 112.075C161.074 114.575 161.574 116.775 162.574 118.675C163.624 120.525 164.974 121.95 166.624 122.95C168.324 123.95 170.124 124.45 172.024 124.45C173.974 124.45 175.799 123.975 177.499 123.025C179.199 122.025 180.549 120.625 181.549 118.825C182.549 116.975 183.049 114.775 183.049 112.225ZM243.104 91.45V133H232.529V127.75C231.179 129.55 229.404 130.975 227.204 132.025C225.054 133.025 222.704 133.525 220.154 133.525C216.904 133.525 214.029 132.85 211.529 131.5C209.029 130.1 207.054 128.075 205.604 125.425C204.204 122.725 203.504 119.525 203.504 115.825V91.45H214.004V114.325C214.004 117.625 214.829 120.175 216.479 121.975C218.129 123.725 220.379 124.6 223.229 124.6C226.129 124.6 228.404 123.725 230.054 121.975C231.704 120.175 232.529 117.625 232.529 114.325V91.45H243.104ZM250.764 112.075C250.764 107.875 251.589 104.15 253.239 100.9C254.939 97.65 257.239 95.15 260.139 93.4C263.039 91.65 266.264 90.775 269.814 90.775C272.514 90.775 275.089 91.375 277.539 92.575C279.989 93.725 281.939 95.275 283.389 97.225V77.5H294.039V133H283.389V126.85C282.089 128.9 280.264 130.55 277.914 131.8C275.564 133.05 272.839 133.675 269.739 133.675C266.239 133.675 263.039 132.775 260.139 130.975C257.239 129.175 254.939 126.65 253.239 123.4C251.589 120.1 250.764 116.325 250.764 112.075ZM283.464 112.225C283.464 109.675 282.964 107.5 281.964 105.7C280.964 103.85 279.614 102.45 277.914 101.5C276.214 100.5 274.389 100 272.439 100C270.489 100 268.689 100.475 267.039 101.425C265.389 102.375 264.039 103.775 262.989 105.625C261.989 107.425 261.489 109.575 261.489 112.075C261.489 114.575 261.989 116.775 262.989 118.675C264.039 120.525 265.389 121.95 267.039 122.95C268.739 123.95 270.539 124.45 272.439 124.45C274.389 124.45 276.214 123.975 277.914 123.025C279.614 122.025 280.964 120.625 281.964 118.825C282.964 116.975 283.464 114.775 283.464 112.225ZM320.194 133.675C316.794 133.675 313.744 133.075 311.044 131.875C308.344 130.625 306.194 128.95 304.594 126.85C303.044 124.75 302.194 122.425 302.044 119.875H312.619C312.819 121.475 313.594 122.8 314.944 123.85C316.344 124.9 318.069 125.425 320.119 125.425C322.119 125.425 323.669 125.025 324.769 124.225C325.919 123.425 326.494 122.4 326.494 121.15C326.494 119.8 325.794 118.8 324.394 118.15C323.044 117.45 320.869 116.7 317.869 115.9C314.769 115.15 312.219 114.375 310.219 113.575C308.269 112.775 306.569 111.55 305.119 109.9C303.719 108.25 303.019 106.025 303.019 103.225C303.019 100.925 303.669 98.825 304.969 96.925C306.319 95.025 308.219 93.525 310.669 92.425C313.169 91.325 316.094 90.775 319.444 90.775C324.394 90.775 328.344 92.025 331.294 94.525C334.244 96.975 335.869 100.3 336.169 104.5H326.119C325.969 102.85 325.269 101.55 324.019 100.6C322.819 99.6 321.194 99.1 319.144 99.1C317.244 99.1 315.769 99.45 314.719 100.15C313.719 100.85 313.219 101.825 313.219 103.075C313.219 104.475 313.919 105.55 315.319 106.3C316.719 107 318.894 107.725 321.844 108.475C324.844 109.225 327.319 110 329.269 110.8C331.219 111.6 332.894 112.85 334.294 114.55C335.744 116.2 336.494 118.4 336.544 121.15C336.544 123.55 335.869 125.7 334.519 127.6C333.219 129.5 331.319 131 328.819 132.1C326.369 133.15 323.494 133.675 320.194 133.675ZM355.663 97.45C357.013 95.55 358.863 93.975 361.213 92.725C363.613 91.425 366.338 90.775 369.388 90.775C372.938 90.775 376.138 91.65 378.988 93.4C381.888 95.15 384.163 97.65 385.813 100.9C387.513 104.1 388.363 107.825 388.363 112.075C388.363 116.325 387.513 120.1 385.813 123.4C384.163 126.65 381.888 129.175 378.988 130.975C376.138 132.775 372.938 133.675 369.388 133.675C366.338 133.675 363.638 133.05 361.288 131.8C358.988 130.55 357.113 128.975 355.663 127.075V152.8H345.163V91.45H355.663V97.45ZM377.638 112.075C377.638 109.575 377.113 107.425 376.063 105.625C375.063 103.775 373.713 102.375 372.013 101.425C370.363 100.475 368.563 100 366.613 100C364.713 100 362.913 100.5 361.213 101.5C359.563 102.45 358.213 103.85 357.163 105.7C356.163 107.55 355.663 109.725 355.663 112.225C355.663 114.725 356.163 116.9 357.163 118.75C358.213 120.6 359.563 122.025 361.213 123.025C362.913 123.975 364.713 124.45 366.613 124.45C368.563 124.45 370.363 123.95 372.013 122.95C373.713 121.95 375.063 120.525 376.063 118.675C377.113 116.825 377.638 114.625 377.638 112.075ZM434.618 111.325C434.618 112.825 434.518 114.175 434.318 115.375H403.943C404.193 118.375 405.243 120.725 407.093 122.425C408.943 124.125 411.218 124.975 413.918 124.975C417.818 124.975 420.593 123.3 422.243 119.95H433.568C432.368 123.95 430.068 127.25 426.668 129.85C423.268 132.4 419.093 133.675 414.143 133.675C410.143 133.675 406.543 132.8 403.343 131.05C400.193 129.25 397.718 126.725 395.918 123.475C394.168 120.225 393.293 116.475 393.293 112.225C393.293 107.925 394.168 104.15 395.918 100.9C397.668 97.65 400.118 95.15 403.268 93.4C406.418 91.65 410.043 90.775 414.143 90.775C418.093 90.775 421.618 91.625 424.718 93.325C427.868 95.025 430.293 97.45 431.993 100.6C433.743 103.7 434.618 107.275 434.618 111.325ZM423.743 108.325C423.693 105.625 422.718 103.475 420.818 101.875C418.918 100.225 416.593 99.4 413.843 99.4C411.243 99.4 409.043 100.2 407.243 101.8C405.493 103.35 404.418 105.525 404.018 108.325H423.743ZM439.582 112.075C439.582 107.875 440.407 104.15 442.057 100.9C443.757 97.65 446.032 95.15 448.882 93.4C451.782 91.65 455.007 90.775 458.557 90.775C461.657 90.775 464.357 91.4 466.657 92.65C469.007 93.9 470.882 95.475 472.282 97.375V91.45H482.857V133H472.282V126.925C470.932 128.875 469.057 130.5 466.657 131.8C464.307 133.05 461.582 133.675 458.482 133.675C454.982 133.675 451.782 132.775 448.882 130.975C446.032 129.175 443.757 126.65 442.057 123.4C440.407 120.1 439.582 116.325 439.582 112.075ZM472.282 112.225C472.282 109.675 471.782 107.5 470.782 105.7C469.782 103.85 468.432 102.45 466.732 101.5C465.032 100.5 463.207 100 461.257 100C459.307 100 457.507 100.475 455.857 101.425C454.207 102.375 452.857 103.775 451.807 105.625C450.807 107.425 450.307 109.575 450.307 112.075C450.307 114.575 450.807 116.775 451.807 118.675C452.857 120.525 454.207 121.95 455.857 122.95C457.557 123.95 459.357 124.45 461.257 124.45C463.207 124.45 465.032 123.975 466.732 123.025C468.432 122.025 469.782 120.625 470.782 118.825C471.782 116.975 472.282 114.775 472.282 112.225ZM517.713 133L503.613 115.3V133H493.113V77.5H503.613V109.075L517.563 91.45H531.213L512.913 112.3L531.363 133H517.713ZM575.536 111.325C575.536 112.825 575.436 114.175 575.236 115.375H544.861C545.111 118.375 546.161 120.725 548.011 122.425C549.861 124.125 552.136 124.975 554.836 124.975C558.736 124.975 561.511 123.3 563.161 119.95H574.486C573.286 123.95 570.986 127.25 567.586 129.85C564.186 132.4 560.011 133.675 555.061 133.675C551.061 133.675 547.461 132.8 544.261 131.05C541.111 129.25 538.636 126.725 536.836 123.475C535.086 120.225 534.211 116.475 534.211 112.225C534.211 107.925 535.086 104.15 536.836 100.9C538.586 97.65 541.036 95.15 544.186 93.4C547.336 91.65 550.961 90.775 555.061 90.775C559.011 90.775 562.536 91.625 565.636 93.325C568.786 95.025 571.211 97.45 572.911 100.6C574.661 103.7 575.536 107.275 575.536 111.325ZM564.661 108.325C564.611 105.625 563.636 103.475 561.736 101.875C559.836 100.225 557.511 99.4 554.761 99.4C552.161 99.4 549.961 100.2 548.161 101.8C546.411 103.35 545.336 105.525 544.936 108.325H564.661ZM593.7 97.9C595.05 95.7 596.8 93.975 598.95 92.725C601.15 91.475 603.65 90.85 606.45 90.85V101.875H603.675C600.375 101.875 597.875 102.65 596.175 104.2C594.525 105.75 593.7 108.45 593.7 112.3V133H583.2V91.45H593.7V97.9Z" fill="black"/>
</svg>
