<svg width="20" height="22" viewBox="0 0 20 22" fill="none" xmlns="http://www.w3.org/2000/svg">
<path d="M9.40454 0.358059C9.77346 0.147248 10.2264 0.147248 10.5953 0.358059L12.6953 1.55806C13.2707 1.88687 13.4706 2.6199 13.1418 3.19532C12.813 3.77074 12.08 3.97066 11.5045 3.64184L9.9999 2.78205L8.49527 3.64184C7.91985 3.97066 7.18682 3.77074 6.85801 3.19532C6.5292 2.6199 6.72911 1.88687 7.30454 1.55806L9.40454 0.358059Z" fill="#111827"/>
<path d="M4.74179 4.40458C5.07061 4.98 4.87069 5.71303 4.29527 6.04184L4.01858 6.19995L4.29527 6.35806C4.87069 6.68687 5.07061 7.4199 4.74179 7.99532C4.41298 8.57074 3.67996 8.77065 3.10454 8.44184L2.7999 8.26777V8.59995C2.7999 9.26269 2.26264 9.79995 1.5999 9.79995C0.937161 9.79995 0.399902 9.26269 0.399902 8.59995V6.19995C0.399902 5.89997 0.509977 5.62569 0.69194 5.41532C0.733522 5.36719 0.779075 5.3222 0.828288 5.28089C0.888952 5.2299 0.954736 5.18481 1.02476 5.1465L3.10454 3.95806C3.67996 3.62925 4.41298 3.82916 4.74179 4.40458Z" fill="#111827"/>
<path d="M15.258 4.40458C15.5868 3.82916 16.3198 3.62925 16.8953 3.95806L18.975 5.1465C19.0451 5.18481 19.1108 5.2299 19.1715 5.28089C19.4334 5.50101 19.5999 5.83104 19.5999 6.19995V8.59995C19.5999 9.26269 19.0626 9.79995 18.3999 9.79995C17.7372 9.79995 17.1999 9.26269 17.1999 8.59995V8.26777L16.8953 8.44184C16.3198 8.77065 15.5868 8.57074 15.258 7.99532C14.9292 7.4199 15.1291 6.68687 15.7045 6.35806L15.9812 6.19995L15.7045 6.04184C15.1291 5.71303 14.9292 4.98 15.258 4.40458Z" fill="#111827"/>
<path d="M6.85801 9.20458C7.18682 8.62916 7.91985 8.42925 8.49527 8.75806L9.9999 9.61785L11.5045 8.75806C12.08 8.42925 12.813 8.62916 13.1418 9.20458C13.4706 9.78 13.2707 10.513 12.6953 10.8418L11.1999 11.6963V13.4C11.1999 14.0627 10.6626 14.6 9.9999 14.6C9.33716 14.6 8.7999 14.0627 8.7999 13.4V11.6963L7.30454 10.8418C6.72911 10.513 6.5292 9.78 6.85801 9.20458Z" fill="#111827"/>
<path d="M1.5999 12.2C2.26264 12.2 2.7999 12.7372 2.7999 13.4V15.1036L4.29527 15.9581C4.87069 16.2869 5.07061 17.0199 4.74179 17.5953C4.41298 18.1707 3.67996 18.3707 3.10454 18.0418L1.00454 16.8418C0.630646 16.6282 0.399902 16.2306 0.399902 15.8V13.4C0.399902 12.7372 0.937161 12.2 1.5999 12.2Z" fill="#111827"/>
<path d="M18.3999 12.2C19.0626 12.2 19.5999 12.7372 19.5999 13.4V15.8C19.5999 16.2306 19.3692 16.6282 18.9953 16.8418L16.8953 18.0418C16.3198 18.3707 15.5868 18.1707 15.258 17.5953C14.9292 17.0199 15.1291 16.2869 15.7045 15.9581L17.1999 15.1036V13.4C17.1999 12.7372 17.7372 12.2 18.3999 12.2Z" fill="#111827"/>
<path d="M6.85801 18.8046C7.18682 18.2292 7.91985 18.0292 8.49527 18.3581L8.7999 18.5321V18.2C8.7999 17.5372 9.33716 17 9.9999 17C10.6626 17 11.1999 17.5372 11.1999 18.2V18.5321L11.5045 18.3581C12.08 18.0292 12.813 18.2292 13.1418 18.8046C13.4706 19.38 13.2707 20.113 12.6953 20.4418L10.6135 21.6314C10.434 21.7385 10.2241 21.7999 9.9999 21.7999C9.77569 21.7999 9.56584 21.7385 9.3863 21.6314L7.30454 20.4418C6.72911 20.113 6.5292 19.38 6.85801 18.8046Z" fill="#111827"/>
</svg>
