<svg width="20" height="20" viewBox="0 0 20 20" fill="none" xmlns="http://www.w3.org/2000/svg">
<path fill-rule="evenodd" clip-rule="evenodd" d="M9.9999 19.5999C15.3018 19.5999 19.5999 15.3018 19.5999 9.9999C19.5999 4.69797 15.3018 0.399902 9.9999 0.399902C4.69797 0.399902 0.399902 4.69797 0.399902 9.9999C0.399902 15.3018 4.69797 19.5999 9.9999 19.5999ZM3.19805 7.63279C3.64641 6.34423 4.4506 5.22227 5.49295 4.38457C5.81441 4.8755 6.3693 5.19979 6.99992 5.19979C7.99403 5.19979 8.79992 6.00568 8.79992 6.9998V7.5998C8.79992 8.92528 9.87444 9.9998 11.1999 9.9998C12.5254 9.9998 13.5999 8.92528 13.5999 7.5998C13.5999 6.47165 14.3783 5.52531 15.4273 5.26853C16.5312 6.53383 17.1999 8.18873 17.1999 9.99981C17.1999 10.4087 17.1658 10.8097 17.1003 11.2H15.9999C14.6744 11.2 13.5999 12.2745 13.5999 13.6V16.2366C12.5409 16.8492 11.3112 17.1998 9.9998 17.1998V14.7999C9.9998 13.4744 8.92528 12.3999 7.5998 12.3999C6.27432 12.3999 5.1998 11.3254 5.1998 9.9999C5.1998 8.81009 4.334 7.8225 3.19805 7.63279Z" fill="#111827"/>
</svg>
