<svg width="24" height="24" viewBox="0 0 24 24" fill="none" xmlns="http://www.w3.org/2000/svg">
<path d="M12 11.6957C10.7625 11.6957 9.75 11.2899 8.9625 10.4783C8.175 9.66667 7.78125 8.62319 7.78125 7.34783C7.78125 6.07246 8.175 5.02899 8.9625 4.21739C9.75 3.4058 10.7625 3 12 3C13.2375 3 14.25 3.4058 15.0375 4.21739C15.825 5.02899 16.2188 6.07246 16.2188 7.34783C16.2188 8.62319 15.825 9.66667 15.0375 10.4783C14.25 11.2899 13.2375 11.6957 12 11.6957ZM3 21V18.2754C3 17.5411 3.17812 16.913 3.53437 16.3913C3.89062 15.8696 4.35 15.4734 4.9125 15.2029C6.16875 14.6232 7.37344 14.1884 8.52656 13.8986C9.67969 13.6087 10.8375 13.4638 12 13.4638C13.1625 13.4638 14.3156 13.6135 15.4594 13.913C16.6031 14.2126 17.8031 14.6425 19.0594 15.2029C19.6406 15.4734 20.1094 15.8696 20.4656 16.3913C20.8219 16.913 21 17.5411 21 18.2754V21H3ZM4.6875 19.2609H19.3125V18.2754C19.3125 17.9662 19.2234 17.6715 19.0453 17.3913C18.8672 17.1111 18.6469 16.9034 18.3844 16.7681C17.1844 16.1691 16.0875 15.7585 15.0938 15.5362C14.1 15.314 13.0688 15.2029 12 15.2029C10.9313 15.2029 9.89063 15.314 8.87813 15.5362C7.86563 15.7585 6.76875 16.1691 5.5875 16.7681C5.325 16.9034 5.10938 17.1111 4.94062 17.3913C4.77187 17.6715 4.6875 17.9662 4.6875 18.2754V19.2609ZM12 9.95652C12.7312 9.95652 13.3359 9.71014 13.8141 9.21739C14.2922 8.72464 14.5312 8.10145 14.5312 7.34783C14.5312 6.5942 14.2922 5.97101 13.8141 5.47826C13.3359 4.98551 12.7312 4.73913 12 4.73913C11.2688 4.73913 10.6641 4.98551 10.1859 5.47826C9.70781 5.97101 9.46875 6.5942 9.46875 7.34783C9.46875 8.10145 9.70781 8.72464 10.1859 9.21739C10.6641 9.71014 11.2688 9.95652 12 9.95652Z" fill="#28282E"/>
</svg>
