<svg width="18" height="20" viewBox="0 0 18 20" fill="none" xmlns="http://www.w3.org/2000/svg">
<path fill-rule="evenodd" clip-rule="evenodd" d="M3.0001 0.399902C1.67461 0.399902 0.600098 1.47442 0.600098 2.7999V19.5999L4.8001 17.1999L9.0001 19.5999L13.2001 17.1999L17.4001 19.5999V2.7999C17.4001 1.47442 16.3256 0.399902 15.0001 0.399902H3.0001ZM6.0001 3.9999C5.00598 3.9999 4.2001 4.80579 4.2001 5.7999C4.2001 6.79402 5.00598 7.5999 6.0001 7.5999C6.99421 7.5999 7.8001 6.79402 7.8001 5.7999C7.8001 4.80579 6.99421 3.9999 6.0001 3.9999ZM13.4486 4.35137C12.98 3.88275 12.2202 3.88275 11.7516 4.35137L4.55157 11.5514C4.08294 12.02 4.08294 12.7798 4.55157 13.2484C5.0202 13.7171 5.78 13.7171 6.24862 13.2484L13.4486 6.04843C13.9173 5.5798 13.9173 4.82 13.4486 4.35137ZM12.0001 9.9999C11.006 9.9999 10.2001 10.8058 10.2001 11.7999C10.2001 12.794 11.006 13.5999 12.0001 13.5999C12.9942 13.5999 13.8001 12.794 13.8001 11.7999C13.8001 10.8058 12.9942 9.9999 12.0001 9.9999Z" fill="#111827"/>
</svg>
