<svg width="20" height="19" viewBox="0 0 20 19" fill="none" xmlns="http://www.w3.org/2000/svg">
<path d="M0.399902 2.99998C0.399902 1.67449 1.47442 0.599976 2.7999 0.599976H11.1999C12.5254 0.599976 13.5999 1.67449 13.5999 2.99998V7.79998C13.5999 9.12546 12.5254 10.2 11.1999 10.2H8.7999L5.1999 13.8V10.2H2.7999C1.47442 10.2 0.399902 9.12546 0.399902 7.79998V2.99998Z" fill="#111827"/>
<path d="M15.9999 5.39998V8.59997C15.9999 10.8091 14.209 12.6 11.9999 12.6H9.79401L7.67397 14.72C8.00975 14.8987 8.393 15 8.7999 15H11.1999L14.7999 18.6V15H17.1999C18.5254 15 19.5999 13.9255 19.5999 12.6V7.79998C19.5999 6.47449 18.5254 5.39998 17.1999 5.39998H15.9999Z" fill="#111827"/>
</svg>
