<svg width="24" height="25" viewBox="0 0 24 25" fill="none" xmlns="http://www.w3.org/2000/svg">
<g filter="url(#filter0_d_124_58140)">
<rect x="2" y="1" width="20" height="21" rx="6" fill="white"/>
<path fill-rule="evenodd" clip-rule="evenodd" d="M13.2255 5.03475C13.5377 5.13317 13.75 5.4227 13.75 5.75005V9.50002L16.75 9.50002C17.0297 9.50002 17.2861 9.65561 17.4152 9.90366C17.5444 10.1517 17.5248 10.451 17.3644 10.6801L12.1144 18.18C11.9267 18.4482 11.5867 18.5637 11.2745 18.4652C10.9623 18.3668 10.75 18.0773 10.75 17.75L10.75 14H7.75C7.47035 14 7.21392 13.8444 7.08477 13.5963C6.95562 13.3483 6.97521 13.049 7.13558 12.8199L12.3856 5.31996C12.5733 5.05178 12.9133 4.93634 13.2255 5.03475Z" fill="#28282E"/>
<rect x="2.5" y="1.5" width="19" height="20" rx="5.5" stroke="#707070"/>
</g>
<defs>
<filter id="filter0_d_124_58140" x="0" y="0" width="24" height="25" filterUnits="userSpaceOnUse" color-interpolation-filters="sRGB">
<feFlood flood-opacity="0" result="BackgroundImageFix"/>
<feColorMatrix in="SourceAlpha" type="matrix" values="0 0 0 0 0 0 0 0 0 0 0 0 0 0 0 0 0 0 127 0" result="hardAlpha"/>
<feOffset dy="1"/>
<feGaussianBlur stdDeviation="1"/>
<feColorMatrix type="matrix" values="0 0 0 0 0 0 0 0 0 0 0 0 0 0 0 0 0 0 0.05 0"/>
<feBlend mode="normal" in2="BackgroundImageFix" result="effect1_dropShadow_124_58140"/>
<feBlend mode="normal" in="SourceGraphic" in2="effect1_dropShadow_124_58140" result="shape"/>
</filter>
</defs>
</svg>
