<svg width="20" height="20" viewBox="0 0 20 20" fill="none" xmlns="http://www.w3.org/2000/svg">
<path fill-rule="evenodd" clip-rule="evenodd" d="M9.9999 19.5999C15.3018 19.5999 19.5999 15.3018 19.5999 9.9999C19.5999 4.69797 15.3018 0.399902 9.9999 0.399902C4.69797 0.399902 0.399902 4.69797 0.399902 9.9999C0.399902 15.3018 4.69797 19.5999 9.9999 19.5999ZM7.42893 4.5824C7.08795 4.0141 6.35084 3.82982 5.78254 4.1708C5.21425 4.51178 5.02997 5.24889 5.37095 5.81719L7.16051 8.79979H6.39994C5.7372 8.79979 5.19994 9.33705 5.19994 9.99979C5.19994 10.6625 5.7372 11.1998 6.39994 11.1998H8.60051L8.79994 11.5322V12.3998H6.39994C5.7372 12.3998 5.19994 12.937 5.19994 13.5998C5.19994 14.2625 5.7372 14.7998 6.39994 14.7998H8.79994V15.9998C8.79994 16.6625 9.3372 17.1998 9.99994 17.1998C10.6627 17.1998 11.1999 16.6625 11.1999 15.9998V14.7998H13.5999C14.2627 14.7998 14.7999 14.2625 14.7999 13.5998C14.7999 12.937 14.2627 12.3998 13.5999 12.3998H11.1999V11.5322L11.3994 11.1998H13.5999C14.2627 11.1998 14.7999 10.6625 14.7999 9.99979C14.7999 9.33705 14.2627 8.79979 13.5999 8.79979H12.8394L14.6289 5.81719C14.9699 5.24889 14.7856 4.51178 14.2173 4.1708C13.649 3.82982 12.9119 4.0141 12.5709 4.5824L10.0405 8.79979H9.95937L7.42893 4.5824Z" fill="#28282E"/>
</svg>
