<svg width="18" height="20" viewBox="0 0 18 20" fill="none" xmlns="http://www.w3.org/2000/svg">
<path d="M7.8001 1.5999C7.8001 0.937161 8.33736 0.399902 9.0001 0.399902C9.66284 0.399902 10.2001 0.937161 10.2001 1.5999V8.1999C10.2001 8.53127 10.4687 8.7999 10.8001 8.7999C11.1315 8.7999 11.4001 8.53127 11.4001 8.1999V2.7999C11.4001 2.13716 11.9374 1.5999 12.6001 1.5999C13.2628 1.5999 13.8001 2.13716 13.8001 2.7999V8.1999C13.8001 8.53127 14.0687 8.7999 14.4001 8.7999C14.7315 8.7999 15.0001 8.53127 15.0001 8.1999V5.1999C15.0001 4.53716 15.5374 3.9999 16.2001 3.9999C16.8628 3.9999 17.4001 4.53716 17.4001 5.1999V11.1999C17.4001 15.8391 13.6393 19.5999 9.0001 19.5999C4.36091 19.5999 0.600098 15.8391 0.600098 11.1999V8.7999C0.600098 8.13716 1.13736 7.5999 1.8001 7.5999C2.46284 7.5999 3.0001 8.13716 3.0001 8.7999V11.7999C3.0001 12.1313 3.26873 12.3999 3.6001 12.3999C3.93147 12.3999 4.2001 12.1313 4.2001 11.7999V2.7999C4.2001 2.13716 4.73736 1.5999 5.4001 1.5999C6.06284 1.5999 6.6001 2.13716 6.6001 2.7999V8.1999C6.6001 8.53127 6.86873 8.7999 7.2001 8.7999C7.53147 8.7999 7.8001 8.53127 7.8001 8.1999V1.5999Z" fill="#28282E"/>
</svg>
