<svg width="400" height="534" viewBox="0 0 400 534" fill="none" xmlns="http://www.w3.org/2000/svg">
<mask id="mask0_3325_193569" style="mask-type:alpha" maskUnits="userSpaceOnUse" x="0" y="0" width="400" height="534">
<rect width="400" height="534" rx="25" fill="#F3F4F6"/>
</mask>
<g mask="url(#mask0_3325_193569)">
<g opacity="0.8">
<g opacity="0.3">
<line x1="-80" y1="16.5" x2="738" y2="16.5" stroke="#E0E7FF"/>
<line x1="-80" y1="36.5" x2="738" y2="36.5" stroke="#E0E7FF"/>
<line x1="-80" y1="56.5" x2="738" y2="56.5" stroke="#E0E7FF"/>
<line x1="-80" y1="76.5" x2="738" y2="76.5" stroke="#E0E7FF"/>
<line x1="-80" y1="96.5" x2="738" y2="96.5" stroke="#E0E7FF"/>
<line x1="-80" y1="116.5" x2="738" y2="116.5" stroke="#E0E7FF"/>
<line x1="-80" y1="136.5" x2="738" y2="136.5" stroke="#E0E7FF"/>
<line x1="-80" y1="156.5" x2="738" y2="156.5" stroke="#E0E7FF"/>
<line x1="-80" y1="176.5" x2="738" y2="176.5" stroke="#E0E7FF"/>
<line x1="-80" y1="196.5" x2="738" y2="196.5" stroke="#E0E7FF"/>
<line x1="-80" y1="216.5" x2="738" y2="216.5" stroke="#E0E7FF"/>
<line x1="-80" y1="236.5" x2="738" y2="236.5" stroke="#E0E7FF"/>
<line x1="-80" y1="256.5" x2="738" y2="256.5" stroke="#E0E7FF"/>
<line x1="-80" y1="276.5" x2="738" y2="276.5" stroke="#E0E7FF"/>
<line x1="-80" y1="296.5" x2="738" y2="296.5" stroke="#E0E7FF"/>
<line x1="-80" y1="316.5" x2="738" y2="316.5" stroke="#E0E7FF"/>
<line x1="-80" y1="336.5" x2="738" y2="336.5" stroke="#E0E7FF"/>
<line x1="-80" y1="356.5" x2="738" y2="356.5" stroke="#E0E7FF"/>
<line x1="-80" y1="376.5" x2="738" y2="376.5" stroke="#E0E7FF"/>
<line x1="-80" y1="396.5" x2="738" y2="396.5" stroke="#E0E7FF"/>
<line x1="-80" y1="416.5" x2="738" y2="416.5" stroke="#E0E7FF"/>
<line x1="-80" y1="436.5" x2="738" y2="436.5" stroke="#E0E7FF"/>
<line x1="-80" y1="456.5" x2="738" y2="456.5" stroke="#E0E7FF"/>
<line x1="-80" y1="476.5" x2="738" y2="476.5" stroke="#E0E7FF"/>
<line x1="-80" y1="496.5" x2="738" y2="496.5" stroke="#E0E7FF"/>
<line x1="-80" y1="516.5" x2="738" y2="516.5" stroke="#E0E7FF"/>
</g>
<g opacity="0.3">
<line x1="19.5" y1="706" x2="19.5" y2="-112" stroke="#E0E7FF"/>
<line x1="39.5" y1="706" x2="39.5" y2="-112" stroke="#E0E7FF"/>
<line x1="59.5" y1="706" x2="59.5" y2="-112" stroke="#E0E7FF"/>
<line x1="79.5" y1="706" x2="79.5" y2="-112" stroke="#E0E7FF"/>
<line x1="99.5" y1="706" x2="99.5" y2="-112" stroke="#E0E7FF"/>
<line x1="119.5" y1="706" x2="119.5" y2="-112" stroke="#E0E7FF"/>
<line x1="139.5" y1="706" x2="139.5" y2="-112" stroke="#E0E7FF"/>
<line x1="159.5" y1="706" x2="159.5" y2="-112" stroke="#E0E7FF"/>
<line x1="179.5" y1="706" x2="179.5" y2="-112" stroke="#E0E7FF"/>
<line x1="199.5" y1="706" x2="199.5" y2="-112" stroke="#E0E7FF"/>
<line x1="219.5" y1="706" x2="219.5" y2="-112" stroke="#E0E7FF"/>
<line x1="239.5" y1="706" x2="239.5" y2="-112" stroke="#E0E7FF"/>
<line x1="259.5" y1="706" x2="259.5" y2="-112" stroke="#E0E7FF"/>
<line x1="279.5" y1="706" x2="279.5" y2="-112" stroke="#E0E7FF"/>
<line x1="299.5" y1="706" x2="299.5" y2="-112" stroke="#E0E7FF"/>
<line x1="319.5" y1="706" x2="319.5" y2="-112" stroke="#E0E7FF"/>
<line x1="339.5" y1="706" x2="339.5" y2="-112" stroke="#E0E7FF"/>
<line x1="359.5" y1="706" x2="359.5" y2="-112" stroke="#E0E7FF"/>
<line x1="379.5" y1="706" x2="379.5" y2="-112" stroke="#E0E7FF"/>
<line x1="399.5" y1="706" x2="399.5" y2="-112" stroke="#E0E7FF"/>
</g>
<rect x="151.587" y="207.478" width="113.681" height="56.363" rx="3.34357" fill="white" stroke="#E5E7EB" stroke-width="0.955306"/>
<path d="M197.565 232.954C197.508 232.44 197.269 232.042 196.849 231.76C196.429 231.474 195.901 231.331 195.264 231.331C194.808 231.331 194.414 231.404 194.081 231.548C193.748 231.69 193.489 231.885 193.305 232.135C193.124 232.381 193.033 232.661 193.033 232.976C193.033 233.24 193.095 233.468 193.218 233.66C193.344 233.852 193.509 234.013 193.712 234.143C193.918 234.27 194.139 234.376 194.374 234.463C194.609 234.546 194.835 234.615 195.052 234.67L196.138 234.952C196.493 235.039 196.856 235.156 197.229 235.305C197.602 235.453 197.947 235.648 198.266 235.891C198.584 236.133 198.841 236.434 199.036 236.792C199.235 237.15 199.335 237.579 199.335 238.078C199.335 238.708 199.172 239.267 198.846 239.755C198.524 240.244 198.056 240.629 197.441 240.912C196.829 241.194 196.089 241.335 195.221 241.335C194.388 241.335 193.668 241.203 193.06 240.939C192.452 240.675 191.977 240.3 191.633 239.815C191.289 239.327 191.099 238.748 191.063 238.078H192.746C192.778 238.48 192.908 238.815 193.136 239.082C193.368 239.347 193.663 239.544 194.021 239.674C194.383 239.801 194.779 239.864 195.21 239.864C195.684 239.864 196.105 239.79 196.474 239.641C196.847 239.489 197.14 239.28 197.354 239.012C197.567 238.74 197.674 238.424 197.674 238.062C197.674 237.733 197.58 237.463 197.392 237.253C197.207 237.043 196.956 236.87 196.637 236.732C196.322 236.595 195.966 236.473 195.568 236.368L194.254 236.01C193.364 235.768 192.659 235.411 192.138 234.941C191.62 234.47 191.361 233.848 191.361 233.074C191.361 232.433 191.535 231.874 191.882 231.397C192.23 230.919 192.7 230.548 193.294 230.284C193.887 230.016 194.557 229.882 195.302 229.882C196.055 229.882 196.719 230.014 197.294 230.278C197.873 230.543 198.329 230.906 198.662 231.369C198.995 231.829 199.168 232.357 199.183 232.954H197.565ZM205.101 232.813V234.116H200.547V232.813H205.101ZM201.768 230.816H203.391V238.702C203.391 239.017 203.438 239.254 203.532 239.413C203.626 239.569 203.747 239.676 203.896 239.734C204.048 239.788 204.212 239.815 204.39 239.815C204.52 239.815 204.634 239.806 204.732 239.788C204.829 239.77 204.905 239.755 204.96 239.745L205.253 241.085C205.159 241.121 205.025 241.158 204.851 241.194C204.677 241.234 204.46 241.255 204.2 241.259C203.773 241.266 203.375 241.19 203.006 241.031C202.636 240.872 202.338 240.626 202.11 240.293C201.882 239.96 201.768 239.542 201.768 239.039V230.816ZM209.322 241.335C208.794 241.335 208.316 241.237 207.889 241.042C207.462 240.843 207.124 240.555 206.874 240.179C206.628 239.802 206.505 239.341 206.505 238.795C206.505 238.324 206.596 237.937 206.777 237.633C206.957 237.329 207.202 237.089 207.509 236.911C207.817 236.734 208.161 236.6 208.541 236.51C208.921 236.419 209.308 236.35 209.702 236.303C210.202 236.245 210.607 236.198 210.918 236.162C211.229 236.122 211.455 236.059 211.597 235.972C211.738 235.885 211.808 235.744 211.808 235.549V235.511C211.808 235.037 211.674 234.67 211.407 234.409C211.142 234.148 210.748 234.018 210.223 234.018C209.677 234.018 209.246 234.139 208.931 234.382C208.62 234.621 208.405 234.887 208.286 235.18L206.76 234.832C206.941 234.326 207.205 233.917 207.553 233.606C207.904 233.291 208.307 233.063 208.763 232.922C209.219 232.777 209.699 232.705 210.202 232.705C210.534 232.705 210.887 232.744 211.26 232.824C211.636 232.9 211.987 233.041 212.313 233.247C212.642 233.454 212.912 233.749 213.122 234.132C213.332 234.512 213.437 235.006 213.437 235.614V241.15H211.852V240.011H211.786C211.682 240.22 211.524 240.427 211.314 240.629C211.104 240.832 210.835 241 210.506 241.134C210.176 241.268 209.782 241.335 209.322 241.335ZM209.675 240.032C210.124 240.032 210.507 239.944 210.826 239.766C211.148 239.589 211.392 239.357 211.559 239.072C211.729 238.782 211.814 238.473 211.814 238.143V237.069C211.756 237.127 211.644 237.181 211.477 237.231C211.314 237.279 211.128 237.32 210.918 237.356C210.708 237.389 210.504 237.42 210.305 237.449C210.106 237.474 209.939 237.496 209.805 237.514C209.49 237.554 209.203 237.62 208.942 237.715C208.685 237.809 208.479 237.944 208.324 238.122C208.172 238.295 208.096 238.527 208.096 238.816C208.096 239.218 208.244 239.522 208.541 239.728C208.837 239.931 209.215 240.032 209.675 240.032ZM215.598 241.15V232.813H217.167V234.138H217.254C217.406 233.689 217.673 233.336 218.057 233.079C218.444 232.819 218.882 232.688 219.371 232.688C219.472 232.688 219.591 232.692 219.729 232.699C219.87 232.706 219.98 232.715 220.06 232.726V234.279C219.995 234.261 219.879 234.241 219.713 234.219C219.546 234.194 219.38 234.181 219.213 234.181C218.83 234.181 218.488 234.262 218.187 234.425C217.891 234.584 217.655 234.807 217.482 235.093C217.308 235.375 217.221 235.697 217.221 236.059V241.15H215.598ZM225.849 232.813V234.116H221.295V232.813H225.849ZM222.516 230.816H224.139V238.702C224.139 239.017 224.186 239.254 224.28 239.413C224.374 239.569 224.495 239.676 224.644 239.734C224.796 239.788 224.96 239.815 225.138 239.815C225.268 239.815 225.382 239.806 225.48 239.788C225.577 239.77 225.653 239.755 225.708 239.745L226.001 241.085C225.907 241.121 225.773 241.158 225.599 241.194C225.425 241.234 225.208 241.255 224.948 241.259C224.521 241.266 224.123 241.19 223.754 241.031C223.384 240.872 223.086 240.626 222.858 240.293C222.63 239.96 222.516 239.542 222.516 239.039V230.816Z" fill="#111827"/>
<path d="M208.084 307.167C208.271 307.354 208.573 307.354 208.76 307.167L211.799 304.127C211.986 303.941 211.986 303.638 211.799 303.452C211.613 303.265 211.31 303.265 211.124 303.452L208.422 306.154L205.72 303.452C205.533 303.265 205.231 303.265 205.044 303.452C204.858 303.638 204.858 303.941 205.044 304.127L208.084 307.167ZM207.944 264.318V306.829H208.9V264.318H207.944Z" fill="#111827"/>
<path d="M208.084 442.769C208.271 442.956 208.573 442.956 208.76 442.769L211.799 439.729C211.986 439.543 211.986 439.241 211.799 439.054C211.613 438.867 211.31 438.867 211.124 439.054L208.422 441.756L205.72 439.054C205.533 438.867 205.231 438.867 205.044 439.054C204.858 439.241 204.858 439.543 205.044 439.729L208.084 442.769ZM207.944 399.92V442.432H208.9V399.92H207.944Z" fill="#111827"/>
<rect x="85.1897" y="307.785" width="246.469" height="74.5138" rx="6.68714" fill="#E0E7FF" stroke="#6366F1" stroke-width="1.91061" stroke-dasharray="3.82 3.82"/>
<path d="M208.084 426.103C208.271 426.289 208.573 426.289 208.76 426.103L211.799 423.063C211.986 422.876 211.986 422.574 211.799 422.387C211.613 422.201 211.31 422.201 211.124 422.387L208.422 425.09L205.72 422.387C205.533 422.201 205.231 422.201 205.044 422.387C204.858 422.574 204.858 422.876 205.044 423.063L208.084 426.103ZM207.944 383.254V425.765H208.9V383.254H207.944Z" fill="#111827"/>
<rect x="85.1897" y="426.72" width="246.469" height="74.5138" rx="6.68714" fill="#F3F4F6" stroke="#E5E7EB" stroke-width="1.91061" stroke-dasharray="3.82 3.82"/>
<path d="M183.747 459.353V470.469H181.956L176.718 462.897H176.626V470.469H174.612V459.353H176.414L181.646 466.93H181.744V459.353H183.747ZM189.545 470.632C188.709 470.632 187.987 470.458 187.38 470.111C186.775 469.76 186.31 469.264 185.985 468.624C185.659 467.98 185.496 467.222 185.496 466.349C185.496 465.492 185.659 464.739 185.985 464.091C186.314 463.44 186.773 462.934 187.363 462.572C187.953 462.206 188.646 462.023 189.442 462.023C189.956 462.023 190.441 462.107 190.897 462.273C191.356 462.436 191.762 462.689 192.113 463.033C192.467 463.377 192.746 463.815 192.949 464.347C193.151 464.875 193.252 465.505 193.252 466.235V466.838H186.419V465.514H191.369C191.365 465.137 191.284 464.803 191.125 464.509C190.966 464.213 190.743 463.979 190.457 463.809C190.175 463.639 189.846 463.554 189.469 463.554C189.068 463.554 188.715 463.652 188.411 463.847C188.107 464.039 187.87 464.292 187.7 464.607C187.533 464.918 187.448 465.26 187.445 465.633V466.789C187.445 467.274 187.533 467.69 187.711 468.038C187.888 468.381 188.136 468.645 188.454 468.83C188.773 469.011 189.145 469.101 189.572 469.101C189.858 469.101 190.117 469.062 190.349 468.982C190.58 468.899 190.781 468.778 190.951 468.618C191.121 468.459 191.25 468.262 191.336 468.027L193.171 468.233C193.055 468.718 192.835 469.141 192.509 469.503C192.187 469.861 191.774 470.14 191.271 470.339C190.768 470.534 190.193 470.632 189.545 470.632ZM196.342 462.132L198.025 465.21L199.735 462.132H201.814L199.3 466.301L201.857 470.469H199.789L198.025 467.468L196.277 470.469H194.193L196.733 466.301L194.258 462.132H196.342ZM207.497 462.132V463.652H202.704V462.132H207.497ZM203.887 460.135H205.852V467.962C205.852 468.226 205.892 468.428 205.971 468.569C206.055 468.707 206.163 468.801 206.297 468.852C206.431 468.902 206.579 468.928 206.742 468.928C206.865 468.928 206.977 468.919 207.079 468.901C207.184 468.882 207.263 468.866 207.317 468.852L207.649 470.388C207.544 470.424 207.393 470.464 207.198 470.507C207.006 470.551 206.771 470.576 206.492 470.583C206 470.598 205.557 470.524 205.163 470.361C204.768 470.194 204.455 469.937 204.224 469.59C203.996 469.243 203.883 468.808 203.887 468.287V460.135ZM219.521 464.336L217.729 464.531C217.679 464.35 217.59 464.18 217.464 464.021C217.34 463.862 217.174 463.733 216.964 463.636C216.754 463.538 216.497 463.489 216.193 463.489C215.784 463.489 215.441 463.578 215.162 463.755C214.887 463.932 214.751 464.162 214.755 464.444C214.751 464.687 214.84 464.884 215.021 465.036C215.206 465.188 215.509 465.313 215.933 465.41L217.355 465.714C218.144 465.884 218.73 466.154 219.114 466.523C219.501 466.892 219.696 467.375 219.7 467.972C219.696 468.497 219.542 468.96 219.238 469.362C218.938 469.76 218.52 470.071 217.985 470.296C217.449 470.52 216.834 470.632 216.139 470.632C215.119 470.632 214.297 470.419 213.675 469.992C213.052 469.561 212.682 468.962 212.562 468.195L214.478 468.01C214.565 468.387 214.75 468.671 215.032 468.863C215.314 469.054 215.681 469.15 216.134 469.15C216.6 469.15 216.975 469.054 217.257 468.863C217.543 468.671 217.686 468.434 217.686 468.152C217.686 467.913 217.594 467.715 217.409 467.56C217.228 467.404 216.946 467.285 216.562 467.202L215.14 466.903C214.341 466.737 213.749 466.456 213.365 466.062C212.982 465.664 212.792 465.161 212.796 464.553C212.792 464.039 212.931 463.594 213.213 463.218C213.499 462.838 213.896 462.545 214.402 462.338C214.912 462.128 215.5 462.023 216.166 462.023C217.143 462.023 217.912 462.232 218.473 462.648C219.038 463.064 219.387 463.626 219.521 464.336ZM225.483 462.132V463.652H220.69V462.132H225.483ZM221.874 460.135H223.839V467.962C223.839 468.226 223.878 468.428 223.958 468.569C224.041 468.707 224.15 468.801 224.284 468.852C224.418 468.902 224.566 468.928 224.729 468.928C224.852 468.928 224.964 468.919 225.065 468.901C225.17 468.882 225.25 468.866 225.304 468.852L225.635 470.388C225.53 470.424 225.38 470.464 225.185 470.507C224.993 470.551 224.758 470.576 224.479 470.583C223.987 470.598 223.544 470.524 223.149 470.361C222.755 470.194 222.442 469.937 222.21 469.59C221.982 469.243 221.87 468.808 221.874 468.287V460.135ZM230.728 470.632C229.892 470.632 229.17 470.458 228.562 470.111C227.958 469.76 227.493 469.264 227.167 468.624C226.842 467.98 226.679 467.222 226.679 466.349C226.679 465.492 226.842 464.739 227.167 464.091C227.496 463.44 227.956 462.934 228.546 462.572C229.136 462.206 229.829 462.023 230.625 462.023C231.139 462.023 231.623 462.107 232.079 462.273C232.539 462.436 232.944 462.689 233.295 463.033C233.65 463.377 233.929 463.815 234.131 464.347C234.334 464.875 234.435 465.505 234.435 466.235V466.838H227.601V465.514H232.552C232.548 465.137 232.467 464.803 232.307 464.509C232.148 464.213 231.926 463.979 231.64 463.809C231.358 463.639 231.028 463.554 230.652 463.554C230.25 463.554 229.897 463.652 229.593 463.847C229.289 464.039 229.052 464.292 228.882 464.607C228.716 464.918 228.631 465.26 228.627 465.633V466.789C228.627 467.274 228.716 467.69 228.893 468.038C229.071 468.381 229.318 468.645 229.637 468.83C229.955 469.011 230.328 469.101 230.755 469.101C231.041 469.101 231.3 469.062 231.531 468.982C231.763 468.899 231.964 468.778 232.134 468.618C232.304 468.459 232.432 468.262 232.519 468.027L234.354 468.233C234.238 468.718 234.017 469.141 233.691 469.503C233.369 469.861 232.957 470.14 232.454 470.339C231.951 470.534 231.376 470.632 230.728 470.632ZM236.097 473.596V462.132H238.03V463.511H238.144C238.245 463.308 238.388 463.093 238.573 462.865C238.757 462.633 239.007 462.436 239.322 462.273C239.636 462.107 240.038 462.023 240.527 462.023C241.171 462.023 241.751 462.188 242.269 462.517C242.79 462.843 243.202 463.326 243.506 463.967C243.814 464.604 243.968 465.385 243.968 466.311C243.968 467.227 243.818 468.005 243.517 468.645C243.217 469.286 242.808 469.774 242.291 470.111C241.773 470.448 241.187 470.616 240.532 470.616C240.054 470.616 239.658 470.536 239.343 470.377C239.028 470.218 238.775 470.026 238.583 469.802C238.395 469.574 238.249 469.358 238.144 469.156H238.062V473.596H236.097ZM238.024 466.301C238.024 466.84 238.1 467.312 238.252 467.717C238.408 468.123 238.63 468.439 238.92 468.667C239.213 468.892 239.568 469.004 239.984 469.004C240.418 469.004 240.782 468.888 241.075 468.656C241.368 468.421 241.589 468.101 241.737 467.696C241.889 467.287 241.965 466.822 241.965 466.301C241.965 465.783 241.891 465.324 241.742 464.922C241.594 464.52 241.373 464.205 241.08 463.978C240.787 463.75 240.422 463.636 239.984 463.636C239.564 463.636 239.208 463.746 238.914 463.967C238.621 464.187 238.399 464.497 238.247 464.895C238.098 465.293 238.024 465.761 238.024 466.301Z" fill="#4B5563"/>
<g filter="url(#filter0_d_3325_193569)">
<rect x="40" y="312" width="191.061" height="42.0335" rx="3.82122" fill="white"/>
<path d="M65.0141 333.561L57.3657 327.614L56.75 327.135L57.368 327.617V339.286H74.2052V327.617L66.5523 333.561C66.3324 333.732 66.0618 333.825 65.7832 333.825C65.5047 333.825 65.2341 333.732 65.0141 333.561V333.561Z" fill="#E0E7FF"/>
<path d="M73.9453 326.004L74.8252 327.135L74.2073 327.616L74.8275 327.135L73.9476 326.004H73.9453Z" fill="#E0E7FF"/>
<path d="M75.1028 325.136H56.4743C56.078 325.136 55.7578 325.456 55.7578 325.852V340.182C55.7578 340.578 56.078 340.898 56.4743 340.898H75.1028C75.4991 340.898 75.8192 340.578 75.8192 340.182V325.852C75.8192 325.456 75.4991 325.136 75.1028 325.136ZM72.9869 326.75L65.7885 332.345L58.5901 326.75H72.9869ZM74.2072 327.617V339.286H57.3699V327.617L56.7519 327.135L57.3677 327.614L65.0161 333.561C65.236 333.732 65.5066 333.825 65.7852 333.825C66.0637 333.825 66.3343 333.732 66.5543 333.561L74.2072 327.617L74.8251 327.135L73.9452 326.004H73.9474L74.8274 327.135L74.2072 327.617Z" fill="#6366F1"/>
<path d="M87.9903 337.017V327.29H93.8606V328.335H89.1682V331.621H93.5566V332.666H89.1682V335.972H93.9366V337.017H87.9903ZM95.8316 337.017V329.722H96.9144V330.861H97.0094C97.1614 330.472 97.4068 330.17 97.7456 329.954C98.0844 329.736 98.4912 329.627 98.9662 329.627C99.4475 329.627 99.848 329.736 100.168 329.954C100.491 330.17 100.742 330.472 100.923 330.861H100.999C101.186 330.485 101.466 330.185 101.84 329.964C102.213 329.739 102.661 329.627 103.184 329.627C103.836 329.627 104.369 329.831 104.784 330.239C105.199 330.645 105.406 331.276 105.406 332.134V337.017H104.286V332.134C104.286 331.596 104.138 331.211 103.844 330.98C103.549 330.749 103.203 330.633 102.804 330.633C102.291 330.633 101.893 330.789 101.612 331.099C101.33 331.406 101.189 331.795 101.189 332.267V337.017H100.049V332.02C100.049 331.605 99.9145 331.271 99.6453 331.018C99.3762 330.762 99.0295 330.633 98.6052 330.633C98.3139 330.633 98.0416 330.711 97.7883 330.866C97.5382 331.021 97.3356 331.237 97.1804 331.512C97.0284 331.784 96.9524 332.099 96.9524 332.457V337.017H95.8316ZM109.602 337.188C109.14 337.188 108.721 337.101 108.344 336.926C107.967 336.749 107.668 336.494 107.446 336.162C107.225 335.826 107.114 335.421 107.114 334.946C107.114 334.528 107.196 334.189 107.361 333.929C107.525 333.667 107.745 333.461 108.021 333.312C108.296 333.163 108.6 333.052 108.933 332.98C109.268 332.904 109.606 332.843 109.944 332.799C110.388 332.742 110.747 332.699 111.023 332.671C111.301 332.639 111.504 332.587 111.63 332.514C111.76 332.441 111.825 332.315 111.825 332.134V332.096C111.825 331.628 111.697 331.264 111.44 331.004C111.187 330.744 110.802 330.614 110.286 330.614C109.751 330.614 109.332 330.732 109.028 330.966C108.724 331.2 108.51 331.45 108.387 331.716L107.323 331.336C107.513 330.893 107.766 330.548 108.083 330.301C108.402 330.051 108.751 329.877 109.128 329.779C109.507 329.677 109.881 329.627 110.248 329.627C110.483 329.627 110.752 329.655 111.056 329.712C111.363 329.766 111.659 329.878 111.944 330.049C112.232 330.22 112.471 330.478 112.661 330.823C112.851 331.169 112.946 331.631 112.946 332.21V337.017H111.825V336.029H111.768C111.692 336.187 111.566 336.356 111.388 336.537C111.211 336.717 110.975 336.871 110.681 336.998C110.386 337.124 110.027 337.188 109.602 337.188ZM109.773 336.181C110.217 336.181 110.59 336.094 110.894 335.919C111.201 335.745 111.433 335.521 111.588 335.245C111.746 334.97 111.825 334.68 111.825 334.376V333.35C111.778 333.407 111.673 333.459 111.512 333.507C111.353 333.551 111.17 333.591 110.961 333.626C110.755 333.657 110.554 333.686 110.358 333.711C110.164 333.733 110.008 333.752 109.887 333.768C109.596 333.806 109.324 333.868 109.071 333.953C108.82 334.036 108.618 334.161 108.463 334.328C108.311 334.493 108.235 334.718 108.235 335.003C108.235 335.392 108.379 335.687 108.667 335.886C108.958 336.083 109.327 336.181 109.773 336.181ZM114.992 337.017V329.722H116.113V337.017H114.992ZM115.562 328.506C115.343 328.506 115.155 328.431 114.997 328.282C114.841 328.134 114.764 327.955 114.764 327.746C114.764 327.537 114.841 327.358 114.997 327.209C115.155 327.06 115.343 326.986 115.562 326.986C115.78 326.986 115.967 327.06 116.122 327.209C116.28 327.358 116.36 327.537 116.36 327.746C116.36 327.955 116.28 328.134 116.122 328.282C115.967 328.431 115.78 328.506 115.562 328.506ZM119.286 327.29V337.017H118.166V327.29H119.286Z" fill="#111827"/>
<rect x="40.4777" y="312.478" width="190.106" height="41.0781" rx="3.34357" stroke="#E5E7EB" stroke-width="0.955306"/>
</g>
</g>
</g>
<defs>
<filter id="filter0_d_3325_193569" x="40" y="312" width="191.062" height="43.9443" filterUnits="userSpaceOnUse" color-interpolation-filters="sRGB">
<feFlood flood-opacity="0" result="BackgroundImageFix"/>
<feColorMatrix in="SourceAlpha" type="matrix" values="0 0 0 0 0 0 0 0 0 0 0 0 0 0 0 0 0 0 127 0" result="hardAlpha"/>
<feOffset dy="1.91061"/>
<feComposite in2="hardAlpha" operator="out"/>
<feColorMatrix type="matrix" values="0 0 0 0 0 0 0 0 0 0 0 0 0 0 0 0 0 0 0.03 0"/>
<feBlend mode="normal" in2="BackgroundImageFix" result="effect1_dropShadow_3325_193569"/>
<feBlend mode="normal" in="SourceGraphic" in2="effect1_dropShadow_3325_193569" result="shape"/>
</filter>
</defs>
</svg>
