<svg width="400" height="502" viewBox="0 0 400 502" fill="none" xmlns="http://www.w3.org/2000/svg">
<g filter="url(#filter0_d_5621_112986)">
<rect width="400" height="500" rx="25" fill="#F9FAFB"/>
</g>
<rect x="149.279" y="181.427" width="101.743" height="50.4439" rx="2.99244" fill="white" stroke="#E5E7EB" stroke-width="0.854982"/>
<path d="M190.425 203.909C190.374 203.449 190.16 203.093 189.784 202.84C189.409 202.584 188.936 202.456 188.366 202.456C187.958 202.456 187.605 202.521 187.307 202.651C187.009 202.777 186.777 202.952 186.612 203.175C186.45 203.395 186.369 203.646 186.369 203.928C186.369 204.165 186.424 204.369 186.534 204.54C186.648 204.712 186.795 204.856 186.976 204.973C187.161 205.086 187.359 205.182 187.569 205.259C187.78 205.334 187.982 205.395 188.176 205.444L189.148 205.696C189.465 205.774 189.791 205.879 190.124 206.012C190.458 206.145 190.767 206.32 191.052 206.537C191.337 206.754 191.567 207.023 191.742 207.343C191.92 207.664 192.009 208.048 192.009 208.495C192.009 209.058 191.863 209.558 191.572 209.996C191.284 210.433 190.864 210.778 190.314 211.03C189.766 211.283 189.104 211.409 188.327 211.409C187.582 211.409 186.938 211.291 186.393 211.055C185.849 210.818 185.424 210.483 185.116 210.049C184.808 209.612 184.638 209.094 184.606 208.495H186.112C186.141 208.854 186.257 209.154 186.461 209.393C186.669 209.63 186.933 209.806 187.253 209.923C187.577 210.036 187.932 210.093 188.317 210.093C188.741 210.093 189.119 210.026 189.449 209.894C189.783 209.758 190.045 209.57 190.236 209.33C190.427 209.087 190.523 208.804 190.523 208.48C190.523 208.185 190.438 207.944 190.27 207.756C190.105 207.568 189.88 207.413 189.595 207.29C189.313 207.167 188.994 207.058 188.638 206.964L187.462 206.644C186.666 206.427 186.034 206.108 185.568 205.687C185.105 205.266 184.873 204.709 184.873 204.016C184.873 203.442 185.028 202.942 185.339 202.515C185.65 202.087 186.071 201.755 186.602 201.519C187.133 201.279 187.733 201.159 188.4 201.159C189.073 201.159 189.668 201.277 190.183 201.514C190.701 201.75 191.109 202.076 191.407 202.49C191.705 202.902 191.86 203.374 191.873 203.909H190.425ZM197.169 203.782V204.948H193.094V203.782H197.169ZM194.187 201.995H195.639V209.053C195.639 209.335 195.681 209.547 195.765 209.69C195.85 209.829 195.958 209.924 196.091 209.976C196.227 210.025 196.374 210.049 196.533 210.049C196.65 210.049 196.752 210.041 196.839 210.025C196.927 210.009 196.995 209.996 197.043 209.986L197.305 211.186C197.221 211.218 197.101 211.251 196.946 211.283C196.79 211.319 196.596 211.338 196.363 211.341C195.981 211.348 195.625 211.28 195.294 211.137C194.964 210.995 194.697 210.775 194.493 210.477C194.289 210.179 194.187 209.805 194.187 209.354V201.995ZM200.948 211.409C200.475 211.409 200.047 211.322 199.665 211.147C199.283 210.969 198.98 210.711 198.757 210.375C198.536 210.038 198.426 209.625 198.426 209.136C198.426 208.715 198.507 208.368 198.669 208.096C198.831 207.824 199.05 207.609 199.325 207.45C199.6 207.291 199.908 207.172 200.248 207.091C200.588 207.01 200.935 206.948 201.288 206.906C201.735 206.854 202.097 206.812 202.376 206.78C202.654 206.744 202.857 206.687 202.983 206.61C203.109 206.532 203.172 206.406 203.172 206.231V206.197C203.172 205.773 203.053 205.444 202.813 205.211C202.577 204.978 202.224 204.861 201.754 204.861C201.265 204.861 200.88 204.969 200.598 205.186C200.319 205.4 200.127 205.638 200.02 205.901L198.655 205.59C198.817 205.136 199.053 204.77 199.364 204.492C199.678 204.21 200.039 204.006 200.447 203.88C200.855 203.75 201.284 203.685 201.735 203.685C202.033 203.685 202.348 203.721 202.682 203.792C203.019 203.86 203.333 203.987 203.624 204.171C203.919 204.356 204.16 204.62 204.348 204.963C204.536 205.303 204.63 205.745 204.63 206.289V211.244H203.211V210.224H203.153C203.059 210.412 202.918 210.596 202.73 210.778C202.543 210.959 202.301 211.11 202.007 211.23C201.712 211.349 201.359 211.409 200.948 211.409ZM201.263 210.243C201.665 210.243 202.008 210.164 202.293 210.005C202.581 209.847 202.8 209.639 202.949 209.384C203.101 209.124 203.177 208.848 203.177 208.553V207.591C203.126 207.643 203.025 207.691 202.876 207.737C202.73 207.779 202.564 207.816 202.376 207.849C202.188 207.878 202.005 207.905 201.827 207.931C201.649 207.954 201.5 207.973 201.38 207.989C201.098 208.025 200.841 208.085 200.608 208.169C200.378 208.253 200.193 208.375 200.054 208.533C199.918 208.689 199.85 208.896 199.85 209.155C199.85 209.515 199.983 209.787 200.248 209.971C200.514 210.153 200.852 210.243 201.263 210.243ZM206.564 211.244V203.782H207.968V204.968H208.046C208.182 204.566 208.422 204.25 208.765 204.021C209.112 203.787 209.503 203.671 209.941 203.671C210.031 203.671 210.138 203.674 210.261 203.68C210.388 203.687 210.486 203.695 210.558 203.705V205.094C210.499 205.078 210.396 205.06 210.247 205.041C210.098 205.018 209.949 205.007 209.8 205.007C209.457 205.007 209.15 205.08 208.882 205.225C208.616 205.368 208.406 205.567 208.25 205.823C208.095 206.075 208.017 206.364 208.017 206.687V211.244H206.564ZM215.739 203.782V204.948H211.663V203.782H215.739ZM212.756 201.995H214.208V209.053C214.208 209.335 214.25 209.547 214.335 209.69C214.419 209.829 214.527 209.924 214.66 209.976C214.796 210.025 214.943 210.049 215.102 210.049C215.219 210.049 215.321 210.041 215.408 210.025C215.496 210.009 215.564 209.996 215.612 209.986L215.875 211.186C215.79 211.218 215.671 211.251 215.515 211.283C215.36 211.319 215.165 211.338 214.932 211.341C214.55 211.348 214.194 211.28 213.863 211.137C213.533 210.995 213.266 210.775 213.062 210.477C212.858 210.179 212.756 209.805 212.756 209.354V201.995Z" fill="#111827"/>
<path d="M199.846 270.648C200.013 270.815 200.284 270.815 200.451 270.648L203.171 267.927C203.338 267.76 203.338 267.49 203.171 267.323C203.004 267.156 202.734 267.156 202.567 267.323L200.148 269.741L197.73 267.323C197.563 267.156 197.293 267.156 197.126 267.323C196.959 267.49 196.959 267.76 197.126 267.927L199.846 270.648ZM199.721 232.299V270.346H200.576V232.299H199.721Z" fill="#111827"/>
<path d="M199.846 392.01C200.013 392.177 200.284 392.177 200.451 392.01L203.171 389.289C203.338 389.122 203.338 388.851 203.171 388.685C203.004 388.518 202.734 388.518 202.567 388.685L200.148 391.103L197.73 388.685C197.563 388.518 197.293 388.518 197.126 388.685C196.959 388.851 196.959 389.122 197.126 389.289L199.846 392.01ZM199.721 353.661V391.707H200.576V353.661H199.721Z" fill="#111827"/>
<rect x="89.855" y="271.201" width="220.585" height="66.6886" rx="5.98487" fill="#E0E7FF" stroke="#6366F1" stroke-width="1.70996" stroke-dasharray="3.42 3.42"/>
<path d="M199.846 377.093C200.013 377.26 200.284 377.26 200.451 377.093L203.171 374.373C203.338 374.206 203.338 373.935 203.171 373.768C203.004 373.601 202.734 373.601 202.567 373.768L200.148 376.186L197.73 373.768C197.563 373.601 197.293 373.601 197.126 373.768C196.959 373.935 196.959 374.206 197.126 374.373L199.846 377.093ZM199.721 338.744V376.791H200.576V338.744H199.721Z" fill="#111827"/>
<rect x="89.855" y="377.646" width="220.585" height="66.6886" rx="5.98487" fill="#F3F4F6" stroke="#E5E7EB" stroke-width="1.70996" stroke-dasharray="3.42 3.42"/>
<path d="M177.845 406.637V416.586H176.242L171.554 409.809H171.471V416.586H169.669V406.637H171.282L175.965 413.419H176.052V406.637H177.845ZM183.034 416.732C182.286 416.732 181.64 416.576 181.096 416.265C180.555 415.951 180.139 415.507 179.847 414.934C179.556 414.358 179.41 413.679 179.41 412.899C179.41 412.131 179.556 411.458 179.847 410.878C180.142 410.295 180.553 409.842 181.081 409.518C181.609 409.191 182.229 409.027 182.942 409.027C183.402 409.027 183.836 409.102 184.244 409.251C184.655 409.396 185.018 409.623 185.332 409.931C185.649 410.238 185.899 410.63 186.08 411.106C186.261 411.579 186.352 412.143 186.352 412.797V413.336H180.236V412.151H184.666C184.663 411.814 184.59 411.514 184.448 411.252C184.305 410.986 184.106 410.778 183.85 410.625C183.598 410.473 183.303 410.397 182.966 410.397C182.607 410.397 182.291 410.484 182.019 410.659C181.747 410.831 181.535 411.058 181.382 411.339C181.233 411.618 181.157 411.924 181.154 412.258V413.292C181.154 413.726 181.233 414.099 181.392 414.41C181.551 414.717 181.773 414.954 182.058 415.119C182.343 415.281 182.676 415.362 183.058 415.362C183.314 415.362 183.546 415.326 183.753 415.255C183.96 415.18 184.14 415.072 184.292 414.929C184.444 414.787 184.559 414.61 184.637 414.4L186.279 414.585C186.175 415.018 185.978 415.397 185.686 415.721C185.398 416.042 185.029 416.291 184.579 416.469C184.129 416.644 183.614 416.732 183.034 416.732ZM189.117 409.124L190.623 411.879L192.153 409.124H194.014L191.765 412.855L194.053 416.586H192.202L190.623 413.9L189.059 416.586H187.194L189.467 412.855L187.252 409.124H189.117ZM199.1 409.124V410.484H194.811V409.124H199.1ZM195.87 407.337H197.628V414.342C197.628 414.578 197.664 414.759 197.735 414.886C197.81 415.009 197.907 415.093 198.027 415.138C198.146 415.184 198.279 415.206 198.425 415.206C198.535 415.206 198.635 415.198 198.726 415.182C198.82 415.166 198.891 415.151 198.94 415.138L199.236 416.513C199.142 416.545 199.008 416.581 198.833 416.62C198.661 416.659 198.451 416.681 198.201 416.688C197.761 416.701 197.364 416.635 197.011 416.489C196.658 416.34 196.378 416.11 196.171 415.799C195.967 415.488 195.866 415.099 195.87 414.633V407.337ZM209.862 411.097L208.258 411.271C208.213 411.11 208.134 410.957 208.02 410.815C207.91 410.672 207.761 410.557 207.573 410.47C207.386 410.382 207.156 410.339 206.884 410.339C206.518 410.339 206.21 410.418 205.961 410.577C205.715 410.735 205.593 410.941 205.596 411.194C205.593 411.411 205.672 411.587 205.834 411.723C206 411.859 206.272 411.971 206.65 412.058L207.923 412.33C208.629 412.483 209.154 412.724 209.497 413.054C209.844 413.385 210.019 413.817 210.022 414.351C210.019 414.821 209.881 415.235 209.609 415.595C209.34 415.951 208.966 416.23 208.487 416.43C208.007 416.631 207.457 416.732 206.835 416.732C205.922 416.732 205.187 416.541 204.63 416.158C204.073 415.773 203.741 415.237 203.634 414.55L205.349 414.385C205.426 414.722 205.591 414.976 205.844 415.148C206.097 415.32 206.425 415.405 206.83 415.405C207.248 415.405 207.583 415.32 207.836 415.148C208.092 414.976 208.22 414.764 208.22 414.512C208.22 414.298 208.137 414.121 207.972 413.982C207.81 413.843 207.557 413.736 207.214 413.662L205.941 413.394C205.226 413.245 204.696 412.994 204.353 412.641C204.009 412.285 203.839 411.835 203.843 411.291C203.839 410.831 203.964 410.433 204.217 410.096C204.473 409.756 204.827 409.493 205.281 409.309C205.737 409.121 206.263 409.027 206.859 409.027C207.734 409.027 208.422 409.213 208.924 409.586C209.429 409.958 209.742 410.462 209.862 411.097ZM215.198 409.124V410.484H210.908V409.124H215.198ZM211.967 407.337H213.726V414.342C213.726 414.578 213.762 414.759 213.833 414.886C213.907 415.009 214.004 415.093 214.124 415.138C214.244 415.184 214.377 415.206 214.523 415.206C214.633 415.206 214.733 415.198 214.824 415.182C214.918 415.166 214.989 415.151 215.038 415.138L215.334 416.513C215.24 416.545 215.106 416.581 214.931 416.62C214.759 416.659 214.549 416.681 214.299 416.688C213.859 416.701 213.462 416.635 213.109 416.489C212.756 416.34 212.476 416.11 212.269 415.799C212.065 415.488 211.964 415.099 211.967 414.633V407.337ZM219.892 416.732C219.144 416.732 218.498 416.576 217.953 416.265C217.413 415.951 216.996 415.507 216.705 414.934C216.414 414.358 216.268 413.679 216.268 412.899C216.268 412.131 216.414 411.458 216.705 410.878C217 410.295 217.411 409.842 217.939 409.518C218.467 409.191 219.087 409.027 219.799 409.027C220.259 409.027 220.693 409.102 221.101 409.251C221.513 409.396 221.875 409.623 222.19 409.931C222.507 410.238 222.756 410.63 222.938 411.106C223.119 411.579 223.21 412.143 223.21 412.797V413.336H217.094V412.151H221.524C221.521 411.814 221.448 411.514 221.305 411.252C221.163 410.986 220.964 410.778 220.708 410.625C220.455 410.473 220.161 410.397 219.824 410.397C219.464 410.397 219.149 410.484 218.876 410.659C218.604 410.831 218.392 411.058 218.24 411.339C218.091 411.618 218.015 411.924 218.012 412.258V413.292C218.012 413.726 218.091 414.099 218.25 414.41C218.409 414.717 218.63 414.954 218.915 415.119C219.2 415.281 219.534 415.362 219.916 415.362C220.172 415.362 220.403 415.326 220.611 415.255C220.818 415.18 220.998 415.072 221.15 414.929C221.302 414.787 221.417 414.61 221.495 414.4L223.137 414.585C223.033 415.018 222.836 415.397 222.544 415.721C222.256 416.042 221.887 416.291 221.437 416.469C220.986 416.644 220.471 416.732 219.892 416.732ZM224.697 419.384V409.124H226.427V410.358H226.529C226.619 410.177 226.747 409.984 226.913 409.78C227.078 409.573 227.301 409.396 227.583 409.251C227.865 409.102 228.224 409.027 228.661 409.027C229.238 409.027 229.758 409.174 230.221 409.469C230.687 409.761 231.056 410.193 231.328 410.766C231.604 411.336 231.741 412.036 231.741 412.865C231.741 413.684 231.607 414.38 231.338 414.954C231.069 415.527 230.703 415.964 230.24 416.265C229.777 416.567 229.252 416.717 228.666 416.717C228.239 416.717 227.884 416.646 227.602 416.503C227.321 416.361 227.094 416.189 226.922 415.988C226.754 415.784 226.623 415.592 226.529 415.41H226.456V419.384H224.697ZM226.422 412.855C226.422 413.338 226.49 413.76 226.626 414.123C226.765 414.486 226.964 414.769 227.223 414.973C227.486 415.174 227.803 415.274 228.176 415.274C228.564 415.274 228.89 415.171 229.152 414.963C229.414 414.753 229.612 414.466 229.745 414.104C229.881 413.738 229.949 413.321 229.949 412.855C229.949 412.392 229.882 411.981 229.75 411.621C229.617 411.262 229.419 410.98 229.157 410.776C228.895 410.572 228.567 410.47 228.176 410.47C227.8 410.47 227.481 410.569 227.219 410.766C226.956 410.964 226.757 411.241 226.621 411.597C226.488 411.953 226.422 412.373 226.422 412.855Z" fill="#4B5563"/>
<g filter="url(#filter1_d_5621_112986)">
<rect x="50" y="274.809" width="174.337" height="38.3541" rx="3.82122" fill="white"/>
<path d="M75.0141 294.53L67.3657 288.583L66.75 288.104L67.368 288.585V300.255H84.2052V288.585L76.5523 294.53C76.3324 294.701 76.0618 294.794 75.7832 294.794C75.5047 294.794 75.2341 294.701 75.0141 294.53Z" fill="#E0E7FF"/>
<path d="M83.9453 286.973L84.8252 288.104L84.2073 288.585L84.8275 288.104L83.9476 286.973H83.9453Z" fill="#E0E7FF"/>
<path d="M84.2369 286.855H67.3826C67.0241 286.855 66.7344 287.145 66.7344 287.503V300.468C66.7344 300.827 67.0241 301.116 67.3826 301.116H84.2369C84.5955 301.116 84.8852 300.827 84.8852 300.468V287.503C84.8852 287.145 84.5955 286.855 84.2369 286.855ZM82.3226 288.316L75.8098 293.378L69.297 288.316H82.3226ZM83.4266 289.1V299.658H68.1929V289.1L67.6338 288.664L68.1909 289.097L75.1109 294.478C75.3099 294.633 75.5547 294.716 75.8067 294.716C76.0587 294.716 76.3036 294.633 76.5026 294.478L83.4266 289.1L83.9857 288.664L83.1896 287.641H83.1916L83.9878 288.664L83.4266 289.1Z" fill="#6366F1"/>
<path d="M97.9903 297.986V288.259H103.861V289.304H99.1682V292.591H103.557V293.635H99.1682V296.941H103.937V297.986H97.9903ZM105.832 297.986V290.691H106.914V291.831H107.009C107.161 291.441 107.407 291.139 107.746 290.923C108.084 290.705 108.491 290.596 108.966 290.596C109.447 290.596 109.848 290.705 110.168 290.923C110.491 291.139 110.742 291.441 110.923 291.831H110.999C111.186 291.454 111.466 291.155 111.84 290.933C112.213 290.708 112.661 290.596 113.184 290.596C113.836 290.596 114.369 290.8 114.784 291.208C115.199 291.614 115.406 292.245 115.406 293.103V297.986H114.286V293.103C114.286 292.565 114.138 292.181 113.844 291.949C113.549 291.718 113.203 291.603 112.804 291.603C112.291 291.603 111.893 291.758 111.612 292.068C111.33 292.375 111.189 292.765 111.189 293.236V297.986H110.049V292.989C110.049 292.575 109.914 292.241 109.645 291.987C109.376 291.731 109.03 291.603 108.605 291.603C108.314 291.603 108.042 291.68 107.788 291.835C107.538 291.991 107.336 292.206 107.18 292.481C107.028 292.754 106.952 293.069 106.952 293.426V297.986H105.832ZM119.602 298.157C119.14 298.157 118.721 298.07 118.344 297.896C117.967 297.718 117.668 297.463 117.446 297.131C117.225 296.795 117.114 296.39 117.114 295.915C117.114 295.497 117.196 295.158 117.361 294.899C117.525 294.636 117.745 294.43 118.021 294.281C118.296 294.133 118.6 294.022 118.933 293.949C119.268 293.873 119.606 293.813 119.944 293.768C120.388 293.711 120.747 293.669 121.023 293.64C121.301 293.608 121.504 293.556 121.63 293.483C121.76 293.411 121.825 293.284 121.825 293.103V293.065C121.825 292.597 121.697 292.233 121.44 291.973C121.187 291.713 120.802 291.584 120.286 291.584C119.751 291.584 119.332 291.701 119.028 291.935C118.724 292.169 118.51 292.42 118.387 292.686L117.323 292.306C117.513 291.862 117.766 291.517 118.083 291.27C118.402 291.02 118.751 290.846 119.128 290.748C119.507 290.646 119.881 290.596 120.248 290.596C120.483 290.596 120.752 290.624 121.056 290.681C121.363 290.735 121.659 290.848 121.944 291.018C122.232 291.189 122.471 291.448 122.661 291.793C122.851 292.138 122.946 292.6 122.946 293.179V297.986H121.825V296.998H121.768C121.692 297.156 121.566 297.326 121.388 297.506C121.211 297.687 120.975 297.84 120.681 297.967C120.386 298.093 120.027 298.157 119.602 298.157ZM119.773 297.15C120.217 297.15 120.59 297.063 120.894 296.889C121.201 296.715 121.433 296.49 121.588 296.214C121.746 295.939 121.825 295.649 121.825 295.345V294.319C121.778 294.376 121.673 294.429 121.512 294.476C121.353 294.52 121.17 294.56 120.961 294.595C120.755 294.626 120.554 294.655 120.358 294.68C120.164 294.702 120.008 294.721 119.887 294.737C119.596 294.775 119.324 294.837 119.071 294.922C118.82 295.005 118.618 295.13 118.463 295.298C118.311 295.462 118.235 295.687 118.235 295.972C118.235 296.362 118.379 296.656 118.667 296.855C118.958 297.052 119.327 297.15 119.773 297.15ZM124.992 297.986V290.691H126.113V297.986H124.992ZM125.562 289.475C125.343 289.475 125.155 289.401 124.997 289.252C124.841 289.103 124.764 288.924 124.764 288.715C124.764 288.506 124.841 288.327 124.997 288.178C125.155 288.03 125.343 287.955 125.562 287.955C125.78 287.955 125.967 288.03 126.122 288.178C126.28 288.327 126.36 288.506 126.36 288.715C126.36 288.924 126.28 289.103 126.122 289.252C125.967 289.401 125.78 289.475 125.562 289.475ZM129.286 288.259V297.986H128.166V288.259H129.286Z" fill="#111827"/>
<rect x="50.4777" y="275.286" width="173.381" height="37.3988" rx="3.34357" stroke="#E5E7EB" stroke-width="0.955306"/>
</g>
<path d="M53.2559 91V60.4545H64.9491C67.1565 60.4545 68.991 60.8026 70.4527 61.4986C71.9243 62.1847 73.023 63.1243 73.7488 64.3175C74.4846 65.5107 74.8525 66.8629 74.8525 68.3743C74.8525 69.6172 74.6139 70.6811 74.1366 71.5661C73.6594 72.4411 73.018 73.152 72.2126 73.6989C71.4072 74.2457 70.5074 74.6385 69.5131 74.8771V75.1754C70.5969 75.2351 71.6359 75.5682 72.6302 76.1747C73.6345 76.7713 74.4548 77.6165 75.0912 78.7102C75.7275 79.804 76.0457 81.1264 76.0457 82.6776C76.0457 84.2585 75.6629 85.6804 74.8973 86.9432C74.1317 88.196 72.9783 89.1854 71.4371 89.9112C69.8959 90.6371 67.9569 91 65.6203 91H53.2559ZM58.7893 86.3764H64.7403C66.7488 86.3764 68.1956 85.9936 69.0805 85.228C69.9754 84.4524 70.4229 83.4581 70.4229 82.245C70.4229 81.3402 70.1991 80.5249 69.7517 79.799C69.3042 79.0632 68.6679 78.4865 67.8426 78.0689C67.0173 77.6413 66.0329 77.4276 64.8895 77.4276H58.7893V86.3764ZM58.7893 73.4453H64.2631C65.2176 73.4453 66.0777 73.2713 66.8433 72.9233C67.6089 72.5653 68.2105 72.0632 68.648 71.4169C69.0954 70.7607 69.3192 69.9851 69.3192 69.0902C69.3192 67.907 68.9015 66.9325 68.0663 66.1669C67.241 65.4013 66.0131 65.0185 64.3824 65.0185H58.7893V73.4453ZM95.2224 81.3651V68.0909H100.622V91H95.3865V86.9283H95.1478C94.6308 88.2109 93.7806 89.2599 92.5974 90.0753C91.4241 90.8906 89.9774 91.2983 88.2572 91.2983C86.7558 91.2983 85.4284 90.9652 84.2749 90.299C83.1315 89.6229 82.2366 88.6435 81.5903 87.3608C80.944 86.0682 80.6208 84.5071 80.6208 82.6776V68.0909H86.02V81.8423C86.02 83.294 86.4177 84.4474 87.2132 85.3026C88.0086 86.1577 89.0526 86.5852 90.3453 86.5852C91.1407 86.5852 91.9113 86.3913 92.657 86.0036C93.4028 85.6158 94.0143 85.0391 94.4916 84.2734C94.9788 83.4979 95.2224 82.5284 95.2224 81.3651ZM106.174 91V68.0909H111.573V91H106.174ZM108.888 64.8395C108.033 64.8395 107.297 64.5561 106.681 63.9893C106.064 63.4126 105.756 62.7216 105.756 61.9162C105.756 61.1009 106.064 60.4098 106.681 59.843C107.297 59.2663 108.033 58.978 108.888 58.978C109.753 58.978 110.489 59.2663 111.095 59.843C111.712 60.4098 112.02 61.1009 112.02 61.9162C112.02 62.7216 111.712 63.4126 111.095 63.9893C110.489 64.5561 109.753 64.8395 108.888 64.8395ZM122.524 60.4545V91H117.125V60.4545H122.524ZM136.577 91.4027C134.778 91.4027 133.167 90.9403 131.745 90.0156C130.323 89.0909 129.199 87.7486 128.374 85.9886C127.549 84.2287 127.136 82.0909 127.136 79.5753C127.136 77.0298 127.554 74.8821 128.389 73.1321C129.234 71.3722 130.373 70.0447 131.805 69.1499C133.236 68.245 134.832 67.7926 136.592 67.7926C137.935 67.7926 139.038 68.0213 139.903 68.4787C140.768 68.9261 141.454 69.468 141.962 70.1044C142.469 70.7308 142.861 71.3224 143.14 71.8793H143.364V60.4545H148.778V91H143.468V87.3906H143.14C142.861 87.9474 142.459 88.5391 141.932 89.1655C141.405 89.782 140.709 90.3089 139.844 90.7464C138.979 91.1839 137.89 91.4027 136.577 91.4027ZM138.084 86.973C139.227 86.973 140.202 86.6648 141.007 86.0483C141.812 85.4219 142.424 84.5518 142.842 83.4382C143.259 82.3246 143.468 81.027 143.468 79.5455C143.468 78.0639 143.259 76.7763 142.842 75.6825C142.434 74.5888 141.827 73.7386 141.022 73.1321C140.226 72.5256 139.247 72.2223 138.084 72.2223C136.881 72.2223 135.876 72.5355 135.071 73.1619C134.266 73.7884 133.659 74.6534 133.251 75.7571C132.844 76.8608 132.64 78.1236 132.64 79.5455C132.64 80.9773 132.844 82.255 133.251 83.3786C133.669 84.4922 134.28 85.3722 135.086 86.0185C135.901 86.6548 136.9 86.973 138.084 86.973Z" fill="black"/>
<path d="M177.064 60.4545H182.553V81.9318C182.543 83.9006 182.125 85.5959 181.3 87.0178C180.474 88.4297 179.321 89.5185 177.839 90.2841C176.368 91.0398 174.653 91.4176 172.694 91.4176C170.904 91.4176 169.293 91.0994 167.862 90.4631C166.44 89.8168 165.311 88.8622 164.476 87.5994C163.641 86.3366 163.223 84.7656 163.223 82.8864H168.727C168.737 83.7116 168.915 84.4226 169.263 85.0192C169.621 85.6158 170.114 86.0732 170.74 86.3913C171.366 86.7095 172.087 86.8686 172.903 86.8686C173.788 86.8686 174.538 86.6847 175.155 86.3168C175.771 85.9389 176.239 85.3821 176.557 84.6463C176.885 83.9105 177.054 83.0057 177.064 81.9318V60.4545ZM198.31 91.4474C196.073 91.4474 194.134 90.9553 192.493 89.9709C190.853 88.9865 189.58 87.6094 188.675 85.8395C187.78 84.0696 187.333 82.0014 187.333 79.6349C187.333 77.2685 187.78 75.1953 188.675 73.4155C189.58 71.6357 190.853 70.2536 192.493 69.2692C194.134 68.2848 196.073 67.7926 198.31 67.7926C200.547 67.7926 202.486 68.2848 204.127 69.2692C205.767 70.2536 207.035 71.6357 207.93 73.4155C208.835 75.1953 209.287 77.2685 209.287 79.6349C209.287 82.0014 208.835 84.0696 207.93 85.8395C207.035 87.6094 205.767 88.9865 204.127 89.9709C202.486 90.9553 200.547 91.4474 198.31 91.4474ZM198.34 87.1222C199.553 87.1222 200.567 86.7891 201.382 86.1229C202.198 85.4467 202.804 84.5419 203.202 83.4084C203.61 82.2749 203.814 81.0121 203.814 79.62C203.814 78.218 203.61 76.9503 203.202 75.8168C202.804 74.6733 202.198 73.7635 201.382 73.0874C200.567 72.4112 199.553 72.0732 198.34 72.0732C197.097 72.0732 196.063 72.4112 195.238 73.0874C194.422 73.7635 193.811 74.6733 193.403 75.8168C193.005 76.9503 192.806 78.218 192.806 79.62C192.806 81.0121 193.005 82.2749 193.403 83.4084C193.811 84.5419 194.422 85.4467 195.238 86.1229C196.063 86.7891 197.097 87.1222 198.34 87.1222ZM228.471 81.3651V68.0909H233.871V91H228.635V86.9283H228.397C227.88 88.2109 227.03 89.2599 225.846 90.0753C224.673 90.8906 223.226 91.2983 221.506 91.2983C220.005 91.2983 218.677 90.9652 217.524 90.299C216.381 89.6229 215.486 88.6435 214.839 87.3608C214.193 86.0682 213.87 84.5071 213.87 82.6776V68.0909H219.269V81.8423C219.269 83.294 219.667 84.4474 220.462 85.3026C221.258 86.1577 222.302 86.5852 223.594 86.5852C224.39 86.5852 225.16 86.3913 225.906 86.0036C226.652 85.6158 227.263 85.0391 227.741 84.2734C228.228 83.4979 228.471 82.5284 228.471 81.3651ZM239.423 91V68.0909H244.658V71.9091H244.896C245.314 70.5866 246.03 69.5675 247.044 68.8516C248.068 68.1257 249.237 67.7628 250.549 67.7628C250.847 67.7628 251.18 67.7777 251.548 67.8075C251.926 67.8274 252.239 67.8622 252.488 67.9119V72.8786C252.259 72.799 251.896 72.7294 251.399 72.6697C250.912 72.6001 250.44 72.5653 249.982 72.5653C248.998 72.5653 248.113 72.7791 247.327 73.2067C246.552 73.6243 245.94 74.206 245.493 74.9517C245.045 75.6974 244.822 76.5575 244.822 77.532V91H239.423ZM261.474 77.5767V91H256.075V68.0909H261.235V71.9837H261.504C262.031 70.701 262.871 69.6818 264.025 68.9261C265.188 68.1705 266.625 67.7926 268.335 67.7926C269.916 67.7926 271.293 68.1307 272.466 68.8068C273.65 69.483 274.564 70.4624 275.211 71.745C275.867 73.0277 276.19 74.5838 276.18 76.4134V91H270.781V77.2486C270.781 75.7173 270.383 74.5192 269.588 73.6541C268.802 72.7891 267.713 72.3565 266.321 72.3565C265.377 72.3565 264.537 72.5653 263.801 72.983C263.075 73.3906 262.503 73.9822 262.086 74.7578C261.678 75.5334 261.474 76.473 261.474 77.5767ZM291.811 91.4474C289.514 91.4474 287.53 90.9702 285.86 90.0156C284.199 89.0511 282.922 87.6889 282.027 85.929C281.132 84.1591 280.684 82.076 280.684 79.6797C280.684 77.3232 281.132 75.255 282.027 73.4751C282.931 71.6854 284.194 70.2933 285.815 69.299C287.436 68.2947 289.34 67.7926 291.527 67.7926C292.939 67.7926 294.272 68.0213 295.525 68.4787C296.787 68.9261 297.901 69.6222 298.865 70.5668C299.84 71.5114 300.605 72.7145 301.162 74.1761C301.719 75.6278 301.998 77.358 301.998 79.3665V81.022H283.22V77.3828H296.822C296.812 76.3487 296.588 75.429 296.151 74.6236C295.713 73.8082 295.102 73.1669 294.316 72.6996C293.541 72.2322 292.636 71.9986 291.602 71.9986C290.498 71.9986 289.529 72.267 288.694 72.804C287.858 73.331 287.207 74.027 286.74 74.892C286.282 75.7472 286.049 76.6868 286.039 77.7109V80.8878C286.039 82.2202 286.282 83.3636 286.77 84.3182C287.257 85.2628 287.938 85.9886 288.813 86.4957C289.688 86.9929 290.712 87.2415 291.885 87.2415C292.671 87.2415 293.382 87.1321 294.018 86.9134C294.654 86.6847 295.206 86.3516 295.674 85.9141C296.141 85.4766 296.494 84.9347 296.733 84.2884L301.774 84.8551C301.456 86.1875 300.849 87.3509 299.954 88.3452C299.069 89.3295 297.936 90.0952 296.554 90.642C295.172 91.179 293.591 91.4474 291.811 91.4474ZM309.265 99.5909C308.529 99.5909 307.848 99.5313 307.221 99.4119C306.605 99.3026 306.113 99.1733 305.745 99.0241L306.998 94.8182C307.783 95.0469 308.484 95.1563 309.101 95.1463C309.717 95.1364 310.259 94.9425 310.726 94.5646C311.204 94.1967 311.606 93.5803 311.934 92.7152L312.397 91.4773L304.089 68.0909H309.817L315.096 85.392H315.335L320.63 68.0909H326.372L317.199 93.7741C316.772 94.9872 316.205 96.0263 315.499 96.8913C314.793 97.7663 313.928 98.4325 312.904 98.8899C311.89 99.3572 310.677 99.5909 309.265 99.5909ZM348.215 74.1463L343.293 74.6832C343.154 74.1861 342.91 73.7188 342.562 73.2812C342.224 72.8438 341.767 72.4908 341.19 72.2223C340.613 71.9538 339.907 71.8196 339.072 71.8196C337.948 71.8196 337.004 72.0632 336.238 72.5504C335.482 73.0376 335.11 73.669 335.119 74.4446C335.11 75.1108 335.353 75.6527 335.85 76.0703C336.357 76.4879 337.193 76.831 338.356 77.0994L342.264 77.9347C344.431 78.402 346.042 79.1428 347.096 80.157C348.16 81.1712 348.697 82.4986 348.707 84.1392C348.697 85.581 348.274 86.8537 347.439 87.9574C346.614 89.0511 345.465 89.9062 343.994 90.5227C342.522 91.1392 340.832 91.4474 338.923 91.4474C336.119 91.4474 333.862 90.8608 332.151 89.6875C330.441 88.5043 329.422 86.8587 329.094 84.7507L334.359 84.2436C334.597 85.2777 335.105 86.0582 335.88 86.5852C336.656 87.1122 337.665 87.3757 338.908 87.3757C340.191 87.3757 341.22 87.1122 341.995 86.5852C342.781 86.0582 343.173 85.407 343.173 84.6314C343.173 83.9751 342.92 83.4332 342.413 83.0057C341.916 82.5781 341.14 82.25 340.086 82.0213L336.178 81.201C333.981 80.7436 332.355 79.973 331.301 78.8892C330.247 77.7955 329.725 76.4134 329.735 74.7429C329.725 73.331 330.108 72.108 330.884 71.0739C331.669 70.0298 332.758 69.2244 334.15 68.6577C335.552 68.081 337.168 67.7926 338.997 67.7926C341.682 67.7926 343.795 68.3643 345.336 69.5078C346.887 70.6513 347.847 72.1974 348.215 74.1463Z" fill="url(#paint0_linear_5621_112986)"/>
<path d="M127.516 111.455L135.466 135.497H135.779L143.714 111.455H149.799L139.031 142H132.2L121.446 111.455H127.516ZM153.584 142V119.091H158.983V142H153.584ZM156.298 115.839C155.443 115.839 154.707 115.556 154.091 114.989C153.474 114.413 153.166 113.722 153.166 112.916C153.166 112.101 153.474 111.41 154.091 110.843C154.707 110.266 155.443 109.978 156.298 109.978C157.163 109.978 157.899 110.266 158.506 110.843C159.122 111.41 159.43 112.101 159.43 112.916C159.43 113.722 159.122 114.413 158.506 114.989C157.899 115.556 157.163 115.839 156.298 115.839ZM182.641 125.146L177.72 125.683C177.58 125.186 177.337 124.719 176.989 124.281C176.651 123.844 176.193 123.491 175.617 123.222C175.04 122.954 174.334 122.82 173.499 122.82C172.375 122.82 171.43 123.063 170.665 123.55C169.909 124.038 169.536 124.669 169.546 125.445C169.536 126.111 169.78 126.653 170.277 127.07C170.784 127.488 171.619 127.831 172.783 128.099L176.69 128.935C178.858 129.402 180.469 130.143 181.523 131.157C182.587 132.171 183.124 133.499 183.134 135.139C183.124 136.581 182.701 137.854 181.866 138.957C181.041 140.051 179.892 140.906 178.421 141.523C176.949 142.139 175.259 142.447 173.35 142.447C170.546 142.447 168.288 141.861 166.578 140.688C164.868 139.504 163.849 137.859 163.521 135.751L168.786 135.244C169.024 136.278 169.531 137.058 170.307 137.585C171.082 138.112 172.092 138.376 173.335 138.376C174.617 138.376 175.646 138.112 176.422 137.585C177.207 137.058 177.6 136.407 177.6 135.631C177.6 134.975 177.347 134.433 176.84 134.006C176.342 133.578 175.567 133.25 174.513 133.021L170.605 132.201C168.408 131.744 166.782 130.973 165.728 129.889C164.674 128.795 164.152 127.413 164.162 125.743C164.152 124.331 164.535 123.108 165.31 122.074C166.096 121.03 167.185 120.224 168.577 119.658C169.979 119.081 171.595 118.793 173.424 118.793C176.109 118.793 178.222 119.364 179.763 120.508C181.314 121.651 182.274 123.197 182.641 125.146ZM202.187 132.365V119.091H207.586V142H202.351V137.928H202.113C201.596 139.211 200.745 140.26 199.562 141.075C198.389 141.891 196.942 142.298 195.222 142.298C193.721 142.298 192.393 141.965 191.24 141.299C190.096 140.623 189.201 139.643 188.555 138.361C187.909 137.068 187.586 135.507 187.586 133.678V119.091H192.985V132.842C192.985 134.294 193.383 135.447 194.178 136.303C194.973 137.158 196.017 137.585 197.31 137.585C198.106 137.585 198.876 137.391 199.622 137.004C200.368 136.616 200.979 136.039 201.456 135.273C201.944 134.498 202.187 133.528 202.187 132.365ZM219.731 142.462C218.279 142.462 216.972 142.204 215.808 141.687C214.655 141.16 213.74 140.384 213.064 139.36C212.398 138.336 212.065 137.073 212.065 135.572C212.065 134.279 212.303 133.21 212.78 132.365C213.258 131.52 213.909 130.844 214.734 130.337C215.56 129.83 216.489 129.447 217.523 129.188C218.567 128.92 219.646 128.726 220.76 128.607C222.102 128.467 223.191 128.343 224.026 128.234C224.861 128.114 225.468 127.935 225.846 127.697C226.234 127.448 226.427 127.065 226.427 126.548V126.459C226.427 125.335 226.094 124.465 225.428 123.849C224.762 123.232 223.802 122.924 222.55 122.924C221.227 122.924 220.178 123.212 219.403 123.789C218.637 124.366 218.12 125.047 217.851 125.832L212.81 125.116C213.208 123.724 213.864 122.561 214.779 121.626C215.694 120.682 216.812 119.976 218.135 119.509C219.457 119.031 220.919 118.793 222.52 118.793C223.623 118.793 224.722 118.922 225.816 119.18C226.91 119.439 227.909 119.866 228.814 120.463C229.719 121.05 230.445 121.85 230.991 122.864C231.548 123.879 231.827 125.146 231.827 126.668V142H226.636V138.853H226.457C226.129 139.489 225.667 140.086 225.07 140.643C224.484 141.19 223.743 141.632 222.848 141.97C221.963 142.298 220.924 142.462 219.731 142.462ZM221.133 138.495C222.217 138.495 223.156 138.281 223.952 137.854C224.747 137.416 225.359 136.839 225.786 136.124C226.224 135.408 226.442 134.627 226.442 133.782V131.082C226.273 131.222 225.985 131.351 225.577 131.47C225.18 131.589 224.732 131.694 224.235 131.783C223.738 131.873 223.246 131.952 222.758 132.022C222.271 132.092 221.849 132.151 221.491 132.201C220.685 132.31 219.964 132.489 219.328 132.738C218.692 132.987 218.19 133.335 217.822 133.782C217.454 134.219 217.27 134.786 217.27 135.482C217.27 136.477 217.633 137.227 218.359 137.734C219.084 138.241 220.009 138.495 221.133 138.495ZM242.655 111.455V142H237.256V111.455H242.655ZM253.606 111.455V142H248.207V111.455H253.606ZM262.514 150.591C261.778 150.591 261.097 150.531 260.47 150.412C259.854 150.303 259.362 150.173 258.994 150.024L260.247 145.818C261.032 146.047 261.733 146.156 262.35 146.146C262.966 146.136 263.508 145.942 263.975 145.565C264.453 145.197 264.855 144.58 265.184 143.715L265.646 142.477L257.338 119.091H263.066L268.345 136.392H268.584L273.879 119.091H279.621L270.448 144.774C270.021 145.987 269.454 147.026 268.748 147.891C268.042 148.766 267.177 149.433 266.153 149.89C265.139 150.357 263.926 150.591 262.514 150.591Z" fill="#111827"/>
<defs>
<filter id="filter0_d_5621_112986" x="0" y="0" width="400" height="502" filterUnits="userSpaceOnUse" color-interpolation-filters="sRGB">
<feFlood flood-opacity="0" result="BackgroundImageFix"/>
<feColorMatrix in="SourceAlpha" type="matrix" values="0 0 0 0 0 0 0 0 0 0 0 0 0 0 0 0 0 0 127 0" result="hardAlpha"/>
<feOffset dy="2"/>
<feComposite in2="hardAlpha" operator="out"/>
<feColorMatrix type="matrix" values="0 0 0 0 0 0 0 0 0 0 0 0 0 0 0 0 0 0 0.03 0"/>
<feBlend mode="normal" in2="BackgroundImageFix" result="effect1_dropShadow_5621_112986"/>
<feBlend mode="normal" in="SourceGraphic" in2="effect1_dropShadow_5621_112986" result="shape"/>
</filter>
<filter id="filter1_d_5621_112986" x="50" y="274.809" width="174.336" height="40.2646" filterUnits="userSpaceOnUse" color-interpolation-filters="sRGB">
<feFlood flood-opacity="0" result="BackgroundImageFix"/>
<feColorMatrix in="SourceAlpha" type="matrix" values="0 0 0 0 0 0 0 0 0 0 0 0 0 0 0 0 0 0 127 0" result="hardAlpha"/>
<feOffset dy="1.91061"/>
<feComposite in2="hardAlpha" operator="out"/>
<feColorMatrix type="matrix" values="0 0 0 0 0 0 0 0 0 0 0 0 0 0 0 0 0 0 0.03 0"/>
<feBlend mode="normal" in2="BackgroundImageFix" result="effect1_dropShadow_5621_112986"/>
<feBlend mode="normal" in="SourceGraphic" in2="effect1_dropShadow_5621_112986" result="shape"/>
</filter>
<linearGradient id="paint0_linear_5621_112986" x1="349.309" y1="75.5" x2="162.169" y2="75.5" gradientUnits="userSpaceOnUse">
<stop stop-color="#6366F1"/>
<stop offset="0.354167" stop-color="#835CD7"/>
<stop offset="0.583333" stop-color="#D45E95"/>
<stop offset="0.796875" stop-color="#EF1468"/>
<stop offset="1" stop-color="#F77553"/>
</linearGradient>
</defs>
</svg>
