<svg width="829" height="68" viewBox="0 0 829 68" fill="none" xmlns="http://www.w3.org/2000/svg">
<path d="M39.3778 27.0142H31.9403C31.7282 25.7945 31.3371 24.714 30.767 23.7727C30.197 22.8182 29.4877 22.0095 28.6392 21.3466C27.7907 20.6837 26.8229 20.1866 25.7358 19.8551C24.6619 19.5104 23.5019 19.3381 22.2557 19.3381C20.0417 19.3381 18.0795 19.8949 16.3693 21.0085C14.6591 22.1089 13.3201 23.7263 12.3523 25.8608C11.3845 27.982 10.9006 30.5739 10.9006 33.6364C10.9006 36.7519 11.3845 39.3769 12.3523 41.5114C13.3333 43.6326 14.6723 45.2367 16.3693 46.3239C18.0795 47.3977 20.035 47.9347 22.2358 47.9347C23.4555 47.9347 24.5956 47.7756 25.6562 47.4574C26.7301 47.1259 27.6913 46.642 28.5398 46.0057C29.4015 45.3693 30.1241 44.5871 30.7074 43.6591C31.304 42.7311 31.715 41.6705 31.9403 40.4773L39.3778 40.517C39.0994 42.4527 38.4962 44.2689 37.5682 45.9659C36.6534 47.6629 35.4536 49.161 33.9688 50.4602C32.4839 51.7462 30.7472 52.7538 28.7585 53.483C26.7699 54.1989 24.5625 54.5568 22.1364 54.5568C18.5568 54.5568 15.3617 53.7282 12.5511 52.071C9.74053 50.4138 7.52652 48.0208 5.90909 44.892C4.29167 41.7633 3.48295 38.0114 3.48295 33.6364C3.48295 29.2481 4.2983 25.4962 5.92898 22.3807C7.55966 19.2519 9.7803 16.8589 12.5909 15.2017C15.4015 13.5445 18.5833 12.7159 22.1364 12.7159C24.4034 12.7159 26.5114 13.0341 28.4602 13.6705C30.4091 14.3068 32.1458 15.2415 33.6705 16.4744C35.1951 17.6941 36.4479 19.1922 37.429 20.9688C38.4233 22.732 39.0729 24.7472 39.3778 27.0142ZM45.8161 54V23.4545H52.7962V28.5455H53.1143C53.6712 26.7822 54.6257 25.4233 55.978 24.4688C57.3435 23.5009 58.9013 23.017 60.6513 23.017C61.049 23.017 61.4931 23.0369 61.9837 23.0767C62.4875 23.1032 62.9051 23.1496 63.2365 23.2159V29.8381C62.9316 29.732 62.4477 29.6392 61.7848 29.5597C61.1352 29.4669 60.5054 29.4205 59.8956 29.4205C58.5831 29.4205 57.4032 29.7055 56.3558 30.2756C55.3217 30.8324 54.5064 31.608 53.9098 32.6023C53.3132 33.5966 53.0149 34.7434 53.0149 36.0426V54H45.8161ZM80.2841 54.5966C77.2216 54.5966 74.5767 53.9602 72.3494 52.6875C70.1354 51.4015 68.4318 49.5852 67.2386 47.2386C66.0455 44.8788 65.4489 42.1013 65.4489 38.9062C65.4489 35.7642 66.0455 33.0066 67.2386 30.6335C68.4451 28.2472 70.1288 26.3911 72.2898 25.0653C74.4508 23.7263 76.9896 23.0568 79.9062 23.0568C81.7888 23.0568 83.5653 23.3617 85.2358 23.9716C86.9195 24.5682 88.4044 25.4962 89.6903 26.7557C90.9896 28.0152 92.0104 29.6193 92.7528 31.5682C93.4953 33.5038 93.8665 35.8106 93.8665 38.4886V40.696H68.8295V35.8438H86.9659C86.9527 34.465 86.6544 33.2386 86.071 32.1648C85.4877 31.0777 84.6723 30.2225 83.625 29.5994C82.5909 28.9763 81.3845 28.6648 80.0057 28.6648C78.5341 28.6648 77.2415 29.0227 76.1278 29.7386C75.0142 30.4413 74.1458 31.3693 73.5227 32.5227C72.9129 33.6629 72.6013 34.9157 72.5881 36.2812V40.517C72.5881 42.2936 72.9129 43.8182 73.5625 45.0909C74.2121 46.3504 75.1203 47.3182 76.2869 47.9943C77.4536 48.6572 78.8191 48.9886 80.3835 48.9886C81.4309 48.9886 82.3788 48.8428 83.2273 48.5511C84.0758 48.2462 84.8116 47.8021 85.4347 47.2188C86.0578 46.6354 86.5284 45.9129 86.8466 45.0511L93.5682 45.8068C93.1439 47.5833 92.3352 49.1345 91.142 50.4602C89.9621 51.7727 88.4508 52.7936 86.608 53.5227C84.7652 54.2386 82.6572 54.5966 80.2841 54.5966ZM108.746 54.6165C106.811 54.6165 105.067 54.2718 103.516 53.5824C101.978 52.8797 100.759 51.8456 99.8572 50.4801C98.969 49.1146 98.5249 47.4309 98.5249 45.429C98.5249 43.7055 98.843 42.2803 99.4794 41.1534C100.116 40.0265 100.984 39.125 102.085 38.4489C103.185 37.7727 104.424 37.2623 105.803 36.9176C107.195 36.5597 108.634 36.3011 110.119 36.142C111.908 35.9564 113.36 35.7907 114.474 35.6449C115.587 35.4858 116.396 35.2472 116.9 34.929C117.417 34.5975 117.675 34.0871 117.675 33.3977V33.2784C117.675 31.7803 117.231 30.6203 116.343 29.7983C115.455 28.9763 114.175 28.5653 112.505 28.5653C110.742 28.5653 109.343 28.9498 108.309 29.7188C107.288 30.4877 106.599 31.3958 106.241 32.4432L99.5192 31.4886C100.049 29.6326 100.924 28.0814 102.144 26.8352C103.364 25.5758 104.855 24.6345 106.619 24.0114C108.382 23.375 110.331 23.0568 112.465 23.0568C113.937 23.0568 115.402 23.2292 116.86 23.5739C118.318 23.9186 119.651 24.4886 120.857 25.2841C122.064 26.0663 123.031 27.1335 123.761 28.4858C124.503 29.8381 124.874 31.5284 124.874 33.5568V54H117.954V49.804H117.715C117.278 50.6525 116.661 51.4479 115.866 52.1903C115.084 52.9195 114.096 53.5095 112.903 53.9602C111.723 54.3977 110.337 54.6165 108.746 54.6165ZM110.616 49.3267C112.061 49.3267 113.314 49.0417 114.374 48.4716C115.435 47.8883 116.25 47.1193 116.82 46.1648C117.404 45.2102 117.695 44.1695 117.695 43.0426V39.4432C117.47 39.6288 117.085 39.8011 116.542 39.9602C116.012 40.1193 115.415 40.2585 114.752 40.3778C114.089 40.4972 113.433 40.6032 112.783 40.696C112.134 40.7888 111.57 40.8684 111.093 40.9347C110.019 41.0805 109.058 41.3191 108.21 41.6506C107.361 41.982 106.692 42.446 106.201 43.0426C105.71 43.6259 105.465 44.3816 105.465 45.3097C105.465 46.6354 105.949 47.6364 106.917 48.3125C107.885 48.9886 109.118 49.3267 110.616 49.3267ZM147.366 23.4545V29.0227H129.806V23.4545H147.366ZM134.141 16.1364H141.34V44.8125C141.34 45.7803 141.486 46.5227 141.778 47.0398C142.083 47.5436 142.48 47.8883 142.971 48.0739C143.461 48.2595 144.005 48.3523 144.602 48.3523C145.052 48.3523 145.463 48.3191 145.835 48.2528C146.219 48.1866 146.511 48.1269 146.71 48.0739L147.923 53.7017C147.538 53.8343 146.988 53.9801 146.272 54.1392C145.569 54.2983 144.708 54.3911 143.687 54.4176C141.884 54.4706 140.26 54.1989 138.815 53.6023C137.37 52.9924 136.223 52.0511 135.374 50.7784C134.539 49.5057 134.128 47.9148 134.141 46.0057V16.1364ZM166.581 54.5966C163.518 54.5966 160.874 53.9602 158.646 52.6875C156.432 51.4015 154.729 49.5852 153.536 47.2386C152.342 44.8788 151.746 42.1013 151.746 38.9062C151.746 35.7642 152.342 33.0066 153.536 30.6335C154.742 28.2472 156.426 26.3911 158.587 25.0653C160.748 23.7263 163.286 23.0568 166.203 23.0568C168.086 23.0568 169.862 23.3617 171.533 23.9716C173.216 24.5682 174.701 25.4962 175.987 26.7557C177.286 28.0152 178.307 29.6193 179.05 31.5682C179.792 33.5038 180.163 35.8106 180.163 38.4886V40.696H155.126V35.8438H173.263C173.25 34.465 172.951 33.2386 172.368 32.1648C171.785 31.0777 170.969 30.2225 169.922 29.5994C168.888 28.9763 167.681 28.6648 166.303 28.6648C164.831 28.6648 163.538 29.0227 162.425 29.7386C161.311 30.4413 160.443 31.3693 159.82 32.5227C159.21 33.6629 158.898 34.9157 158.885 36.2812V40.517C158.885 42.2936 159.21 43.8182 159.859 45.0909C160.509 46.3504 161.417 47.3182 162.584 47.9943C163.75 48.6572 165.116 48.9886 166.68 48.9886C167.728 48.9886 168.676 48.8428 169.524 48.5511C170.373 48.2462 171.108 47.8021 171.732 47.2188C172.355 46.6354 172.825 45.9129 173.143 45.0511L179.865 45.8068C179.441 47.5833 178.632 49.1345 177.439 50.4602C176.259 51.7727 174.748 52.7936 172.905 53.5227C171.062 54.2386 168.954 54.5966 166.581 54.5966ZM208.934 54.6165C206.998 54.6165 205.255 54.2718 203.704 53.5824C202.166 52.8797 200.946 51.8456 200.045 50.4801C199.156 49.1146 198.712 47.4309 198.712 45.429C198.712 43.7055 199.031 42.2803 199.667 41.1534C200.303 40.0265 201.172 39.125 202.272 38.4489C203.372 37.7727 204.612 37.2623 205.991 36.9176C207.383 36.5597 208.821 36.3011 210.306 36.142C212.096 35.9564 213.548 35.7907 214.661 35.6449C215.775 35.4858 216.584 35.2472 217.087 34.929C217.604 34.5975 217.863 34.0871 217.863 33.3977V33.2784C217.863 31.7803 217.419 30.6203 216.531 29.7983C215.642 28.9763 214.363 28.5653 212.692 28.5653C210.929 28.5653 209.531 28.9498 208.496 29.7188C207.476 30.4877 206.786 31.3958 206.428 32.4432L199.707 31.4886C200.237 29.6326 201.112 28.0814 202.332 26.8352C203.551 25.5758 205.043 24.6345 206.806 24.0114C208.569 23.375 210.518 23.0568 212.653 23.0568C214.124 23.0568 215.589 23.2292 217.048 23.5739C218.506 23.9186 219.838 24.4886 221.045 25.2841C222.251 26.0663 223.219 27.1335 223.948 28.4858C224.691 29.8381 225.062 31.5284 225.062 33.5568V54H218.141V49.804H217.903C217.465 50.6525 216.849 51.4479 216.053 52.1903C215.271 52.9195 214.283 53.5095 213.09 53.9602C211.91 54.3977 210.525 54.6165 208.934 54.6165ZM210.803 49.3267C212.248 49.3267 213.501 49.0417 214.562 48.4716C215.622 47.8883 216.438 47.1193 217.008 46.1648C217.591 45.2102 217.883 44.1695 217.883 43.0426V39.4432C217.657 39.6288 217.273 39.8011 216.729 39.9602C216.199 40.1193 215.603 40.2585 214.94 40.3778C214.277 40.4972 213.621 40.6032 212.971 40.696C212.321 40.7888 211.758 40.8684 211.281 40.9347C210.207 41.0805 209.246 41.3191 208.397 41.6506C207.549 41.982 206.879 42.446 206.388 43.0426C205.898 43.6259 205.653 44.3816 205.653 45.3097C205.653 46.6354 206.137 47.6364 207.104 48.3125C208.072 48.9886 209.305 49.3267 210.803 49.3267ZM239.499 36.1023V54H232.3V23.4545H239.181V28.6449H239.539C240.242 26.9347 241.362 25.5758 242.9 24.5682C244.451 23.5606 246.367 23.0568 248.647 23.0568C250.755 23.0568 252.591 23.5076 254.156 24.4091C255.733 25.3106 256.953 26.6165 257.815 28.3267C258.69 30.0369 259.121 32.1117 259.107 34.5511V54H251.908V35.6648C251.908 33.6231 251.378 32.0256 250.317 30.8722C249.27 29.7187 247.818 29.142 245.962 29.142C244.703 29.142 243.583 29.4205 242.602 29.9773C241.634 30.5208 240.871 31.3097 240.315 32.3438C239.771 33.3778 239.499 34.6307 239.499 36.1023Z" fill="#111827"/>
<path d="M314.466 33.6364C314.466 38.0777 313.624 41.8561 311.94 44.9716C310.27 48.0871 307.99 50.4669 305.099 52.1108C302.223 53.7415 298.988 54.5568 295.395 54.5568C291.776 54.5568 288.527 53.7348 285.651 52.0909C282.774 50.447 280.5 48.0672 278.83 44.9517C277.159 41.8362 276.324 38.0644 276.324 33.6364C276.324 29.1951 277.159 25.4167 278.83 22.3011C280.5 19.1856 282.774 16.8125 285.651 15.1818C288.527 13.5379 291.776 12.7159 295.395 12.7159C298.988 12.7159 302.223 13.5379 305.099 15.1818C307.99 16.8125 310.27 19.1856 311.94 22.3011C313.624 25.4167 314.466 29.1951 314.466 33.6364ZM305.736 33.6364C305.736 30.7595 305.305 28.3333 304.443 26.358C303.595 24.3826 302.395 22.8845 300.844 21.8636C299.293 20.8428 297.476 20.3324 295.395 20.3324C293.313 20.3324 291.497 20.8428 289.946 21.8636C288.395 22.8845 287.188 24.3826 286.327 26.358C285.478 28.3333 285.054 30.7595 285.054 33.6364C285.054 36.5133 285.478 38.9394 286.327 40.9148C287.188 42.8902 288.395 44.3883 289.946 45.4091C291.497 46.4299 293.313 46.9403 295.395 46.9403C297.476 46.9403 299.293 46.4299 300.844 45.4091C302.395 44.3883 303.595 42.8902 304.443 40.9148C305.305 38.9394 305.736 36.5133 305.736 33.6364ZM329.157 36.3409V54H320.685V23.4545H328.759V28.8438H329.117C329.793 27.0672 330.927 25.6619 332.518 24.6278C334.109 23.5805 336.038 23.0568 338.305 23.0568C340.426 23.0568 342.275 23.5208 343.853 24.4489C345.431 25.3769 346.657 26.7027 347.532 28.4261C348.407 30.1364 348.844 32.178 348.844 34.5511V54H340.373V36.0625C340.386 34.1932 339.909 32.7348 338.941 31.6875C337.973 30.6269 336.641 30.0966 334.944 30.0966C333.804 30.0966 332.796 30.3419 331.921 30.8324C331.059 31.3229 330.383 32.0388 329.893 32.9801C329.415 33.9081 329.17 35.0284 329.157 36.3409ZM355.68 54V13.2727H364.152V28.5852H364.411C364.782 27.7633 365.319 26.928 366.021 26.0795C366.737 25.2178 367.665 24.5019 368.805 23.9318C369.959 23.3485 371.391 23.0568 373.101 23.0568C375.328 23.0568 377.383 23.6402 379.266 24.8068C381.148 25.9602 382.653 27.7036 383.78 30.0369C384.907 32.357 385.47 35.267 385.47 38.767C385.47 42.1742 384.92 45.0511 383.82 47.3977C382.732 49.7311 381.248 51.5009 379.365 52.7074C377.496 53.9006 375.401 54.4972 373.081 54.4972C371.437 54.4972 370.038 54.2254 368.885 53.6818C367.745 53.1383 366.81 52.4555 366.081 51.6335C365.352 50.7983 364.795 49.9564 364.411 49.108H364.033V54H355.68ZM363.973 38.7273C363.973 40.5436 364.225 42.1278 364.729 43.4801C365.232 44.8324 365.962 45.8864 366.916 46.642C367.871 47.3845 369.031 47.7557 370.396 47.7557C371.775 47.7557 372.942 47.3778 373.896 46.6222C374.851 45.8532 375.573 44.7926 376.064 43.4403C376.568 42.0748 376.82 40.5038 376.82 38.7273C376.82 36.964 376.574 35.4129 376.084 34.0739C375.593 32.7348 374.871 31.6875 373.916 30.9318C372.962 30.1761 371.788 29.7983 370.396 29.7983C369.018 29.7983 367.851 30.1629 366.896 30.892C365.955 31.6212 365.232 32.6553 364.729 33.9943C364.225 35.3333 363.973 36.911 363.973 38.7273ZM404.924 54.5966C401.835 54.5966 399.164 53.9403 396.91 52.6278C394.669 51.3021 392.939 49.4593 391.719 47.0994C390.5 44.7263 389.89 41.9754 389.89 38.8466C389.89 35.6913 390.5 32.9337 391.719 30.5739C392.939 28.2008 394.669 26.358 396.91 25.0455C399.164 23.7197 401.835 23.0568 404.924 23.0568C408.013 23.0568 410.678 23.7197 412.918 25.0455C415.172 26.358 416.909 28.2008 418.129 30.5739C419.348 32.9337 419.958 35.6913 419.958 38.8466C419.958 41.9754 419.348 44.7263 418.129 47.0994C416.909 49.4593 415.172 51.3021 412.918 52.6278C410.678 53.9403 408.013 54.5966 404.924 54.5966ZM404.964 48.0341C406.369 48.0341 407.542 47.6364 408.484 46.8409C409.425 46.0322 410.134 44.9318 410.612 43.5398C411.102 42.1477 411.347 40.5634 411.347 38.7869C411.347 37.0104 411.102 35.4261 410.612 34.0341C410.134 32.642 409.425 31.5417 408.484 30.733C407.542 29.9242 406.369 29.5199 404.964 29.5199C403.545 29.5199 402.352 29.9242 401.384 30.733C400.43 31.5417 399.707 32.642 399.217 34.0341C398.739 35.4261 398.501 37.0104 398.501 38.7869C398.501 40.5634 398.739 42.1477 399.217 43.5398C399.707 44.9318 400.43 46.0322 401.384 46.8409C402.352 47.6364 403.545 48.0341 404.964 48.0341ZM434.177 54.5767C432.228 54.5767 430.491 54.2386 428.967 53.5625C427.442 52.8731 426.236 51.8589 425.347 50.5199C424.472 49.1676 424.035 47.4839 424.035 45.4688C424.035 43.7718 424.346 42.3466 424.969 41.1932C425.593 40.0398 426.441 39.1117 427.515 38.4091C428.589 37.7064 429.808 37.1761 431.174 36.8182C432.553 36.4602 433.998 36.2083 435.509 36.0625C437.286 35.8769 438.718 35.7045 439.805 35.5455C440.892 35.3731 441.681 35.1212 442.171 34.7898C442.662 34.4583 442.907 33.9678 442.907 33.3182V33.1989C442.907 31.9394 442.509 30.965 441.714 30.2756C440.932 29.5862 439.818 29.2415 438.373 29.2415C436.848 29.2415 435.635 29.5795 434.734 30.2557C433.832 30.9186 433.236 31.7538 432.944 32.7614L425.109 32.125C425.506 30.2689 426.289 28.6648 427.455 27.3125C428.622 25.947 430.127 24.8996 431.969 24.1705C433.826 23.428 435.973 23.0568 438.413 23.0568C440.11 23.0568 441.734 23.2557 443.285 23.6534C444.849 24.0511 446.235 24.6676 447.441 25.5028C448.661 26.3381 449.622 27.4119 450.325 28.7244C451.027 30.0237 451.379 31.5814 451.379 33.3977V54H443.344V49.7642H443.106C442.615 50.7188 441.959 51.5606 441.137 52.2898C440.315 53.0057 439.327 53.5691 438.174 53.9801C437.021 54.3778 435.688 54.5767 434.177 54.5767ZM436.603 48.7301C437.849 48.7301 438.95 48.4848 439.904 47.9943C440.859 47.4905 441.608 46.8144 442.151 45.9659C442.695 45.1174 442.967 44.1562 442.967 43.0824V39.8409C442.701 40.0133 442.337 40.1723 441.873 40.3182C441.422 40.4508 440.912 40.5767 440.342 40.696C439.772 40.8021 439.201 40.9015 438.631 40.9943C438.061 41.0739 437.544 41.1468 437.08 41.2131C436.086 41.3589 435.218 41.5909 434.475 41.9091C433.733 42.2273 433.156 42.6581 432.745 43.2017C432.334 43.732 432.129 44.3949 432.129 45.1903C432.129 46.3438 432.546 47.2254 433.381 47.8352C434.23 48.4318 435.304 48.7301 436.603 48.7301ZM457.951 54V23.4545H466.164V28.7841H466.482C467.039 26.8883 467.974 25.4564 469.286 24.4886C470.599 23.5076 472.11 23.017 473.82 23.017C474.245 23.017 474.702 23.0436 475.192 23.0966C475.683 23.1496 476.114 23.2225 476.485 23.3153V30.8324C476.087 30.7131 475.537 30.607 474.835 30.5142C474.132 30.4214 473.489 30.375 472.906 30.375C471.659 30.375 470.546 30.6468 469.565 31.1903C468.597 31.7206 467.828 32.4631 467.258 33.4176C466.701 34.3722 466.423 35.4725 466.423 36.7188V54H457.951ZM490.699 54.4972C488.379 54.4972 486.277 53.9006 484.395 52.7074C482.526 51.5009 481.041 49.7311 479.94 47.3977C478.853 45.0511 478.31 42.1742 478.31 38.767C478.31 35.267 478.873 32.357 480 30.0369C481.127 27.7036 482.625 25.9602 484.494 24.8068C486.377 23.6402 488.438 23.0568 490.679 23.0568C492.389 23.0568 493.814 23.3485 494.955 23.9318C496.108 24.5019 497.036 25.2178 497.739 26.0795C498.455 26.928 498.998 27.7633 499.369 28.5852H499.628V13.2727H508.08V54H499.727V49.108H499.369C498.972 49.9564 498.408 50.7983 497.679 51.6335C496.963 52.4555 496.028 53.1383 494.875 53.6818C493.735 54.2254 492.343 54.4972 490.699 54.4972ZM493.384 47.7557C494.749 47.7557 495.902 47.3845 496.844 46.642C497.798 45.8864 498.527 44.8324 499.031 43.4801C499.548 42.1278 499.807 40.5436 499.807 38.7273C499.807 36.911 499.555 35.3333 499.051 33.9943C498.547 32.6553 497.818 31.6212 496.864 30.892C495.909 30.1629 494.749 29.7983 493.384 29.7983C491.991 29.7983 490.818 30.1761 489.864 30.9318C488.909 31.6875 488.187 32.7348 487.696 34.0739C487.205 35.4129 486.96 36.964 486.96 38.7273C486.96 40.5038 487.205 42.0748 487.696 43.4403C488.2 44.7926 488.922 45.8532 489.864 46.6222C490.818 47.3778 491.991 47.7557 493.384 47.7557ZM515.045 54V23.4545H523.516V54H515.045ZM519.3 19.517C518.041 19.517 516.96 19.0994 516.059 18.2642C515.171 17.4157 514.727 16.4015 514.727 15.2216C514.727 14.0549 515.171 13.054 516.059 12.2188C516.96 11.3703 518.041 10.946 519.3 10.946C520.56 10.946 521.634 11.3703 522.522 12.2188C523.424 13.054 523.874 14.0549 523.874 15.2216C523.874 16.4015 523.424 17.4157 522.522 18.2642C521.634 19.0994 520.56 19.517 519.3 19.517ZM538.774 36.3409V54H530.303V23.4545H538.376V28.8438H538.734C539.411 27.0672 540.544 25.6619 542.135 24.6278C543.726 23.5805 545.655 23.0568 547.922 23.0568C550.043 23.0568 551.893 23.5208 553.47 24.4489C555.048 25.3769 556.274 26.7027 557.149 28.4261C558.024 30.1364 558.462 32.178 558.462 34.5511V54H549.99V36.0625C550.003 34.1932 549.526 32.7348 548.558 31.6875C547.59 30.6269 546.258 30.0966 544.561 30.0966C543.421 30.0966 542.413 30.3419 541.538 30.8324C540.677 31.3229 540 32.0388 539.51 32.9801C539.033 33.9081 538.787 35.0284 538.774 36.3409ZM578.9 66.0909C576.156 66.0909 573.802 65.7131 571.84 64.9574C569.891 64.215 568.34 63.2008 567.187 61.9148C566.033 60.6288 565.284 59.1837 564.94 57.5795L572.775 56.5256C573.013 57.1354 573.391 57.7055 573.908 58.2358C574.425 58.7661 575.108 59.1903 575.957 59.5085C576.818 59.84 577.866 60.0057 579.099 60.0057C580.942 60.0057 582.46 59.5549 583.653 58.6534C584.859 57.7652 585.462 56.2737 585.462 54.179V48.5909H585.104C584.733 49.4394 584.176 50.2415 583.434 50.9972C582.692 51.7528 581.737 52.3693 580.57 52.8466C579.404 53.3239 578.012 53.5625 576.394 53.5625C574.101 53.5625 572.013 53.0322 570.13 51.9716C568.261 50.8977 566.769 49.2604 565.656 47.0597C564.555 44.8456 564.005 42.0483 564.005 38.6676C564.005 35.2074 564.568 32.3172 565.695 29.9972C566.822 27.6771 568.32 25.9403 570.19 24.7869C572.072 23.6335 574.134 23.0568 576.374 23.0568C578.085 23.0568 579.516 23.3485 580.67 23.9318C581.823 24.5019 582.751 25.2178 583.454 26.0795C584.17 26.928 584.72 27.7633 585.104 28.5852H585.423V23.4545H593.835V54.2983C593.835 56.8968 593.198 59.071 591.925 60.821C590.653 62.571 588.889 63.8835 586.636 64.7585C584.395 65.6468 581.817 66.0909 578.9 66.0909ZM579.079 47.1989C580.444 47.1989 581.598 46.8608 582.539 46.1847C583.494 45.4953 584.223 44.5142 584.727 43.2415C585.244 41.9555 585.502 40.4176 585.502 38.6278C585.502 36.8381 585.25 35.2869 584.746 33.9744C584.243 32.6487 583.513 31.6212 582.559 30.892C581.604 30.1629 580.444 29.7983 579.079 29.7983C577.687 29.7983 576.513 30.1761 575.559 30.9318C574.604 31.6742 573.882 32.7083 573.391 34.0341C572.901 35.3598 572.656 36.8911 572.656 38.6278C572.656 40.3911 572.901 41.9157 573.391 43.2017C573.895 44.4744 574.618 45.4621 575.559 46.1648C576.513 46.8542 577.687 47.1989 579.079 47.1989Z" fill="url(#paint0_linear_3325_197658)"/>
<path d="M627.585 13.2727H634.903V41.9091C634.89 44.5341 634.333 46.7945 633.233 48.6903C632.133 50.5729 630.595 52.0246 628.619 53.0455C626.657 54.053 624.37 54.5568 621.759 54.5568C619.372 54.5568 617.224 54.1326 615.315 53.2841C613.42 52.4223 611.915 51.1496 610.801 49.4659C609.688 47.7822 609.131 45.6875 609.131 43.1818H616.469C616.482 44.2822 616.721 45.2301 617.185 46.0256C617.662 46.821 618.318 47.4309 619.153 47.8551C619.989 48.2794 620.95 48.4915 622.037 48.4915C623.217 48.4915 624.218 48.2462 625.04 47.7557C625.862 47.2519 626.485 46.5095 626.909 45.5284C627.347 44.5473 627.572 43.3409 627.585 41.9091V13.2727ZM655.913 54.5966C652.93 54.5966 650.345 53.9403 648.158 52.6278C645.97 51.3153 644.273 49.4792 643.067 47.1193C641.874 44.7595 641.277 42.0019 641.277 38.8466C641.277 35.6913 641.874 32.9271 643.067 30.554C644.273 28.1809 645.97 26.3381 648.158 25.0256C650.345 23.7131 652.93 23.0568 655.913 23.0568C658.896 23.0568 661.482 23.7131 663.669 25.0256C665.857 26.3381 667.547 28.1809 668.74 30.554C669.946 32.9271 670.55 35.6913 670.55 38.8466C670.55 42.0019 669.946 44.7595 668.74 47.1193C667.547 49.4792 665.857 51.3153 663.669 52.6278C661.482 53.9403 658.896 54.5966 655.913 54.5966ZM655.953 48.8295C657.571 48.8295 658.923 48.3854 660.01 47.4972C661.097 46.5956 661.906 45.3892 662.436 43.8778C662.98 42.3665 663.251 40.6828 663.251 38.8267C663.251 36.9574 662.98 35.267 662.436 33.7557C661.906 32.2311 661.097 31.018 660.01 30.1165C658.923 29.215 657.571 28.7642 655.953 28.7642C654.296 28.7642 652.917 29.215 651.817 30.1165C650.73 31.018 649.914 32.2311 649.371 33.7557C648.84 35.267 648.575 36.9574 648.575 38.8267C648.575 40.6828 648.84 42.3665 649.371 43.8778C649.914 45.3892 650.73 46.5956 651.817 47.4972C652.917 48.3854 654.296 48.8295 655.953 48.8295ZM696.129 41.1534V23.4545H703.327V54H696.347V48.571H696.029C695.34 50.2812 694.206 51.6799 692.629 52.767C691.064 53.8542 689.135 54.3977 686.842 54.3977C684.84 54.3977 683.07 53.9536 681.532 53.0653C680.007 52.1638 678.814 50.858 677.952 49.1477C677.091 47.4242 676.66 45.3428 676.66 42.9034V23.4545H683.859V41.7898C683.859 43.7254 684.389 45.2633 685.45 46.4034C686.51 47.5436 687.902 48.1136 689.626 48.1136C690.686 48.1136 691.714 47.8551 692.708 47.3381C693.702 46.821 694.518 46.0521 695.154 45.0312C695.804 43.9972 696.129 42.7045 696.129 41.1534ZM710.73 54V23.4545H717.71V28.5455H718.028C718.585 26.7822 719.54 25.4233 720.892 24.4688C722.258 23.5009 723.815 23.017 725.565 23.017C725.963 23.017 726.407 23.0369 726.898 23.0767C727.402 23.1032 727.819 23.1496 728.151 23.2159V29.8381C727.846 29.732 727.362 29.6392 726.699 29.5597C726.049 29.4669 725.42 29.4205 724.81 29.4205C723.497 29.4205 722.317 29.7055 721.27 30.2756C720.236 30.8324 719.42 31.608 718.824 32.6023C718.227 33.5966 717.929 34.7434 717.929 36.0426V54H710.73ZM740.132 36.1023V54H732.933V23.4545H739.814V28.6449H740.172C740.875 26.9347 741.995 25.5758 743.533 24.5682C745.084 23.5606 747 23.0568 749.28 23.0568C751.388 23.0568 753.224 23.5076 754.788 24.4091C756.366 25.3106 757.586 26.6165 758.447 28.3267C759.322 30.0369 759.753 32.1117 759.74 34.5511V54H752.541V35.6648C752.541 33.6231 752.011 32.0256 750.95 30.8722C749.903 29.7187 748.451 29.142 746.595 29.142C745.336 29.142 744.215 29.4205 743.234 29.9773C742.267 30.5208 741.504 31.3097 740.947 32.3438C740.404 33.3778 740.132 34.6307 740.132 36.1023ZM780.581 54.5966C777.518 54.5966 774.874 53.9602 772.646 52.6875C770.432 51.4015 768.729 49.5852 767.536 47.2386C766.342 44.8788 765.746 42.1013 765.746 38.9062C765.746 35.7642 766.342 33.0066 767.536 30.6335C768.742 28.2472 770.426 26.3911 772.587 25.0653C774.748 23.7263 777.286 23.0568 780.203 23.0568C782.086 23.0568 783.862 23.3617 785.533 23.9716C787.216 24.5682 788.701 25.4962 789.987 26.7557C791.286 28.0152 792.307 29.6193 793.05 31.5682C793.792 33.5038 794.163 35.8106 794.163 38.4886V40.696H769.126V35.8438H787.263C787.25 34.465 786.951 33.2386 786.368 32.1648C785.785 31.0777 784.969 30.2225 783.922 29.5994C782.888 28.9763 781.681 28.6648 780.303 28.6648C778.831 28.6648 777.538 29.0227 776.425 29.7386C775.311 30.4413 774.443 31.3693 773.82 32.5227C773.21 33.6629 772.898 34.9157 772.885 36.2812V40.517C772.885 42.2936 773.21 43.8182 773.859 45.0909C774.509 46.3504 775.417 47.3182 776.584 47.9943C777.75 48.6572 779.116 48.9886 780.68 48.9886C781.728 48.9886 782.676 48.8428 783.524 48.5511C784.373 48.2462 785.108 47.8021 785.732 47.2188C786.355 46.6354 786.825 45.9129 787.143 45.0511L793.865 45.8068C793.441 47.5833 792.632 49.1345 791.439 50.4602C790.259 51.7727 788.748 52.7936 786.905 53.5227C785.062 54.2386 782.954 54.5966 780.581 54.5966ZM803.853 65.4545C802.872 65.4545 801.964 65.375 801.129 65.2159C800.307 65.0701 799.65 64.8977 799.16 64.6989L800.83 59.0909C801.878 59.3958 802.812 59.5417 803.634 59.5284C804.456 59.5152 805.179 59.2566 805.802 58.7528C806.438 58.2623 806.975 57.4403 807.413 56.2869L808.029 54.6364L796.952 23.4545H804.589L811.629 46.5227H811.947L819.006 23.4545H826.663L814.433 57.6989C813.862 59.3163 813.107 60.7017 812.165 61.8551C811.224 63.0218 810.071 63.91 808.705 64.5199C807.353 65.143 805.736 65.4545 803.853 65.4545Z" fill="#111827"/>
<defs>
<linearGradient id="paint0_linear_3325_197658" x1="594.602" y1="33.9999" x2="273.79" y2="34" gradientUnits="userSpaceOnUse">
<stop stop-color="#6366F1"/>
<stop offset="0.354167" stop-color="#835CD7"/>
<stop offset="0.583333" stop-color="#D45E95"/>
<stop offset="0.796875" stop-color="#EF1468"/>
<stop offset="1" stop-color="#F77553"/>
</linearGradient>
</defs>
</svg>
