<svg width="400" height="502" viewBox="0 0 400 502" fill="none" xmlns="http://www.w3.org/2000/svg">
<g filter="url(#filter0_d_5621_113109)">
<rect width="400" height="500" rx="25" fill="#F9FAFB"/>
</g>
<mask id="mask0_5621_113109" style="mask-type:alpha" maskUnits="userSpaceOnUse" x="0" y="0" width="400" height="500">
<rect width="400" height="500" rx="25" fill="#F3F4F6"/>
</mask>
<g mask="url(#mask0_5621_113109)">
<path d="M267.715 319.999C267.715 357.397 237.399 387.714 200.001 387.714C162.604 387.714 132.287 357.397 132.287 319.999C132.287 282.602 162.604 252.285 200.001 252.285C237.399 252.285 267.715 282.602 267.715 319.999Z" stroke="#A5B4FC" stroke-width="1.71428"/>
<path d="M293.417 319.999C293.417 371.598 251.588 413.428 199.989 413.428C148.39 413.428 106.56 371.598 106.56 319.999C106.56 268.4 148.39 226.571 199.989 226.571C251.588 226.571 293.417 268.4 293.417 319.999Z" stroke="#C7D2FE" stroke-width="1.71428"/>
<path d="M319.143 320C319.143 385.8 265.801 439.142 200 439.142C134.199 439.142 80.8571 385.8 80.8571 320C80.8571 254.199 134.199 200.857 200 200.857C265.801 200.857 319.143 254.199 319.143 320Z" stroke="#E0E7FF" stroke-width="1.71428"/>
<path fill-rule="evenodd" clip-rule="evenodd" d="M159.79 264.442C159.512 264.312 159.196 264.246 158.841 264.246C158.394 264.246 158.024 264.342 157.73 264.533C157.438 264.724 157.224 264.977 157.087 265.292H157.013V264.324H155.902V267.478C156.288 267.154 156.677 266.834 157.07 266.518C157.092 266.297 157.148 266.102 157.238 265.934C157.359 265.71 157.523 265.539 157.73 265.423C157.939 265.307 158.177 265.249 158.446 265.249C158.527 265.249 158.605 265.254 158.679 265.265C159.046 264.987 159.416 264.713 159.79 264.442ZM154.297 268.87C154.506 268.425 154.61 267.91 154.61 267.324C154.61 266.707 154.495 266.168 154.266 265.706C154.036 265.244 153.713 264.885 153.298 264.629C152.882 264.374 152.396 264.246 151.838 264.246C151.281 264.246 150.794 264.374 150.379 264.629C149.963 264.885 149.64 265.244 149.411 265.706C149.181 266.168 149.066 266.707 149.066 267.324C149.066 267.938 149.181 268.475 149.411 268.935C149.64 269.394 149.963 269.752 150.379 270.007C150.794 270.263 151.281 270.39 151.838 270.39C152.192 270.39 152.517 270.339 152.813 270.236C153.301 269.774 153.796 269.318 154.297 268.87ZM117.539 262.341V270.27H122.328V269.241H118.735V262.341H117.539ZM124.645 270.007C125.061 270.263 125.547 270.39 126.105 270.39C126.662 270.39 127.149 270.263 127.564 270.007C127.98 269.752 128.303 269.394 128.532 268.935C128.762 268.475 128.877 267.938 128.877 267.324C128.877 266.707 128.762 266.168 128.532 265.706C128.303 265.244 127.98 264.885 127.564 264.629C127.149 264.374 126.662 264.246 126.105 264.246C125.547 264.246 125.061 264.374 124.645 264.629C124.23 264.885 123.907 265.244 123.677 265.706C123.448 266.168 123.333 266.707 123.333 267.324C123.333 267.938 123.448 268.475 123.677 268.935C123.907 269.394 124.23 269.752 124.645 270.007ZM127.007 269.132C126.769 269.323 126.47 269.419 126.109 269.419C125.745 269.419 125.443 269.323 125.203 269.132C124.965 268.941 124.789 268.687 124.672 268.369C124.559 268.052 124.502 267.702 124.502 267.32C124.502 266.941 124.559 266.592 124.672 266.275C124.789 265.955 124.965 265.698 125.203 265.504C125.443 265.311 125.745 265.214 126.109 265.214C126.47 265.214 126.769 265.311 127.007 265.504C127.244 265.698 127.42 265.955 127.533 266.275C127.65 266.592 127.708 266.941 127.708 267.32C127.708 267.702 127.65 268.052 127.533 268.369C127.42 268.687 127.244 268.941 127.007 269.132ZM131.187 269.999C131.603 270.26 132.098 270.39 132.674 270.39C133.144 270.39 133.553 270.304 133.901 270.131C134.252 269.958 134.532 269.721 134.741 269.419C134.95 269.117 135.076 268.773 135.117 268.389H133.99C133.941 268.603 133.855 268.786 133.731 268.939C133.61 269.091 133.459 269.208 133.278 269.291C133.1 269.371 132.901 269.411 132.682 269.411C132.354 269.411 132.069 269.324 131.826 269.151C131.586 268.979 131.4 268.735 131.269 268.42C131.137 268.105 131.071 267.731 131.071 267.297C131.071 266.874 131.138 266.507 131.272 266.197C131.407 265.885 131.594 265.645 131.834 265.477C132.076 265.307 132.359 265.222 132.682 265.222C133.051 265.222 133.345 265.322 133.564 265.524C133.786 265.725 133.928 265.965 133.99 266.244H135.117C135.076 265.844 134.945 265.494 134.726 265.195C134.509 264.895 134.224 264.663 133.87 264.498C133.517 264.33 133.114 264.246 132.662 264.246C132.102 264.246 131.616 264.377 131.203 264.637C130.79 264.898 130.47 265.261 130.243 265.725C130.015 266.187 129.902 266.72 129.902 267.324C129.902 267.92 130.013 268.449 130.235 268.911C130.457 269.373 130.774 269.736 131.187 269.999ZM137.063 270.193C137.368 270.332 137.709 270.402 138.085 270.402C138.413 270.402 138.695 270.354 138.929 270.259C139.164 270.163 139.357 270.043 139.506 269.899C139.656 269.754 139.768 269.607 139.843 269.457H139.89V270.27H141.02V266.321C141.02 265.888 140.945 265.535 140.795 265.264C140.646 264.991 140.454 264.78 140.219 264.633C139.986 264.486 139.736 264.386 139.468 264.331C139.202 264.275 138.95 264.246 138.713 264.246C138.354 264.246 138.012 264.298 137.687 264.401C137.361 264.502 137.074 264.664 136.823 264.889C136.575 265.111 136.387 265.403 136.258 265.764L137.346 266.012C137.431 265.803 137.585 265.613 137.807 265.443C138.031 265.27 138.338 265.183 138.728 265.183C139.102 265.183 139.384 265.276 139.572 265.462C139.763 265.648 139.859 265.91 139.859 266.248V266.275C139.859 266.414 139.808 266.515 139.708 266.577C139.607 266.639 139.446 266.684 139.224 266.712L138.356 266.813C138.075 266.847 137.799 266.896 137.528 266.96C137.257 267.025 137.012 267.12 136.792 267.247C136.573 267.373 136.399 267.545 136.27 267.762C136.141 267.978 136.076 268.255 136.076 268.59C136.076 268.98 136.164 269.309 136.339 269.577C136.517 269.846 136.759 270.051 137.063 270.193ZM139.158 269.283C138.931 269.41 138.657 269.473 138.337 269.473C138.009 269.473 137.74 269.401 137.528 269.256C137.316 269.109 137.21 268.892 137.21 268.606C137.21 268.399 137.265 268.234 137.373 268.11C137.484 267.984 137.631 267.887 137.814 267.82C138 267.753 138.205 267.705 138.43 267.676C138.525 267.663 138.644 267.648 138.786 267.63C138.928 267.609 139.074 267.587 139.224 267.564C139.373 267.538 139.506 267.509 139.622 267.475C139.741 267.439 139.821 267.4 139.862 267.359V268.125C139.862 268.36 139.802 268.581 139.68 268.788C139.562 268.991 139.388 269.157 139.158 269.283ZM145.338 265.253V264.324H144.118V262.899H142.961V264.324H142.09V265.253H142.961V268.764C142.961 269.123 143.042 269.421 143.205 269.659C143.367 269.896 143.58 270.072 143.843 270.185C144.107 270.299 144.391 270.353 144.695 270.348C144.881 270.345 145.036 270.33 145.16 270.301C145.284 270.276 145.379 270.25 145.446 270.224L145.237 269.268C145.198 269.275 145.144 269.286 145.075 269.299C145.005 269.311 144.924 269.318 144.831 269.318C144.704 269.318 144.587 269.299 144.478 269.26C144.372 269.219 144.286 269.142 144.219 269.031C144.152 268.918 144.118 268.749 144.118 268.524V265.253H145.338ZM147.776 264.324H146.618V270.27H147.776V264.324ZM146.684 263.205C146.829 263.339 147.002 263.406 147.203 263.406C147.404 263.406 147.576 263.339 147.718 263.205C147.862 263.068 147.935 262.905 147.935 262.717C147.935 262.526 147.862 262.363 147.718 262.229C147.576 262.092 147.404 262.024 147.203 262.024C147.002 262.024 146.829 262.092 146.684 262.229C146.542 262.363 146.471 262.526 146.471 262.717C146.471 262.905 146.542 263.068 146.684 263.205ZM152.74 269.132C152.503 269.323 152.203 269.419 151.842 269.419C151.478 269.419 151.176 269.323 150.936 269.132C150.699 268.941 150.522 268.687 150.406 268.369C150.292 268.052 150.235 267.702 150.235 267.32C150.235 266.941 150.292 266.592 150.406 266.275C150.522 265.955 150.699 265.698 150.936 265.504C151.176 265.311 151.478 265.214 151.842 265.214C152.203 265.214 152.503 265.311 152.74 265.504C152.978 265.698 153.153 265.955 153.267 266.275C153.383 266.592 153.441 266.941 153.441 267.32C153.441 267.702 153.383 268.052 153.267 268.369C153.153 268.687 152.978 268.941 152.74 269.132Z" fill="#111827"/>
<circle cx="200" cy="320" r="42.1429" stroke="#818CF8" stroke-width="1.71428"/>
<path fill-rule="evenodd" clip-rule="evenodd" d="M220.384 247.561V237.87H218.936V244.986H218.846L213.916 237.87H212.562V247.561H214.025V240.453H214.115L219.04 247.561H220.384ZM223.686 247.248C224.203 247.554 224.82 247.707 225.536 247.707C226.066 247.707 226.538 247.627 226.951 247.466C227.367 247.302 227.713 247.073 227.987 246.78C228.265 246.483 228.457 246.138 228.565 245.744L227.225 245.502C227.14 245.729 227.017 245.92 226.856 246.075C226.696 246.229 226.505 246.346 226.284 246.425C226.063 246.501 225.819 246.538 225.55 246.538C225.137 246.538 224.776 246.45 224.467 246.273C224.158 246.094 223.916 245.833 223.743 245.493C223.584 245.175 223.499 244.795 223.488 244.352H228.655V243.851C228.655 243.191 228.566 242.631 228.39 242.171C228.213 241.707 227.972 241.33 227.666 241.04C227.36 240.75 227.014 240.537 226.629 240.401C226.244 240.266 225.847 240.198 225.437 240.198C224.762 240.198 224.172 240.357 223.667 240.676C223.166 240.994 222.774 241.437 222.494 242.005C222.216 242.573 222.077 243.229 222.077 243.974C222.077 244.728 222.216 245.385 222.494 245.947C222.774 246.505 223.172 246.939 223.686 247.248ZM223.491 243.292C223.508 242.98 223.586 242.688 223.724 242.417C223.885 242.105 224.112 241.852 224.405 241.66C224.702 241.464 225.049 241.367 225.446 241.367C225.812 241.367 226.131 241.45 226.402 241.617C226.677 241.784 226.89 242.013 227.041 242.303C227.192 242.59 227.268 242.92 227.268 243.292H223.491ZM229.648 240.292L231.787 247.561H233.226L234.702 242.313H234.811L236.287 247.561H237.73L239.864 240.292H238.402L236.987 245.606H236.916L235.497 240.292H234.035L232.606 245.63H232.535L231.11 240.292H229.648ZM245.978 247.229C246.486 247.548 247.092 247.707 247.795 247.707C248.369 247.707 248.869 247.602 249.295 247.39C249.724 247.179 250.066 246.889 250.322 246.52C250.577 246.15 250.73 245.731 250.781 245.261H249.404C249.344 245.523 249.238 245.747 249.087 245.933C248.939 246.119 248.754 246.262 248.533 246.363C248.316 246.461 248.073 246.51 247.805 246.51C247.404 246.51 247.055 246.404 246.759 246.193C246.465 245.982 246.238 245.684 246.077 245.299C245.916 244.914 245.836 244.456 245.836 243.926C245.836 243.409 245.918 242.961 246.082 242.583C246.246 242.201 246.475 241.908 246.768 241.702C247.065 241.494 247.41 241.39 247.805 241.39C248.256 241.39 248.615 241.513 248.883 241.759C249.155 242.005 249.328 242.299 249.404 242.639H250.781C250.73 242.15 250.571 241.723 250.303 241.357C250.038 240.991 249.689 240.707 249.257 240.505C248.825 240.3 248.333 240.198 247.781 240.198C247.096 240.198 246.502 240.357 245.997 240.676C245.492 240.994 245.101 241.437 244.823 242.005C244.546 242.57 244.407 243.221 244.407 243.96C244.407 244.688 244.543 245.335 244.814 245.9C245.085 246.464 245.473 246.908 245.978 247.229ZM256.898 240.292V244.546C256.901 244.96 256.814 245.3 256.638 245.568C256.464 245.837 256.245 246.037 255.98 246.169C255.718 246.302 255.455 246.368 255.19 246.368C254.751 246.368 254.395 246.221 254.12 245.928C253.846 245.635 253.709 245.24 253.709 244.745V240.292H252.294V244.915C252.294 245.515 252.395 246.018 252.597 246.425C252.802 246.832 253.083 247.139 253.439 247.348C253.799 247.553 254.212 247.655 254.679 247.655C255.225 247.655 255.68 247.527 256.046 247.272C256.415 247.013 256.684 246.69 256.851 246.302H256.926V247.561H258.318V240.292H256.898ZM264.383 242.294L265.665 242.067C265.52 241.499 265.222 241.046 264.771 240.709C264.32 240.368 263.701 240.198 262.916 240.198C262.37 240.198 261.886 240.289 261.463 240.472C261.04 240.652 260.709 240.903 260.469 241.225C260.23 241.546 260.11 241.922 260.11 242.351C260.11 242.868 260.271 243.296 260.592 243.633C260.917 243.971 261.419 244.217 262.097 244.371L263.328 244.641C263.675 244.72 263.932 244.837 264.099 244.991C264.269 245.146 264.354 245.337 264.354 245.564C264.354 245.844 264.216 246.083 263.938 246.278C263.66 246.471 263.29 246.567 262.826 246.567C262.4 246.567 262.055 246.477 261.79 246.297C261.525 246.114 261.35 245.844 261.264 245.488L259.897 245.696C260.014 246.34 260.329 246.837 260.843 247.187C261.357 247.534 262.022 247.707 262.835 247.707C263.422 247.707 263.938 247.611 264.383 247.419C264.831 247.226 265.179 246.961 265.428 246.624C265.681 246.283 265.807 245.895 265.807 245.46C265.807 244.945 265.643 244.527 265.315 244.206C264.987 243.884 264.488 243.646 263.82 243.491L262.665 243.226C262.264 243.132 261.974 243.01 261.794 242.862C261.615 242.714 261.525 242.518 261.525 242.275C261.525 241.994 261.659 241.766 261.927 241.589C262.195 241.409 262.529 241.319 262.93 241.319C263.223 241.319 263.468 241.367 263.663 241.461C263.859 241.556 264.014 241.677 264.127 241.825C264.244 241.974 264.329 242.13 264.383 242.294ZM270.755 241.428V240.292H269.265V238.551H267.85V240.292H266.785V241.428H267.85V245.72C267.85 246.158 267.949 246.523 268.148 246.813C268.347 247.103 268.607 247.318 268.929 247.456C269.251 247.595 269.598 247.662 269.97 247.655C270.197 247.652 270.386 247.633 270.538 247.598C270.689 247.567 270.806 247.535 270.888 247.504L270.632 246.335C270.585 246.344 270.519 246.357 270.434 246.373C270.348 246.389 270.249 246.397 270.136 246.397C269.981 246.397 269.837 246.373 269.705 246.326C269.576 246.275 269.47 246.182 269.388 246.046C269.306 245.908 269.265 245.701 269.265 245.426V241.428H270.755ZM273.52 247.239C274.028 247.551 274.623 247.707 275.304 247.707C275.985 247.707 276.58 247.551 277.088 247.239C277.596 246.926 277.99 246.49 278.271 245.928C278.552 245.367 278.692 244.71 278.692 243.96C278.692 243.206 278.552 242.546 278.271 241.982C277.99 241.417 277.596 240.978 277.088 240.666C276.58 240.354 275.985 240.198 275.304 240.198C274.623 240.198 274.028 240.354 273.52 240.666C273.012 240.978 272.618 241.417 272.337 241.982C272.056 242.546 271.916 243.206 271.916 243.96C271.916 244.71 272.056 245.367 272.337 245.928C272.618 246.49 273.012 246.926 273.52 247.239ZM276.406 246.169C276.116 246.403 275.75 246.52 275.309 246.52C274.864 246.52 274.495 246.403 274.201 246.169C273.911 245.936 273.695 245.625 273.553 245.237C273.414 244.849 273.345 244.422 273.345 243.955C273.345 243.491 273.414 243.065 273.553 242.677C273.695 242.286 273.911 241.972 274.201 241.736C274.495 241.499 274.864 241.381 275.309 241.381C275.75 241.381 276.116 241.499 276.406 241.736C276.697 241.972 276.911 242.286 277.05 242.677C277.192 243.065 277.263 243.491 277.263 243.955C277.263 244.422 277.192 244.849 277.05 245.237C276.911 245.625 276.697 245.936 276.406 246.169ZM280.271 240.292V247.561H281.686V243.079C281.686 242.751 281.754 242.463 281.89 242.214C282.028 241.964 282.21 241.77 282.434 241.631C282.661 241.49 282.909 241.419 283.177 241.419C283.571 241.419 283.891 241.538 284.137 241.778C284.383 242.018 284.506 242.335 284.506 242.729V247.561H285.916V242.928C285.916 242.486 286.044 242.125 286.3 241.844C286.555 241.561 286.913 241.419 287.374 241.419C287.746 241.419 288.066 241.529 288.334 241.75C288.603 241.971 288.737 242.327 288.737 242.819V247.561H290.151V242.687C290.151 241.854 289.942 241.231 289.522 240.818C289.106 240.404 288.568 240.198 287.909 240.198C287.385 240.198 286.934 240.314 286.555 240.548C286.177 240.778 285.901 241.087 285.727 241.475H285.651C285.494 241.078 285.249 240.766 284.918 240.538C284.59 240.311 284.183 240.198 283.697 240.198C283.218 240.198 282.806 240.311 282.462 240.538C282.118 240.762 281.871 241.075 281.719 241.475H281.629V240.292H280.271ZM293.33 247.248C293.847 247.554 294.464 247.707 295.18 247.707C295.71 247.707 296.182 247.627 296.595 247.466C297.012 247.302 297.357 247.073 297.631 246.78C297.909 246.483 298.101 246.138 298.209 245.744L296.87 245.502C296.784 245.729 296.661 245.92 296.501 246.075C296.34 246.229 296.149 246.346 295.928 246.425C295.707 246.501 295.463 246.538 295.195 246.538C294.781 246.538 294.42 246.45 294.111 246.273C293.802 246.094 293.56 245.833 293.387 245.493C293.228 245.175 293.144 244.795 293.133 244.352H298.299V243.851C298.299 243.191 298.21 242.631 298.034 242.171C297.857 241.707 297.616 241.33 297.31 241.04C297.004 240.75 296.658 240.537 296.273 240.401C295.889 240.266 295.491 240.198 295.081 240.198C294.406 240.198 293.816 240.357 293.311 240.676C292.81 240.994 292.418 241.437 292.138 242.005C291.86 242.573 291.721 243.229 291.721 243.974C291.721 244.728 291.86 245.385 292.138 245.947C292.418 246.505 292.816 246.939 293.33 247.248ZM293.135 243.292C293.152 242.98 293.23 242.688 293.368 242.417C293.529 242.105 293.756 241.852 294.049 241.66C294.346 241.464 294.693 241.367 295.09 241.367C295.456 241.367 295.775 241.45 296.046 241.617C296.321 241.784 296.534 242.013 296.685 242.303C296.836 242.59 296.912 242.92 296.912 243.292H293.135ZM299.868 240.292V247.561H301.283V243.122C301.283 242.807 301.359 242.526 301.51 242.28C301.662 242.031 301.867 241.837 302.126 241.698C302.387 241.556 302.685 241.485 303.02 241.485C303.165 241.485 303.31 241.496 303.455 241.518C303.6 241.537 303.701 241.554 303.758 241.57V240.217C303.689 240.207 303.592 240.199 303.469 240.193C303.35 240.187 303.245 240.184 303.157 240.184C302.731 240.184 302.35 240.297 302.012 240.524C301.678 240.748 301.444 241.056 301.312 241.447H301.236V240.292H299.868ZM309.147 242.294L310.429 242.067C310.284 241.499 309.986 241.046 309.535 240.709C309.083 240.368 308.465 240.198 307.68 240.198C307.134 240.198 306.65 240.289 306.227 240.472C305.804 240.652 305.473 240.903 305.233 241.225C304.993 241.546 304.874 241.922 304.874 242.351C304.874 242.868 305.034 243.296 305.356 243.633C305.681 243.971 306.183 244.217 306.861 244.371L308.091 244.641C308.438 244.72 308.695 244.837 308.863 244.991C309.033 245.146 309.118 245.337 309.118 245.564C309.118 245.844 308.979 246.083 308.702 246.278C308.424 246.471 308.053 246.567 307.59 246.567C307.164 246.567 306.818 246.477 306.553 246.297C306.288 246.114 306.113 245.844 306.028 245.488L304.661 245.696C304.777 246.34 305.093 246.837 305.607 247.187C306.121 247.534 306.785 247.707 307.599 247.707C308.186 247.707 308.702 247.611 309.147 247.419C309.594 247.226 309.943 246.961 310.192 246.624C310.445 246.283 310.571 245.895 310.571 245.46C310.571 244.945 310.407 244.527 310.079 244.206C309.751 243.884 309.252 243.646 308.583 243.491L307.429 243.226C307.028 243.132 306.738 243.01 306.558 242.862C306.378 242.714 306.288 242.518 306.288 242.275C306.288 241.994 306.423 241.766 306.691 241.589C306.959 241.409 307.293 241.319 307.694 241.319C307.987 241.319 308.232 241.367 308.427 241.461C308.623 241.556 308.777 241.677 308.891 241.825C309.008 241.974 309.093 242.13 309.147 242.294Z" fill="#111827"/>
<path fill-rule="evenodd" clip-rule="evenodd" d="M262.409 390.681C262.775 390.992 263.259 391.229 263.862 391.394L264.799 391.649C265.083 391.724 265.337 391.81 265.562 391.908C265.789 392.007 265.969 392.13 266.1 392.28C266.234 392.43 266.301 392.622 266.301 392.857C266.301 393.115 266.225 393.341 266.073 393.534C265.921 393.725 265.712 393.875 265.446 393.984C265.183 394.089 264.882 394.142 264.544 394.142C264.237 394.142 263.954 394.097 263.696 394.007C263.44 393.914 263.23 393.773 263.065 393.585C262.902 393.394 262.809 393.155 262.786 392.869H261.586C261.612 393.346 261.747 393.759 261.992 394.107C262.238 394.453 262.577 394.72 263.011 394.909C263.444 395.097 263.958 395.192 264.552 395.192C265.171 395.192 265.699 395.091 266.135 394.89C266.574 394.688 266.908 394.413 267.138 394.065C267.37 393.716 267.486 393.318 267.486 392.869C267.486 392.512 267.415 392.207 267.273 391.951C267.134 391.696 266.951 391.481 266.723 391.308C266.496 391.135 266.25 390.996 265.984 390.89C265.718 390.784 265.459 390.701 265.206 390.639L264.432 390.437C264.277 390.399 264.115 390.349 263.948 390.29C263.78 390.228 263.622 390.152 263.475 390.062C263.402 390.015 263.336 389.962 263.277 389.904C262.99 390.165 262.7 390.424 262.409 390.681ZM265.186 388.127C265.382 388.178 265.558 388.257 265.713 388.362C266.012 388.563 266.183 388.847 266.224 389.214H267.378C267.367 388.788 267.244 388.411 267.006 388.083C266.769 387.754 266.445 387.495 266.033 387.306C265.753 387.582 265.47 387.856 265.186 388.127ZM272.59 389.113V392.594C272.592 392.932 272.521 393.211 272.377 393.43C272.235 393.649 272.056 393.813 271.839 393.922C271.625 394.03 271.409 394.084 271.192 394.084C270.833 394.084 270.542 393.964 270.317 393.724C270.093 393.484 269.98 393.162 269.98 392.756V389.113H268.823V392.896C268.823 393.386 268.905 393.798 269.071 394.131C269.238 394.464 269.468 394.715 269.76 394.886C270.054 395.053 270.392 395.137 270.774 395.137C271.221 395.137 271.594 395.033 271.893 394.824C272.195 394.612 272.414 394.348 272.551 394.03H272.613V395.06H273.751V389.113H272.59ZM275.4 387.131V395.06H276.53V394.135H276.627C276.697 394.261 276.796 394.406 276.925 394.568C277.054 394.731 277.232 394.873 277.459 394.994C277.689 395.115 277.985 395.176 278.346 395.176C278.826 395.176 279.253 395.053 279.627 394.808C280.002 394.56 280.296 394.208 280.51 393.751C280.724 393.292 280.831 392.741 280.831 392.098C280.831 391.455 280.723 390.906 280.506 390.449C280.292 389.992 279.996 389.642 279.62 389.4C279.243 389.157 278.814 389.036 278.334 389.036C277.965 389.036 277.668 389.098 277.444 389.222C277.219 389.343 277.044 389.485 276.917 389.647C276.791 389.81 276.694 389.953 276.627 390.077H276.557V387.131H275.4ZM276.716 393.186C276.595 392.871 276.534 392.505 276.534 392.087C276.534 391.674 276.593 391.312 276.712 391.002C276.831 390.693 277.005 390.451 277.235 390.279C277.467 390.106 277.751 390.019 278.087 390.019C278.435 390.019 278.725 390.109 278.958 390.29C279.192 390.471 279.368 390.717 279.484 391.03C279.603 391.342 279.662 391.694 279.662 392.087C279.662 392.484 279.602 392.841 279.48 393.159C279.362 393.476 279.186 393.728 278.954 393.914C278.721 394.097 278.432 394.189 278.087 394.189C277.754 394.189 277.472 394.101 277.243 393.926C277.013 393.747 276.837 393.501 276.716 393.186ZM285.538 390.751L286.587 390.565C286.469 390.1 286.225 389.73 285.856 389.454C285.487 389.175 284.981 389.036 284.338 389.036C283.892 389.036 283.495 389.111 283.15 389.26C282.804 389.407 282.533 389.613 282.337 389.876C282.14 390.139 282.042 390.446 282.042 390.797C282.042 391.221 282.174 391.57 282.437 391.846C282.703 392.123 283.113 392.324 283.668 392.45L284.675 392.671C284.959 392.736 285.169 392.831 285.306 392.958C285.445 393.084 285.515 393.24 285.515 393.426C285.515 393.656 285.401 393.851 285.174 394.011C284.947 394.168 284.644 394.247 284.265 394.247C283.916 394.247 283.633 394.173 283.417 394.026C283.2 393.876 283.057 393.656 282.987 393.364L281.868 393.534C281.964 394.061 282.222 394.468 282.642 394.754C283.063 395.038 283.606 395.18 284.272 395.18C284.752 395.18 285.174 395.101 285.538 394.944C285.905 394.786 286.19 394.569 286.394 394.293C286.6 394.015 286.704 393.697 286.704 393.341C286.704 392.92 286.569 392.578 286.301 392.315C286.033 392.052 285.625 391.857 285.078 391.73L284.133 391.514C283.805 391.436 283.568 391.337 283.421 391.215C283.273 391.094 283.2 390.934 283.2 390.735C283.2 390.506 283.31 390.319 283.529 390.174C283.748 390.027 284.022 389.953 284.35 389.953C284.59 389.953 284.79 389.992 284.95 390.069C285.11 390.147 285.236 390.246 285.329 390.368C285.425 390.489 285.494 390.617 285.538 390.751ZM288.995 394.789C289.41 395.05 289.906 395.18 290.481 395.18C290.951 395.18 291.36 395.093 291.709 394.921C292.06 394.748 292.34 394.51 292.549 394.208C292.758 393.906 292.883 393.563 292.924 393.178H291.798C291.749 393.393 291.662 393.576 291.538 393.728C291.417 393.88 291.266 393.998 291.085 394.08C290.907 394.16 290.708 394.2 290.489 394.2C290.161 394.2 289.876 394.114 289.633 393.941C289.393 393.768 289.208 393.524 289.076 393.209C288.944 392.894 288.878 392.52 288.878 392.087C288.878 391.663 288.946 391.297 289.08 390.987C289.214 390.675 289.401 390.435 289.641 390.267C289.884 390.097 290.166 390.011 290.489 390.011C290.858 390.011 291.152 390.112 291.372 390.313C291.594 390.515 291.736 390.755 291.798 391.033H292.924C292.883 390.633 292.753 390.284 292.533 389.984C292.316 389.685 292.031 389.453 291.678 389.287C291.324 389.12 290.921 389.036 290.47 389.036C289.91 389.036 289.423 389.166 289.01 389.427C288.597 389.687 288.277 390.05 288.05 390.515C287.823 390.977 287.709 391.51 287.709 392.114C287.709 392.71 287.82 393.239 288.042 393.701C288.264 394.163 288.582 394.526 288.995 394.789ZM295.281 389.113H294.162V395.06H295.32V391.428C295.32 391.17 295.382 390.941 295.506 390.739C295.629 390.535 295.797 390.377 296.009 390.263C296.223 390.147 296.467 390.089 296.741 390.089C296.859 390.089 296.978 390.098 297.097 390.116C297.216 390.131 297.298 390.146 297.345 390.158V389.051C297.288 389.043 297.209 389.037 297.108 389.032C297.01 389.027 296.925 389.024 296.853 389.024C296.504 389.024 296.192 389.117 295.916 389.303C295.642 389.486 295.451 389.738 295.343 390.058H295.281V389.113ZM299.504 389.113H298.346V395.06H299.504V389.113ZM298.412 387.994C298.557 388.129 298.73 388.196 298.931 388.196C299.132 388.196 299.304 388.129 299.446 387.994C299.59 387.858 299.663 387.695 299.663 387.506C299.663 387.315 299.59 387.153 299.446 387.019C299.304 386.882 299.132 386.813 298.931 386.813C298.73 386.813 298.557 386.882 298.412 387.019C298.27 387.153 298.199 387.315 298.199 387.506C298.199 387.695 298.27 387.858 298.412 387.994ZM301.154 387.131V395.06H302.285V394.135H302.381C302.451 394.261 302.551 394.406 302.68 394.568C302.809 394.731 302.987 394.873 303.214 394.994C303.444 395.115 303.739 395.176 304.1 395.176C304.581 395.176 305.008 395.053 305.382 394.808C305.756 394.56 306.05 394.208 306.265 393.751C306.479 393.292 306.586 392.741 306.586 392.098C306.586 391.455 306.478 390.906 306.261 390.449C306.047 389.992 305.751 389.642 305.374 389.4C304.997 389.157 304.569 389.036 304.089 389.036C303.72 389.036 303.423 389.098 303.198 389.222C302.974 389.343 302.798 389.485 302.672 389.647C302.545 389.81 302.449 389.953 302.381 390.077H302.312V387.131H301.154ZM302.471 393.186C302.349 392.871 302.289 392.505 302.289 392.087C302.289 391.674 302.348 391.312 302.467 391.002C302.585 390.693 302.76 390.451 302.989 390.279C303.222 390.106 303.506 390.019 303.841 390.019C304.189 390.019 304.48 390.109 304.712 390.29C304.947 390.471 305.123 390.717 305.239 391.03C305.357 391.342 305.417 391.694 305.417 392.087C305.417 392.484 305.356 392.841 305.235 393.159C305.116 393.476 304.941 393.728 304.708 393.914C304.476 394.097 304.187 394.189 303.841 394.189C303.508 394.189 303.227 394.101 302.997 393.926C302.767 393.747 302.592 393.501 302.471 393.186ZM308.935 394.804C309.358 395.055 309.863 395.18 310.449 395.18C310.882 395.18 311.268 395.114 311.606 394.982C311.947 394.848 312.23 394.661 312.454 394.421C312.681 394.178 312.839 393.896 312.927 393.573L311.831 393.376C311.761 393.562 311.661 393.718 311.529 393.844C311.397 393.971 311.241 394.066 311.061 394.131C310.88 394.193 310.68 394.224 310.46 394.224C310.122 394.224 309.827 394.151 309.574 394.007C309.321 393.86 309.123 393.647 308.982 393.368C308.852 393.108 308.782 392.797 308.773 392.435H313V392.025C313 391.485 312.928 391.027 312.783 390.65C312.639 390.271 312.441 389.962 312.191 389.725C311.941 389.487 311.658 389.313 311.343 389.202C311.028 389.091 310.703 389.036 310.368 389.036C309.815 389.036 309.333 389.166 308.92 389.427C308.509 389.687 308.189 390.05 307.959 390.515C307.732 390.979 307.619 391.516 307.619 392.125C307.619 392.742 307.732 393.28 307.959 393.74C308.189 394.197 308.514 394.551 308.935 394.804ZM308.775 391.568C308.789 391.312 308.853 391.073 308.966 390.852C309.098 390.596 309.283 390.39 309.524 390.232C309.766 390.072 310.05 389.992 310.375 389.992C310.675 389.992 310.935 390.06 311.157 390.197C311.382 390.334 311.556 390.521 311.68 390.759C311.804 390.993 311.866 391.263 311.866 391.568H308.775ZM315.225 394.808C315.602 395.053 316.031 395.176 316.511 395.176C316.872 395.176 317.166 395.115 317.393 394.994C317.621 394.873 317.799 394.731 317.928 394.568C318.059 394.406 318.16 394.261 318.23 394.135H318.326V395.06H319.457V387.131H318.299V390.077H318.23C318.16 389.953 318.062 389.81 317.935 389.647C317.812 389.485 317.636 389.343 317.409 389.222C317.184 389.098 316.888 389.036 316.518 389.036C316.041 389.036 315.614 389.157 315.237 389.4C314.86 389.642 314.563 389.992 314.347 390.449C314.132 390.906 314.025 391.455 314.025 392.098C314.025 392.741 314.131 393.292 314.343 393.751C314.557 394.208 314.851 394.56 315.225 394.808ZM317.61 393.926C317.381 394.101 317.099 394.189 316.766 394.189C316.423 394.189 316.134 394.097 315.899 393.914C315.667 393.728 315.491 393.476 315.372 393.159C315.254 392.841 315.194 392.484 315.194 392.087C315.194 391.694 315.252 391.342 315.369 391.03C315.487 390.717 315.663 390.471 315.895 390.29C316.127 390.109 316.418 390.019 316.766 390.019C317.104 390.019 317.388 390.106 317.618 390.279C317.848 390.451 318.022 390.693 318.141 391.002C318.259 391.312 318.319 391.674 318.319 392.087C318.319 392.505 318.258 392.871 318.137 393.186C318.018 393.501 317.843 393.747 317.61 393.926Z" fill="#111827"/>
<path fill-rule="evenodd" clip-rule="evenodd" d="M160.697 405.728V407.828H160.619C160.542 407.691 160.433 407.531 160.292 407.351C160.155 407.17 159.96 407.012 159.707 406.878C159.458 406.74 159.128 406.671 158.718 406.671C158.187 406.671 157.713 406.806 157.294 407.076C156.875 407.345 156.545 407.734 156.305 408.241C156.067 408.749 155.948 409.36 155.948 410.074C155.948 410.788 156.065 411.4 156.3 411.911C156.538 412.418 156.865 412.81 157.281 413.085C157.7 413.357 158.176 413.494 158.709 413.494C159.111 413.494 159.438 413.426 159.69 413.291C159.942 413.157 160.14 412.999 160.284 412.818C160.43 412.638 160.542 412.477 160.619 412.337H160.727V413.365H161.983V406.307C161.552 406.118 161.124 405.925 160.697 405.728ZM95.7266 404.555V405.699H98.4711V413.365H99.796V405.699H102.545V404.555H95.7266ZM104.151 413.072C104.613 413.356 105.154 413.498 105.773 413.498C106.393 413.498 106.933 413.356 107.395 413.072C107.857 412.788 108.215 412.391 108.47 411.881C108.726 411.37 108.853 410.774 108.853 410.091C108.853 409.406 108.726 408.806 108.47 408.293C108.215 407.78 107.857 407.381 107.395 407.097C106.933 406.813 106.393 406.671 105.773 406.671C105.154 406.671 104.613 406.813 104.151 407.097C103.69 407.381 103.331 407.78 103.076 408.293C102.821 408.806 102.693 409.406 102.693 410.091C102.693 410.774 102.821 411.37 103.076 411.881C103.331 412.391 103.69 412.788 104.151 413.072ZM106.776 412.1C106.512 412.312 106.179 412.418 105.778 412.418C105.373 412.418 105.038 412.312 104.771 412.1C104.507 411.888 104.311 411.605 104.182 411.252C104.055 410.9 103.992 410.511 103.992 410.087C103.992 409.665 104.055 409.278 104.182 408.925C104.311 408.57 104.507 408.284 104.771 408.069C105.038 407.854 105.373 407.747 105.778 407.747C106.179 407.747 106.512 407.854 106.776 408.069C107.039 408.284 107.234 408.57 107.361 408.925C107.49 409.278 107.554 409.665 107.554 410.087C107.554 410.511 107.49 410.9 107.361 411.252C107.234 411.605 107.039 411.888 106.776 412.1ZM113.373 407.79V406.757H112.018V405.174H110.732V406.757H109.764V407.79H110.732V411.691C110.732 412.09 110.822 412.421 111.003 412.685C111.184 412.949 111.42 413.144 111.713 413.27C112.005 413.396 112.321 413.456 112.659 413.451C112.866 413.448 113.038 413.431 113.175 413.399C113.313 413.37 113.419 413.342 113.494 413.313L113.261 412.25C113.218 412.259 113.158 412.271 113.081 412.285C113.003 412.299 112.913 412.306 112.81 412.306C112.669 412.306 112.539 412.285 112.418 412.242C112.301 412.196 112.205 412.111 112.13 411.988C112.056 411.862 112.018 411.674 112.018 411.425V407.79H113.373ZM115.583 413.279C115.922 413.433 116.3 413.511 116.719 413.511C117.083 413.511 117.396 413.458 117.657 413.352C117.918 413.246 118.131 413.112 118.298 412.952C118.464 412.791 118.589 412.628 118.672 412.461H118.724V413.365H119.98V408.977C119.98 408.495 119.897 408.104 119.73 407.802C119.564 407.499 119.35 407.265 119.089 407.101C118.831 406.938 118.553 406.826 118.255 406.766C117.959 406.703 117.68 406.671 117.416 406.671C117.017 406.671 116.637 406.728 116.276 406.843C115.915 406.955 115.595 407.136 115.317 407.385C115.041 407.632 114.832 407.956 114.689 408.357L115.897 408.633C115.992 408.4 116.163 408.19 116.409 408C116.659 407.808 117 407.712 117.433 407.712C117.849 407.712 118.162 407.815 118.371 408.022C118.583 408.228 118.689 408.519 118.689 408.895V408.925C118.689 409.08 118.633 409.192 118.521 409.261C118.41 409.33 118.23 409.38 117.984 409.411L117.02 409.523C116.708 409.56 116.401 409.615 116.1 409.687C115.798 409.758 115.526 409.864 115.282 410.005C115.038 410.146 114.845 410.336 114.701 410.577C114.558 410.818 114.486 411.125 114.486 411.498C114.486 411.931 114.584 412.296 114.779 412.595C114.977 412.893 115.245 413.121 115.583 413.279ZM117.911 412.268C117.658 412.408 117.354 412.478 116.999 412.478C116.634 412.478 116.335 412.398 116.1 412.238C115.864 412.074 115.747 411.833 115.747 411.515C115.747 411.285 115.807 411.102 115.927 410.964C116.051 410.824 116.214 410.716 116.418 410.642C116.624 410.567 116.852 410.514 117.102 410.482C117.208 410.468 117.34 410.451 117.498 410.431C117.655 410.408 117.817 410.384 117.984 410.358C118.15 410.329 118.298 410.296 118.427 410.259C118.559 410.219 118.648 410.176 118.693 410.13V410.981C118.693 411.242 118.626 411.488 118.491 411.717C118.359 411.944 118.166 412.127 117.911 412.268ZM122.979 413.365V404.555H121.693V413.365H122.979ZM131.701 408.577L132.867 408.37C132.735 407.854 132.464 407.443 132.054 407.136C131.643 406.826 131.081 406.671 130.367 406.671C129.871 406.671 129.431 406.754 129.047 406.921C128.662 407.084 128.361 407.312 128.143 407.605C127.925 407.897 127.816 408.238 127.816 408.628C127.816 409.099 127.963 409.487 128.255 409.794C128.551 410.101 129.007 410.325 129.623 410.465L130.742 410.71C131.057 410.782 131.291 410.888 131.443 411.029C131.598 411.169 131.675 411.343 131.675 411.549C131.675 411.805 131.549 412.021 131.296 412.199C131.044 412.374 130.707 412.461 130.286 412.461C129.898 412.461 129.584 412.38 129.343 412.216C129.103 412.05 128.943 411.805 128.866 411.48L127.623 411.67C127.729 412.255 128.016 412.706 128.483 413.025C128.951 413.34 129.554 413.498 130.294 413.498C130.828 413.498 131.296 413.411 131.701 413.236C132.108 413.061 132.425 412.82 132.652 412.513C132.881 412.203 132.996 411.85 132.996 411.455C132.996 410.987 132.847 410.607 132.548 410.315C132.25 410.022 131.797 409.806 131.189 409.665L130.139 409.424C129.775 409.338 129.511 409.228 129.348 409.093C129.184 408.958 129.103 408.78 129.103 408.56C129.103 408.304 129.224 408.096 129.468 407.936C129.712 407.772 130.016 407.691 130.38 407.691C130.647 407.691 130.869 407.734 131.047 407.82C131.225 407.906 131.365 408.016 131.469 408.151C131.575 408.286 131.652 408.428 131.701 408.577ZM134.41 406.757V415.842H135.696V412.337H135.773C135.851 412.477 135.961 412.638 136.105 412.818C136.248 412.999 136.446 413.157 136.698 413.291C136.954 413.426 137.282 413.494 137.683 413.494C138.217 413.494 138.692 413.357 139.107 413.085C139.523 412.81 139.85 412.418 140.088 411.911C140.326 411.4 140.445 410.788 140.445 410.074C140.445 409.36 140.325 408.749 140.084 408.241C139.846 407.734 139.517 407.345 139.099 407.076C138.68 406.806 138.204 406.671 137.671 406.671C137.26 406.671 136.931 406.74 136.681 406.878C136.432 407.012 136.237 407.17 136.096 407.351C135.956 407.531 135.848 407.691 135.773 407.828H135.666V406.757H134.41ZM135.872 411.283C135.738 410.933 135.67 410.525 135.67 410.061C135.67 409.602 135.736 409.201 135.868 408.856C136 408.512 136.194 408.244 136.449 408.052C136.707 407.86 137.022 407.764 137.395 407.764C137.782 407.764 138.105 407.864 138.363 408.065C138.624 408.266 138.819 408.54 138.948 408.887C139.08 409.234 139.146 409.625 139.146 410.061C139.146 410.503 139.079 410.9 138.944 411.252C138.812 411.605 138.617 411.885 138.359 412.091C138.101 412.295 137.78 412.397 137.395 412.397C137.025 412.397 136.713 412.299 136.457 412.104C136.202 411.906 136.007 411.632 135.872 411.283ZM143.052 413.081C143.522 413.359 144.083 413.498 144.734 413.498C145.216 413.498 145.645 413.425 146.02 413.279C146.399 413.129 146.713 412.922 146.962 412.655C147.215 412.385 147.39 412.071 147.487 411.713L146.27 411.493C146.192 411.7 146.08 411.873 145.934 412.014C145.788 412.154 145.614 412.261 145.414 412.332C145.213 412.401 144.991 412.435 144.747 412.435C144.371 412.435 144.043 412.355 143.762 412.195C143.481 412.031 143.261 411.794 143.104 411.485C142.959 411.196 142.882 410.851 142.872 410.448H147.569V409.992C147.569 409.393 147.489 408.884 147.328 408.465C147.167 408.043 146.948 407.701 146.67 407.437C146.392 407.173 146.078 406.979 145.728 406.856C145.378 406.733 145.016 406.671 144.644 406.671C144.03 406.671 143.494 406.816 143.035 407.106C142.579 407.395 142.223 407.798 141.968 408.314C141.716 408.831 141.589 409.427 141.589 410.104C141.589 410.789 141.716 411.387 141.968 411.898C142.223 412.405 142.585 412.8 143.052 413.081ZM142.875 409.484C142.89 409.2 142.961 408.935 143.086 408.689C143.233 408.405 143.439 408.175 143.706 408C143.975 407.823 144.291 407.734 144.652 407.734C144.985 407.734 145.275 407.81 145.521 407.962C145.771 408.114 145.964 408.322 146.102 408.585C146.24 408.846 146.308 409.146 146.308 409.484H142.875ZM150.282 413.365V409.441C150.282 409.092 150.348 408.793 150.48 408.547C150.615 408.297 150.797 408.108 151.026 407.979C151.259 407.85 151.524 407.785 151.822 407.785C152.258 407.785 152.601 407.922 152.85 408.194C153.1 408.464 153.225 408.838 153.225 409.317V413.365H154.511V409.162C154.511 408.617 154.418 408.16 154.231 407.79C154.045 407.42 153.782 407.141 153.444 406.955C153.106 406.766 152.711 406.671 152.261 406.671C151.765 406.671 151.353 406.777 151.026 406.989C150.702 407.202 150.464 407.483 150.312 407.833H150.231V406.757H148.996V413.365H150.282ZM159.931 412.104C159.676 412.299 159.363 412.397 158.993 412.397C158.612 412.397 158.291 412.295 158.03 412.091C157.771 411.885 157.576 411.605 157.445 411.252C157.313 410.9 157.247 410.503 157.247 410.061C157.247 409.625 157.311 409.234 157.44 408.887C157.572 408.54 157.767 408.266 158.025 408.065C158.283 407.864 158.606 407.764 158.993 407.764C159.369 407.764 159.684 407.86 159.94 408.052C160.195 408.244 160.388 408.512 160.52 408.856C160.652 409.201 160.718 409.602 160.718 410.061C160.718 410.525 160.651 410.933 160.516 411.283C160.384 411.632 160.189 411.906 159.931 412.104Z" fill="#111827"/>
<path d="M128.333 75.8516C128.193 74.549 127.607 73.5348 126.573 72.8089C125.549 72.0831 124.216 71.7202 122.576 71.7202C121.422 71.7202 120.433 71.8942 119.608 72.2422C118.782 72.5902 118.151 73.0625 117.713 73.6591C117.276 74.2557 117.052 74.9368 117.042 75.7024C117.042 76.3388 117.186 76.8906 117.475 77.358C117.773 77.8253 118.176 78.223 118.683 78.5511C119.19 78.8693 119.752 79.1378 120.368 79.3565C120.985 79.5753 121.606 79.7592 122.233 79.9084L125.096 80.6243C126.25 80.8928 127.358 81.2557 128.422 81.7131C129.496 82.1705 130.456 82.7472 131.301 83.4432C132.156 84.1392 132.832 84.9794 133.329 85.9638C133.826 86.9482 134.075 88.1016 134.075 89.424C134.075 91.2138 133.617 92.7898 132.703 94.152C131.788 95.5043 130.465 96.5632 128.735 97.3288C127.015 98.0845 124.932 98.4624 122.486 98.4624C120.11 98.4624 118.046 98.0945 116.296 97.3587C114.556 96.6229 113.194 95.549 112.21 94.1371C111.235 92.7251 110.708 91.005 110.629 88.9766H116.073C116.152 90.0405 116.48 90.9254 117.057 91.6314C117.634 92.3374 118.384 92.8643 119.309 93.2124C120.244 93.5604 121.288 93.7344 122.441 93.7344C123.644 93.7344 124.698 93.5554 125.603 93.1974C126.518 92.8295 127.234 92.3224 127.751 91.6761C128.268 91.0199 128.532 90.2543 128.541 89.3793C128.532 88.5838 128.298 87.9276 127.84 87.4105C127.383 86.8835 126.742 86.446 125.916 86.098C125.101 85.7401 124.147 85.4219 123.053 85.1435L119.578 84.2486C117.062 83.6023 115.073 82.6229 113.612 81.3104C112.16 79.9879 111.434 78.233 111.434 76.0455C111.434 74.2457 111.921 72.6697 112.896 71.3175C113.88 69.9652 115.218 68.9162 116.908 68.1705C118.598 67.4148 120.512 67.0369 122.65 67.0369C124.818 67.0369 126.717 67.4148 128.348 68.1705C129.988 68.9162 131.276 69.9553 132.21 71.2876C133.145 72.6101 133.627 74.1314 133.657 75.8516H128.333ZM148.911 98.4474C146.614 98.4474 144.631 97.9702 142.96 97.0156C141.3 96.0511 140.022 94.6889 139.127 92.929C138.232 91.1591 137.785 89.076 137.785 86.6797C137.785 84.3232 138.232 82.255 139.127 80.4751C140.032 78.6854 141.295 77.2933 142.916 76.299C144.536 75.2947 146.44 74.7926 148.628 74.7926C150.04 74.7926 151.372 75.0213 152.625 75.4787C153.888 75.9261 155.002 76.6222 155.966 77.5668C156.94 78.5114 157.706 79.7145 158.263 81.1761C158.82 82.6278 159.098 84.358 159.098 86.3665V88.022H140.32V84.3828H153.923C153.913 83.3487 153.689 82.429 153.252 81.6236C152.814 80.8082 152.203 80.1669 151.417 79.6996C150.641 79.2322 149.737 78.9986 148.703 78.9986C147.599 78.9986 146.629 79.267 145.794 79.804C144.959 80.331 144.308 81.027 143.84 81.892C143.383 82.7472 143.149 83.6868 143.139 84.7109V87.8878C143.139 89.2202 143.383 90.3636 143.87 91.3182C144.357 92.2628 145.038 92.9886 145.913 93.4957C146.788 93.9929 147.813 94.2415 148.986 94.2415C149.771 94.2415 150.482 94.1321 151.119 93.9134C151.755 93.6847 152.307 93.3516 152.774 92.9141C153.242 92.4766 153.595 91.9347 153.833 91.2884L158.874 91.8551C158.556 93.1875 157.95 94.3509 157.055 95.3452C156.17 96.3295 155.036 97.0952 153.654 97.642C152.272 98.179 150.691 98.4474 148.911 98.4474ZM173.629 107.068C171.69 107.068 170.024 106.805 168.632 106.278C167.24 105.761 166.122 105.065 165.277 104.19C164.431 103.315 163.845 102.345 163.517 101.281L168.379 100.103C168.598 100.55 168.916 100.993 169.333 101.43C169.751 101.878 170.313 102.246 171.019 102.534C171.735 102.832 172.634 102.982 173.718 102.982C175.25 102.982 176.517 102.609 177.522 101.863C178.526 101.127 179.028 99.9141 179.028 98.2237V93.8835H178.76C178.481 94.4403 178.073 95.0121 177.536 95.5987C177.01 96.1854 176.309 96.6776 175.434 97.0753C174.568 97.473 173.48 97.6719 172.167 97.6719C170.407 97.6719 168.811 97.2592 167.38 96.4339C165.958 95.5987 164.824 94.3558 163.979 92.7053C163.144 91.0447 162.726 88.9666 162.726 86.4709C162.726 83.9553 163.144 81.8324 163.979 80.1023C164.824 78.3622 165.963 77.0447 167.394 76.1499C168.826 75.245 170.422 74.7926 172.182 74.7926C173.524 74.7926 174.628 75.0213 175.493 75.4787C176.368 75.9261 177.064 76.468 177.581 77.1044C178.098 77.7308 178.491 78.3224 178.76 78.8793H179.058V75.0909H184.382V98.3729C184.382 100.332 183.915 101.952 182.98 103.235C182.046 104.518 180.768 105.477 179.147 106.114C177.527 106.75 175.687 107.068 173.629 107.068ZM173.674 93.4361C174.817 93.4361 175.791 93.1577 176.597 92.6009C177.402 92.044 178.014 91.2436 178.431 90.1996C178.849 89.1555 179.058 87.9027 179.058 86.4411C179.058 84.9993 178.849 83.7365 178.431 82.6527C178.024 81.5689 177.417 80.7287 176.612 80.1321C175.816 79.5256 174.837 79.2223 173.674 79.2223C172.47 79.2223 171.466 79.5355 170.661 80.1619C169.855 80.7884 169.249 81.6484 168.841 82.7422C168.434 83.826 168.23 85.0589 168.23 86.4411C168.23 87.843 168.434 89.071 168.841 90.125C169.259 91.169 169.87 91.9844 170.676 92.571C171.491 93.1477 172.49 93.4361 173.674 93.4361ZM189.916 98V75.0909H195.076V78.9837H195.345C195.822 77.6712 196.612 76.647 197.716 75.9112C198.82 75.1655 200.137 74.7926 201.669 74.7926C203.22 74.7926 204.527 75.1705 205.591 75.9261C206.665 76.6719 207.421 77.6911 207.858 78.9837H208.097C208.604 77.7109 209.459 76.6967 210.662 75.9411C211.875 75.1754 213.312 74.7926 214.973 74.7926C217.081 74.7926 218.801 75.4588 220.133 76.7912C221.465 78.1236 222.132 80.0675 222.132 82.6229V98H216.718V83.4581C216.718 82.0362 216.34 80.9972 215.584 80.3409C214.828 79.6747 213.904 79.3416 212.81 79.3416C211.507 79.3416 210.488 79.7493 209.752 80.5646C209.027 81.37 208.664 82.419 208.664 83.7116V98H203.369V83.2344C203.369 82.0511 203.011 81.1065 202.295 80.4006C201.589 79.6946 200.664 79.3416 199.521 79.3416C198.745 79.3416 198.039 79.5405 197.403 79.9382C196.767 80.326 196.259 80.8778 195.882 81.5938C195.504 82.2997 195.315 83.125 195.315 84.0696V98H189.916ZM237.751 98.4474C235.454 98.4474 233.471 97.9702 231.8 97.0156C230.14 96.0511 228.862 94.6889 227.967 92.929C227.072 91.1591 226.625 89.076 226.625 86.6797C226.625 84.3232 227.072 82.255 227.967 80.4751C228.872 78.6854 230.135 77.2933 231.755 76.299C233.376 75.2947 235.28 74.7926 237.468 74.7926C238.88 74.7926 240.212 75.0213 241.465 75.4787C242.728 75.9261 243.841 76.6222 244.806 77.5668C245.78 78.5114 246.546 79.7145 247.103 81.1761C247.66 82.6278 247.938 84.358 247.938 86.3665V88.022H229.16V84.3828H242.763C242.753 83.3487 242.529 82.429 242.091 81.6236C241.654 80.8082 241.042 80.1669 240.257 79.6996C239.481 79.2322 238.576 78.9986 237.542 78.9986C236.439 78.9986 235.469 79.267 234.634 79.804C233.799 80.331 233.147 81.027 232.68 81.892C232.223 82.7472 231.989 83.6868 231.979 84.7109V87.8878C231.979 89.2202 232.223 90.3636 232.71 91.3182C233.197 92.2628 233.878 92.9886 234.753 93.4957C235.628 93.9929 236.652 94.2415 237.826 94.2415C238.611 94.2415 239.322 94.1321 239.959 93.9134C240.595 93.6847 241.147 93.3516 241.614 92.9141C242.081 92.4766 242.434 91.9347 242.673 91.2884L247.714 91.8551C247.396 93.1875 246.79 94.3509 245.895 95.3452C245.01 96.3295 243.876 97.0952 242.494 97.642C241.112 98.179 239.531 98.4474 237.751 98.4474ZM257.905 84.5767V98H252.506V75.0909H257.666V78.9837H257.935C258.462 77.701 259.302 76.6818 260.455 75.9261C261.619 75.1705 263.055 74.7926 264.766 74.7926C266.347 74.7926 267.724 75.1307 268.897 75.8068C270.08 76.483 270.995 77.4624 271.641 78.745C272.297 80.0277 272.621 81.5838 272.611 83.4134V98H267.212V84.2486C267.212 82.7173 266.814 81.5192 266.018 80.6541C265.233 79.7891 264.144 79.3565 262.752 79.3565C261.807 79.3565 260.967 79.5653 260.231 79.983C259.506 80.3906 258.934 80.9822 258.516 81.7578C258.109 82.5334 257.905 83.473 257.905 84.5767ZM289.539 75.0909V79.267H276.369V75.0909H289.539ZM279.621 69.6023H285.02V91.1094C285.02 91.8352 285.129 92.392 285.348 92.7798C285.577 93.1577 285.875 93.4162 286.243 93.5554C286.611 93.6946 287.018 93.7642 287.466 93.7642C287.804 93.7642 288.112 93.7393 288.391 93.6896C288.679 93.6399 288.898 93.5952 289.047 93.5554L289.957 97.7763C289.668 97.8757 289.256 97.9851 288.719 98.1044C288.192 98.2237 287.545 98.2933 286.78 98.3132C285.427 98.353 284.209 98.1491 283.126 97.7017C282.042 97.2443 281.182 96.5384 280.545 95.5838C279.919 94.6293 279.611 93.4361 279.621 92.0043V69.6023Z" fill="url(#paint0_linear_5621_113109)"/>
<path d="M117.473 128.761H111.895C111.736 127.846 111.442 127.036 111.015 126.33C110.587 125.614 110.055 125.007 109.419 124.51C108.782 124.013 108.057 123.64 107.241 123.391C106.436 123.133 105.566 123.004 104.631 123.004C102.971 123.004 101.499 123.421 100.216 124.256C98.9338 125.082 97.9295 126.295 97.2037 127.896C96.4778 129.487 96.1149 131.43 96.1149 133.727C96.1149 136.064 96.4778 138.033 97.2037 139.634C97.9395 141.224 98.9437 142.428 100.216 143.243C101.499 144.048 102.966 144.451 104.616 144.451C105.531 144.451 106.386 144.332 107.182 144.093C107.987 143.844 108.708 143.482 109.344 143.004C109.991 142.527 110.532 141.94 110.97 141.244C111.417 140.548 111.726 139.753 111.895 138.858L117.473 138.888C117.264 140.339 116.812 141.702 116.116 142.974C115.43 144.247 114.53 145.371 113.416 146.345C112.302 147.31 111 148.065 109.508 148.612C108.017 149.149 106.361 149.418 104.542 149.418C101.857 149.418 99.4608 148.796 97.3528 147.553C95.2449 146.31 93.5843 144.516 92.3713 142.169C91.1582 139.822 90.5517 137.009 90.5517 133.727C90.5517 130.436 91.1632 127.622 92.3862 125.286C93.6092 122.939 95.2747 121.144 97.3826 119.901C99.4906 118.658 101.877 118.037 104.542 118.037C106.242 118.037 107.823 118.276 109.285 118.753C110.746 119.23 112.049 119.931 113.192 120.856C114.336 121.771 115.275 122.894 116.011 124.227C116.757 125.549 117.244 127.06 117.473 128.761ZM136.903 139.365V126.091H142.302V149H137.067V144.928H136.828C136.311 146.211 135.461 147.26 134.278 148.075C133.105 148.891 131.658 149.298 129.938 149.298C128.436 149.298 127.109 148.965 125.956 148.299C124.812 147.623 123.917 146.643 123.271 145.361C122.625 144.068 122.301 142.507 122.301 140.678V126.091H127.701V139.842C127.701 141.294 128.098 142.447 128.894 143.303C129.689 144.158 130.733 144.585 132.026 144.585C132.821 144.585 133.592 144.391 134.338 144.004C135.083 143.616 135.695 143.039 136.172 142.273C136.659 141.498 136.903 140.528 136.903 139.365ZM165.961 132.146L161.039 132.683C160.9 132.186 160.656 131.719 160.308 131.281C159.97 130.844 159.513 130.491 158.936 130.222C158.359 129.954 157.653 129.82 156.818 129.82C155.694 129.82 154.75 130.063 153.984 130.55C153.229 131.038 152.856 131.669 152.866 132.445C152.856 133.111 153.099 133.653 153.596 134.07C154.104 134.488 154.939 134.831 156.102 135.099L160.01 135.935C162.177 136.402 163.788 137.143 164.842 138.157C165.906 139.171 166.443 140.499 166.453 142.139C166.443 143.581 166.02 144.854 165.185 145.957C164.36 147.051 163.211 147.906 161.74 148.523C160.268 149.139 158.578 149.447 156.669 149.447C153.865 149.447 151.608 148.861 149.898 147.688C148.187 146.504 147.168 144.859 146.84 142.751L152.105 142.244C152.344 143.278 152.851 144.058 153.626 144.585C154.402 145.112 155.411 145.376 156.654 145.376C157.937 145.376 158.966 145.112 159.741 144.585C160.527 144.058 160.92 143.407 160.92 142.631C160.92 141.975 160.666 141.433 160.159 141.006C159.662 140.578 158.886 140.25 157.832 140.021L153.925 139.201C151.727 138.744 150.101 137.973 149.047 136.889C147.993 135.795 147.471 134.413 147.481 132.743C147.471 131.331 147.854 130.108 148.63 129.074C149.415 128.03 150.504 127.224 151.896 126.658C153.298 126.081 154.914 125.793 156.743 125.793C159.428 125.793 161.541 126.364 163.082 127.508C164.633 128.651 165.593 130.197 165.961 132.146ZM182.345 126.091V130.267H169.175V126.091H182.345ZM172.426 120.602H177.825V142.109C177.825 142.835 177.935 143.392 178.154 143.78C178.382 144.158 178.681 144.416 179.048 144.555C179.416 144.695 179.824 144.764 180.271 144.764C180.61 144.764 180.918 144.739 181.196 144.69C181.485 144.64 181.703 144.595 181.852 144.555L182.762 148.776C182.474 148.876 182.061 148.985 181.524 149.104C180.997 149.224 180.351 149.293 179.585 149.313C178.233 149.353 177.015 149.149 175.931 148.702C174.847 148.244 173.987 147.538 173.351 146.584C172.725 145.629 172.416 144.436 172.426 143.004V120.602ZM196.607 149.447C194.37 149.447 192.431 148.955 190.79 147.971C189.15 146.987 187.877 145.609 186.972 143.839C186.077 142.07 185.63 140.001 185.63 137.635C185.63 135.268 186.077 133.195 186.972 131.415C187.877 129.636 189.15 128.254 190.79 127.269C192.431 126.285 194.37 125.793 196.607 125.793C198.844 125.793 200.783 126.285 202.424 127.269C204.064 128.254 205.332 129.636 206.227 131.415C207.132 133.195 207.584 135.268 207.584 137.635C207.584 140.001 207.132 142.07 206.227 143.839C205.332 145.609 204.064 146.987 202.424 147.971C200.783 148.955 198.844 149.447 196.607 149.447ZM196.637 145.122C197.85 145.122 198.864 144.789 199.679 144.123C200.495 143.447 201.101 142.542 201.499 141.408C201.907 140.275 202.11 139.012 202.11 137.62C202.11 136.218 201.907 134.95 201.499 133.817C201.101 132.673 200.495 131.763 199.679 131.087C198.864 130.411 197.85 130.073 196.637 130.073C195.394 130.073 194.36 130.411 193.534 131.087C192.719 131.763 192.108 132.673 191.7 133.817C191.302 134.95 191.103 136.218 191.103 137.62C191.103 139.012 191.302 140.275 191.7 141.408C192.108 142.542 192.719 143.447 193.534 144.123C194.36 144.789 195.394 145.122 196.637 145.122ZM212.167 149V126.091H217.327V129.984H217.596C218.073 128.671 218.863 127.647 219.967 126.911C221.071 126.165 222.388 125.793 223.92 125.793C225.471 125.793 226.778 126.17 227.842 126.926C228.916 127.672 229.672 128.691 230.109 129.984H230.348C230.855 128.711 231.71 127.697 232.913 126.941C234.126 126.175 235.563 125.793 237.224 125.793C239.332 125.793 241.052 126.459 242.384 127.791C243.716 129.124 244.383 131.067 244.383 133.623V149H238.969V134.458C238.969 133.036 238.591 131.997 237.835 131.341C237.079 130.675 236.155 130.342 235.061 130.342C233.758 130.342 232.739 130.749 232.003 131.565C231.278 132.37 230.915 133.419 230.915 134.712V149H225.62V134.234C225.62 133.051 225.262 132.107 224.546 131.401C223.84 130.695 222.915 130.342 221.772 130.342C220.996 130.342 220.29 130.54 219.654 130.938C219.018 131.326 218.51 131.878 218.133 132.594C217.755 133.3 217.566 134.125 217.566 135.07V149H212.167ZM260.002 149.447C257.705 149.447 255.722 148.97 254.051 148.016C252.391 147.051 251.113 145.689 250.218 143.929C249.323 142.159 248.876 140.076 248.876 137.68C248.876 135.323 249.323 133.255 250.218 131.475C251.123 129.685 252.386 128.293 254.006 127.299C255.627 126.295 257.531 125.793 259.719 125.793C261.131 125.793 262.463 126.021 263.716 126.479C264.979 126.926 266.092 127.622 267.057 128.567C268.031 129.511 268.797 130.714 269.354 132.176C269.911 133.628 270.189 135.358 270.189 137.366V139.022H251.411V135.383H265.013C265.004 134.349 264.78 133.429 264.342 132.624C263.905 131.808 263.293 131.167 262.508 130.7C261.732 130.232 260.827 129.999 259.793 129.999C258.69 129.999 257.72 130.267 256.885 130.804C256.05 131.331 255.398 132.027 254.931 132.892C254.474 133.747 254.24 134.687 254.23 135.711V138.888C254.23 140.22 254.474 141.364 254.961 142.318C255.448 143.263 256.129 143.989 257.004 144.496C257.879 144.993 258.903 145.241 260.077 145.241C260.862 145.241 261.573 145.132 262.21 144.913C262.846 144.685 263.398 144.352 263.865 143.914C264.332 143.477 264.685 142.935 264.924 142.288L269.965 142.855C269.647 144.187 269.04 145.351 268.146 146.345C267.261 147.33 266.127 148.095 264.745 148.642C263.363 149.179 261.782 149.447 260.002 149.447ZM274.757 149V126.091H279.992V129.909H280.23C280.648 128.587 281.364 127.567 282.378 126.852C283.402 126.126 284.57 125.763 285.883 125.763C286.181 125.763 286.514 125.778 286.882 125.808C287.26 125.827 287.573 125.862 287.822 125.912V130.879C287.593 130.799 287.23 130.729 286.733 130.67C286.246 130.6 285.774 130.565 285.316 130.565C284.332 130.565 283.447 130.779 282.661 131.207C281.886 131.624 281.274 132.206 280.827 132.952C280.379 133.697 280.156 134.558 280.156 135.532V149H274.757ZM309.515 132.146L304.594 132.683C304.454 132.186 304.211 131.719 303.863 131.281C303.525 130.844 303.067 130.491 302.491 130.222C301.914 129.954 301.208 129.82 300.373 129.82C299.249 129.82 298.305 130.063 297.539 130.55C296.783 131.038 296.41 131.669 296.42 132.445C296.41 133.111 296.654 133.653 297.151 134.07C297.658 134.488 298.493 134.831 299.657 135.099L303.564 135.935C305.732 136.402 307.343 137.143 308.397 138.157C309.461 139.171 309.998 140.499 310.008 142.139C309.998 143.581 309.575 144.854 308.74 145.957C307.915 147.051 306.766 147.906 305.295 148.523C303.823 149.139 302.133 149.447 300.224 149.447C297.42 149.447 295.162 148.861 293.452 147.688C291.742 146.504 290.723 144.859 290.395 142.751L295.66 142.244C295.898 143.278 296.405 144.058 297.181 144.585C297.956 145.112 298.966 145.376 300.209 145.376C301.491 145.376 302.52 145.112 303.296 144.585C304.081 144.058 304.474 143.407 304.474 142.631C304.474 141.975 304.221 141.433 303.714 141.006C303.216 140.578 302.441 140.25 301.387 140.021L297.479 139.201C295.282 138.744 293.656 137.973 292.602 136.889C291.548 135.795 291.026 134.413 291.036 132.743C291.026 131.331 291.409 130.108 292.184 129.074C292.97 128.03 294.059 127.224 295.451 126.658C296.853 126.081 298.469 125.793 300.298 125.793C302.983 125.793 305.096 126.364 306.637 127.508C308.188 128.651 309.148 130.197 309.515 132.146Z" fill="#111827"/>
</g>
<defs>
<filter id="filter0_d_5621_113109" x="0" y="0" width="400" height="502" filterUnits="userSpaceOnUse" color-interpolation-filters="sRGB">
<feFlood flood-opacity="0" result="BackgroundImageFix"/>
<feColorMatrix in="SourceAlpha" type="matrix" values="0 0 0 0 0 0 0 0 0 0 0 0 0 0 0 0 0 0 127 0" result="hardAlpha"/>
<feOffset dy="2"/>
<feComposite in2="hardAlpha" operator="out"/>
<feColorMatrix type="matrix" values="0 0 0 0 0 0 0 0 0 0 0 0 0 0 0 0 0 0 0.03 0"/>
<feBlend mode="normal" in2="BackgroundImageFix" result="effect1_dropShadow_5621_113109"/>
<feBlend mode="normal" in="SourceGraphic" in2="effect1_dropShadow_5621_113109" result="shape"/>
</filter>
<linearGradient id="paint0_linear_5621_113109" x1="309.996" y1="108" x2="88.2004" y2="108" gradientUnits="userSpaceOnUse">
<stop stop-color="#6366F1"/>
<stop offset="0.354167" stop-color="#835CD7"/>
<stop offset="0.583333" stop-color="#D45E95"/>
<stop offset="0.796875" stop-color="#EF1468"/>
<stop offset="1" stop-color="#F77553"/>
</linearGradient>
</defs>
</svg>
