<svg width="400" height="500" viewBox="0 0 400 500" fill="none" xmlns="http://www.w3.org/2000/svg">
<mask id="mask0_3325_193738" style="mask-type:alpha" maskUnits="userSpaceOnUse" x="0" y="0" width="400" height="500">
<rect width="400" height="500" rx="25" fill="#F3F4F6"/>
</mask>
<g mask="url(#mask0_3325_193738)">
<circle cx="199.769" cy="250.769" r="99.7483" stroke="#A5B4FC" stroke-width="2.52527"/>
<circle cx="199.757" cy="250.769" r="137.627" stroke="#C7D2FE" stroke-width="2.52527"/>
<circle cx="199.769" cy="250.769" r="175.506" stroke="#E0E7FF" stroke-width="2.52527"/>
<path fill-rule="evenodd" clip-rule="evenodd" d="M139.825 169.45C139.716 169.44 139.604 169.436 139.489 169.436C138.831 169.436 138.286 169.576 137.852 169.858C137.423 170.139 137.107 170.512 136.906 170.976H136.797V169.55H135.16V173.108C136.678 171.845 138.234 170.624 139.825 169.45ZM133.209 174.776C133.241 174.518 133.257 174.249 133.257 173.97C133.257 173.061 133.088 172.266 132.749 171.586C132.411 170.905 131.936 170.377 131.324 170C130.712 169.624 129.995 169.436 129.174 169.436C128.352 169.436 127.636 169.624 127.024 170C126.411 170.377 125.936 170.905 125.598 171.586C125.259 172.266 125.09 173.061 125.09 173.97C125.09 174.875 125.259 175.665 125.598 176.342C125.936 177.019 126.411 177.545 127.024 177.922C127.636 178.298 128.352 178.487 129.174 178.487C129.182 178.487 129.19 178.486 129.198 178.486C130.501 177.214 131.838 175.977 133.209 174.776ZM78.6484 166.63V178.31H85.7032V176.793H80.4107V166.63H78.6484ZM89.1165 177.922C89.7286 178.298 90.4453 178.487 91.2665 178.487C92.0878 178.487 92.8045 178.298 93.4166 177.922C94.0288 177.545 94.504 177.019 94.8424 176.342C95.1808 175.665 95.35 174.875 95.35 173.97C95.35 173.061 95.1808 172.266 94.8424 171.586C94.504 170.905 94.0288 170.377 93.4166 170C92.8045 169.624 92.0878 169.436 91.2665 169.436C90.4453 169.436 89.7286 169.624 89.1165 170C88.5043 170.377 88.0291 170.905 87.6907 171.586C87.3523 172.266 87.1831 173.061 87.1831 173.97C87.1831 174.875 87.3523 175.665 87.6907 176.342C88.0291 177.019 88.5043 177.545 89.1165 177.922ZM92.5954 176.633C92.2456 176.914 91.8045 177.055 91.2723 177.055C90.7362 177.055 90.2913 176.914 89.9377 176.633C89.5879 176.352 89.3275 175.977 89.1564 175.509C88.9891 175.042 88.9055 174.527 88.9055 173.964C88.9055 173.405 88.9891 172.892 89.1564 172.424C89.3275 171.953 89.5879 171.574 89.9377 171.289C90.2913 171.004 90.7362 170.861 91.2723 170.861C91.8045 170.861 92.2456 171.004 92.5954 171.289C92.9452 171.574 93.2037 171.953 93.371 172.424C93.5421 172.892 93.6276 173.405 93.6276 173.964C93.6276 174.527 93.5421 175.042 93.371 175.509C93.2037 175.977 92.9452 176.352 92.5954 176.633ZM98.7533 177.91C99.3654 178.295 100.095 178.487 100.943 178.487C101.635 178.487 102.238 178.359 102.751 178.104C103.268 177.85 103.681 177.5 103.989 177.055C104.297 176.61 104.481 176.105 104.542 175.538H102.882C102.81 175.854 102.683 176.124 102.5 176.348C102.322 176.572 102.099 176.745 101.833 176.867C101.571 176.985 101.278 177.044 100.955 177.044C100.472 177.044 100.052 176.916 99.6943 176.662C99.3407 176.407 99.067 176.047 98.8731 175.584C98.6792 175.12 98.5822 174.568 98.5822 173.93C98.5822 173.306 98.6811 172.766 98.8788 172.31C99.0765 171.85 99.3521 171.496 99.7057 171.249C100.063 170.998 100.479 170.873 100.955 170.873C101.498 170.873 101.932 171.021 102.255 171.318C102.582 171.614 102.791 171.968 102.882 172.378H104.542C104.481 171.789 104.289 171.274 103.966 170.833C103.647 170.392 103.226 170.05 102.706 169.806C102.185 169.559 101.592 169.436 100.926 169.436C100.101 169.436 99.3844 169.628 98.7761 170.012C98.1678 170.396 97.6963 170.93 97.3617 171.614C97.0272 172.295 96.8599 173.08 96.8599 173.97C96.8599 174.848 97.0234 175.627 97.3503 176.308C97.6773 176.988 98.145 177.523 98.7533 177.91ZM107.409 178.196C107.858 178.401 108.36 178.504 108.915 178.504C109.398 178.504 109.812 178.433 110.158 178.293C110.504 178.152 110.787 177.975 111.008 177.762C111.228 177.549 111.394 177.333 111.504 177.112H111.572V178.31H113.238V172.493C113.238 171.854 113.127 171.335 112.907 170.936C112.686 170.533 112.403 170.223 112.057 170.006C111.715 169.789 111.346 169.641 110.951 169.561C110.559 169.478 110.188 169.436 109.839 169.436C109.31 169.436 108.806 169.512 108.327 169.664C107.848 169.812 107.424 170.052 107.056 170.382C106.691 170.709 106.413 171.139 106.223 171.671L107.826 172.036C107.951 171.728 108.177 171.449 108.504 171.198C108.835 170.943 109.287 170.816 109.862 170.816C110.413 170.816 110.827 170.953 111.105 171.226C111.386 171.5 111.527 171.886 111.527 172.384V172.424C111.527 172.629 111.453 172.778 111.304 172.869C111.156 172.96 110.918 173.027 110.592 173.069L109.314 173.217C108.9 173.266 108.493 173.339 108.094 173.434C107.694 173.529 107.333 173.669 107.01 173.856C106.687 174.042 106.43 174.295 106.24 174.614C106.05 174.933 105.955 175.34 105.955 175.835C105.955 176.409 106.084 176.893 106.343 177.289C106.605 177.684 106.961 177.987 107.409 178.196ZM110.495 176.855C110.16 177.042 109.757 177.135 109.285 177.135C108.803 177.135 108.405 177.028 108.094 176.816C107.782 176.599 107.626 176.279 107.626 175.857C107.626 175.553 107.706 175.31 107.865 175.127C108.029 174.941 108.246 174.799 108.516 174.7C108.789 174.601 109.092 174.53 109.422 174.489C109.563 174.47 109.738 174.447 109.947 174.42C110.156 174.39 110.371 174.357 110.592 174.323C110.812 174.285 111.008 174.242 111.179 174.192C111.354 174.139 111.472 174.082 111.533 174.021V175.15C111.533 175.496 111.443 175.821 111.264 176.125C111.09 176.426 110.833 176.669 110.495 176.855ZM119.598 170.918V169.55H117.802V167.451H116.096V169.55H114.813V170.918H116.096V176.091C116.096 176.62 116.216 177.059 116.456 177.409C116.695 177.758 117.009 178.017 117.397 178.184C117.785 178.352 118.203 178.431 118.651 178.424C118.925 178.42 119.153 178.397 119.336 178.355C119.518 178.317 119.659 178.279 119.758 178.241L119.45 176.833C119.393 176.844 119.313 176.859 119.21 176.878C119.108 176.897 118.988 176.907 118.851 176.907C118.665 176.907 118.492 176.878 118.332 176.821C118.176 176.76 118.049 176.648 117.95 176.485C117.851 176.317 117.802 176.068 117.802 175.738V170.918H119.598ZM121.484 169.55V178.31H123.19V169.55H121.484ZM121.581 167.902C121.794 168.099 122.049 168.198 122.346 168.198C122.642 168.198 122.895 168.099 123.104 167.902C123.317 167.7 123.423 167.461 123.423 167.183C123.423 166.902 123.317 166.662 123.104 166.464C122.895 166.263 122.642 166.162 122.346 166.162C122.049 166.162 121.794 166.263 121.581 166.464C121.372 166.662 121.268 166.902 121.268 167.183C121.268 167.461 121.372 167.7 121.581 167.902ZM130.502 176.633C130.153 176.914 129.712 177.055 129.179 177.055C128.643 177.055 128.198 176.914 127.845 176.633C127.495 176.352 127.235 175.977 127.063 175.509C126.896 175.042 126.813 174.527 126.813 173.964C126.813 173.405 126.896 172.892 127.063 172.424C127.235 171.953 127.495 171.574 127.845 171.289C128.198 171.004 128.643 170.861 129.179 170.861C129.712 170.861 130.153 171.004 130.502 171.289C130.852 171.574 131.111 171.953 131.278 172.424C131.449 172.892 131.535 173.405 131.535 173.964C131.535 174.527 131.449 175.042 131.278 175.509C131.111 175.977 130.852 176.352 130.502 176.633Z" fill="#111827"/>
<path fill-rule="evenodd" clip-rule="evenodd" d="M229.639 143.964V129.689H227.506V140.173H227.374L220.111 129.689H218.117V143.964H220.271V133.495H220.403L227.66 143.964H229.639ZM234.503 143.504C235.265 143.955 236.174 144.181 237.228 144.181C238.009 144.181 238.704 144.062 239.313 143.825C239.926 143.583 240.435 143.247 240.839 142.814C241.248 142.378 241.532 141.869 241.69 141.288L239.717 140.932C239.591 141.267 239.41 141.548 239.173 141.776C238.936 142.003 238.655 142.175 238.33 142.292C238.004 142.403 237.644 142.459 237.249 142.459C236.641 142.459 236.109 142.329 235.653 142.068C235.198 141.804 234.842 141.42 234.587 140.918C234.353 140.451 234.228 139.891 234.212 139.238H241.822V138.5C241.822 137.528 241.692 136.704 241.432 136.025C241.171 135.342 240.816 134.787 240.365 134.359C239.914 133.932 239.406 133.618 238.839 133.418C238.272 133.218 237.686 133.118 237.082 133.118C236.088 133.118 235.219 133.353 234.475 133.822C233.736 134.292 233.16 134.945 232.746 135.781C232.338 136.618 232.133 137.584 232.133 138.681C232.133 139.791 232.338 140.76 232.746 141.588C233.16 142.41 233.746 143.049 234.503 143.504ZM234.215 137.677C234.241 137.217 234.355 136.787 234.559 136.388C234.796 135.928 235.13 135.556 235.562 135.272C235.999 134.984 236.51 134.84 237.096 134.84C237.635 134.84 238.104 134.963 238.504 135.21C238.908 135.456 239.222 135.793 239.445 136.22C239.668 136.643 239.78 137.129 239.78 137.677H234.215ZM243.286 133.258L246.436 143.964H248.555L250.73 136.234H250.891L253.065 143.964H255.191L258.335 133.258H256.181L254.097 141.086H253.992L251.901 133.258H249.747L247.642 141.121H247.538L245.44 133.258H243.286ZM267.341 143.477C268.089 143.946 268.981 144.181 270.017 144.181C270.863 144.181 271.6 144.025 272.227 143.714C272.859 143.402 273.363 142.975 273.74 142.431C274.116 141.887 274.341 141.269 274.416 140.577H272.387C272.299 140.963 272.143 141.292 271.92 141.567C271.702 141.841 271.43 142.052 271.105 142.201C270.784 142.345 270.426 142.417 270.031 142.417C269.441 142.417 268.928 142.261 268.491 141.95C268.059 141.639 267.724 141.2 267.487 140.633C267.25 140.066 267.132 139.392 267.132 138.611C267.132 137.849 267.253 137.189 267.494 136.632C267.736 136.069 268.073 135.637 268.505 135.335C268.942 135.028 269.451 134.875 270.031 134.875C270.696 134.875 271.226 135.056 271.621 135.419C272.02 135.781 272.276 136.213 272.387 136.715H274.416C274.341 135.995 274.107 135.365 273.712 134.826C273.321 134.287 272.808 133.869 272.171 133.572C271.535 133.269 270.81 133.118 269.997 133.118C268.988 133.118 268.112 133.353 267.369 133.822C266.625 134.292 266.049 134.945 265.64 135.781C265.231 136.613 265.027 137.573 265.027 138.66C265.027 139.733 265.226 140.686 265.626 141.518C266.026 142.35 266.597 143.003 267.341 143.477ZM283.427 133.258V139.524C283.432 140.133 283.304 140.635 283.044 141.03C282.788 141.425 282.465 141.72 282.075 141.915C281.689 142.11 281.301 142.208 280.911 142.208C280.265 142.208 279.74 141.992 279.335 141.56C278.931 141.127 278.729 140.547 278.729 139.817V133.258H276.645V140.068C276.645 140.951 276.793 141.692 277.091 142.292C277.393 142.891 277.806 143.344 278.331 143.651C278.861 143.953 279.47 144.104 280.158 144.104C280.962 144.104 281.633 143.916 282.172 143.539C282.716 143.158 283.111 142.682 283.357 142.11H283.469V143.964H285.518V133.258H283.427ZM294.452 136.206L296.341 135.872C296.128 135.035 295.688 134.368 295.024 133.871C294.359 133.369 293.449 133.118 292.292 133.118C291.488 133.118 290.774 133.253 290.152 133.523C289.529 133.788 289.041 134.157 288.688 134.631C288.335 135.105 288.158 135.658 288.158 136.29C288.158 137.052 288.395 137.682 288.869 138.179C289.348 138.676 290.087 139.039 291.086 139.266L292.898 139.664C293.409 139.78 293.788 139.952 294.034 140.18C294.285 140.407 294.411 140.688 294.411 141.023C294.411 141.437 294.206 141.787 293.797 142.075C293.388 142.359 292.842 142.501 292.159 142.501C291.532 142.501 291.023 142.368 290.633 142.103C290.242 141.834 289.984 141.437 289.859 140.911L287.844 141.218C288.016 142.166 288.481 142.898 289.239 143.414C289.996 143.925 290.974 144.181 292.173 144.181C293.037 144.181 293.797 144.039 294.452 143.755C295.112 143.472 295.626 143.082 295.993 142.584C296.365 142.082 296.551 141.511 296.551 140.87C296.551 140.112 296.309 139.496 295.826 139.022C295.342 138.548 294.608 138.198 293.623 137.97L291.922 137.58C291.332 137.44 290.904 137.261 290.64 137.043C290.375 136.824 290.242 136.536 290.242 136.178C290.242 135.765 290.44 135.428 290.835 135.168C291.23 134.903 291.722 134.77 292.312 134.77C292.745 134.77 293.105 134.84 293.393 134.98C293.681 135.119 293.909 135.298 294.076 135.516C294.248 135.735 294.373 135.965 294.452 136.206ZM303.84 134.931V133.258H301.644V130.693H299.56V133.258H297.992V134.931H299.56V141.253C299.56 141.899 299.706 142.436 299.999 142.863C300.292 143.291 300.675 143.607 301.149 143.811C301.623 144.016 302.134 144.113 302.683 144.104C303.017 144.099 303.296 144.071 303.519 144.02C303.742 143.974 303.914 143.927 304.035 143.881L303.659 142.159C303.589 142.173 303.491 142.192 303.366 142.215C303.24 142.238 303.094 142.25 302.927 142.25C302.699 142.25 302.488 142.215 302.292 142.145C302.102 142.071 301.946 141.934 301.825 141.734C301.705 141.529 301.644 141.225 301.644 140.821V134.931H303.84ZM307.912 143.49C308.661 143.951 309.536 144.181 310.54 144.181C311.544 144.181 312.42 143.951 313.168 143.49C313.916 143.03 314.497 142.387 314.911 141.56C315.324 140.732 315.531 139.766 315.531 138.66C315.531 137.549 315.324 136.578 314.911 135.746C314.497 134.914 313.916 134.269 313.168 133.809C312.42 133.348 311.544 133.118 310.54 133.118C309.536 133.118 308.661 133.348 307.912 133.809C307.164 134.269 306.583 134.914 306.17 135.746C305.756 136.578 305.549 137.549 305.549 138.66C305.549 139.766 305.756 140.732 306.17 141.56C306.583 142.387 307.164 143.03 307.912 143.49ZM312.164 141.915C311.737 142.259 311.198 142.431 310.547 142.431C309.892 142.431 309.348 142.259 308.916 141.915C308.489 141.571 308.17 141.114 307.961 140.542C307.757 139.97 307.654 139.341 307.654 138.653C307.654 137.97 307.757 137.343 307.961 136.771C308.17 136.195 308.489 135.732 308.916 135.384C309.348 135.035 309.892 134.861 310.547 134.861C311.198 134.861 311.737 135.035 312.164 135.384C312.592 135.732 312.908 136.195 313.112 136.771C313.321 137.343 313.426 137.97 313.426 138.653C313.426 139.341 313.321 139.97 313.112 140.542C312.908 141.114 312.592 141.571 312.164 141.915ZM319.858 133.258H317.857V143.964H319.942V137.363C319.942 136.88 320.042 136.455 320.241 136.088C320.446 135.721 320.713 135.435 321.043 135.23C321.378 135.021 321.742 134.917 322.137 134.917C322.718 134.917 323.19 135.093 323.552 135.447C323.915 135.8 324.096 136.267 324.096 136.848V143.964H326.173V137.14C326.173 136.49 326.361 135.958 326.738 135.544C327.114 135.126 327.642 134.917 328.32 134.917C328.868 134.917 329.34 135.079 329.735 135.405C330.13 135.73 330.328 136.255 330.328 136.98V143.964H332.412V136.785C332.412 135.558 332.103 134.64 331.485 134.032C330.871 133.423 330.079 133.118 329.108 133.118C328.336 133.118 327.672 133.29 327.114 133.634C326.557 133.973 326.15 134.429 325.894 135H325.783C325.551 134.415 325.19 133.955 324.702 133.62C324.219 133.286 323.62 133.118 322.904 133.118C322.198 133.118 321.591 133.286 321.085 133.62C320.578 133.95 320.213 134.41 319.99 135H319.858V133.258ZM337.094 143.504C337.856 143.955 338.765 144.181 339.82 144.181C340.6 144.181 341.295 144.062 341.904 143.825C342.517 143.583 343.026 143.247 343.43 142.814C343.839 142.378 344.123 141.869 344.281 141.288L342.308 140.932C342.183 141.267 342.001 141.548 341.764 141.776C341.527 142.003 341.246 142.175 340.921 142.292C340.596 142.403 340.236 142.459 339.841 142.459C339.232 142.459 338.7 142.329 338.244 142.068C337.789 141.804 337.433 141.42 337.178 140.918C336.944 140.451 336.819 139.891 336.803 139.238H344.413V138.5C344.413 137.528 344.283 136.704 344.023 136.025C343.763 135.342 343.407 134.787 342.956 134.359C342.506 133.932 341.997 133.618 341.43 133.418C340.863 133.218 340.277 133.118 339.673 133.118C338.679 133.118 337.81 133.353 337.066 133.822C336.327 134.292 335.751 134.945 335.338 135.781C334.929 136.618 334.724 137.584 334.724 138.681C334.724 139.791 334.929 140.76 335.338 141.588C335.751 142.41 336.337 143.049 337.094 143.504ZM336.807 137.677C336.832 137.217 336.946 136.787 337.15 136.388C337.387 135.928 337.722 135.556 338.154 135.272C338.59 134.984 339.102 134.84 339.687 134.84C340.226 134.84 340.696 134.963 341.095 135.21C341.5 135.456 341.813 135.793 342.036 136.22C342.259 136.643 342.371 137.129 342.371 137.677H336.807ZM348.74 133.258H346.726V143.964H348.81V137.426C348.81 136.961 348.921 136.548 349.144 136.185C349.367 135.818 349.669 135.533 350.051 135.328C350.436 135.119 350.875 135.014 351.368 135.014C351.582 135.014 351.795 135.031 352.009 135.063C352.223 135.091 352.372 135.117 352.455 135.14V133.146C352.353 133.132 352.211 133.121 352.03 133.111C351.854 133.102 351.7 133.098 351.57 133.098C350.943 133.098 350.38 133.265 349.883 133.599C349.391 133.929 349.047 134.382 348.852 134.959H348.74V133.258ZM360.393 136.206L362.282 135.872C362.068 135.035 361.629 134.368 360.965 133.871C360.3 133.369 359.389 133.118 358.232 133.118C357.428 133.118 356.715 133.253 356.092 133.523C355.469 133.788 354.982 134.157 354.628 134.631C354.275 135.105 354.099 135.658 354.099 136.29C354.099 137.052 354.336 137.682 354.81 138.179C355.288 138.676 356.027 139.039 357.026 139.266L358.839 139.664C359.35 139.78 359.728 139.952 359.975 140.18C360.226 140.407 360.351 140.688 360.351 141.023C360.351 141.437 360.147 141.787 359.738 142.075C359.329 142.359 358.783 142.501 358.1 142.501C357.472 142.501 356.963 142.368 356.573 142.103C356.183 141.834 355.925 141.437 355.799 140.911L353.785 141.218C353.957 142.166 354.422 142.898 355.179 143.414C355.936 143.925 356.915 144.181 358.114 144.181C358.978 144.181 359.738 144.039 360.393 143.755C361.053 143.472 361.566 143.082 361.933 142.584C362.305 142.082 362.491 141.511 362.491 140.87C362.491 140.112 362.249 139.496 361.766 139.022C361.283 138.548 360.549 138.198 359.563 137.97L357.863 137.58C357.272 137.44 356.845 137.261 356.58 137.043C356.315 136.824 356.183 136.536 356.183 136.178C356.183 135.765 356.38 135.428 356.775 135.168C357.17 134.903 357.663 134.77 358.253 134.77C358.685 134.77 359.045 134.84 359.333 134.98C359.622 135.119 359.849 135.298 360.017 135.516C360.188 135.735 360.314 135.965 360.393 136.206Z" fill="#111827"/>
<path fill-rule="evenodd" clip-rule="evenodd" d="M291.395 355.162C291.405 355.172 291.416 355.182 291.426 355.191C291.974 355.685 292.715 356.06 293.65 356.315L295.03 356.691C295.449 356.801 295.823 356.929 296.154 357.073C296.489 357.218 296.753 357.4 296.947 357.621C297.144 357.841 297.243 358.124 297.243 358.47C297.243 358.851 297.131 359.183 296.907 359.468C296.682 359.75 296.374 359.97 295.983 360.13C295.595 360.286 295.152 360.364 294.654 360.364C294.202 360.364 293.785 360.297 293.405 360.164C293.029 360.027 292.719 359.82 292.475 359.543C292.236 359.261 292.099 358.91 292.065 358.488H290.297C290.335 359.191 290.535 359.799 290.896 360.313C291.257 360.822 291.757 361.216 292.396 361.493C293.034 361.771 293.791 361.909 294.665 361.909C295.578 361.909 296.355 361.761 296.998 361.465C297.644 361.168 298.137 360.763 298.475 360.25C298.817 359.737 298.988 359.149 298.988 358.488C298.988 357.963 298.884 357.512 298.675 357.136C298.469 356.759 298.199 356.444 297.865 356.189C297.53 355.934 297.167 355.729 296.776 355.573C296.384 355.417 296.002 355.294 295.629 355.203L294.489 354.906C294.261 354.849 294.023 354.777 293.776 354.689C293.529 354.598 293.297 354.486 293.08 354.353C292.929 354.256 292.798 354.142 292.687 354.013C292.259 354.399 291.828 354.782 291.395 355.162ZM295.44 351.467C295.795 351.538 296.107 351.666 296.376 351.849C296.817 352.146 297.068 352.564 297.129 353.104H298.829C298.814 352.476 298.631 351.921 298.281 351.438C297.931 350.952 297.452 350.57 296.844 350.292C296.802 350.273 296.76 350.255 296.718 350.237C296.294 350.649 295.868 351.059 295.44 351.467ZM306.507 352.956V358.083C306.51 358.581 306.406 358.991 306.193 359.314C305.984 359.638 305.719 359.879 305.4 360.039C305.085 360.198 304.767 360.278 304.448 360.278C303.919 360.278 303.49 360.101 303.159 359.748C302.828 359.394 302.663 358.919 302.663 358.322V352.956H300.957V358.527C300.957 359.25 301.079 359.856 301.322 360.347C301.57 360.837 301.908 361.208 302.338 361.459C302.771 361.706 303.269 361.83 303.832 361.83C304.49 361.83 305.039 361.676 305.48 361.368C305.925 361.056 306.248 360.666 306.449 360.198H306.541V361.715H308.217V352.956H306.507ZM310.646 350.036V361.715H312.311V360.352H312.453C312.556 360.539 312.702 360.752 312.893 360.991C313.083 361.231 313.345 361.44 313.68 361.619C314.018 361.797 314.453 361.887 314.986 361.887C315.693 361.887 316.322 361.706 316.873 361.345C317.425 360.98 317.858 360.461 318.174 359.788C318.489 359.111 318.647 358.299 318.647 357.353C318.647 356.406 318.487 355.596 318.168 354.923C317.852 354.25 317.417 353.735 316.862 353.378C316.307 353.02 315.676 352.841 314.968 352.841C314.425 352.841 313.988 352.933 313.657 353.115C313.326 353.294 313.067 353.503 312.881 353.743C312.695 353.982 312.552 354.193 312.453 354.376H312.351V350.036H310.646ZM312.585 358.955C312.406 358.491 312.317 357.951 312.317 357.335C312.317 356.727 312.404 356.195 312.579 355.739C312.754 355.282 313.01 354.927 313.349 354.672C313.691 354.417 314.109 354.29 314.603 354.29C315.117 354.29 315.545 354.423 315.887 354.689C316.233 354.955 316.491 355.318 316.662 355.779C316.837 356.239 316.925 356.758 316.925 357.335C316.925 357.921 316.835 358.448 316.657 358.915C316.482 359.383 316.223 359.754 315.881 360.027C315.539 360.297 315.113 360.432 314.603 360.432C314.113 360.432 313.699 360.303 313.36 360.044C313.022 359.782 312.763 359.419 312.585 358.955ZM325.581 355.368L327.126 355.094C326.951 354.41 326.592 353.864 326.048 353.457C325.504 353.047 324.759 352.841 323.813 352.841C323.155 352.841 322.571 352.952 322.062 353.172C321.552 353.389 321.153 353.691 320.864 354.079C320.575 354.467 320.431 354.919 320.431 355.436C320.431 356.06 320.625 356.575 321.012 356.982C321.404 357.389 322.008 357.685 322.826 357.872L324.309 358.197C324.727 358.292 325.037 358.432 325.238 358.619C325.444 358.805 325.546 359.035 325.546 359.309C325.546 359.647 325.379 359.934 325.044 360.17C324.71 360.402 324.263 360.518 323.704 360.518C323.191 360.518 322.775 360.409 322.455 360.193C322.136 359.972 321.925 359.647 321.822 359.218L320.174 359.468C320.315 360.244 320.695 360.843 321.315 361.265C321.934 361.683 322.735 361.892 323.716 361.892C324.423 361.892 325.044 361.776 325.581 361.544C326.12 361.312 326.541 360.993 326.841 360.586C327.145 360.176 327.297 359.708 327.297 359.183C327.297 358.564 327.099 358.06 326.704 357.672C326.309 357.284 325.708 356.997 324.902 356.811L323.51 356.491C323.027 356.377 322.678 356.231 322.461 356.052C322.244 355.874 322.136 355.638 322.136 355.345C322.136 355.007 322.297 354.731 322.621 354.518C322.944 354.301 323.347 354.193 323.83 354.193C324.183 354.193 324.478 354.25 324.714 354.364C324.949 354.478 325.136 354.625 325.273 354.803C325.413 354.982 325.516 355.17 325.581 355.368ZM330.672 361.316C331.284 361.7 332.014 361.892 332.862 361.892C333.554 361.892 334.157 361.765 334.67 361.51C335.187 361.255 335.599 360.906 335.907 360.461C336.215 360.016 336.4 359.51 336.461 358.944H334.801C334.729 359.259 334.601 359.529 334.419 359.754C334.24 359.978 334.018 360.151 333.752 360.273C333.489 360.39 333.197 360.449 332.873 360.449C332.391 360.449 331.97 360.322 331.613 360.067C331.259 359.813 330.986 359.453 330.792 358.989C330.598 358.526 330.501 357.974 330.501 357.335C330.501 356.712 330.6 356.172 330.797 355.716C330.995 355.256 331.271 354.902 331.624 354.655C331.982 354.404 332.398 354.279 332.873 354.279C333.417 354.279 333.851 354.427 334.174 354.723C334.501 355.02 334.71 355.374 334.801 355.784H336.461C336.4 355.195 336.208 354.68 335.885 354.239C335.565 353.798 335.145 353.455 334.624 353.212C334.103 352.965 333.51 352.841 332.845 352.841C332.02 352.841 331.303 353.033 330.695 353.417C330.086 353.801 329.615 354.336 329.28 355.02C328.946 355.701 328.779 356.486 328.779 357.375C328.779 358.254 328.942 359.033 329.269 359.714C329.596 360.394 330.064 360.928 330.672 361.316ZM339.932 352.956H338.284V361.715H339.989V356.366C339.989 355.986 340.081 355.647 340.263 355.351C340.446 355.05 340.693 354.817 341.005 354.649C341.32 354.478 341.679 354.393 342.082 354.393C342.257 354.393 342.432 354.406 342.607 354.433C342.782 354.455 342.904 354.476 342.972 354.495V352.864C342.888 352.853 342.773 352.843 342.624 352.836C342.48 352.828 342.354 352.824 342.248 352.824C341.735 352.824 341.275 352.961 340.868 353.235C340.465 353.505 340.183 353.876 340.024 354.347H339.932V352.956ZM346.153 352.956H344.448V361.715H346.153V352.956ZM344.545 351.307C344.758 351.505 345.012 351.604 345.309 351.604C345.606 351.604 345.858 351.505 346.068 351.307C346.28 351.106 346.387 350.866 346.387 350.589C346.387 350.307 346.28 350.068 346.068 349.87C345.858 349.669 345.606 349.568 345.309 349.568C345.012 349.568 344.758 349.669 344.545 349.87C344.336 350.068 344.231 350.307 344.231 350.589C344.231 350.866 344.336 351.106 344.545 351.307ZM348.584 350.036V361.715H350.249V360.352H350.392C350.495 360.539 350.641 360.752 350.831 360.991C351.021 361.231 351.283 361.44 351.618 361.619C351.956 361.797 352.392 361.887 352.924 361.887C353.631 361.887 354.26 361.706 354.812 361.345C355.363 360.98 355.797 360.461 356.112 359.788C356.428 359.111 356.585 358.299 356.585 357.353C356.585 356.406 356.426 355.596 356.106 354.923C355.791 354.25 355.355 353.735 354.8 353.378C354.245 353.02 353.614 352.841 352.907 352.841C352.363 352.841 351.926 352.933 351.595 353.115C351.264 353.294 351.006 353.503 350.82 353.743C350.633 353.982 350.491 354.193 350.392 354.376H350.289V350.036H348.584ZM350.523 358.955C350.344 358.491 350.255 357.951 350.255 357.335C350.255 356.727 350.342 356.195 350.517 355.739C350.692 355.282 350.949 354.927 351.287 354.672C351.629 354.417 352.048 354.29 352.542 354.29C353.055 354.29 353.483 354.423 353.825 354.689C354.171 354.955 354.43 355.318 354.601 355.779C354.776 356.239 354.863 356.758 354.863 357.335C354.863 357.921 354.774 358.448 354.595 358.915C354.42 359.383 354.162 359.754 353.819 360.027C353.477 360.297 353.051 360.432 352.542 360.432C352.051 360.432 351.637 360.303 351.299 360.044C350.96 359.782 350.702 359.419 350.523 358.955ZM360.046 361.339C360.669 361.708 361.413 361.892 362.276 361.892C362.914 361.892 363.483 361.795 363.981 361.601C364.483 361.404 364.899 361.128 365.23 360.774C365.565 360.417 365.796 360.001 365.926 359.525L364.312 359.235C364.209 359.508 364.061 359.738 363.867 359.925C363.673 360.111 363.443 360.252 363.177 360.347C362.911 360.438 362.616 360.484 362.293 360.484C361.795 360.484 361.359 360.377 360.987 360.164C360.614 359.948 360.323 359.634 360.114 359.223C359.923 358.841 359.821 358.383 359.808 357.849H366.034V357.244C366.034 356.45 365.928 355.775 365.715 355.22C365.502 354.661 365.211 354.206 364.842 353.857C364.473 353.507 364.057 353.25 363.593 353.087C363.129 352.923 362.65 352.841 362.156 352.841C361.342 352.841 360.631 353.033 360.023 353.417C359.418 353.801 358.947 354.336 358.609 355.02C358.274 355.704 358.107 356.495 358.107 357.393C358.107 358.301 358.274 359.094 358.609 359.771C358.947 360.444 359.426 360.966 360.046 361.339ZM359.811 356.571C359.831 356.195 359.925 355.843 360.091 355.516C360.285 355.14 360.559 354.836 360.913 354.604C361.27 354.368 361.688 354.25 362.167 354.25C362.608 354.25 362.992 354.351 363.319 354.552C363.65 354.754 363.907 355.03 364.089 355.379C364.272 355.725 364.363 356.123 364.363 356.571H359.811ZM369.312 361.345C369.867 361.706 370.498 361.887 371.205 361.887C371.738 361.887 372.171 361.797 372.506 361.619C372.84 361.44 373.103 361.231 373.293 360.991C373.487 360.752 373.635 360.539 373.738 360.352H373.88V361.715H375.545V350.036H373.84V354.376H373.738C373.635 354.193 373.49 353.982 373.304 353.743C373.122 353.503 372.863 353.294 372.528 353.115C372.198 352.933 371.76 352.841 371.217 352.841C370.513 352.841 369.884 353.02 369.329 353.378C368.774 353.735 368.337 354.25 368.017 354.923C367.702 355.596 367.544 356.406 367.544 357.353C367.544 358.299 367.7 359.111 368.012 359.788C368.327 360.461 368.761 360.98 369.312 361.345ZM372.825 360.044C372.487 360.303 372.072 360.432 371.582 360.432C371.076 360.432 370.65 360.297 370.304 360.027C369.962 359.754 369.704 359.383 369.529 358.915C369.354 358.448 369.266 357.921 369.266 357.335C369.266 356.758 369.352 356.239 369.523 355.779C369.698 355.318 369.956 354.955 370.299 354.689C370.641 354.423 371.068 354.29 371.582 354.29C372.08 354.29 372.498 354.417 372.836 354.672C373.175 354.927 373.431 355.282 373.606 355.739C373.781 356.195 373.869 356.727 373.869 357.335C373.869 357.951 373.779 358.491 373.601 358.955C373.426 359.419 373.167 359.782 372.825 360.044Z" fill="#111827"/>
<path fill-rule="evenodd" clip-rule="evenodd" d="M141.784 377.013V380.052H141.67C141.556 379.849 141.395 379.615 141.188 379.348C140.986 379.082 140.698 378.85 140.327 378.651C139.959 378.449 139.473 378.347 138.869 378.347C138.088 378.347 137.388 378.546 136.772 378.943C136.155 379.34 135.669 379.912 135.314 380.66C134.964 381.408 134.788 382.308 134.788 383.36C134.788 384.411 134.961 385.313 135.308 386.065C135.659 386.813 136.14 387.39 136.753 387.795C137.369 388.197 138.071 388.397 138.856 388.397C139.448 388.397 139.93 388.298 140.301 388.099C140.673 387.901 140.965 387.669 141.176 387.402C141.391 387.136 141.556 386.9 141.67 386.693H141.828V388.207H143.679V377.868C143.045 377.588 142.413 377.303 141.784 377.013ZM46.0781 375.229V376.915H50.121V388.207H52.0727V376.915H56.1219V375.229H46.0781ZM58.4887 387.776C59.1689 388.195 59.9652 388.404 60.8777 388.404C61.7902 388.404 62.5865 388.195 63.2666 387.776C63.9468 387.358 64.4749 386.773 64.8508 386.021C65.2268 385.269 65.4148 384.39 65.4148 383.385C65.4148 382.375 65.2268 381.492 64.8508 380.736C64.4749 379.98 63.9468 379.393 63.2666 378.975C62.5865 378.556 61.7902 378.347 60.8777 378.347C59.9652 378.347 59.1689 378.556 58.4887 378.975C57.8086 379.393 57.2805 379.98 56.9045 380.736C56.5285 381.492 56.3405 382.375 56.3405 383.385C56.3405 384.39 56.5285 385.269 56.9045 386.021C57.2805 386.773 57.8086 387.358 58.4887 387.776ZM62.3541 386.344C61.9655 386.657 61.4754 386.813 60.884 386.813C60.2884 386.813 59.7941 386.657 59.4012 386.344C59.0125 386.032 58.7232 385.615 58.5331 385.096C58.3472 384.576 58.2542 384.004 58.2542 383.379C58.2542 382.758 58.3472 382.187 58.5331 381.668C58.7232 381.144 59.0125 380.723 59.4012 380.407C59.7941 380.09 60.2884 379.931 60.884 379.931C61.4754 379.931 61.9655 380.09 62.3541 380.407C62.7428 380.723 63.0301 381.144 63.2159 381.668C63.406 382.187 63.5011 382.758 63.5011 383.379C63.5011 384.004 63.406 384.576 63.2159 385.096C63.0301 385.615 62.7428 386.032 62.3541 386.344ZM72.0732 379.995V378.474H70.0771V376.142H68.1824V378.474H66.7566V379.995H68.1824V385.742C68.1824 386.329 68.3155 386.817 68.5816 387.206C68.8478 387.595 69.1963 387.882 69.6272 388.068C70.0581 388.254 70.5228 388.342 71.0213 388.334C71.3254 388.33 71.5789 388.304 71.7817 388.258C71.9845 388.216 72.1408 388.173 72.2506 388.131L71.9084 386.566C71.8451 386.579 71.7563 386.596 71.6423 386.617C71.5282 386.638 71.3951 386.648 71.2431 386.648C71.0361 386.648 70.8438 386.617 70.6664 386.553C70.4932 386.486 70.3517 386.361 70.2418 386.179C70.132 385.994 70.0771 385.717 70.0771 385.349V379.995H72.0732ZM75.3287 388.08C75.8272 388.309 76.3848 388.423 77.0016 388.423C77.5381 388.423 77.9986 388.345 78.383 388.188C78.7675 388.032 79.0822 387.835 79.3272 387.599C79.5722 387.362 79.756 387.122 79.8785 386.876H79.9545V388.207H81.8049V381.744C81.8049 381.034 81.6824 380.457 81.4374 380.014C81.1923 379.566 80.8776 379.222 80.4932 378.981C80.113 378.74 79.7032 378.575 79.2638 378.487C78.8287 378.394 78.4168 378.347 78.0282 378.347C77.441 378.347 76.8812 378.432 76.3489 378.601C75.8166 378.765 75.3456 379.032 74.9358 379.399C74.5303 379.762 74.2219 380.24 74.0106 380.831L75.7913 381.237C75.9307 380.895 76.1821 380.584 76.5454 380.305C76.9129 380.022 77.4156 379.881 78.0535 379.881C78.6661 379.881 79.1265 380.033 79.4349 380.337C79.7475 380.641 79.9039 381.07 79.9039 381.623V381.668C79.9039 381.896 79.8215 382.061 79.6567 382.162C79.492 382.263 79.2279 382.337 78.8646 382.384L77.4452 382.548C76.9847 382.603 76.5327 382.684 76.0891 382.789C75.6455 382.895 75.2442 383.051 74.8851 383.258C74.526 383.465 74.2409 383.746 74.0297 384.101C73.8184 384.456 73.7128 384.908 73.7128 385.457C73.7128 386.095 73.8565 386.634 74.1437 387.073C74.4352 387.512 74.8302 387.848 75.3287 388.08ZM78.7569 386.591C78.3851 386.798 77.9373 386.902 77.4135 386.902C76.877 386.902 76.4355 386.784 76.0891 386.547C75.7427 386.306 75.5695 385.951 75.5695 385.482C75.5695 385.144 75.6582 384.874 75.8356 384.671C76.0173 384.464 76.2581 384.306 76.558 384.196C76.8622 384.086 77.198 384.008 77.5656 383.962C77.7219 383.94 77.9162 383.915 78.1486 383.886C78.3809 383.852 78.6196 383.816 78.8646 383.778C79.1096 383.736 79.3272 383.687 79.5173 383.632C79.7116 383.573 79.8426 383.51 79.9102 383.442V384.697C79.9102 385.081 79.8109 385.442 79.6124 385.78C79.418 386.114 79.1329 386.384 78.7569 386.591ZM86.2232 388.207V375.229H84.3285V388.207H86.2232ZM99.071 381.154L100.788 380.85C100.594 380.09 100.195 379.484 99.5906 379.032C98.9865 378.575 98.1585 378.347 97.1066 378.347C96.3758 378.347 95.7273 378.47 95.1612 378.715C94.5951 378.956 94.1516 379.291 93.8305 379.722C93.5094 380.153 93.3489 380.656 93.3489 381.23C93.3489 381.923 93.5644 382.496 93.9953 382.948C94.4304 383.4 95.1021 383.729 96.0104 383.936L97.6579 384.297C98.1226 384.403 98.4669 384.559 98.6908 384.766C98.9189 384.973 99.033 385.229 99.033 385.533C99.033 385.909 98.8471 386.228 98.4754 386.49C98.1036 386.748 97.6072 386.876 96.9862 386.876C96.4159 386.876 95.9533 386.756 95.5985 386.515C95.2436 386.27 95.0092 385.909 94.8951 385.432L93.0638 385.711C93.2201 386.572 93.6425 387.238 94.3311 387.707C95.0197 388.171 95.909 388.404 96.9989 388.404C97.7847 388.404 98.4754 388.275 99.071 388.017C99.6709 387.759 100.138 387.405 100.471 386.953C100.809 386.496 100.978 385.977 100.978 385.394C100.978 384.705 100.759 384.145 100.319 383.714C99.88 383.284 99.2125 382.965 98.317 382.758L96.7708 382.403C96.2343 382.276 95.8456 382.113 95.6048 381.915C95.364 381.716 95.2436 381.454 95.2436 381.129C95.2436 380.753 95.4232 380.447 95.7822 380.21C96.1413 379.969 96.5891 379.849 97.1256 379.849C97.5185 379.849 97.8459 379.912 98.1078 380.039C98.3698 380.166 98.5768 380.328 98.7288 380.527C98.8851 380.726 98.9992 380.935 99.071 381.154ZM103.062 378.474V391.857H104.956V386.693H105.07C105.184 386.9 105.347 387.136 105.558 387.402C105.77 387.669 106.061 387.901 106.433 388.099C106.809 388.298 107.292 388.397 107.884 388.397C108.67 388.397 109.369 388.197 109.981 387.795C110.594 387.39 111.076 386.813 111.426 386.065C111.777 385.313 111.952 384.411 111.952 383.36C111.952 382.308 111.775 381.408 111.42 380.66C111.069 379.912 110.585 379.34 109.969 378.943C109.352 378.546 108.651 378.347 107.865 378.347C107.261 378.347 106.775 378.449 106.407 378.651C106.04 378.85 105.753 379.082 105.546 379.348C105.339 379.615 105.18 379.849 105.07 380.052H104.912V378.474H103.062ZM105.216 385.14C105.018 384.625 104.918 384.025 104.918 383.341C104.918 382.665 105.015 382.073 105.21 381.566C105.404 381.059 105.689 380.664 106.065 380.381C106.445 380.098 106.91 379.957 107.459 379.957C108.03 379.957 108.505 380.105 108.885 380.4C109.27 380.696 109.557 381.099 109.747 381.611C109.941 382.122 110.038 382.698 110.038 383.341C110.038 383.991 109.939 384.576 109.741 385.096C109.546 385.615 109.259 386.027 108.879 386.332C108.499 386.631 108.025 386.781 107.459 386.781C106.914 386.781 106.454 386.638 106.078 386.351C105.702 386.059 105.415 385.656 105.216 385.14ZM115.792 387.789C116.485 388.199 117.311 388.404 118.27 388.404C118.98 388.404 119.611 388.296 120.165 388.08C120.722 387.861 121.185 387.555 121.552 387.162C121.924 386.765 122.182 386.302 122.325 385.774L120.532 385.451C120.418 385.755 120.253 386.01 120.038 386.217C119.822 386.424 119.567 386.581 119.271 386.686C118.975 386.788 118.648 386.838 118.289 386.838C117.735 386.838 117.252 386.72 116.838 386.484C116.424 386.243 116.101 385.894 115.868 385.438C115.656 385.013 115.542 384.504 115.528 383.911H122.446V383.239C122.446 382.356 122.328 381.606 122.091 380.99C121.854 380.369 121.531 379.864 121.121 379.475C120.712 379.086 120.249 378.801 119.734 378.62C119.218 378.438 118.686 378.347 118.137 378.347C117.233 378.347 116.443 378.561 115.767 378.987C115.095 379.414 114.571 380.007 114.195 380.768C113.824 381.528 113.638 382.407 113.638 383.404C113.638 384.414 113.824 385.294 114.195 386.046C114.571 386.794 115.104 387.375 115.792 387.789ZM115.531 382.491C115.554 382.073 115.658 381.682 115.843 381.319C116.058 380.901 116.363 380.563 116.755 380.305C117.152 380.043 117.617 379.912 118.149 379.912C118.64 379.912 119.066 380.024 119.43 380.248C119.797 380.472 120.082 380.778 120.285 381.167C120.488 381.551 120.589 381.993 120.589 382.491H115.531ZM126.443 388.207V382.428C126.443 381.913 126.54 381.473 126.734 381.11C126.933 380.742 127.201 380.464 127.539 380.274C127.881 380.083 128.272 379.988 128.711 379.988C129.353 379.988 129.858 380.189 130.226 380.59C130.593 380.988 130.777 381.539 130.777 382.244V388.207H132.672V382.016C132.672 381.214 132.535 380.54 132.26 379.995C131.985 379.45 131.599 379.04 131.1 378.765C130.602 378.487 130.021 378.347 129.358 378.347C128.627 378.347 128.021 378.503 127.539 378.816C127.062 379.129 126.711 379.543 126.487 380.058H126.367V378.474H124.548V388.207H126.443ZM140.656 386.351C140.28 386.638 139.82 386.781 139.275 386.781C138.713 386.781 138.24 386.631 137.855 386.332C137.475 386.027 137.188 385.615 136.993 385.096C136.799 384.576 136.702 383.991 136.702 383.341C136.702 382.698 136.797 382.122 136.987 381.611C137.181 381.099 137.469 380.696 137.849 380.4C138.229 380.105 138.704 379.957 139.275 379.957C139.828 379.957 140.293 380.098 140.669 380.381C141.045 380.664 141.33 381.059 141.524 381.566C141.719 382.073 141.816 382.665 141.816 383.341C141.816 384.025 141.716 384.625 141.518 385.14C141.324 385.656 141.036 386.059 140.656 386.351Z" fill="#111827"/>
</g>
</svg>
