<svg width="440" height="502" viewBox="0 0 440 502" fill="none" xmlns="http://www.w3.org/2000/svg">
<g filter="url(#filter0_d_5621_113138)">
<rect width="440" height="500" rx="25" fill="#F9FAFB"/>
</g>
<path d="M175.877 270.843C178.716 270.862 181.479 271.365 184.164 272.35C186.869 273.316 189.303 274.9 191.466 277.102C193.63 279.285 195.349 282.212 196.624 285.882C197.899 289.553 198.537 294.093 198.537 299.502C198.556 304.602 198.015 309.161 196.914 313.179C195.832 317.178 194.277 320.559 192.249 323.321C190.22 326.084 187.777 328.189 184.918 329.638C182.059 331.087 178.842 331.811 175.268 331.811C171.52 331.811 168.198 331.077 165.3 329.609C162.422 328.141 160.094 326.132 158.316 323.582C156.539 321.032 155.448 318.115 155.042 314.831H165.619C166.16 317.187 167.261 319.061 168.922 320.452C170.603 321.824 172.718 322.51 175.268 322.51C179.383 322.51 182.551 320.723 184.773 317.149C186.994 313.575 188.105 308.61 188.105 302.255H187.699C186.753 303.955 185.526 305.423 184.019 306.659C182.513 307.876 180.803 308.813 178.89 309.47C176.997 310.127 174.988 310.455 172.863 310.455C169.386 310.455 166.256 309.624 163.474 307.963C160.712 306.302 158.519 304.022 156.897 301.124C155.293 298.227 154.482 294.914 154.462 291.185C154.462 287.322 155.351 283.854 157.128 280.782C158.925 277.691 161.427 275.257 164.634 273.48C167.84 271.684 171.588 270.805 175.877 270.843ZM175.906 279.536C173.819 279.536 171.936 280.048 170.255 281.072C168.594 282.077 167.28 283.448 166.314 285.187C165.368 286.906 164.894 288.828 164.894 290.953C164.914 293.059 165.387 294.972 166.314 296.691C167.261 298.41 168.545 299.772 170.168 300.777C171.81 301.781 173.684 302.284 175.79 302.284C177.355 302.284 178.813 301.984 180.165 301.385C181.518 300.786 182.696 299.956 183.701 298.893C184.724 297.811 185.516 296.585 186.077 295.213C186.656 293.841 186.936 292.393 186.917 290.866C186.917 288.838 186.434 286.964 185.468 285.245C184.522 283.526 183.218 282.144 181.556 281.101C179.914 280.058 178.031 279.536 175.906 279.536ZM230.122 332.13C225.351 332.13 221.255 330.923 217.836 328.508C214.436 326.074 211.818 322.568 209.983 317.989C208.167 313.391 207.259 307.857 207.259 301.385C207.278 294.914 208.196 289.408 210.012 284.868C211.847 280.309 214.465 276.832 217.865 274.436C221.284 272.041 225.37 270.843 230.122 270.843C234.874 270.843 238.96 272.041 242.38 274.436C245.799 276.832 248.416 280.309 250.232 284.868C252.068 289.427 252.985 294.933 252.985 301.385C252.985 307.876 252.068 313.42 250.232 318.018C248.416 322.597 245.799 326.093 242.38 328.508C238.98 330.923 234.894 332.13 230.122 332.13ZM230.122 323.06C233.831 323.06 236.758 321.235 238.902 317.584C241.066 313.913 242.148 308.514 242.148 301.385C242.148 296.672 241.655 292.711 240.67 289.505C239.685 286.298 238.294 283.883 236.497 282.26C234.701 280.618 232.576 279.797 230.122 279.797C226.432 279.797 223.515 281.632 221.371 285.303C219.227 288.954 218.145 294.315 218.126 301.385C218.106 306.118 218.58 310.098 219.545 313.324C220.531 316.55 221.922 318.984 223.718 320.626C225.515 322.249 227.649 323.06 230.122 323.06Z" fill="#111827"/>
<path d="M275.55 325.764V324.291C275.55 323.173 275.786 322.145 276.259 321.209C276.741 320.264 277.436 319.509 278.345 318.945C279.264 318.373 280.382 318.086 281.7 318.086C283.036 318.086 284.159 318.368 285.068 318.932C285.986 319.495 286.677 320.25 287.141 321.195C287.614 322.132 287.85 323.164 287.85 324.291V325.764C287.85 326.882 287.614 327.914 287.141 328.859C286.668 329.795 285.973 330.545 285.055 331.109C284.136 331.682 283.018 331.968 281.7 331.968C280.364 331.968 279.241 331.682 278.332 331.109C277.423 330.545 276.732 329.795 276.259 328.859C275.786 327.914 275.55 326.882 275.55 325.764ZM279.518 324.291V325.764C279.518 326.409 279.673 327.018 279.982 327.591C280.3 328.164 280.873 328.45 281.7 328.45C282.527 328.45 283.091 328.168 283.391 327.605C283.7 327.041 283.855 326.427 283.855 325.764V324.291C283.855 323.627 283.709 323.009 283.418 322.436C283.127 321.864 282.555 321.577 281.7 321.577C280.882 321.577 280.314 321.864 279.995 322.436C279.677 323.009 279.518 323.627 279.518 324.291ZM261.218 309.782V308.309C261.218 307.182 261.459 306.15 261.941 305.214C262.423 304.268 263.118 303.514 264.027 302.95C264.945 302.386 266.055 302.105 267.355 302.105C268.7 302.105 269.827 302.386 270.736 302.95C271.645 303.514 272.336 304.268 272.809 305.214C273.282 306.15 273.518 307.182 273.518 308.309V309.782C273.518 310.909 273.277 311.941 272.795 312.877C272.323 313.814 271.627 314.564 270.709 315.127C269.8 315.682 268.682 315.959 267.355 315.959C266.027 315.959 264.905 315.677 263.986 315.114C263.077 314.541 262.386 313.791 261.914 312.864C261.45 311.927 261.218 310.9 261.218 309.782ZM265.214 308.309V309.782C265.214 310.445 265.368 311.059 265.677 311.623C265.995 312.186 266.555 312.468 267.355 312.468C268.191 312.468 268.759 312.186 269.059 311.623C269.368 311.059 269.523 310.445 269.523 309.782V308.309C269.523 307.645 269.377 307.027 269.086 306.455C268.795 305.882 268.218 305.595 267.355 305.595C266.545 305.595 265.986 305.886 265.677 306.468C265.368 307.05 265.214 307.664 265.214 308.309ZM263.018 331L282.218 303.073H285.791L266.591 331H263.018Z" fill="#111827"/>
<path d="M179.546 372.491C179.546 375.187 179.041 377.495 178.031 379.417C177.03 381.331 175.662 382.797 173.927 383.815C172.2 384.833 170.242 385.342 168.051 385.342C165.86 385.342 163.898 384.833 162.163 383.815C160.436 382.789 159.068 381.319 158.058 379.405C157.057 377.483 156.556 375.178 156.556 372.491C156.556 369.795 157.057 367.491 158.058 365.577C159.068 363.655 160.436 362.185 162.163 361.167C163.898 360.149 165.86 359.64 168.051 359.64C170.242 359.64 172.2 360.149 173.927 361.167C175.662 362.185 177.03 363.655 178.031 365.577C179.041 367.491 179.546 369.795 179.546 372.491ZM174.99 372.491C174.99 370.593 174.692 368.993 174.098 367.69C173.512 366.379 172.697 365.389 171.655 364.722C170.612 364.046 169.411 363.708 168.051 363.708C166.691 363.708 165.49 364.046 164.447 364.722C163.405 365.389 162.586 366.379 161.992 367.69C161.406 368.993 161.112 370.593 161.112 372.491C161.112 374.388 161.406 375.993 161.992 377.304C162.586 378.607 163.405 379.596 164.447 380.272C165.49 380.94 166.691 381.274 168.051 381.274C169.411 381.274 170.612 380.94 171.655 380.272C172.697 379.596 173.512 378.607 174.098 377.304C174.692 375.993 174.99 374.388 174.99 372.491ZM183.635 392.036V366.236H187.984V369.339H188.241C188.469 368.883 188.791 368.399 189.206 367.886C189.621 367.364 190.183 366.92 190.892 366.554C191.6 366.179 192.504 365.992 193.604 365.992C195.053 365.992 196.36 366.363 197.525 367.104C198.698 367.837 199.626 368.924 200.31 370.365C201.002 371.799 201.349 373.558 201.349 375.643C201.349 377.703 201.011 379.454 200.335 380.895C199.659 382.337 198.738 383.436 197.574 384.194C196.409 384.951 195.09 385.33 193.616 385.33C192.541 385.33 191.649 385.151 190.941 384.792C190.232 384.434 189.662 384.002 189.23 383.497C188.807 382.984 188.477 382.5 188.241 382.044H188.058V392.036H183.635ZM187.972 375.618C187.972 376.832 188.143 377.894 188.485 378.807C188.835 379.719 189.336 380.431 189.988 380.944C190.647 381.449 191.445 381.702 192.382 381.702C193.359 381.702 194.178 381.441 194.837 380.92C195.497 380.391 195.994 379.67 196.328 378.758C196.67 377.837 196.841 376.791 196.841 375.618C196.841 374.454 196.674 373.419 196.34 372.515C196.006 371.611 195.509 370.903 194.85 370.39C194.19 369.877 193.367 369.62 192.382 369.62C191.437 369.62 190.635 369.869 189.975 370.365C189.316 370.862 188.815 371.558 188.473 372.454C188.139 373.35 187.972 374.405 187.972 375.618ZM213.442 385.366C211.561 385.366 209.936 384.976 208.568 384.194C207.208 383.404 206.162 382.288 205.429 380.847C204.696 379.397 204.329 377.691 204.329 375.728C204.329 373.798 204.696 372.104 205.429 370.646C206.17 369.18 207.204 368.04 208.531 367.226C209.859 366.403 211.418 365.992 213.21 365.992C214.367 365.992 215.458 366.179 216.484 366.554C217.518 366.92 218.43 367.491 219.22 368.264C220.018 369.038 220.646 370.023 221.102 371.22C221.558 372.409 221.786 373.827 221.786 375.472V376.828H206.406V373.847H217.547C217.539 373 217.355 372.247 216.997 371.587C216.639 370.919 216.138 370.394 215.495 370.011C214.859 369.628 214.118 369.437 213.271 369.437C212.367 369.437 211.573 369.657 210.889 370.097C210.205 370.528 209.672 371.098 209.289 371.807C208.914 372.507 208.723 373.277 208.715 374.116V376.718C208.715 377.809 208.914 378.745 209.313 379.527C209.712 380.301 210.27 380.895 210.987 381.311C211.704 381.718 212.542 381.922 213.503 381.922C214.147 381.922 214.729 381.832 215.25 381.653C215.771 381.466 216.223 381.193 216.606 380.834C216.989 380.476 217.278 380.032 217.474 379.503L221.602 379.967C221.342 381.058 220.845 382.011 220.112 382.826C219.387 383.632 218.459 384.259 217.327 384.707C216.195 385.147 214.9 385.366 213.442 385.366ZM229.949 374.006V385H225.527V366.236H229.754V369.425H229.973C230.405 368.374 231.093 367.539 232.038 366.92C232.991 366.302 234.168 365.992 235.568 365.992C236.863 365.992 237.991 366.269 238.952 366.823C239.921 367.377 240.671 368.179 241.2 369.229C241.737 370.28 242.002 371.554 241.994 373.053V385H237.572V373.737C237.572 372.483 237.246 371.501 236.594 370.793C235.951 370.084 235.059 369.73 233.919 369.73C233.145 369.73 232.457 369.901 231.855 370.243C231.26 370.577 230.792 371.062 230.45 371.697C230.116 372.332 229.949 373.102 229.949 374.006ZM254.796 385.366C252.915 385.366 251.29 384.976 249.922 384.194C248.562 383.404 247.515 382.288 246.783 380.847C246.05 379.397 245.683 377.691 245.683 375.728C245.683 373.798 246.05 372.104 246.783 370.646C247.524 369.18 248.558 368.04 249.885 367.226C251.213 366.403 252.772 365.992 254.564 365.992C255.721 365.992 256.812 366.179 257.838 366.554C258.872 366.92 259.784 367.491 260.574 368.264C261.372 369.038 261.999 370.023 262.456 371.22C262.912 372.409 263.14 373.827 263.14 375.472V376.828H247.76V373.847H258.901C258.893 373 258.709 372.247 258.351 371.587C257.993 370.919 257.492 370.394 256.848 370.011C256.213 369.628 255.472 369.437 254.625 369.437C253.721 369.437 252.927 369.657 252.243 370.097C251.559 370.528 251.026 371.098 250.643 371.807C250.268 372.507 250.077 373.277 250.069 374.116V376.718C250.069 377.809 250.268 378.745 250.667 379.527C251.066 380.301 251.624 380.895 252.341 381.311C253.057 381.718 253.896 381.922 254.857 381.922C255.501 381.922 256.083 381.832 256.604 381.653C257.125 381.466 257.577 381.193 257.96 380.834C258.343 380.476 258.632 380.032 258.827 379.503L262.956 379.967C262.696 381.058 262.199 382.011 261.466 382.826C260.741 383.632 259.813 384.259 258.681 384.707C257.549 385.147 256.254 385.366 254.796 385.366ZM273.844 385.33C272.37 385.33 271.05 384.951 269.886 384.194C268.721 383.436 267.801 382.337 267.125 380.895C266.449 379.454 266.111 377.703 266.111 375.643C266.111 373.558 266.453 371.799 267.137 370.365C267.83 368.924 268.762 367.837 269.935 367.104C271.107 366.363 272.415 365.992 273.856 365.992C274.955 365.992 275.859 366.179 276.568 366.554C277.276 366.92 277.838 367.364 278.254 367.886C278.669 368.399 278.991 368.883 279.219 369.339H279.402V359.982H283.836V385H279.488V382.044H279.219C278.991 382.5 278.661 382.984 278.229 383.497C277.798 384.002 277.228 384.434 276.519 384.792C275.811 385.151 274.919 385.33 273.844 385.33ZM275.078 381.702C276.014 381.702 276.812 381.449 277.472 380.944C278.132 380.431 278.632 379.719 278.975 378.807C279.317 377.894 279.488 376.832 279.488 375.618C279.488 374.405 279.317 373.35 278.975 372.454C278.641 371.558 278.144 370.862 277.484 370.365C276.833 369.869 276.03 369.62 275.078 369.62C274.092 369.62 273.27 369.877 272.61 370.39C271.95 370.903 271.454 371.611 271.12 372.515C270.786 373.419 270.619 374.454 270.619 375.618C270.619 376.791 270.786 377.837 271.12 378.758C271.462 379.67 271.963 380.391 272.622 380.92C273.29 381.441 274.109 381.702 275.078 381.702Z" fill="#111827"/>
<path d="M82.6705 65.093V60.4545H107.041V65.093H97.6001V91H92.1115V65.093H82.6705ZM109.122 91V68.0909H114.357V71.9091H114.596C115.013 70.5866 115.729 69.5675 116.743 68.8516C117.767 68.1257 118.936 67.7628 120.248 67.7628C120.547 67.7628 120.88 67.7777 121.248 67.8075C121.625 67.8274 121.939 67.8622 122.187 67.9119V72.8786C121.958 72.799 121.596 72.7294 121.098 72.6697C120.611 72.6001 120.139 72.5653 119.681 72.5653C118.697 72.5653 117.812 72.7791 117.027 73.2067C116.251 73.6243 115.64 74.206 115.192 74.9517C114.745 75.6974 114.521 76.5575 114.521 77.532V91H109.122ZM131.956 91.4624C130.505 91.4624 129.197 91.2038 128.034 90.6868C126.88 90.1598 125.966 89.3842 125.289 88.3601C124.623 87.3359 124.29 86.0732 124.29 84.5717C124.29 83.2791 124.529 82.2102 125.006 81.3651C125.483 80.5199 126.135 79.8438 126.96 79.3366C127.785 78.8295 128.715 78.4467 129.749 78.1882C130.793 77.9197 131.872 77.7259 132.985 77.6065C134.328 77.4673 135.417 77.343 136.252 77.2337C137.087 77.1143 137.694 76.9354 138.071 76.6967C138.459 76.4482 138.653 76.0653 138.653 75.5483V75.4588C138.653 74.3352 138.32 73.4652 137.654 72.8487C136.988 72.2322 136.028 71.924 134.775 71.924C133.453 71.924 132.404 72.2124 131.628 72.7891C130.863 73.3658 130.346 74.0469 130.077 74.8324L125.036 74.1165C125.434 72.7244 126.09 71.5611 127.005 70.6264C127.919 69.6818 129.038 68.9759 130.36 68.5085C131.683 68.0312 133.145 67.7926 134.745 67.7926C135.849 67.7926 136.948 67.9219 138.042 68.1804C139.135 68.4389 140.135 68.8665 141.039 69.4631C141.944 70.0497 142.67 70.8501 143.217 71.8643C143.774 72.8786 144.052 74.1463 144.052 75.6676V91H138.862V87.853H138.683C138.355 88.4893 137.892 89.0859 137.296 89.6428C136.709 90.1896 135.968 90.6321 135.074 90.9702C134.189 91.2983 133.15 91.4624 131.956 91.4624ZM133.358 87.495C134.442 87.495 135.382 87.2812 136.177 86.8537C136.973 86.4162 137.584 85.8395 138.012 85.1236C138.449 84.4077 138.668 83.6271 138.668 82.782V80.0824C138.499 80.2216 138.211 80.3509 137.803 80.4702C137.405 80.5895 136.958 80.6939 136.461 80.7834C135.963 80.8729 135.471 80.9524 134.984 81.022C134.497 81.0916 134.074 81.1513 133.716 81.201C132.911 81.3104 132.19 81.4893 131.554 81.7379C130.917 81.9865 130.415 82.3345 130.047 82.782C129.679 83.2195 129.495 83.7862 129.495 84.4822C129.495 85.4766 129.858 86.2273 130.584 86.7344C131.31 87.2415 132.235 87.495 133.358 87.495ZM159.474 91.4474C157.187 91.4474 155.223 90.9453 153.583 89.9411C151.952 88.9368 150.694 87.5497 149.809 85.7798C148.934 84 148.497 81.9517 148.497 79.6349C148.497 77.3082 148.944 75.255 149.839 73.4751C150.734 71.6854 151.997 70.2933 153.627 69.299C155.268 68.2947 157.207 67.7926 159.444 67.7926C161.304 67.7926 162.949 68.1357 164.381 68.8217C165.823 69.4979 166.971 70.4574 167.826 71.7003C168.681 72.9332 169.169 74.375 169.288 76.0256H164.127C163.919 74.9219 163.422 74.0021 162.636 73.2663C161.86 72.5206 160.821 72.1477 159.519 72.1477C158.415 72.1477 157.446 72.446 156.61 73.0426C155.775 73.6293 155.124 74.4744 154.657 75.5781C154.199 76.6818 153.971 78.0043 153.971 79.5455C153.971 81.1065 154.199 82.4489 154.657 83.5724C155.114 84.6861 155.755 85.5462 156.581 86.1527C157.416 86.7493 158.395 87.0476 159.519 87.0476C160.314 87.0476 161.025 86.8984 161.652 86.6001C162.288 86.2919 162.82 85.8494 163.248 85.2727C163.675 84.696 163.968 83.995 164.127 83.1697H169.288C169.159 84.7905 168.681 86.2273 167.856 87.4801C167.031 88.723 165.907 89.6974 164.485 90.4034C163.064 91.0994 161.393 91.4474 159.474 91.4474ZM178.643 83.8111L178.628 77.2933H179.493L187.726 68.0909H194.035L183.908 79.3665H182.79L178.643 83.8111ZM173.721 91V60.4545H179.121V91H173.721ZM188.099 91L180.642 80.5746L184.281 76.7713L194.557 91H188.099Z" fill="black"/>
<path d="M208.013 60.4545H214.784L223.852 82.5881H224.21L233.278 60.4545H240.05V91H234.74V70.0149H234.457L226.015 90.9105H222.048L213.606 69.9702H213.322V91H208.013V60.4545ZM255.979 91.4474C253.682 91.4474 251.698 90.9702 250.028 90.0156C248.367 89.0511 247.089 87.6889 246.195 85.929C245.3 84.1591 244.852 82.076 244.852 79.6797C244.852 77.3232 245.3 75.255 246.195 73.4751C247.099 71.6854 248.362 70.2933 249.983 69.299C251.604 68.2947 253.508 67.7926 255.695 67.7926C257.107 67.7926 258.44 68.0213 259.692 68.4787C260.955 68.9261 262.069 69.6222 263.033 70.5668C264.008 71.5114 264.773 72.7145 265.33 74.1761C265.887 75.6278 266.165 77.358 266.165 79.3665V81.022H247.388V77.3828H260.99C260.98 76.3487 260.756 75.429 260.319 74.6236C259.881 73.8082 259.27 73.1669 258.484 72.6996C257.709 72.2322 256.804 71.9986 255.77 71.9986C254.666 71.9986 253.697 72.267 252.862 72.804C252.026 73.331 251.375 74.027 250.908 74.892C250.45 75.7472 250.217 76.6868 250.207 77.7109V80.8878C250.207 82.2202 250.45 83.3636 250.938 84.3182C251.425 85.2628 252.106 85.9886 252.981 86.4957C253.856 86.9929 254.88 87.2415 256.053 87.2415C256.839 87.2415 257.55 87.1321 258.186 86.9134C258.822 86.6847 259.374 86.3516 259.842 85.9141C260.309 85.4766 260.662 84.9347 260.901 84.2884L265.942 84.8551C265.624 86.1875 265.017 87.3509 264.122 88.3452C263.237 89.3295 262.104 90.0952 260.722 90.642C259.339 91.179 257.759 91.4474 255.979 91.4474ZM282.173 68.0909V72.267H269.003V68.0909H282.173ZM272.254 62.6023H277.654V84.1094C277.654 84.8352 277.763 85.392 277.982 85.7798C278.21 86.1577 278.509 86.4162 278.877 86.5554C279.244 86.6946 279.652 86.7642 280.1 86.7642C280.438 86.7642 280.746 86.7393 281.024 86.6896C281.313 86.6399 281.531 86.5952 281.681 86.5554L282.59 90.7763C282.302 90.8757 281.889 90.9851 281.352 91.1044C280.825 91.2237 280.179 91.2933 279.414 91.3132C278.061 91.353 276.843 91.1491 275.759 90.7017C274.676 90.2443 273.816 89.5384 273.179 88.5838C272.553 87.6293 272.244 86.4361 272.254 85.0043V62.6023ZM286.688 91V68.0909H291.923V71.9091H292.162C292.58 70.5866 293.295 69.5675 294.31 68.8516C295.334 68.1257 296.502 67.7628 297.815 67.7628C298.113 67.7628 298.446 67.7777 298.814 67.8075C299.192 67.8274 299.505 67.8622 299.754 67.9119V72.8786C299.525 72.799 299.162 72.7294 298.665 72.6697C298.178 72.6001 297.705 72.5653 297.248 72.5653C296.263 72.5653 295.379 72.7791 294.593 73.2067C293.817 73.6243 293.206 74.206 292.759 74.9517C292.311 75.6974 292.087 76.5575 292.087 77.532V91H286.688ZM303.341 91V68.0909H308.74V91H303.341ZM306.055 64.8395C305.2 64.8395 304.464 64.5561 303.848 63.9893C303.231 63.4126 302.923 62.7216 302.923 61.9162C302.923 61.1009 303.231 60.4098 303.848 59.843C304.464 59.2663 305.2 58.978 306.055 58.978C306.92 58.978 307.656 59.2663 308.262 59.843C308.879 60.4098 309.187 61.1009 309.187 61.9162C309.187 62.7216 308.879 63.4126 308.262 63.9893C307.656 64.5561 306.92 64.8395 306.055 64.8395ZM324.285 91.4474C321.998 91.4474 320.034 90.9453 318.393 89.9411C316.763 88.9368 315.505 87.5497 314.62 85.7798C313.745 84 313.307 81.9517 313.307 79.6349C313.307 77.3082 313.755 75.255 314.65 73.4751C315.545 71.6854 316.807 70.2933 318.438 69.299C320.079 68.2947 322.018 67.7926 324.255 67.7926C326.114 67.7926 327.76 68.1357 329.192 68.8217C330.633 69.4979 331.782 70.4574 332.637 71.7003C333.492 72.9332 333.979 74.375 334.099 76.0256H328.938C328.729 74.9219 328.232 74.0021 327.447 73.2663C326.671 72.5206 325.632 72.1477 324.329 72.1477C323.226 72.1477 322.256 72.446 321.421 73.0426C320.586 73.6293 319.934 74.4744 319.467 75.5781C319.01 76.6818 318.781 78.0043 318.781 79.5455C318.781 81.1065 319.01 82.4489 319.467 83.5724C319.925 84.6861 320.566 85.5462 321.391 86.1527C322.226 86.7493 323.206 87.0476 324.329 87.0476C325.125 87.0476 325.836 86.8984 326.462 86.6001C327.099 86.2919 327.631 85.8494 328.058 85.2727C328.486 84.696 328.779 83.995 328.938 83.1697H334.099C333.969 84.7905 333.492 86.2273 332.667 87.4801C331.841 88.723 330.718 89.6974 329.296 90.4034C327.874 91.0994 326.204 91.4474 324.285 91.4474ZM356.638 74.1463L351.717 74.6832C351.577 74.1861 351.334 73.7188 350.986 73.2812C350.648 72.8438 350.19 72.4908 349.614 72.2223C349.037 71.9538 348.331 71.8196 347.496 71.8196C346.372 71.8196 345.428 72.0632 344.662 72.5504C343.906 73.0376 343.533 73.669 343.543 74.4446C343.533 75.1108 343.777 75.6527 344.274 76.0703C344.781 76.4879 345.616 76.831 346.78 77.0994L350.688 77.9347C352.855 78.402 354.466 79.1428 355.52 80.157C356.584 81.1712 357.121 82.4986 357.131 84.1392C357.121 85.581 356.698 86.8537 355.863 87.9574C355.038 89.0511 353.889 89.9062 352.418 90.5227C350.946 91.1392 349.256 91.4474 347.347 91.4474C344.543 91.4474 342.286 90.8608 340.575 89.6875C338.865 88.5043 337.846 86.8587 337.518 84.7507L342.783 84.2436C343.021 85.2777 343.528 86.0582 344.304 86.5852C345.08 87.1122 346.089 87.3757 347.332 87.3757C348.614 87.3757 349.643 87.1122 350.419 86.5852C351.205 86.0582 351.597 85.407 351.597 84.6314C351.597 83.9751 351.344 83.4332 350.837 83.0057C350.339 82.5781 349.564 82.25 348.51 82.0213L344.602 81.201C342.405 80.7436 340.779 79.973 339.725 78.8892C338.671 77.7955 338.149 76.4134 338.159 74.7429C338.149 73.331 338.532 72.108 339.308 71.0739C340.093 70.0298 341.182 69.2244 342.574 68.6577C343.976 68.081 345.592 67.7926 347.421 67.7926C350.106 67.7926 352.219 68.3643 353.76 69.5078C355.311 70.6513 356.271 72.1974 356.638 74.1463Z" fill="url(#paint0_linear_5621_113138)"/>
<path d="M106.546 111.455V142H101.013V111.455H106.546ZM117.699 128.577V142H112.3V119.091H117.46V122.984H117.729C118.256 121.701 119.096 120.682 120.249 119.926C121.412 119.17 122.849 118.793 124.559 118.793C126.14 118.793 127.518 119.131 128.691 119.807C129.874 120.483 130.789 121.462 131.435 122.745C132.091 124.028 132.415 125.584 132.405 127.413V142H127.006V128.249C127.006 126.717 126.608 125.519 125.812 124.654C125.027 123.789 123.938 123.357 122.546 123.357C121.601 123.357 120.761 123.565 120.025 123.983C119.3 124.391 118.728 124.982 118.31 125.758C117.903 126.533 117.699 127.473 117.699 128.577ZM148.55 142V111.455H160.004C162.351 111.455 164.32 111.862 165.911 112.678C167.512 113.493 168.72 114.636 169.535 116.108C170.36 117.57 170.773 119.275 170.773 121.224C170.773 123.183 170.355 124.883 169.52 126.325C168.695 127.756 167.477 128.865 165.866 129.651C164.255 130.426 162.276 130.814 159.93 130.814H151.771V126.22H159.184C160.556 126.22 161.68 126.031 162.555 125.653C163.43 125.266 164.076 124.704 164.494 123.968C164.921 123.222 165.135 122.308 165.135 121.224C165.135 120.14 164.921 119.215 164.494 118.45C164.066 117.674 163.415 117.087 162.54 116.69C161.665 116.282 160.536 116.078 159.154 116.078H154.083V142H148.55ZM164.33 128.159L171.892 142H165.717L158.289 128.159H164.33ZM185.442 142.447C183.145 142.447 181.161 141.97 179.491 141.016C177.83 140.051 176.552 138.689 175.657 136.929C174.763 135.159 174.315 133.076 174.315 130.68C174.315 128.323 174.763 126.255 175.657 124.475C176.562 122.685 177.825 121.293 179.446 120.299C181.067 119.295 182.971 118.793 185.158 118.793C186.57 118.793 187.903 119.021 189.155 119.479C190.418 119.926 191.532 120.622 192.496 121.567C193.471 122.511 194.236 123.714 194.793 125.176C195.35 126.628 195.628 128.358 195.628 130.366V132.022H176.851V128.383H190.453C190.443 127.349 190.219 126.429 189.782 125.624C189.344 124.808 188.733 124.167 187.947 123.7C187.172 123.232 186.267 122.999 185.233 122.999C184.129 122.999 183.16 123.267 182.324 123.804C181.489 124.331 180.838 125.027 180.371 125.892C179.913 126.747 179.68 127.687 179.67 128.711V131.888C179.67 133.22 179.913 134.364 180.4 135.318C180.888 136.263 181.569 136.989 182.444 137.496C183.319 137.993 184.343 138.241 185.516 138.241C186.302 138.241 187.013 138.132 187.649 137.913C188.285 137.685 188.837 137.352 189.305 136.914C189.772 136.477 190.125 135.935 190.363 135.288L195.405 135.855C195.086 137.187 194.48 138.351 193.585 139.345C192.7 140.33 191.567 141.095 190.184 141.642C188.802 142.179 187.221 142.447 185.442 142.447ZM206.788 142.462C205.337 142.462 204.029 142.204 202.866 141.687C201.712 141.16 200.798 140.384 200.121 139.36C199.455 138.336 199.122 137.073 199.122 135.572C199.122 134.279 199.361 133.21 199.838 132.365C200.315 131.52 200.967 130.844 201.792 130.337C202.617 129.83 203.547 129.447 204.581 129.188C205.625 128.92 206.704 128.726 207.817 128.607C209.16 128.467 210.249 128.343 211.084 128.234C211.919 128.114 212.526 127.935 212.903 127.697C213.291 127.448 213.485 127.065 213.485 126.548V126.459C213.485 125.335 213.152 124.465 212.486 123.849C211.82 123.232 210.86 122.924 209.607 122.924C208.285 122.924 207.236 123.212 206.46 123.789C205.695 124.366 205.178 125.047 204.909 125.832L199.868 125.116C200.266 123.724 200.922 122.561 201.837 121.626C202.751 120.682 203.87 119.976 205.192 119.509C206.515 119.031 207.977 118.793 209.577 118.793C210.681 118.793 211.78 118.922 212.874 119.18C213.967 119.439 214.967 119.866 215.871 120.463C216.776 121.05 217.502 121.85 218.049 122.864C218.606 123.879 218.884 125.146 218.884 126.668V142H213.694V138.853H213.515C213.187 139.489 212.724 140.086 212.128 140.643C211.541 141.19 210.8 141.632 209.906 141.97C209.021 142.298 207.982 142.462 206.788 142.462ZM208.19 138.495C209.274 138.495 210.214 138.281 211.009 137.854C211.805 137.416 212.416 136.839 212.844 136.124C213.281 135.408 213.5 134.627 213.5 133.782V131.082C213.331 131.222 213.043 131.351 212.635 131.47C212.237 131.589 211.79 131.694 211.293 131.783C210.795 131.873 210.303 131.952 209.816 132.022C209.329 132.092 208.906 132.151 208.548 132.201C207.743 132.31 207.022 132.489 206.386 132.738C205.749 132.987 205.247 133.335 204.879 133.782C204.511 134.219 204.327 134.786 204.327 135.482C204.327 136.477 204.69 137.227 205.416 137.734C206.142 138.241 207.067 138.495 208.19 138.495ZM229.712 111.455V142H224.313V111.455H229.712ZM249.15 127.055V131.5H235.399V127.055H249.15ZM266.268 119.091V123.267H253.099V119.091H266.268ZM256.35 113.602H261.749V135.109C261.749 135.835 261.859 136.392 262.077 136.78C262.306 137.158 262.604 137.416 262.972 137.555C263.34 137.695 263.748 137.764 264.195 137.764C264.533 137.764 264.842 137.739 265.12 137.69C265.408 137.64 265.627 137.595 265.776 137.555L266.686 141.776C266.398 141.876 265.985 141.985 265.448 142.104C264.921 142.224 264.275 142.293 263.509 142.313C262.157 142.353 260.939 142.149 259.855 141.702C258.771 141.244 257.911 140.538 257.275 139.584C256.648 138.629 256.34 137.436 256.35 136.004V113.602ZM270.784 142V119.091H276.183V142H270.784ZM273.498 115.839C272.643 115.839 271.907 115.556 271.291 114.989C270.675 114.413 270.366 113.722 270.366 112.916C270.366 112.101 270.675 111.41 271.291 110.843C271.907 110.266 272.643 109.978 273.498 109.978C274.363 109.978 275.099 110.266 275.706 110.843C276.322 111.41 276.631 112.101 276.631 112.916C276.631 113.722 276.322 114.413 275.706 114.989C275.099 115.556 274.363 115.839 273.498 115.839ZM281.735 142V119.091H286.896V122.984H287.164C287.641 121.671 288.432 120.647 289.536 119.911C290.639 119.165 291.957 118.793 293.488 118.793C295.039 118.793 296.347 119.17 297.411 119.926C298.484 120.672 299.24 121.691 299.678 122.984H299.916C300.423 121.711 301.278 120.697 302.482 119.941C303.695 119.175 305.131 118.793 306.792 118.793C308.9 118.793 310.62 119.459 311.952 120.791C313.285 122.124 313.951 124.067 313.951 126.623V142H308.537V127.458C308.537 126.036 308.159 124.997 307.403 124.341C306.648 123.675 305.723 123.342 304.629 123.342C303.327 123.342 302.308 123.749 301.572 124.565C300.846 125.37 300.483 126.419 300.483 127.712V142H295.188V127.234C295.188 126.051 294.83 125.107 294.114 124.401C293.408 123.695 292.484 123.342 291.34 123.342C290.565 123.342 289.859 123.54 289.222 123.938C288.586 124.326 288.079 124.878 287.701 125.594C287.323 126.3 287.134 127.125 287.134 128.07V142H281.735ZM329.57 142.447C327.274 142.447 325.29 141.97 323.619 141.016C321.959 140.051 320.681 138.689 319.786 136.929C318.892 135.159 318.444 133.076 318.444 130.68C318.444 128.323 318.892 126.255 319.786 124.475C320.691 122.685 321.954 121.293 323.575 120.299C325.195 119.295 327.1 118.793 329.287 118.793C330.699 118.793 332.031 119.021 333.284 119.479C334.547 119.926 335.661 120.622 336.625 121.567C337.6 122.511 338.365 123.714 338.922 125.176C339.479 126.628 339.757 128.358 339.757 130.366V132.022H320.98V128.383H334.582C334.572 127.349 334.348 126.429 333.911 125.624C333.473 124.808 332.862 124.167 332.076 123.7C331.301 123.232 330.396 122.999 329.362 122.999C328.258 122.999 327.289 123.267 326.453 123.804C325.618 124.331 324.967 125.027 324.499 125.892C324.042 126.747 323.808 127.687 323.798 128.711V131.888C323.798 133.22 324.042 134.364 324.529 135.318C325.017 136.263 325.698 136.989 326.573 137.496C327.448 137.993 328.472 138.241 329.645 138.241C330.431 138.241 331.142 138.132 331.778 137.913C332.414 137.685 332.966 137.352 333.433 136.914C333.901 136.477 334.254 135.935 334.492 135.288L339.534 135.855C339.215 137.187 338.609 138.351 337.714 139.345C336.829 140.33 335.695 141.095 334.313 141.642C332.931 142.179 331.35 142.447 329.57 142.447Z" fill="black"/>
<defs>
<filter id="filter0_d_5621_113138" x="0" y="0" width="440" height="502" filterUnits="userSpaceOnUse" color-interpolation-filters="sRGB">
<feFlood flood-opacity="0" result="BackgroundImageFix"/>
<feColorMatrix in="SourceAlpha" type="matrix" values="0 0 0 0 0 0 0 0 0 0 0 0 0 0 0 0 0 0 127 0" result="hardAlpha"/>
<feOffset dy="2"/>
<feComposite in2="hardAlpha" operator="out"/>
<feColorMatrix type="matrix" values="0 0 0 0 0 0 0 0 0 0 0 0 0 0 0 0 0 0 0.03 0"/>
<feBlend mode="normal" in2="BackgroundImageFix" result="effect1_dropShadow_5621_113138"/>
<feBlend mode="normal" in="SourceGraphic" in2="effect1_dropShadow_5621_113138" result="shape"/>
</filter>
<linearGradient id="paint0_linear_5621_113138" x1="357.623" y1="75.5" x2="205.138" y2="75.5" gradientUnits="userSpaceOnUse">
<stop stop-color="#6366F1"/>
<stop offset="0.354167" stop-color="#835CD7"/>
<stop offset="0.583333" stop-color="#D45E95"/>
<stop offset="0.796875" stop-color="#EF1468"/>
<stop offset="1" stop-color="#F77553"/>
</linearGradient>
</defs>
</svg>
