<svg width="286" height="144" viewBox="0 0 286 144" fill="none" xmlns="http://www.w3.org/2000/svg">
<g clip-path="url(#clip0_4814_85400)">
<path d="M143.103 99.9921C167.737 99.9921 187.707 96.2608 187.707 91.6579C187.707 87.0551 167.737 83.3237 143.103 83.3237C118.47 83.3237 98.5 87.0551 98.5 91.6579C98.5 96.2608 118.47 99.9921 143.103 99.9921Z" fill="#F3F4F6"/>
<path fill-rule="evenodd" clip-rule="evenodd" d="M178.786 67.1734L163.046 47.8017C162.291 46.8899 161.187 46.3379 160.025 46.3379H126.182C125.021 46.3379 123.917 46.8899 123.161 47.8017L107.422 67.1734V77.2938H178.787V67.1734H178.786Z" fill="#9CA3AF"/>
<path fill-rule="evenodd" clip-rule="evenodd" d="M120.757 21.3354H165.449C166.147 21.3354 166.817 21.6127 167.31 22.1062C167.804 22.5997 168.081 23.2691 168.081 23.967V85.3775C168.081 86.0755 167.804 86.7448 167.31 87.2383C166.817 87.7319 166.147 88.0091 165.449 88.0091H120.757C120.059 88.0091 119.389 87.7319 118.896 87.2383C118.402 86.7448 118.125 86.0755 118.125 85.3775V23.967C118.125 23.2691 118.402 22.5997 118.896 22.1062C119.389 21.6127 120.059 21.3354 120.757 21.3354V21.3354Z" fill="#F3F4F6"/>
<path fill-rule="evenodd" clip-rule="evenodd" d="M126.579 27.8833H159.63C159.979 27.8833 160.313 28.0219 160.56 28.2687C160.807 28.5154 160.946 28.8501 160.946 29.1991V45.6182C160.946 45.9671 160.807 46.3018 160.56 46.5486C160.313 46.7953 159.979 46.934 159.63 46.934H126.579C126.23 46.934 125.895 46.7953 125.649 46.5486C125.402 46.3018 125.263 45.9671 125.263 45.6182V29.1991C125.263 28.8501 125.402 28.5154 125.649 28.2687C125.895 28.0219 126.23 27.8833 126.579 27.8833ZM126.751 54.0767H159.457C159.852 54.0767 160.231 54.2335 160.51 54.5126C160.789 54.7917 160.946 55.1702 160.946 55.5649C160.946 55.9596 160.789 56.3381 160.51 56.6172C160.231 56.8962 159.852 57.053 159.457 57.053H126.751C126.357 57.053 125.978 56.8962 125.699 56.6172C125.42 56.3381 125.263 55.9596 125.263 55.5649C125.263 55.1702 125.42 54.7917 125.699 54.5126C125.978 54.2335 126.357 54.0767 126.751 54.0767ZM126.751 61.8155H159.457C159.852 61.8155 160.231 61.9724 160.51 62.2515C160.789 62.5307 160.946 62.9093 160.946 63.304C160.946 63.6988 160.789 64.0774 160.51 64.3565C160.231 64.6357 159.852 64.7925 159.457 64.7925H126.751C126.357 64.7925 125.978 64.6357 125.699 64.3565C125.42 64.0774 125.263 63.6988 125.263 63.304C125.263 62.9093 125.42 62.5307 125.699 62.2515C125.978 61.9724 126.357 61.8155 126.751 61.8155ZM178.642 90.4353C178.132 92.4557 176.341 93.9616 174.211 93.9616H111.998C109.868 93.9616 108.077 92.455 107.568 90.4353C107.471 90.0503 107.422 89.6547 107.422 89.2576V67.1741H124.736C126.649 67.1741 128.19 68.7846 128.19 70.7399V70.7662C128.19 72.7208 129.75 74.2991 131.662 74.2991H154.547C156.459 74.2991 158.019 72.7063 158.019 70.7511V70.7432C158.019 68.7879 159.56 67.1734 161.473 67.1734H178.787V89.2583C178.787 89.6642 178.736 90.0583 178.642 90.4353Z" fill="#D1D5DB"/>
<path fill-rule="evenodd" clip-rule="evenodd" d="M180.82 22.4026L176.327 24.1461C176.211 24.1909 176.085 24.2023 175.964 24.1789C175.842 24.1555 175.73 24.0982 175.639 24.0137C175.549 23.9292 175.484 23.8208 175.452 23.7011C175.421 23.5813 175.423 23.4551 175.46 23.3368L176.735 19.2533C175.031 17.3164 174.031 14.9546 174.031 12.4059C174.031 5.83026 180.688 0.5 188.9 0.5C197.11 0.5 203.767 5.83026 203.767 12.4059C203.767 18.9816 197.11 24.3118 188.899 24.3118C185.92 24.3118 183.146 23.6105 180.82 22.4026Z" fill="#D1D5DB"/>
<path d="M194.749 14.556C195.785 14.556 196.624 13.7268 196.624 12.704C196.624 11.6812 195.785 10.8521 194.749 10.8521C193.714 10.8521 192.875 11.6812 192.875 12.704C192.875 13.7268 193.714 14.556 194.749 14.556Z" fill="white"/>
<path fill-rule="evenodd" clip-rule="evenodd" d="M184.913 14.3243H181.164L183.071 11.0835L184.913 14.3243ZM187.256 11.0835H190.535V14.3243H187.256V11.0835Z" fill="white"/>
<path d="M11.5689 129.79H9.44389C9.38329 129.441 9.27154 129.133 9.10867 128.864C8.94579 128.591 8.74313 128.36 8.50071 128.17C8.25829 127.981 7.98177 127.839 7.67116 127.744C7.36435 127.646 7.03291 127.597 6.67685 127.597C6.04427 127.597 5.48366 127.756 4.99503 128.074C4.50639 128.388 4.12382 128.85 3.8473 129.46C3.57079 130.066 3.43253 130.807 3.43253 131.682C3.43253 132.572 3.57079 133.322 3.8473 133.932C4.1276 134.538 4.51018 134.996 4.99503 135.307C5.48366 135.614 6.04238 135.767 6.67116 135.767C7.01965 135.767 7.34541 135.722 7.64844 135.631C7.95526 135.536 8.22988 135.398 8.4723 135.216C8.71851 135.034 8.92495 134.811 9.09162 134.545C9.26207 134.28 9.3795 133.977 9.44389 133.636L11.5689 133.648C11.4893 134.201 11.317 134.72 11.0518 135.205C10.7905 135.689 10.4477 136.117 10.0234 136.489C9.5992 136.856 9.10298 137.144 8.5348 137.352C7.96662 137.557 7.33594 137.659 6.64276 137.659C5.62003 137.659 4.70715 137.422 3.90412 136.949C3.10109 136.475 2.46851 135.792 2.00639 134.898C1.54427 134.004 1.31321 132.932 1.31321 131.682C1.31321 130.428 1.54616 129.356 2.01207 128.466C2.47798 127.572 3.11245 126.888 3.91548 126.415C4.71851 125.941 5.6276 125.705 6.64276 125.705C7.29048 125.705 7.89276 125.795 8.44957 125.977C9.00639 126.159 9.5026 126.426 9.93821 126.778C10.3738 127.127 10.7318 127.555 11.0121 128.062C11.2962 128.566 11.4818 129.142 11.5689 129.79ZM13.4084 137.5V128.773H15.4027V130.227H15.4936C15.6527 129.723 15.9254 129.335 16.3118 129.062C16.7019 128.786 17.147 128.648 17.647 128.648C17.7607 128.648 17.8875 128.653 18.0277 128.665C18.1716 128.672 18.291 128.686 18.3857 128.705V130.597C18.2985 130.566 18.1603 130.54 17.9709 130.517C17.7853 130.491 17.6054 130.477 17.4311 130.477C17.0561 130.477 16.719 130.559 16.4197 130.722C16.1243 130.881 15.8913 131.102 15.7209 131.386C15.5504 131.67 15.4652 131.998 15.4652 132.369V137.5H13.4084ZM23.2564 137.67C22.3814 137.67 21.6257 137.489 20.9893 137.125C20.3568 136.758 19.87 136.239 19.5291 135.568C19.1882 134.894 19.0178 134.1 19.0178 133.188C19.0178 132.29 19.1882 131.502 19.5291 130.824C19.8738 130.142 20.3549 129.612 20.9723 129.233C21.5897 128.85 22.3151 128.659 23.1484 128.659C23.6863 128.659 24.1939 128.746 24.6712 128.92C25.1522 129.091 25.5765 129.356 25.9439 129.716C26.3151 130.076 26.6068 130.534 26.8189 131.091C27.031 131.644 27.1371 132.303 27.1371 133.068V133.699H19.9837V132.312H25.1655C25.1617 131.919 25.0765 131.568 24.9098 131.261C24.7431 130.951 24.5102 130.706 24.2109 130.528C23.9155 130.35 23.5708 130.261 23.1768 130.261C22.7564 130.261 22.3871 130.364 22.0689 130.568C21.7507 130.769 21.5026 131.034 21.3246 131.364C21.1503 131.689 21.0613 132.047 21.0575 132.438V133.648C21.0575 134.155 21.1503 134.591 21.3359 134.955C21.5215 135.314 21.781 135.591 22.1143 135.784C22.4477 135.973 22.8378 136.068 23.2848 136.068C23.584 136.068 23.8549 136.027 24.0973 135.943C24.3397 135.856 24.55 135.729 24.728 135.562C24.906 135.396 25.0405 135.189 25.1314 134.943L27.0518 135.159C26.9306 135.667 26.6996 136.11 26.3587 136.489C26.0215 136.864 25.5897 137.155 25.0632 137.364C24.5367 137.568 23.9344 137.67 23.2564 137.67ZM31.3885 137.676C30.8355 137.676 30.3374 137.578 29.8942 137.381C29.4548 137.18 29.1063 136.884 28.8487 136.494C28.5949 136.104 28.468 135.623 28.468 135.051C28.468 134.559 28.5589 134.152 28.7408 133.83C28.9226 133.508 29.1707 133.25 29.4851 133.057C29.7995 132.864 30.1536 132.718 30.5476 132.619C30.9453 132.517 31.3563 132.443 31.7805 132.398C32.2919 132.345 32.7067 132.297 33.0249 132.256C33.343 132.21 33.5741 132.142 33.718 132.051C33.8658 131.956 33.9396 131.811 33.9396 131.614V131.58C33.9396 131.152 33.8127 130.82 33.5589 130.585C33.3052 130.35 32.9396 130.233 32.4624 130.233C31.9586 130.233 31.5589 130.343 31.2635 130.562C30.9718 130.782 30.7749 131.042 30.6726 131.341L28.7521 131.068C28.9036 130.538 29.1536 130.095 29.5021 129.739C29.8506 129.379 30.2768 129.11 30.7805 128.932C31.2843 128.75 31.8411 128.659 32.451 128.659C32.8714 128.659 33.29 128.708 33.7067 128.807C34.1233 128.905 34.504 129.068 34.8487 129.295C35.1934 129.519 35.4699 129.824 35.6783 130.21C35.8904 130.597 35.9964 131.08 35.9964 131.659V137.5H34.0192V136.301H33.951C33.826 136.544 33.6499 136.771 33.4226 136.983C33.1991 137.191 32.9169 137.36 32.576 137.489C32.2389 137.614 31.843 137.676 31.3885 137.676ZM31.9226 136.165C32.3355 136.165 32.6934 136.083 32.9964 135.92C33.2995 135.754 33.5324 135.534 33.6953 135.261C33.862 134.989 33.9453 134.691 33.9453 134.369V133.341C33.8809 133.394 33.7711 133.443 33.6158 133.489C33.4643 133.534 33.2938 133.574 33.1044 133.608C32.915 133.642 32.7275 133.672 32.5419 133.699C32.3563 133.725 32.1953 133.748 32.0589 133.767C31.7521 133.809 31.4775 133.877 31.2351 133.972C30.9927 134.066 30.8014 134.199 30.6612 134.369C30.5211 134.536 30.451 134.752 30.451 135.017C30.451 135.396 30.5893 135.682 30.8658 135.875C31.1423 136.068 31.4946 136.165 31.9226 136.165ZM42.4226 128.773V130.364H37.4055V128.773H42.4226ZM38.6442 126.682H40.701V134.875C40.701 135.152 40.7427 135.364 40.826 135.511C40.9131 135.655 41.0268 135.754 41.1669 135.807C41.3071 135.86 41.4624 135.886 41.6328 135.886C41.7616 135.886 41.879 135.877 41.9851 135.858C42.0949 135.839 42.1783 135.822 42.2351 135.807L42.5817 137.415C42.4718 137.453 42.3146 137.494 42.1101 137.54C41.9093 137.585 41.6631 137.612 41.3714 137.619C40.8563 137.634 40.3923 137.557 39.9794 137.386C39.5665 137.212 39.2389 136.943 38.9964 136.58C38.7578 136.216 38.6404 135.761 38.6442 135.216V126.682ZM47.9126 137.67C47.0376 137.67 46.282 137.489 45.6456 137.125C45.013 136.758 44.5263 136.239 44.1854 135.568C43.8445 134.894 43.674 134.1 43.674 133.188C43.674 132.29 43.8445 131.502 44.1854 130.824C44.5301 130.142 45.0111 129.612 45.6286 129.233C46.246 128.85 46.9714 128.659 47.8047 128.659C48.3426 128.659 48.8501 128.746 49.3274 128.92C49.8085 129.091 50.2327 129.356 50.6001 129.716C50.9714 130.076 51.263 130.534 51.4751 131.091C51.6873 131.644 51.7933 132.303 51.7933 133.068V133.699H44.6399V132.312H49.8217C49.8179 131.919 49.7327 131.568 49.5661 131.261C49.3994 130.951 49.1664 130.706 48.8672 130.528C48.5717 130.35 48.227 130.261 47.8331 130.261C47.4126 130.261 47.0433 130.364 46.7251 130.568C46.407 130.769 46.1589 131.034 45.9808 131.364C45.8066 131.689 45.7176 132.047 45.7138 132.438V133.648C45.7138 134.155 45.8066 134.591 45.9922 134.955C46.1778 135.314 46.4373 135.591 46.7706 135.784C47.1039 135.973 47.4941 136.068 47.9411 136.068C48.2403 136.068 48.5111 136.027 48.7536 135.943C48.996 135.856 49.2062 135.729 49.3842 135.562C49.5623 135.396 49.6967 135.189 49.7876 134.943L51.7081 135.159C51.5869 135.667 51.3558 136.11 51.0149 136.489C50.6778 136.864 50.246 137.155 49.7195 137.364C49.1929 137.568 48.5907 137.67 47.9126 137.67ZM60.0135 137.676C59.4605 137.676 58.9624 137.578 58.5192 137.381C58.0798 137.18 57.7313 136.884 57.4737 136.494C57.2199 136.104 57.093 135.623 57.093 135.051C57.093 134.559 57.1839 134.152 57.3658 133.83C57.5476 133.508 57.7957 133.25 58.1101 133.057C58.4245 132.864 58.7786 132.718 59.1726 132.619C59.5703 132.517 59.9813 132.443 60.4055 132.398C60.9169 132.345 61.3317 132.297 61.6499 132.256C61.968 132.21 62.1991 132.142 62.343 132.051C62.4908 131.956 62.5646 131.811 62.5646 131.614V131.58C62.5646 131.152 62.4377 130.82 62.1839 130.585C61.9302 130.35 61.5646 130.233 61.0874 130.233C60.5836 130.233 60.1839 130.343 59.8885 130.562C59.5968 130.782 59.3999 131.042 59.2976 131.341L57.3771 131.068C57.5286 130.538 57.7786 130.095 58.1271 129.739C58.4756 129.379 58.9018 129.11 59.4055 128.932C59.9093 128.75 60.4661 128.659 61.076 128.659C61.4964 128.659 61.915 128.708 62.3317 128.807C62.7483 128.905 63.129 129.068 63.4737 129.295C63.8184 129.519 64.0949 129.824 64.3033 130.21C64.5154 130.597 64.6214 131.08 64.6214 131.659V137.5H62.6442V136.301H62.576C62.451 136.544 62.2749 136.771 62.0476 136.983C61.8241 137.191 61.5419 137.36 61.201 137.489C60.8639 137.614 60.468 137.676 60.0135 137.676ZM60.5476 136.165C60.9605 136.165 61.3184 136.083 61.6214 135.92C61.9245 135.754 62.1574 135.534 62.3203 135.261C62.487 134.989 62.5703 134.691 62.5703 134.369V133.341C62.5059 133.394 62.3961 133.443 62.2408 133.489C62.0893 133.534 61.9188 133.574 61.7294 133.608C61.54 133.642 61.3525 133.672 61.1669 133.699C60.9813 133.725 60.8203 133.748 60.6839 133.767C60.3771 133.809 60.1025 133.877 59.8601 133.972C59.6177 134.066 59.4264 134.199 59.2862 134.369C59.1461 134.536 59.076 134.752 59.076 135.017C59.076 135.396 59.2143 135.682 59.4908 135.875C59.7673 136.068 60.1196 136.165 60.5476 136.165ZM75.0163 128.773V130.364H69.9993V128.773H75.0163ZM71.2379 126.682H73.2947V134.875C73.2947 135.152 73.3364 135.364 73.4197 135.511C73.5069 135.655 73.6205 135.754 73.7607 135.807C73.9008 135.86 74.0561 135.886 74.2266 135.886C74.3554 135.886 74.4728 135.877 74.5788 135.858C74.6887 135.839 74.772 135.822 74.8288 135.807L75.1754 137.415C75.0656 137.453 74.9084 137.494 74.7038 137.54C74.5031 137.585 74.2569 137.612 73.9652 137.619C73.45 137.634 72.986 137.557 72.5732 137.386C72.1603 137.212 71.8326 136.943 71.5902 136.58C71.3516 136.216 71.2341 135.761 71.2379 135.216V126.682ZM80.5064 137.67C79.6314 137.67 78.8757 137.489 78.2393 137.125C77.6068 136.758 77.12 136.239 76.7791 135.568C76.4382 134.894 76.2678 134.1 76.2678 133.188C76.2678 132.29 76.4382 131.502 76.7791 130.824C77.1238 130.142 77.6049 129.612 78.2223 129.233C78.8397 128.85 79.5651 128.659 80.3984 128.659C80.9363 128.659 81.4439 128.746 81.9212 128.92C82.4022 129.091 82.8265 129.356 83.1939 129.716C83.5651 130.076 83.8568 130.534 84.0689 131.091C84.281 131.644 84.3871 132.303 84.3871 133.068V133.699H77.2337V132.312H82.4155C82.4117 131.919 82.3265 131.568 82.1598 131.261C81.9931 130.951 81.7602 130.706 81.4609 130.528C81.1655 130.35 80.8208 130.261 80.4268 130.261C80.0064 130.261 79.6371 130.364 79.3189 130.568C79.0007 130.769 78.7526 131.034 78.5746 131.364C78.4003 131.689 78.3113 132.047 78.3075 132.438V133.648C78.3075 134.155 78.4003 134.591 78.5859 134.955C78.7715 135.314 79.031 135.591 79.3643 135.784C79.6977 135.973 80.0878 136.068 80.5348 136.068C80.834 136.068 81.1049 136.027 81.3473 135.943C81.5897 135.856 81.8 135.729 81.978 135.562C82.156 135.396 82.2905 135.189 82.3814 134.943L84.3018 135.159C84.1806 135.667 83.9496 136.11 83.6087 136.489C83.2715 136.864 82.8397 137.155 82.3132 137.364C81.7867 137.568 81.1844 137.67 80.5064 137.67ZM86.1271 137.5V128.773H88.093V130.256H88.1953C88.3771 129.756 88.6783 129.366 89.0987 129.085C89.5192 128.801 90.0211 128.659 90.6044 128.659C91.1953 128.659 91.6934 128.803 92.0987 129.091C92.5078 129.375 92.7957 129.763 92.9624 130.256H93.0533C93.2464 129.771 93.5722 129.384 94.0305 129.097C94.4927 128.805 95.04 128.659 95.6726 128.659C96.4756 128.659 97.1309 128.913 97.6385 129.42C98.1461 129.928 98.3999 130.669 98.3999 131.642V137.5H96.3374V131.96C96.3374 131.419 96.1934 131.023 95.9055 130.773C95.6177 130.519 95.2654 130.392 94.8487 130.392C94.3525 130.392 93.9643 130.547 93.6839 130.858C93.4074 131.165 93.2692 131.564 93.2692 132.057V137.5H91.2521V131.875C91.2521 131.424 91.1158 131.064 90.843 130.795C90.5741 130.527 90.2218 130.392 89.7862 130.392C89.4908 130.392 89.2218 130.468 88.9794 130.619C88.737 130.767 88.5438 130.977 88.3999 131.25C88.2559 131.519 88.1839 131.833 88.1839 132.193V137.5H86.1271ZM100.487 140.773V128.773H102.509V130.216H102.629C102.735 130.004 102.884 129.778 103.077 129.54C103.271 129.297 103.532 129.091 103.862 128.92C104.191 128.746 104.612 128.659 105.123 128.659C105.797 128.659 106.405 128.831 106.947 129.176C107.492 129.517 107.924 130.023 108.242 130.693C108.564 131.36 108.725 132.178 108.725 133.148C108.725 134.106 108.568 134.92 108.254 135.591C107.939 136.261 107.511 136.773 106.969 137.125C106.428 137.477 105.814 137.653 105.129 137.653C104.629 137.653 104.214 137.57 103.884 137.403C103.555 137.237 103.29 137.036 103.089 136.801C102.892 136.562 102.738 136.337 102.629 136.125H102.543V140.773H100.487ZM102.504 133.136C102.504 133.701 102.583 134.195 102.742 134.619C102.905 135.044 103.138 135.375 103.441 135.614C103.748 135.848 104.119 135.966 104.555 135.966C105.009 135.966 105.39 135.845 105.697 135.602C106.004 135.356 106.235 135.021 106.39 134.597C106.549 134.169 106.629 133.682 106.629 133.136C106.629 132.595 106.551 132.114 106.396 131.693C106.24 131.273 106.009 130.943 105.702 130.705C105.396 130.466 105.013 130.347 104.555 130.347C104.115 130.347 103.742 130.462 103.435 130.693C103.129 130.924 102.896 131.248 102.737 131.665C102.581 132.081 102.504 132.572 102.504 133.136ZM112.543 125.864V137.5H110.487V125.864H112.543ZM117.17 137.676C116.617 137.676 116.119 137.578 115.675 137.381C115.236 137.18 114.888 136.884 114.63 136.494C114.376 136.104 114.249 135.623 114.249 135.051C114.249 134.559 114.34 134.152 114.522 133.83C114.704 133.508 114.952 133.25 115.266 133.057C115.581 132.864 115.935 132.718 116.329 132.619C116.727 132.517 117.138 132.443 117.562 132.398C118.073 132.345 118.488 132.297 118.806 132.256C119.124 132.21 119.355 132.142 119.499 132.051C119.647 131.956 119.721 131.811 119.721 131.614V131.58C119.721 131.152 119.594 130.82 119.34 130.585C119.086 130.35 118.721 130.233 118.244 130.233C117.74 130.233 117.34 130.343 117.045 130.562C116.753 130.782 116.556 131.042 116.454 131.341L114.533 131.068C114.685 130.538 114.935 130.095 115.283 129.739C115.632 129.379 116.058 129.11 116.562 128.932C117.066 128.75 117.622 128.659 118.232 128.659C118.653 128.659 119.071 128.708 119.488 128.807C119.905 128.905 120.285 129.068 120.63 129.295C120.975 129.519 121.251 129.824 121.46 130.21C121.672 130.597 121.778 131.08 121.778 131.659V137.5H119.8V136.301H119.732C119.607 136.544 119.431 136.771 119.204 136.983C118.98 137.191 118.698 137.36 118.357 137.489C118.02 137.614 117.624 137.676 117.17 137.676ZM117.704 136.165C118.117 136.165 118.475 136.083 118.778 135.92C119.081 135.754 119.314 135.534 119.477 135.261C119.643 134.989 119.727 134.691 119.727 134.369V133.341C119.662 133.394 119.552 133.443 119.397 133.489C119.246 133.534 119.075 133.574 118.886 133.608C118.696 133.642 118.509 133.672 118.323 133.699C118.138 133.725 117.977 133.748 117.84 133.767C117.533 133.809 117.259 133.877 117.016 133.972C116.774 134.066 116.583 134.199 116.442 134.369C116.302 134.536 116.232 134.752 116.232 135.017C116.232 135.396 116.371 135.682 116.647 135.875C116.924 136.068 117.276 136.165 117.704 136.165ZM128.204 128.773V130.364H123.187V128.773H128.204ZM124.425 126.682H126.482V134.875C126.482 135.152 126.524 135.364 126.607 135.511C126.694 135.655 126.808 135.754 126.948 135.807C127.088 135.86 127.244 135.886 127.414 135.886C127.543 135.886 127.66 135.877 127.766 135.858C127.876 135.839 127.96 135.822 128.016 135.807L128.363 137.415C128.253 137.453 128.096 137.494 127.891 137.54C127.691 137.585 127.444 137.612 127.153 137.619C126.638 137.634 126.174 137.557 125.761 137.386C125.348 137.212 125.02 136.943 124.778 136.58C124.539 136.216 124.422 135.761 124.425 135.216V126.682ZM133.694 137.67C132.819 137.67 132.063 137.489 131.427 137.125C130.794 136.758 130.308 136.239 129.967 135.568C129.626 134.894 129.455 134.1 129.455 133.188C129.455 132.29 129.626 131.502 129.967 130.824C130.311 130.142 130.792 129.612 131.41 129.233C132.027 128.85 132.753 128.659 133.586 128.659C134.124 128.659 134.631 128.746 135.109 128.92C135.59 129.091 136.014 129.356 136.381 129.716C136.753 130.076 137.044 130.534 137.256 131.091C137.469 131.644 137.575 132.303 137.575 133.068V133.699H130.421V132.312H135.603C135.599 131.919 135.514 131.568 135.347 131.261C135.181 130.951 134.948 130.706 134.648 130.528C134.353 130.35 134.008 130.261 133.614 130.261C133.194 130.261 132.825 130.364 132.506 130.568C132.188 130.769 131.94 131.034 131.762 131.364C131.588 131.689 131.499 132.047 131.495 132.438V133.648C131.495 134.155 131.588 134.591 131.773 134.955C131.959 135.314 132.219 135.591 132.552 135.784C132.885 135.973 133.275 136.068 133.722 136.068C134.022 136.068 134.292 136.027 134.535 135.943C134.777 135.856 134.987 135.729 135.165 135.562C135.344 135.396 135.478 135.189 135.569 134.943L137.489 135.159C137.368 135.667 137.137 136.11 136.796 136.489C136.459 136.864 136.027 137.155 135.501 137.364C134.974 137.568 134.372 137.67 133.694 137.67ZM147.704 128.773V130.364H142.545V128.773H147.704ZM143.835 137.5V127.949C143.835 127.362 143.956 126.873 144.198 126.483C144.444 126.093 144.774 125.801 145.187 125.608C145.6 125.415 146.058 125.318 146.562 125.318C146.918 125.318 147.234 125.347 147.511 125.403C147.787 125.46 147.992 125.511 148.124 125.557L147.715 127.148C147.628 127.121 147.518 127.095 147.386 127.068C147.253 127.038 147.105 127.023 146.942 127.023C146.56 127.023 146.289 127.116 146.13 127.301C145.975 127.483 145.897 127.744 145.897 128.085V137.5H143.835ZM152.793 137.67C151.941 137.67 151.202 137.483 150.577 137.108C149.952 136.733 149.468 136.208 149.123 135.534C148.782 134.86 148.612 134.072 148.612 133.17C148.612 132.269 148.782 131.479 149.123 130.801C149.468 130.123 149.952 129.597 150.577 129.222C151.202 128.847 151.941 128.659 152.793 128.659C153.646 128.659 154.384 128.847 155.009 129.222C155.634 129.597 156.117 130.123 156.458 130.801C156.803 131.479 156.975 132.269 156.975 133.17C156.975 134.072 156.803 134.86 156.458 135.534C156.117 136.208 155.634 136.733 155.009 137.108C154.384 137.483 153.646 137.67 152.793 137.67ZM152.805 136.023C153.267 136.023 153.653 135.896 153.964 135.642C154.274 135.384 154.505 135.04 154.657 134.608C154.812 134.176 154.89 133.695 154.89 133.165C154.89 132.631 154.812 132.148 154.657 131.716C154.505 131.28 154.274 130.934 153.964 130.676C153.653 130.419 153.267 130.29 152.805 130.29C152.331 130.29 151.937 130.419 151.623 130.676C151.312 130.934 151.079 131.28 150.924 131.716C150.772 132.148 150.697 132.631 150.697 133.165C150.697 133.695 150.772 134.176 150.924 134.608C151.079 135.04 151.312 135.384 151.623 135.642C151.937 135.896 152.331 136.023 152.805 136.023ZM158.721 137.5V128.773H160.715V130.227H160.806C160.965 129.723 161.238 129.335 161.624 129.062C162.014 128.786 162.46 128.648 162.96 128.648C163.073 128.648 163.2 128.653 163.34 128.665C163.484 128.672 163.603 128.686 163.698 128.705V130.597C163.611 130.566 163.473 130.54 163.283 130.517C163.098 130.491 162.918 130.477 162.744 130.477C162.369 130.477 162.031 130.559 161.732 130.722C161.437 130.881 161.204 131.102 161.033 131.386C160.863 131.67 160.778 131.998 160.778 132.369V137.5H158.721ZM170.312 140.773C170.031 140.773 169.772 140.75 169.533 140.705C169.299 140.663 169.111 140.614 168.971 140.557L169.448 138.955C169.747 139.042 170.014 139.083 170.249 139.08C170.484 139.076 170.691 139.002 170.869 138.858C171.05 138.718 171.204 138.483 171.329 138.153L171.505 137.682L168.34 128.773H170.522L172.533 135.364H172.624L174.641 128.773H176.829L173.335 138.557C173.172 139.019 172.956 139.415 172.687 139.744C172.418 140.078 172.088 140.331 171.698 140.506C171.312 140.684 170.85 140.773 170.312 140.773ZM181.762 137.67C180.91 137.67 180.171 137.483 179.546 137.108C178.921 136.733 178.436 136.208 178.092 135.534C177.751 134.86 177.58 134.072 177.58 133.17C177.58 132.269 177.751 131.479 178.092 130.801C178.436 130.123 178.921 129.597 179.546 129.222C180.171 128.847 180.91 128.659 181.762 128.659C182.614 128.659 183.353 128.847 183.978 129.222C184.603 129.597 185.086 130.123 185.427 130.801C185.772 131.479 185.944 132.269 185.944 133.17C185.944 134.072 185.772 134.86 185.427 135.534C185.086 136.208 184.603 136.733 183.978 137.108C183.353 137.483 182.614 137.67 181.762 137.67ZM181.773 136.023C182.236 136.023 182.622 135.896 182.933 135.642C183.243 135.384 183.474 135.04 183.626 134.608C183.781 134.176 183.859 133.695 183.859 133.165C183.859 132.631 183.781 132.148 183.626 131.716C183.474 131.28 183.243 130.934 182.933 130.676C182.622 130.419 182.236 130.29 181.773 130.29C181.3 130.29 180.906 130.419 180.592 130.676C180.281 130.934 180.048 131.28 179.893 131.716C179.741 132.148 179.665 132.631 179.665 133.165C179.665 133.695 179.741 134.176 179.893 134.608C180.048 135.04 180.281 135.384 180.592 135.642C180.906 135.896 181.3 136.023 181.773 136.023ZM193.252 133.83V128.773H195.309V137.5H193.315V135.949H193.224C193.027 136.437 192.703 136.837 192.252 137.148C191.805 137.458 191.254 137.614 190.599 137.614C190.027 137.614 189.521 137.487 189.082 137.233C188.646 136.975 188.305 136.602 188.059 136.114C187.813 135.621 187.69 135.027 187.69 134.33V128.773H189.746V134.011C189.746 134.564 189.898 135.004 190.201 135.33C190.504 135.655 190.902 135.818 191.394 135.818C191.697 135.818 191.991 135.744 192.275 135.597C192.559 135.449 192.792 135.229 192.974 134.938C193.159 134.642 193.252 134.273 193.252 133.83ZM197.424 137.5V128.773H199.418V130.227H199.509C199.668 129.723 199.941 129.335 200.327 129.062C200.718 128.786 201.163 128.648 201.663 128.648C201.776 128.648 201.903 128.653 202.043 128.665C202.187 128.672 202.307 128.686 202.401 128.705V130.597C202.314 130.566 202.176 130.54 201.987 130.517C201.801 130.491 201.621 130.477 201.447 130.477C201.072 130.477 200.735 130.559 200.435 130.722C200.14 130.881 199.907 131.102 199.737 131.386C199.566 131.67 199.481 131.998 199.481 132.369V137.5H197.424ZM207.737 137.5V128.773H209.702V130.256H209.805C209.987 129.756 210.288 129.366 210.708 129.085C211.129 128.801 211.63 128.659 212.214 128.659C212.805 128.659 213.303 128.803 213.708 129.091C214.117 129.375 214.405 129.763 214.572 130.256H214.663C214.856 129.771 215.182 129.384 215.64 129.097C216.102 128.805 216.649 128.659 217.282 128.659C218.085 128.659 218.74 128.913 219.248 129.42C219.755 129.928 220.009 130.669 220.009 131.642V137.5H217.947V131.96C217.947 131.419 217.803 131.023 217.515 130.773C217.227 130.519 216.875 130.392 216.458 130.392C215.962 130.392 215.574 130.547 215.293 130.858C215.017 131.165 214.879 131.564 214.879 132.057V137.5H212.862V131.875C212.862 131.424 212.725 131.064 212.452 130.795C212.183 130.527 211.831 130.392 211.396 130.392C211.1 130.392 210.831 130.468 210.589 130.619C210.346 130.767 210.153 130.977 210.009 131.25C209.865 131.519 209.793 131.833 209.793 132.193V137.5H207.737ZM225.96 137.67C225.085 137.67 224.329 137.489 223.692 137.125C223.06 136.758 222.573 136.239 222.232 135.568C221.891 134.894 221.721 134.1 221.721 133.188C221.721 132.29 221.891 131.502 222.232 130.824C222.577 130.142 223.058 129.612 223.675 129.233C224.293 128.85 225.018 128.659 225.852 128.659C226.389 128.659 226.897 128.746 227.374 128.92C227.855 129.091 228.28 129.356 228.647 129.716C229.018 130.076 229.31 130.534 229.522 131.091C229.734 131.644 229.84 132.303 229.84 133.068V133.699H222.687V132.312H227.869C227.865 131.919 227.78 131.568 227.613 131.261C227.446 130.951 227.213 130.706 226.914 130.528C226.619 130.35 226.274 130.261 225.88 130.261C225.46 130.261 225.09 130.364 224.772 130.568C224.454 130.769 224.206 131.034 224.028 131.364C223.853 131.689 223.764 132.047 223.761 132.438V133.648C223.761 134.155 223.853 134.591 224.039 134.955C224.225 135.314 224.484 135.591 224.817 135.784C225.151 135.973 225.541 136.068 225.988 136.068C226.287 136.068 226.558 136.027 226.8 135.943C227.043 135.856 227.253 135.729 227.431 135.562C227.609 135.396 227.744 135.189 227.835 134.943L229.755 135.159C229.634 135.667 229.403 136.11 229.062 136.489C228.725 136.864 228.293 137.155 227.766 137.364C227.24 137.568 226.638 137.67 225.96 137.67ZM238.478 131.08L236.603 131.284C236.55 131.095 236.457 130.917 236.325 130.75C236.196 130.583 236.022 130.449 235.802 130.347C235.582 130.244 235.313 130.193 234.995 130.193C234.567 130.193 234.207 130.286 233.915 130.472C233.628 130.657 233.486 130.898 233.489 131.193C233.486 131.447 233.578 131.653 233.768 131.812C233.961 131.972 234.279 132.102 234.722 132.205L236.211 132.523C237.037 132.701 237.65 132.983 238.052 133.369C238.457 133.756 238.662 134.261 238.665 134.886C238.662 135.436 238.501 135.92 238.183 136.341C237.868 136.758 237.431 137.083 236.87 137.318C236.309 137.553 235.665 137.67 234.938 137.67C233.87 137.67 233.01 137.447 232.359 137C231.707 136.549 231.319 135.922 231.194 135.119L233.2 134.926C233.29 135.32 233.484 135.617 233.779 135.818C234.075 136.019 234.459 136.119 234.933 136.119C235.421 136.119 235.813 136.019 236.109 135.818C236.408 135.617 236.558 135.369 236.558 135.074C236.558 134.824 236.461 134.617 236.268 134.455C236.078 134.292 235.783 134.167 235.381 134.08L233.893 133.767C233.056 133.593 232.436 133.299 232.035 132.886C231.633 132.47 231.434 131.943 231.438 131.307C231.434 130.769 231.58 130.303 231.876 129.909C232.175 129.511 232.59 129.205 233.12 128.989C233.654 128.769 234.27 128.659 234.967 128.659C235.989 128.659 236.794 128.877 237.381 129.312C237.972 129.748 238.338 130.337 238.478 131.08ZM247.259 131.08L245.384 131.284C245.331 131.095 245.238 130.917 245.106 130.75C244.977 130.583 244.803 130.449 244.583 130.347C244.363 130.244 244.094 130.193 243.776 130.193C243.348 130.193 242.988 130.286 242.697 130.472C242.409 130.657 242.267 130.898 242.271 131.193C242.267 131.447 242.36 131.653 242.549 131.812C242.742 131.972 243.06 132.102 243.504 132.205L244.992 132.523C245.818 132.701 246.432 132.983 246.833 133.369C247.238 133.756 247.443 134.261 247.447 134.886C247.443 135.436 247.282 135.92 246.964 136.341C246.649 136.758 246.212 137.083 245.651 137.318C245.091 137.553 244.447 137.67 243.719 137.67C242.651 137.67 241.791 137.447 241.14 137C240.488 136.549 240.1 135.922 239.975 135.119L241.981 134.926C242.072 135.32 242.265 135.617 242.56 135.818C242.856 136.019 243.24 136.119 243.714 136.119C244.202 136.119 244.594 136.019 244.89 135.818C245.189 135.617 245.339 135.369 245.339 135.074C245.339 134.824 245.242 134.617 245.049 134.455C244.86 134.292 244.564 134.167 244.163 134.08L242.674 133.767C241.837 133.593 241.218 133.299 240.816 132.886C240.415 132.47 240.216 131.943 240.219 131.307C240.216 130.769 240.362 130.303 240.657 129.909C240.956 129.511 241.371 129.205 241.901 128.989C242.435 128.769 243.051 128.659 243.748 128.659C244.771 128.659 245.576 128.877 246.163 129.312C246.754 129.748 247.119 130.337 247.259 131.08ZM251.654 137.676C251.101 137.676 250.603 137.578 250.16 137.381C249.72 137.18 249.372 136.884 249.114 136.494C248.861 136.104 248.734 135.623 248.734 135.051C248.734 134.559 248.825 134.152 249.006 133.83C249.188 133.508 249.436 133.25 249.751 133.057C250.065 132.864 250.419 132.718 250.813 132.619C251.211 132.517 251.622 132.443 252.046 132.398C252.558 132.345 252.972 132.297 253.29 132.256C253.609 132.21 253.84 132.142 253.984 132.051C254.131 131.956 254.205 131.811 254.205 131.614V131.58C254.205 131.152 254.078 130.82 253.825 130.585C253.571 130.35 253.205 130.233 252.728 130.233C252.224 130.233 251.825 130.343 251.529 130.562C251.237 130.782 251.04 131.042 250.938 131.341L249.018 131.068C249.169 130.538 249.419 130.095 249.768 129.739C250.116 129.379 250.542 129.11 251.046 128.932C251.55 128.75 252.107 128.659 252.717 128.659C253.137 128.659 253.556 128.708 253.972 128.807C254.389 128.905 254.77 129.068 255.114 129.295C255.459 129.519 255.736 129.824 255.944 130.21C256.156 130.597 256.262 131.08 256.262 131.659V137.5H254.285V136.301H254.217C254.092 136.544 253.915 136.771 253.688 136.983C253.465 137.191 253.183 137.36 252.842 137.489C252.504 137.614 252.109 137.676 251.654 137.676ZM252.188 136.165C252.601 136.165 252.959 136.083 253.262 135.92C253.565 135.754 253.798 135.534 253.961 135.261C254.128 134.989 254.211 134.691 254.211 134.369V133.341C254.147 133.394 254.037 133.443 253.881 133.489C253.73 133.534 253.559 133.574 253.37 133.608C253.181 133.642 252.993 133.672 252.808 133.699C252.622 133.725 252.461 133.748 252.325 133.767C252.018 133.809 251.743 133.877 251.501 133.972C251.258 134.066 251.067 134.199 250.927 134.369C250.787 134.536 250.717 134.752 250.717 135.017C250.717 135.396 250.855 135.682 251.131 135.875C251.408 136.068 251.76 136.165 252.188 136.165ZM262.126 140.955C261.387 140.955 260.753 140.854 260.222 140.653C259.692 140.456 259.266 140.191 258.944 139.858C258.622 139.525 258.398 139.155 258.273 138.75L260.126 138.301C260.209 138.472 260.33 138.64 260.489 138.807C260.648 138.977 260.862 139.117 261.131 139.227C261.404 139.341 261.747 139.398 262.16 139.398C262.743 139.398 263.226 139.256 263.609 138.972C263.991 138.691 264.183 138.229 264.183 137.585V135.932H264.08C263.974 136.144 263.819 136.362 263.614 136.585C263.414 136.809 263.147 136.996 262.813 137.148C262.484 137.299 262.069 137.375 261.569 137.375C260.898 137.375 260.29 137.218 259.745 136.903C259.203 136.585 258.772 136.112 258.45 135.483C258.131 134.85 257.972 134.059 257.972 133.108C257.972 132.15 258.131 131.341 258.45 130.682C258.772 130.019 259.205 129.517 259.751 129.176C260.296 128.831 260.904 128.659 261.575 128.659C262.086 128.659 262.506 128.746 262.836 128.92C263.169 129.091 263.434 129.297 263.631 129.54C263.828 129.778 263.978 130.004 264.08 130.216H264.194V128.773H266.222V137.642C266.222 138.388 266.044 139.006 265.688 139.494C265.332 139.983 264.845 140.348 264.228 140.591C263.611 140.833 262.91 140.955 262.126 140.955ZM262.143 135.761C262.578 135.761 262.95 135.655 263.256 135.443C263.563 135.231 263.796 134.926 263.955 134.528C264.114 134.131 264.194 133.653 264.194 133.097C264.194 132.547 264.114 132.066 263.955 131.653C263.8 131.241 263.569 130.92 263.262 130.693C262.959 130.462 262.586 130.347 262.143 130.347C261.684 130.347 261.302 130.466 260.995 130.705C260.688 130.943 260.457 131.271 260.302 131.688C260.147 132.1 260.069 132.57 260.069 133.097C260.069 133.631 260.147 134.098 260.302 134.5C260.461 134.898 260.694 135.208 261.001 135.432C261.311 135.652 261.692 135.761 262.143 135.761ZM272.194 137.67C271.319 137.67 270.563 137.489 269.927 137.125C269.294 136.758 268.808 136.239 268.467 135.568C268.126 134.894 267.955 134.1 267.955 133.188C267.955 132.29 268.126 131.502 268.467 130.824C268.811 130.142 269.292 129.612 269.91 129.233C270.527 128.85 271.253 128.659 272.086 128.659C272.624 128.659 273.131 128.746 273.609 128.92C274.09 129.091 274.514 129.356 274.881 129.716C275.253 130.076 275.544 130.534 275.756 131.091C275.969 131.644 276.075 132.303 276.075 133.068V133.699H268.921V132.312H274.103C274.099 131.919 274.014 131.568 273.847 131.261C273.681 130.951 273.448 130.706 273.148 130.528C272.853 130.35 272.508 130.261 272.114 130.261C271.694 130.261 271.325 130.364 271.006 130.568C270.688 130.769 270.44 131.034 270.262 131.364C270.088 131.689 269.999 132.047 269.995 132.438V133.648C269.995 134.155 270.088 134.591 270.273 134.955C270.459 135.314 270.719 135.591 271.052 135.784C271.385 135.973 271.775 136.068 272.222 136.068C272.522 136.068 272.792 136.027 273.035 135.943C273.277 135.856 273.487 135.729 273.665 135.562C273.844 135.396 273.978 135.189 274.069 134.943L275.989 135.159C275.868 135.667 275.637 136.11 275.296 136.489C274.959 136.864 274.527 137.155 274.001 137.364C273.474 137.568 272.872 137.67 272.194 137.67ZM284.712 131.08L282.837 131.284C282.784 131.095 282.692 130.917 282.559 130.75C282.43 130.583 282.256 130.449 282.036 130.347C281.817 130.244 281.548 130.193 281.229 130.193C280.801 130.193 280.442 130.286 280.15 130.472C279.862 130.657 279.72 130.898 279.724 131.193C279.72 131.447 279.813 131.653 280.002 131.812C280.195 131.972 280.513 132.102 280.957 132.205L282.445 132.523C283.271 132.701 283.885 132.983 284.286 133.369C284.692 133.756 284.896 134.261 284.9 134.886C284.896 135.436 284.735 135.92 284.417 136.341C284.103 136.758 283.665 137.083 283.104 137.318C282.544 137.553 281.9 137.67 281.173 137.67C280.104 137.67 279.245 137.447 278.593 137C277.942 136.549 277.553 135.922 277.428 135.119L279.434 134.926C279.525 135.32 279.718 135.617 280.013 135.818C280.309 136.019 280.693 136.119 281.167 136.119C281.656 136.119 282.048 136.019 282.343 135.818C282.642 135.617 282.792 135.369 282.792 135.074C282.792 134.824 282.695 134.617 282.502 134.455C282.313 134.292 282.017 134.167 281.616 134.08L280.127 133.767C279.29 133.593 278.671 133.299 278.269 132.886C277.868 132.47 277.669 131.943 277.673 131.307C277.669 130.769 277.815 130.303 278.11 129.909C278.409 129.511 278.824 129.205 279.354 128.989C279.888 128.769 280.504 128.659 281.201 128.659C282.224 128.659 283.029 128.877 283.616 129.312C284.207 129.748 284.572 130.337 284.712 131.08Z" fill="#4B5563"/>
</g>
<defs>
<clipPath id="clip0_4814_85400">
<rect width="286" height="143" fill="white" transform="translate(0 0.5)"/>
</clipPath>
</defs>
</svg>
