<svg width="134" height="120" viewBox="0 0 134 120" fill="none" xmlns="http://www.w3.org/2000/svg">
<circle cx="60.5" cy="60" r="60" fill="#F3F4F6"/>
<path d="M133.5 42.2812L27.6957 57.5135L13.4984 71.8407L133.5 42.2812Z" fill="#6366F1"/>
<path opacity="0.6" d="M133.5 42.2812L27.6957 57.5135L13.4984 71.8407L133.5 42.2812Z" fill="white"/>
<path d="M133.5 42.2812L27.6957 57.5135L32.606 78.2316L133.5 42.2812Z" fill="#6366F1"/>
<path opacity="0.2" d="M133.5 42.2812L27.6957 57.5135L32.606 78.2316L133.5 42.2812Z" fill="black"/>
<path d="M34.7838 18.295L28.6435 47.0701C28.4838 47.8215 28.6287 48.6056 29.0463 49.2503C29.4639 49.895 30.1203 50.3478 30.8713 50.5092L85.674 62.2049C86.4253 62.3634 87.2087 62.218 87.8531 61.8005C88.4976 61.3831 88.9505 60.7276 89.1131 59.9772L95.258 31.202C95.4163 30.4501 95.2703 29.6661 94.8519 29.0215C94.4335 28.377 93.7768 27.9244 93.0256 27.7629L38.2229 16.0672C37.4709 15.9089 36.6869 16.0549 36.0424 16.4733C35.3978 16.8917 34.9453 17.5484 34.7838 18.2996V18.295Z" fill="#FDE047"/>
<path opacity="0.3" d="M34.7838 18.295L28.6435 47.0701C28.4838 47.8215 28.6287 48.6056 29.0463 49.2503C29.4639 49.895 30.1203 50.3478 30.8713 50.5092L85.674 62.2049C86.4253 62.3634 87.2087 62.218 87.8531 61.8005C88.4976 61.3831 88.9505 60.7276 89.1131 59.9772L95.258 31.202C95.4163 30.4501 95.2703 29.6661 94.8519 29.0215C94.4335 28.377 93.7768 27.9244 93.0256 27.7629L38.2229 16.0672C37.4709 15.9089 36.6869 16.0549 36.0424 16.4733C35.3978 16.8917 34.9453 17.5484 34.7838 18.2996V18.295Z" fill="black"/>
<path d="M36.1296 16.4114L54.4389 38.8885C56.1369 40.9725 58.4955 42.4143 61.1244 42.9755C63.7533 43.5368 66.4951 43.1838 68.8961 41.9749L94.7891 28.9333C94.3701 28.3315 93.7379 27.9117 93.0208 27.7591L38.2181 16.0634C37.5029 15.9111 36.7567 16.0355 36.1296 16.4114Z" fill="#FDE047"/>
<path d="M133.5 42.2812L46.2324 63.0226L32.606 78.2316L133.5 42.2812Z" fill="#6366F1"/>
<path opacity="0.6" d="M133.5 42.2812L46.2324 63.0226L32.606 78.2316L133.5 42.2812Z" fill="white"/>
<path d="M101.664 62.2734L101.898 62.6738L92.1871 68.3624L91.9525 67.9619L101.664 62.2734Z" fill="#6366F1"/>
<path d="M87.6795 70.4687L87.9141 70.8691L84.422 72.9147L84.1874 72.5142L87.6795 70.4687Z" fill="#6366F1"/>
<path d="M133.5 42.2812L46.2325 63.0226L63.1959 83.4668L133.5 42.2812Z" fill="#6366F1"/>
<path d="M16.7702 90.8738C16.8878 90.8741 17.0043 90.852 17.1137 90.8088L31.3249 85.1838C31.5522 85.0922 31.7341 84.9144 31.8309 84.6892C31.9276 84.4639 31.9314 84.2096 31.8413 83.9816C31.7512 83.7537 31.5746 83.5706 31.35 83.4723C31.1255 83.3741 30.8712 83.3687 30.6426 83.4573L16.4268 89.0823C16.2256 89.1618 16.0586 89.309 15.9545 89.4985C15.8503 89.688 15.8156 89.908 15.8563 90.1204C15.897 90.3327 16.0106 90.5242 16.1775 90.6618C16.3443 90.7994 16.554 90.8743 16.7702 90.8738Z" fill="#6366F1"/>
<path opacity="0.3" d="M16.7702 90.8738C16.8878 90.8741 17.0043 90.852 17.1137 90.8088L31.3249 85.1838C31.5522 85.0922 31.7341 84.9144 31.8309 84.6892C31.9276 84.4639 31.9314 84.2096 31.8413 83.9816C31.7512 83.7537 31.5746 83.5706 31.35 83.4723C31.1255 83.3741 30.8712 83.3687 30.6426 83.4573L16.4268 89.0823C16.2256 89.1618 16.0586 89.309 15.9545 89.4985C15.8503 89.688 15.8156 89.908 15.8563 90.1204C15.897 90.3327 16.0106 90.5242 16.1775 90.6618C16.3443 90.7994 16.554 90.8743 16.7702 90.8738Z" fill="black"/>
<path d="M17.6134 82.7236C17.7298 82.7229 17.8449 82.6992 17.9522 82.654L25.5869 79.6141C25.701 79.5698 25.8053 79.5034 25.8937 79.4187C25.982 79.3341 26.0528 79.2327 26.1019 79.1206C26.1509 79.0084 26.1773 78.8877 26.1795 78.7653C26.1817 78.6429 26.1597 78.5213 26.1147 78.4074C26.0697 78.2936 26.0027 78.1897 25.9174 78.1019C25.8321 78.0141 25.7303 77.944 25.6178 77.8957C25.5054 77.8474 25.3844 77.8218 25.262 77.8204C25.1396 77.819 25.0182 77.8418 24.9046 77.8875L17.2699 80.9136C17.0411 81.0036 16.8574 81.1808 16.7591 81.4061C16.6608 81.6315 16.6559 81.8867 16.7455 82.1156C16.8108 82.2934 16.929 82.447 17.0841 82.5556C17.2393 82.6643 17.424 82.7229 17.6134 82.7236Z" fill="#6366F1"/>
<path opacity="0.5" d="M17.6134 82.7236C17.7298 82.7229 17.8449 82.6992 17.9522 82.654L25.5869 79.6141C25.701 79.5698 25.8053 79.5034 25.8937 79.4187C25.982 79.3341 26.0528 79.2327 26.1019 79.1206C26.1509 79.0084 26.1773 78.8877 26.1795 78.7653C26.1817 78.6429 26.1597 78.5213 26.1147 78.4074C26.0697 78.2936 26.0027 78.1897 25.9174 78.1019C25.8321 78.0141 25.7303 77.944 25.6178 77.8957C25.5054 77.8474 25.3844 77.8218 25.262 77.8204C25.1396 77.819 25.0182 77.8418 24.9046 77.8875L17.2699 80.9136C17.0411 81.0036 16.8574 81.1808 16.7591 81.4061C16.6608 81.6315 16.6559 81.8867 16.7455 82.1156C16.8108 82.2934 16.929 82.447 17.0841 82.5556C17.2393 82.6643 17.424 82.7229 17.6134 82.7236Z" fill="white"/>
<path d="M33.5724 90.7537C33.6883 90.7524 33.8031 90.7304 33.9113 90.6888L47.7744 85.1844C47.8885 85.1401 47.9928 85.0738 48.0812 84.9891C48.1696 84.9044 48.2403 84.803 48.2894 84.6909C48.3384 84.5787 48.3648 84.458 48.367 84.3356C48.3692 84.2132 48.3472 84.0916 48.3022 83.9777C48.2572 83.8639 48.1902 83.7601 48.1049 83.6722C48.0196 83.5844 47.9178 83.5143 47.8053 83.466C47.6929 83.4177 47.572 83.3921 47.4495 83.3907C47.3271 83.3893 47.2057 83.4121 47.0921 83.4579L33.229 88.9437C33.0279 89.0232 32.8608 89.1704 32.7567 89.3599C32.6525 89.5494 32.6178 89.7693 32.6586 89.9817C32.6993 90.1941 32.8128 90.3856 32.9797 90.5232C33.1466 90.6607 33.3562 90.7357 33.5724 90.7352V90.7537Z" fill="#6366F1"/>
<path opacity="0.3" d="M33.5724 90.7537C33.6883 90.7524 33.8031 90.7304 33.9113 90.6888L47.7744 85.1844C47.8885 85.1401 47.9928 85.0738 48.0812 84.9891C48.1696 84.9044 48.2403 84.803 48.2894 84.6909C48.3384 84.5787 48.3648 84.458 48.367 84.3356C48.3692 84.2132 48.3472 84.0916 48.3022 83.9777C48.2572 83.8639 48.1902 83.7601 48.1049 83.6722C48.0196 83.5844 47.9178 83.5143 47.8053 83.466C47.6929 83.4177 47.572 83.3921 47.4495 83.3907C47.3271 83.3893 47.2057 83.4121 47.0921 83.4579L33.229 88.9437C33.0279 89.0232 32.8608 89.1704 32.7567 89.3599C32.6525 89.5494 32.6178 89.7693 32.6586 89.9817C32.6993 90.1941 32.8128 90.3856 32.9797 90.5232C33.1466 90.6607 33.3562 90.7357 33.5724 90.7352V90.7537Z" fill="black"/>
</svg>
