<svg width="16" height="16" viewBox="0 0 16 16" fill="none" xmlns="http://www.w3.org/2000/svg">
<g clip-path="url(#clip0_2975_24823)">
<path d="M13.5734 11.358C13.1264 10.9107 12.6041 10.5456 12.0305 10.2794C12.8394 9.62408 13.3555 8.62408 13.3555 7.50265C13.3555 5.52408 11.7055 3.90087 9.72694 3.93122C7.77873 3.96158 6.20908 5.54908 6.20908 7.50265C6.20908 8.62408 6.72694 9.62408 7.53409 10.2794C6.96035 10.5454 6.43805 10.9105 5.99123 11.358C5.01623 12.3348 4.46266 13.6241 4.42694 14.9991C4.42647 15.0181 4.42981 15.0371 4.43677 15.0548C4.44374 15.0726 4.45419 15.0888 4.4675 15.1024C4.48081 15.1161 4.49672 15.1269 4.51429 15.1343C4.53186 15.1417 4.55073 15.1455 4.5698 15.1455H5.5698C5.64658 15.1455 5.71087 15.0848 5.71266 15.008C5.74658 13.9723 6.16623 13.0027 6.90373 12.2669C7.28112 11.8875 7.73001 11.5868 8.22443 11.382C8.71884 11.1773 9.24895 11.0726 9.78409 11.0741C10.8716 11.0741 11.8948 11.4973 12.6644 12.2669C13.4002 13.0027 13.8198 13.9723 13.8555 15.008C13.8573 15.0848 13.9216 15.1455 13.9984 15.1455H14.9984C15.0174 15.1455 15.0363 15.1417 15.0539 15.1343C15.0714 15.1269 15.0874 15.1161 15.1007 15.1024C15.114 15.0888 15.1244 15.0726 15.1314 15.0548C15.1384 15.0371 15.1417 15.0181 15.1412 14.9991C15.1055 13.6241 14.5519 12.3348 13.5734 11.358ZM9.78409 9.78837C9.17337 9.78837 8.59837 9.55087 8.16801 9.11872C7.95204 8.90445 7.78143 8.64887 7.66638 8.36722C7.55133 8.08558 7.49419 7.78365 7.49837 7.47944C7.50373 6.89372 7.73766 6.32765 8.14658 5.90801C8.57516 5.46872 9.14837 5.22408 9.76087 5.21694C10.3662 5.21158 10.9537 5.44729 11.3859 5.87051C11.8287 6.30444 12.0716 6.8848 12.0716 7.50265C12.0716 8.11337 11.8341 8.68658 11.4019 9.11872C11.1899 9.33175 10.9378 9.50062 10.6601 9.61557C10.3824 9.73051 10.0846 9.78924 9.78409 9.78837ZM5.31087 7.97408C5.2948 7.81872 5.28587 7.66158 5.28587 7.50265C5.28587 7.21872 5.31266 6.94194 5.36266 6.6723C5.37516 6.60801 5.34123 6.54194 5.2823 6.51515C5.03944 6.40622 4.81623 6.25622 4.62337 6.06694C4.39612 5.84659 4.2173 5.5813 4.09831 5.28798C3.97932 4.99466 3.92278 4.67976 3.9323 4.36337C3.94837 3.79015 4.17873 3.24551 4.58051 2.83479C5.02158 2.38301 5.61444 2.13658 6.2448 2.14372C6.81444 2.14908 7.36444 2.36872 7.78051 2.75801C7.92159 2.89015 8.04301 3.03658 8.1448 3.19372C8.18051 3.24908 8.25016 3.27229 8.31087 3.25087C8.62516 3.14194 8.9573 3.06515 9.29837 3.02944C9.39837 3.01872 9.45551 2.91158 9.41087 2.82229C8.83051 1.67408 7.6448 0.881223 6.27337 0.859794C4.29301 0.829437 2.64301 2.45265 2.64301 4.42944C2.64301 5.55087 3.15908 6.55087 3.96801 7.20622C3.40016 7.46872 2.87694 7.83122 2.42337 8.28479C1.4448 9.26158 0.891228 10.5509 0.855513 11.9277C0.855037 11.9467 0.85838 11.9657 0.865345 11.9834C0.872311 12.0012 0.882758 12.0173 0.896071 12.031C0.909385 12.0446 0.925295 12.0555 0.942864 12.0629C0.960433 12.0703 0.979306 12.0741 0.998371 12.0741H2.00016C2.07694 12.0741 2.14123 12.0134 2.14301 11.9366C2.17694 10.9009 2.59659 9.93122 3.33408 9.19551C3.85909 8.67051 4.50194 8.30622 5.20373 8.12944C5.27337 8.11158 5.3198 8.04551 5.31087 7.97408Z" fill="#111827"/>
</g>
<defs>
<clipPath id="clip0_2975_24823">
<rect width="16" height="16" fill="white"/>
</clipPath>
</defs>
</svg>
