<svg width="16" height="12" viewBox="0 0 16 12" fill="none" xmlns="http://www.w3.org/2000/svg">
<path d="M1 3.30766H15M1 3.84613H15M3.15385 7.61536H7.46154M3.15385 9.23074H5.30769M2.61538 11.3846H13.3846C13.813 11.3846 14.2239 11.2144 14.5269 10.9115C14.8298 10.6085 15 10.1976 15 9.7692V2.23074C15 1.80231 14.8298 1.39144 14.5269 1.08849C14.2239 0.785548 13.813 0.615356 13.3846 0.615356H2.61538C2.18696 0.615356 1.77608 0.785548 1.47314 1.08849C1.17019 1.39144 1 1.80231 1 2.23074V9.7692C1 10.1976 1.17019 10.6085 1.47314 10.9115C1.77608 11.2144 2.18696 11.3846 2.61538 11.3846Z" stroke="#111827" stroke-width="1.07692" stroke-linecap="round" stroke-linejoin="round"/>
</svg>
