<svg width="16" height="16" viewBox="0 0 16 16" fill="none" xmlns="http://www.w3.org/2000/svg">
<g clip-path="url(#clip0_2975_24833)">
<path d="M13.7148 0H2.28627C1.9702 0 1.71484 0.255357 1.71484 0.571429V15.4286C1.71484 15.7446 1.9702 16 2.28627 16H13.7148C14.0309 16 14.2863 15.7446 14.2863 15.4286V0.571429C14.2863 0.255357 14.0309 0 13.7148 0ZM3.00056 1.28571H13.0006V5H3.00056V1.28571ZM13.0006 9.85714H3.00056V6.14286H13.0006V9.85714ZM13.0006 14.7143H3.00056V11H13.0006V14.7143ZM4.28627 3.14286C4.28627 3.3323 4.36153 3.51398 4.49548 3.64793C4.62944 3.78189 4.81112 3.85714 5.00056 3.85714C5.19 3.85714 5.37168 3.78189 5.50563 3.64793C5.63959 3.51398 5.71484 3.3323 5.71484 3.14286C5.71484 2.95342 5.63959 2.77174 5.50563 2.63778C5.37168 2.50383 5.19 2.42857 5.00056 2.42857C4.81112 2.42857 4.62944 2.50383 4.49548 2.63778C4.36153 2.77174 4.28627 2.95342 4.28627 3.14286ZM4.28627 8C4.28627 8.18944 4.36153 8.37112 4.49548 8.50508C4.62944 8.63903 4.81112 8.71429 5.00056 8.71429C5.19 8.71429 5.37168 8.63903 5.50563 8.50508C5.63959 8.37112 5.71484 8.18944 5.71484 8C5.71484 7.81056 5.63959 7.62888 5.50563 7.49492C5.37168 7.36097 5.19 7.28571 5.00056 7.28571C4.81112 7.28571 4.62944 7.36097 4.49548 7.49492C4.36153 7.62888 4.28627 7.81056 4.28627 8ZM4.28627 12.8571C4.28627 13.0466 4.36153 13.2283 4.49548 13.3622C4.62944 13.4962 4.81112 13.5714 5.00056 13.5714C5.19 13.5714 5.37168 13.4962 5.50563 13.3622C5.63959 13.2283 5.71484 13.0466 5.71484 12.8571C5.71484 12.6677 5.63959 12.486 5.50563 12.3521C5.37168 12.2181 5.19 12.1429 5.00056 12.1429C4.81112 12.1429 4.62944 12.2181 4.49548 12.3521C4.36153 12.486 4.28627 12.6677 4.28627 12.8571Z" fill="#111827"/>
</g>
<defs>
<clipPath id="clip0_2975_24833">
<rect width="16" height="16" fill="white"/>
</clipPath>
</defs>
</svg>
