<svg width="16" height="16" viewBox="0 0 16 16" fill="none" xmlns="http://www.w3.org/2000/svg">
<path d="M13.9215 12.0213C13.7001 10.6784 12.5072 9.71593 11.1483 9.782C9.78936 9.84808 8.6965 10.9249 8.609 12.282C5.86793 12.1963 4.89471 11.5552 5.05364 10.2516C5.11257 9.76415 5.40721 9.50343 5.94828 9.37665C6.27686 9.29986 6.64114 9.28915 6.9715 9.3195C7.00186 9.32308 7.034 9.32486 7.06436 9.32843C7.26614 9.37665 7.4715 9.41772 7.67686 9.44986C8.28578 9.54986 8.90543 9.59986 9.49471 9.56772C11.1519 9.47843 12.2804 8.74808 12.3376 7.19808C12.3929 5.69629 11.3608 4.632 9.6965 3.9195C9.16257 3.69093 8.5965 3.51415 8.03043 3.38022C7.77507 3.3195 7.56078 3.27843 7.40186 3.25165C7.26078 1.89629 6.12507 0.862361 4.76257 0.851647C3.40007 0.840932 2.2465 1.85343 2.08221 3.207C1.91793 4.56058 2.7965 5.8195 4.1215 6.13379C5.4465 6.44808 6.79828 5.71772 7.259 4.43558C7.42686 4.46593 7.59293 4.49986 7.759 4.53915C8.26257 4.657 8.76614 4.81415 9.23043 5.01415C10.4929 5.55343 11.1822 6.26593 11.1501 7.15522C11.1215 7.95165 10.5501 8.3195 9.43221 8.38022C8.94114 8.407 8.40364 8.36415 7.87328 8.27665C7.72507 8.25165 7.58936 8.22665 7.46971 8.19986C7.40007 8.18558 7.35186 8.17307 7.33043 8.16772L7.27507 8.157C7.23578 8.15165 7.16971 8.14272 7.084 8.13379C6.63757 8.09272 6.15364 8.107 5.68221 8.21593C4.6965 8.44629 4.00543 9.05879 3.87686 10.1052C3.5965 12.3588 5.28043 13.4034 8.80543 13.4784C9.32507 14.7356 10.7054 15.4052 12.0126 15.032C13.3215 14.6588 14.1429 13.3641 13.9215 12.0213V12.0213ZM4.73578 5.01772C4.54043 5.01771 4.34699 4.97922 4.16652 4.90445C3.98604 4.82968 3.82205 4.72009 3.68393 4.58195C3.5458 4.44381 3.43623 4.27981 3.36149 4.09932C3.28674 3.91884 3.24827 3.72539 3.24828 3.53004C3.2483 3.33469 3.28678 3.14125 3.36155 2.96077C3.43632 2.78029 3.54591 2.61631 3.68405 2.47818C3.8222 2.34005 3.98619 2.23049 4.16668 2.15574C4.34717 2.08099 4.54061 2.04253 4.73596 2.04254C5.1305 2.04256 5.50886 2.19931 5.78782 2.47831C6.06678 2.7573 6.22349 3.13569 6.22346 3.53022C6.22344 3.92475 6.06669 4.30312 5.78769 4.58208C5.5087 4.86104 5.13032 5.01774 4.73578 5.01772ZM11.2804 13.9427C11.0851 13.9427 10.8916 13.9042 10.7112 13.8294C10.5307 13.7547 10.3667 13.6451 10.2286 13.507C10.0904 13.3688 9.98088 13.2048 9.90613 13.0243C9.83138 12.8438 9.79291 12.6504 9.79293 12.455C9.79294 12.2597 9.83143 12.0662 9.9062 11.8858C9.98097 11.7053 10.0906 11.5413 10.2287 11.4032C10.3668 11.2651 10.5308 11.1555 10.7113 11.0807C10.8918 11.006 11.0853 10.9675 11.2806 10.9675C11.6751 10.9676 12.0535 11.1243 12.3325 11.4033C12.6114 11.6823 12.7681 12.0607 12.7681 12.4552C12.7681 12.8498 12.6113 13.2281 12.3323 13.5071C12.0533 13.786 11.675 13.9427 11.2804 13.9427V13.9427Z" fill="currentColor"/>
</svg>
