<svg width="15" height="15" viewBox="0 0 15 15" fill="none" xmlns="http://www.w3.org/2000/svg">
<path d="M7.14369 0.429688H1.71512C1.55798 0.429688 1.42941 0.558259 1.42941 0.715402V6.14397C1.42941 6.30112 1.55798 6.42969 1.71512 6.42969H7.14369C7.30084 6.42969 7.42941 6.30112 7.42941 6.14397V0.715402C7.42941 0.558259 7.30084 0.429688 7.14369 0.429688ZM6.21512 5.2154H2.64369V1.64397H6.21512V5.2154ZM14.2866 0.429688H8.85798C8.70084 0.429688 8.57227 0.558259 8.57227 0.715402V6.14397C8.57227 6.30112 8.70084 6.42969 8.85798 6.42969H14.2866C14.4437 6.42969 14.5723 6.30112 14.5723 6.14397V0.715402C14.5723 0.558259 14.4437 0.429688 14.2866 0.429688ZM13.358 5.2154H9.78655V1.64397H13.358V5.2154ZM14.2866 7.57255H8.85798C8.70084 7.57255 8.57227 7.70112 8.57227 7.85826V13.2868C8.57227 13.444 8.70084 13.5725 8.85798 13.5725H14.2866C14.4437 13.5725 14.5723 13.444 14.5723 13.2868V7.85826C14.5723 7.70112 14.4437 7.57255 14.2866 7.57255ZM13.358 12.3583H9.78655V8.78683H13.358V12.3583ZM6.42941 10.5725H4.14369V8.28683C4.14369 8.20826 4.07941 8.14398 4.00084 8.14398H3.14369C3.06512 8.14398 3.00084 8.20826 3.00084 8.28683V10.5725H0.715123C0.636551 10.5725 0.572266 10.6368 0.572266 10.7154V11.5725C0.572266 11.6511 0.636551 11.7154 0.715123 11.7154H3.00084V14.0011C3.00084 14.0797 3.06512 14.144 3.14369 14.144H4.00084C4.07941 14.144 4.14369 14.0797 4.14369 14.0011V11.7154H6.42941C6.50798 11.7154 6.57227 11.6511 6.57227 11.5725V10.7154C6.57227 10.6368 6.50798 10.5725 6.42941 10.5725Z" fill="#111827"/>
</svg>
