<svg width="16" height="16" viewBox="0 0 16 16" fill="none" xmlns="http://www.w3.org/2000/svg">
<path d="M7.14453 7.99995C7.14453 8.22728 7.23484 8.44529 7.39558 8.60604C7.55632 8.76678 7.77434 8.85709 8.00166 8.85709C8.22899 8.85709 8.447 8.76678 8.60775 8.60604C8.76849 8.44529 8.8588 8.22728 8.8588 7.99995C8.8588 7.77263 8.76849 7.55461 8.60775 7.39387C8.447 7.23313 8.22899 7.14282 8.00166 7.14282C7.77434 7.14282 7.55632 7.23313 7.39558 7.39387C7.23484 7.55461 7.14453 7.77263 7.14453 7.99995Z" fill="#111827"/>
<path d="M10.7148 7.99995C10.7148 8.22728 10.8051 8.44529 10.9659 8.60604C11.1266 8.76678 11.3447 8.85709 11.572 8.85709C11.7993 8.85709 12.0173 8.76678 12.1781 8.60604C12.3388 8.44529 12.4291 8.22728 12.4291 7.99995C12.4291 7.77263 12.3388 7.55461 12.1781 7.39387C12.0173 7.23313 11.7993 7.14282 11.572 7.14282C11.3447 7.14282 11.1266 7.23313 10.9659 7.39387C10.8051 7.55461 10.7148 7.77263 10.7148 7.99995Z" fill="#111827"/>
<path d="M3.57031 7.99995C3.57031 8.22728 3.66062 8.44529 3.82136 8.60604C3.9821 8.76678 4.20012 8.85709 4.42744 8.85709C4.65477 8.85709 4.87279 8.76678 5.03353 8.60604C5.19427 8.44529 5.28458 8.22728 5.28458 7.99995C5.28458 7.77263 5.19427 7.55461 5.03353 7.39387C4.87279 7.23313 4.65477 7.14282 4.42744 7.14282C4.20012 7.14282 3.9821 7.23313 3.82136 7.39387C3.66062 7.55461 3.57031 7.77263 3.57031 7.99995Z" fill="#111827"/>
<path d="M15.3785 4.89994C14.9749 3.94102 14.3963 3.08032 13.6589 2.34104C12.9214 1.60355 12.0607 1.0232 11.1 0.621421C10.1178 0.208926 9.07499 0 8 0H7.96429C6.88216 0.00535708 5.83396 0.21964 4.84825 0.641063C3.89648 1.0482 3.04292 1.62677 2.31257 2.36426C1.58222 3.10175 1.00902 3.95888 0.612594 4.91422C0.201885 5.9035 -0.00525577 6.95527 0.000101307 8.0374C0.00545838 9.27667 0.301883 10.507 0.857233 11.607V14.3212C0.857233 14.7748 1.22509 15.1427 1.67865 15.1427H4.39469C5.49468 15.698 6.72502 15.9944 7.96429 15.9998H8.00179C9.07142 15.9998 10.1089 15.7927 11.0857 15.3873C12.041 14.9891 12.8999 14.4177 13.6356 13.6873C14.3731 12.957 14.9535 12.1034 15.3588 11.1516C15.7803 10.1659 15.9945 9.11774 15.9999 8.03561C16.0053 6.94813 15.7945 5.89278 15.3785 4.89994ZM12.6803 12.7213C11.4285 13.9605 9.76784 14.6427 8 14.6427H7.96964C6.89287 14.6373 5.82324 14.3695 4.87861 13.8659L4.72861 13.7855H2.21436V11.2713L2.134 11.1213C1.63044 10.1767 1.36258 9.10703 1.35723 8.03026C1.35008 6.24992 2.03043 4.57851 3.27863 3.3196C4.52504 2.06069 6.19109 1.36427 7.97143 1.35713H8.00179C8.89463 1.35713 9.76069 1.53034 10.5768 1.87319C11.3732 2.20712 12.0874 2.68747 12.7017 3.30174C13.3142 3.91424 13.7964 4.6303 14.1303 5.42672C14.4767 6.25171 14.6499 7.1267 14.6463 8.03026C14.6356 9.80881 13.9374 11.4749 12.6803 12.7213Z" fill="#111827"/>
</svg>
