<svg width="16" height="14" viewBox="0 0 16 14" fill="none" xmlns="http://www.w3.org/2000/svg">
<path d="M1 13.4615H15M2.07692 0.538452V13.4615M9.61538 0.538452V13.4615M13.9231 3.76922V13.4615M4.23077 3.23076H4.76923M4.23077 5.38461H4.76923M4.23077 7.53845H4.76923M6.92308 3.23076H7.46154M6.92308 5.38461H7.46154M6.92308 7.53845H7.46154M4.23077 13.4615V11.0385C4.23077 10.5926 4.59262 10.2308 5.03846 10.2308H6.65385C7.09969 10.2308 7.46154 10.5926 7.46154 11.0385V13.4615M1.53846 0.538452H10.1538M9.61538 3.76922H14.4615M11.7692 6.46153H11.775V6.46727H11.7692V6.46153ZM11.7692 8.61537H11.775V8.62112H11.7692V8.61537ZM11.7692 10.7692H11.775V10.775H11.7692V10.7692Z" stroke="black" stroke-width="1.07692" stroke-linecap="round" stroke-linejoin="round"/>
</svg>
