<svg width="13" height="13" viewBox="0 0 13 13" fill="none" xmlns="http://www.w3.org/2000/svg">
<g clip-path="url(#clip0_2671_71927)">
<path d="M12.0054 6.64456C12.0054 3.31006 9.31891 0.607056 6.00541 0.607056C2.69041 0.607806 0.00390625 3.31006 0.00390625 6.64531C0.00390625 9.65806 2.19841 12.1556 5.06641 12.6086V8.38981H3.54391V6.64531H5.06791V5.31406C5.06791 3.80131 5.96416 2.96581 7.33441 2.96581C7.99141 2.96581 8.67766 3.08356 8.67766 3.08356V4.56856H7.92091C7.17616 4.56856 6.94366 5.03431 6.94366 5.51206V6.64456H8.60716L8.34166 8.38906H6.94291V12.6078C9.81091 12.1548 12.0054 9.65731 12.0054 6.64456Z" fill="#699BF7"/>
</g>
<defs>
<clipPath id="clip0_2671_71927">
<rect width="12" height="12" fill="white" transform="translate(0.00390625 0.607788)"/>
</clipPath>
</defs>
</svg>
