<svg width="13" height="13" viewBox="0 0 13 13" fill="none" xmlns="http://www.w3.org/2000/svg">
<g clip-path="url(#clip0_2671_71919)">
<path d="M2.638 5.49029C2.87194 4.78251 3.32343 4.16669 3.92806 3.73069C4.53269 3.29468 5.25956 3.06076 6.005 3.06229C6.85 3.06229 7.614 3.36229 8.214 3.85329L9.96 2.10779C8.896 1.18029 7.5325 0.607788 6.005 0.607788C3.64 0.607788 1.604 1.95679 0.625 3.93279L2.638 5.49029Z" fill="#EA4335"/>
<path d="M8.02259 9.61432C7.47759 9.96582 6.78559 10.1533 6.00259 10.1533C5.26013 10.1548 4.536 9.92279 3.93271 9.49C3.32943 9.05721 2.87756 8.44562 2.64109 7.74182L0.621094 9.27532C1.11672 10.2785 1.88373 11.1225 2.83501 11.7116C3.78628 12.3007 4.8837 12.6112 6.00259 12.6078C7.46909 12.6078 8.87009 12.0863 9.91959 11.1078L8.02309 9.61432H8.02259Z" fill="#34A853"/>
<path d="M9.92091 11.1078C11.0184 10.0838 11.7309 8.55978 11.7309 6.60778C11.7309 6.25278 11.6764 5.87128 11.5949 5.51678H6.00391V7.83528H9.22191C9.06341 8.61478 8.63691 9.21829 8.02441 9.61428L9.92091 11.1078Z" fill="#4A90E2"/>
<path d="M2.64246 7.7418C2.52014 7.37625 2.458 6.99327 2.45846 6.6078C2.45846 6.2168 2.52096 5.8413 2.63696 5.4903L0.623964 3.9328C0.212153 4.76414 -0.000133722 5.68006 0.00396448 6.6078C0.00396448 7.5678 0.226464 8.4728 0.622464 9.2753L2.64246 7.7418Z" fill="#FBBC05"/>
</g>
<defs>
<clipPath id="clip0_2671_71919">
<rect width="12" height="12" fill="white" transform="translate(0.00390625 0.607788)"/>
</clipPath>
</defs>
</svg>
