<svg width="122" height="100" viewBox="0 0 122 100" fill="none" xmlns="http://www.w3.org/2000/svg">
<path d="M61.1033 99.9921C85.737 99.9921 105.707 96.2608 105.707 91.6579C105.707 87.0551 85.737 83.3237 61.1033 83.3237C36.4696 83.3237 16.5 87.0551 16.5 91.6579C16.5 96.2608 36.4696 99.9921 61.1033 99.9921Z" fill="#F3F4F6"/>
<path fill-rule="evenodd" clip-rule="evenodd" d="M96.7863 67.1734L81.0462 47.8017C80.291 46.8899 79.187 46.3379 78.0245 46.3379H44.1824C43.0206 46.3379 41.9166 46.8899 41.1613 47.8017L25.4219 67.1734V77.2938H96.787V67.1734H96.7863Z" fill="#9CA3AF"/>
<path fill-rule="evenodd" clip-rule="evenodd" d="M38.7566 21.3354H83.4493C84.1473 21.3354 84.8166 21.6127 85.3102 22.1062C85.8037 22.5997 86.0809 23.2691 86.0809 23.967V85.3775C86.0809 86.0755 85.8037 86.7448 85.3102 87.2383C84.8166 87.7319 84.1473 88.0091 83.4493 88.0091H38.7566C38.0586 88.0091 37.3893 87.7319 36.8958 87.2383C36.4023 86.7448 36.125 86.0755 36.125 85.3775V23.967C36.125 23.2691 36.4023 22.5997 36.8958 22.1062C37.3893 21.6127 38.0586 21.3354 38.7566 21.3354V21.3354Z" fill="#F3F4F6"/>
<path fill-rule="evenodd" clip-rule="evenodd" d="M44.5791 27.8833H77.6298C77.9787 27.8833 78.3134 28.0219 78.5602 28.2687C78.8069 28.5154 78.9456 28.8501 78.9456 29.1991V45.6182C78.9456 45.9671 78.8069 46.3018 78.5602 46.5486C78.3134 46.7953 77.9787 46.934 77.6298 46.934H44.5791C44.2301 46.934 43.8955 46.7953 43.6487 46.5486C43.402 46.3018 43.2633 45.9671 43.2633 45.6182V29.1991C43.2633 28.8501 43.402 28.5154 43.6487 28.2687C43.8955 28.0219 44.2301 27.8833 44.5791 27.8833ZM44.7515 54.0767H77.4574C77.8521 54.0767 78.2306 54.2335 78.5097 54.5126C78.7888 54.7917 78.9456 55.1702 78.9456 55.5649C78.9456 55.9596 78.7888 56.3381 78.5097 56.6172C78.2306 56.8962 77.8521 57.053 77.4574 57.053H44.7515C44.3568 57.053 43.9783 56.8962 43.6992 56.6172C43.4201 56.3381 43.2633 55.9596 43.2633 55.5649C43.2633 55.1702 43.4201 54.7917 43.6992 54.5126C43.9783 54.2335 44.3568 54.0767 44.7515 54.0767ZM44.7515 61.8155H77.4574C77.8522 61.8155 78.2308 61.9724 78.5099 62.2515C78.7891 62.5307 78.9459 62.9093 78.9459 63.304C78.9459 63.6988 78.7891 64.0774 78.5099 64.3565C78.2308 64.6357 77.8522 64.7925 77.4574 64.7925H44.7515C44.3567 64.7925 43.9781 64.6357 43.699 64.3565C43.4198 64.0774 43.263 63.6988 43.263 63.304C43.263 62.9093 43.4198 62.5307 43.699 62.2515C43.9781 61.9724 44.3567 61.8155 44.7515 61.8155ZM96.6416 90.4353C96.1318 92.4557 94.341 93.9616 92.2107 93.9616H29.9982C27.8679 93.9616 26.0771 92.455 25.5679 90.4353C25.4708 90.0503 25.4218 89.6547 25.4219 89.2576V67.1741H42.7363C44.6488 67.1741 46.1903 68.7846 46.1903 70.7399V70.7662C46.1903 72.7208 47.7495 74.2991 49.662 74.2991H72.5469C74.4594 74.2991 76.0186 72.7063 76.0186 70.7511V70.7432C76.0186 68.7879 77.56 67.1734 79.4725 67.1734H96.787V89.2583C96.787 89.6642 96.7364 90.0583 96.6416 90.4353Z" fill="#D1D5DB"/>
<path fill-rule="evenodd" clip-rule="evenodd" d="M98.8201 22.4026L94.3266 24.1461C94.2112 24.1909 94.0854 24.2023 93.9638 24.1789C93.8422 24.1555 93.7297 24.0982 93.6392 24.0137C93.5486 23.9292 93.4838 23.8208 93.4522 23.7011C93.4205 23.5813 93.4233 23.4551 93.4602 23.3368L94.7345 19.2533C93.0312 17.3164 92.0312 14.9546 92.0312 12.4059C92.0312 5.83026 98.6878 0.5 106.9 0.5C115.11 0.5 121.767 5.83026 121.767 12.4059C121.767 18.9816 115.11 24.3118 106.899 24.3118C103.92 24.3118 101.146 23.6105 98.8201 22.4026Z" fill="#D1D5DB"/>
<path d="M112.749 14.556C113.785 14.556 114.624 13.7268 114.624 12.704C114.624 11.6812 113.785 10.8521 112.749 10.8521C111.714 10.8521 110.875 11.6812 110.875 12.704C110.875 13.7268 111.714 14.556 112.749 14.556Z" fill="white"/>
<path fill-rule="evenodd" clip-rule="evenodd" d="M102.913 14.3243H99.1641L101.071 11.0835L102.913 14.3243ZM105.256 11.0835H108.535V14.3243H105.256V11.0835Z" fill="white"/>
</svg>
