<svg width="40" height="40" viewBox="0 0 40 40" fill="none" xmlns="http://www.w3.org/2000/svg">
<g id="Frame 4405">
<rect x="0.666667" y="0.666667" width="38.6667" height="38.6667" rx="4.66667" fill="white"/>
<g id="Vector">
<path d="M10.1092 14.4104H29.8804H10.1092ZM11.9948 30.1141H27.9948C28.702 30.1141 29.3803 29.8332 29.8804 29.3331C30.3805 28.833 30.6615 28.1547 30.6615 27.4475V13.2253C30.6615 12.518 30.3805 11.8397 29.8804 11.3396C29.3803 10.8395 28.702 10.5586 27.9948 10.5586H11.9948C11.2875 10.5586 10.6093 10.8395 10.1092 11.3396C9.60908 11.8397 9.32813 12.518 9.32812 13.2253V27.4475C9.32812 28.1547 9.60908 28.833 10.1092 29.3331C10.6093 29.8332 11.2875 30.1141 11.9948 30.1141Z" fill="#E0F2FE"/>
<path d="M13.18 17.966H20.5874M10.1092 14.4104H29.8804M13.18 22.1141H27.1059M11.9948 30.1141H27.9948C28.702 30.1141 29.3803 29.8332 29.8804 29.3331C30.3805 28.833 30.6615 28.1547 30.6615 27.4475V13.2253C30.6615 12.518 30.3805 11.8397 29.8804 11.3396C29.3803 10.8395 28.702 10.5586 27.9948 10.5586H11.9948C11.2875 10.5586 10.6093 10.8395 10.1092 11.3396C9.60908 11.8397 9.32813 12.518 9.32812 13.2253V27.4475C9.32812 28.1547 9.60908 28.833 10.1092 29.3331C10.6093 29.8332 11.2875 30.1141 11.9948 30.1141Z" stroke="#0EA5E9" stroke-width="1.77778" stroke-linecap="round" stroke-linejoin="round"/>
</g>
<rect x="0.666667" y="0.666667" width="38.6667" height="38.6667" rx="4.66667" stroke="#E5E7EB" stroke-width="1.33333"/>
</g>
</svg>
