<svg width="40" height="40" viewBox="0 0 40 40" fill="none" xmlns="http://www.w3.org/2000/svg">
<rect width="40" height="40" rx="6.22222" fill="#F3F4F6"/>
<g clip-path="url(#clip0_5711_233469)">
<path d="M11.73 20.7649C11.5138 21.1974 10.8968 21.1974 10.6806 20.7649L10.1635 19.7308C10.0809 19.5657 10.0809 19.3712 10.1635 19.2061L10.6806 18.172C10.8968 17.7395 11.5138 17.7395 11.73 18.172L12.2471 19.2061C12.3297 19.3712 12.3297 19.5657 12.2471 19.7308L11.73 20.7649ZM11.73 26.6299C11.5138 27.0623 10.8968 27.0623 10.6806 26.6299L10.1635 25.5957C10.0809 25.4306 10.0809 25.2362 10.1635 25.071L10.6806 24.0369C10.8968 23.6045 11.5138 23.6045 11.73 24.0369L12.2471 25.071C12.3297 25.2362 12.3297 25.4306 12.2471 25.5957L11.73 26.6299Z" fill="#1D4AFF"/>
<path d="M5.32812 24.4075C5.32812 23.8848 5.96005 23.6231 6.32963 23.9927L9.01855 26.6816C9.38813 27.0512 9.12638 27.6831 8.60371 27.6831H5.91479C5.59078 27.6831 5.32812 27.4204 5.32812 27.0964V24.4075ZM5.32812 21.5752C5.32812 21.7308 5.38993 21.88 5.49996 21.99L11.0212 27.5113C11.1312 27.6213 11.2804 27.6831 11.436 27.6831H14.4686C14.9913 27.6831 15.2531 27.0512 14.8835 26.6816L6.32963 18.1278C5.96005 17.7582 5.32812 18.0199 5.32812 18.5426V21.5752ZM5.32812 15.7103C5.32812 15.8659 5.38993 16.0151 5.49996 16.1251L16.8861 27.5113C16.9961 27.6213 17.1454 27.6831 17.3009 27.6831H20.3335C20.8562 27.6831 21.118 27.0512 20.7484 26.6816L6.32963 12.2629C5.96005 11.8933 5.32812 12.155 5.32812 12.6777V15.7103ZM11.193 15.7103C11.193 15.8659 11.2549 16.0151 11.3649 16.1251L21.9213 26.6816C22.2909 27.0512 22.9228 26.7894 22.9228 26.2668V23.2342C22.9228 23.0786 22.861 22.9293 22.751 22.8193L12.1945 12.2628C11.8249 11.8933 11.193 12.155 11.193 12.6777V15.7103ZM18.0594 12.2629C17.6898 11.8933 17.0579 12.155 17.0579 12.6777V15.7103C17.0579 15.8659 17.1198 16.0151 17.2298 16.1251L21.9213 20.8167C22.2909 21.1863 22.9228 20.9245 22.9228 20.4019V17.3693C22.9228 17.2137 22.861 17.0644 22.751 16.9544L18.0594 12.2629Z" fill="#F9BD2B"/>
<path d="M30.2658 24.4764L24.7437 18.9543C24.3741 18.5847 23.7422 18.8464 23.7422 19.3691V27.0934C23.7422 27.4174 24.0048 27.6801 24.3289 27.6801H32.8828C33.2068 27.6801 33.4695 27.4174 33.4695 27.0934V26.39C33.4695 26.066 33.2057 25.8072 32.8844 25.7653C31.8984 25.637 30.9761 25.1867 30.2658 24.4764ZM26.5573 25.8033C26.0393 25.8033 25.6189 25.3829 25.6189 24.8649C25.6189 24.3469 26.0393 23.9265 26.5573 23.9265C27.0753 23.9265 27.4957 24.3469 27.4957 24.8649C27.4957 25.3829 27.0753 25.8033 26.5573 25.8033Z" fill="black"/>
<path d="M5.32812 27.0964C5.32812 27.4204 5.59078 27.6831 5.91479 27.6831H8.60371C9.12638 27.6831 9.38813 27.0512 9.01855 26.6816L6.32963 23.9927C5.96005 23.6231 5.32812 23.8848 5.32812 24.4075V27.0964ZM11.193 17.1263L6.32963 12.2629C5.96005 11.8933 5.32812 12.155 5.32812 12.6777V15.7103C5.32812 15.8659 5.38993 16.0151 5.49996 16.1251L11.193 21.8182V17.1263ZM6.32963 18.1278C5.96005 17.7582 5.32812 18.0199 5.32812 18.5426V21.5752C5.32812 21.7308 5.38993 21.88 5.49996 21.99L11.193 27.6831V22.9912L6.32963 18.1278Z" fill="#1D4AFF"/>
<path d="M17.068 17.3693C17.068 17.2137 17.0062 17.0644 16.8962 16.9544L12.2046 12.2629C11.8351 11.8933 11.2031 12.155 11.2031 12.6777V15.7103C11.2031 15.8659 11.265 16.0151 11.375 16.1251L17.068 21.8182V17.3693ZM11.2031 27.6831H14.4787C15.0014 27.6831 15.2631 27.0512 14.8935 26.6816L11.2031 22.9912V27.6831ZM11.2031 17.1263V21.5752C11.2031 21.7308 11.265 21.88 11.375 21.99L17.068 27.6831V23.2342C17.068 23.0786 17.0062 22.9293 16.8962 22.8193L11.2031 17.1263Z" fill="#F54E00"/>
</g>
<defs>
<clipPath id="clip0_5711_233469">
<rect width="29.3333" height="17.6" fill="white" transform="translate(5.32812 10.668)"/>
</clipPath>
</defs>
</svg>
