<svg width="40" height="40" viewBox="0 0 40 40" fill="none" xmlns="http://www.w3.org/2000/svg">
<g id="Frame 4392">
<rect x="0.666667" y="0.666667" width="38.6667" height="38.6667" rx="4.66667" fill="white"/>
<path id="Vector" d="M19.4641 16.7124C19.4641 18.2235 18.2196 19.468 16.7085 19.468C15.1974 19.468 13.953 18.2235 13.953 16.7124C13.953 15.2013 15.1974 13.9569 16.7085 13.9569C18.2196 13.9569 19.4641 15.2013 19.4641 16.7124ZM16.7085 20.5346C15.1974 20.5346 13.953 21.7791 13.953 23.2902C13.953 24.8013 15.1974 26.0457 16.7085 26.0457C18.2196 26.0457 19.4641 24.8013 19.4641 23.2902C19.4641 21.7791 18.2196 20.5346 16.7085 20.5346ZM33.3307 20.0013C33.3307 27.3791 27.3752 33.3346 19.9974 33.3346C12.6196 33.3346 6.66406 27.3791 6.66406 20.0013C6.66406 12.6235 12.6196 6.66797 19.9974 6.66797C27.3752 6.66797 33.3307 12.6235 33.3307 20.0013ZM29.7752 20.0013C29.7752 14.5791 25.4196 10.2235 19.9974 10.2235C14.5752 10.2235 10.2196 14.5791 10.2196 20.0013C10.2196 25.4235 14.5752 29.7791 19.9974 29.7791C25.4196 29.7791 29.7752 25.4235 29.7752 20.0013ZM23.2863 20.5346C21.7752 20.5346 20.5307 21.7791 20.5307 23.2902C20.5307 24.8013 21.7752 26.0457 23.2863 26.0457C24.7974 26.0457 26.0418 24.8013 26.0418 23.2902C26.0418 21.7791 24.7974 20.5346 23.2863 20.5346ZM23.2863 13.9569C21.7752 13.9569 20.5307 15.2013 20.5307 16.7124C20.5307 18.2235 21.7752 19.468 23.2863 19.468C24.7974 19.468 26.0418 18.2235 26.0418 16.7124C26.0418 15.2013 24.7974 13.9569 23.2863 13.9569Z" fill="#F22F46"/>
<rect x="0.666667" y="0.666667" width="38.6667" height="38.6667" rx="4.66667" stroke="#E5E7EB" stroke-width="1.33333"/>
</g>
</svg>
