<svg width="220" height="128" viewBox="0 0 220 128" fill="none" xmlns="http://www.w3.org/2000/svg">
<path d="M110.024 0.0191956C110.024 0.0191956 109.675 0.0192032 108.988 0.0537491C108.646 0.0537491 108.22 0.0767822 107.713 0.0921402C107.206 0.107498 106.615 0.119003 105.947 0.180435C105.279 0.241859 104.534 0.291779 103.713 0.35704C102.891 0.42231 101.996 0.572037 101.025 0.691048C99.1056 0.963631 96.8712 1.38594 94.4026 1.98869C93.7845 2.13074 93.1625 2.33421 92.5137 2.51081C92.1912 2.59911 91.8649 2.69511 91.5347 2.78725C91.3696 2.83716 91.2046 2.88322 91.0356 2.92929C90.8667 2.97536 90.7055 3.04063 90.5365 3.09821L88.4864 3.79696C87.7839 4.02347 87.0928 4.33443 86.371 4.60702C83.2529 5.84306 80.2407 7.33119 77.3643 9.05663C70.3334 13.2653 64.168 18.7741 59.1974 25.2886C53.1748 33.1994 49.086 42.4092 47.2575 52.182C45.7296 60.4655 45.8261 68.9669 47.5416 77.2135C47.8718 78.6378 48.1789 80.0775 48.6128 81.4941C49.0466 82.9108 49.4996 84.3313 49.9757 85.7556C52.0835 91.5382 55.0134 96.987 58.6752 101.934C60.577 104.474 62.6498 106.882 64.8793 109.14C67.1825 111.413 69.6431 113.521 72.2429 115.448C72.9071 115.924 73.5751 116.396 74.2431 116.872C74.9111 117.348 75.6252 117.759 76.3162 118.204C77.0073 118.65 77.7329 119.049 78.4431 119.467L79.5181 120.086L80.6238 120.658L81.7333 121.226C82.1172 121.418 82.4743 121.61 82.8582 121.771L85.1387 122.781C85.9065 123.088 86.6974 123.399 87.4806 123.706L88.0641 123.936L88.663 124.14L89.8608 124.524L91.0587 124.931L92.2795 125.276L93.5004 125.622L94.1108 125.794L94.7328 125.936C95.5582 126.128 96.3874 126.32 97.2205 126.508L99.739 127.004C103.139 127.537 106.575 127.817 110.017 127.841C113.46 127.817 116.896 127.537 120.298 127.004C121.137 126.85 121.978 126.699 122.82 126.551C123.649 126.363 124.479 126.167 125.304 125.982C126.13 125.798 126.943 125.541 127.761 125.322L128.982 124.977L130.18 124.57L131.378 124.167L131.977 123.963L132.56 123.733L134.902 122.811C135.67 122.466 136.438 122.12 137.186 121.779L137.755 121.518L138.307 121.233L139.417 120.665L140.523 120.093L141.601 119.475C142.312 119.057 143.045 118.673 143.728 118.212C144.412 117.751 145.114 117.325 145.801 116.88L147.802 115.459C150.403 113.531 152.864 111.422 155.169 109.148C157.4 106.888 159.474 104.479 161.377 101.938C165.041 96.9921 167.971 91.543 170.077 85.7595C170.553 84.3351 171.063 82.9338 171.439 81.498C171.873 80.0813 172.18 78.6416 172.511 77.2173C173.104 74.3942 173.503 71.5337 173.705 68.6559C174.117 63.1484 173.811 57.6107 172.795 52.182C170.973 42.3995 166.882 33.1806 160.851 25.2656C155.879 18.7521 149.714 13.2435 142.684 9.03357C139.808 7.30855 136.796 5.82169 133.677 4.58782C132.956 4.3114 132.265 4.00427 131.562 3.77392L129.512 3.07903C129.178 2.96001 128.848 2.85636 128.514 2.76806C128.18 2.67976 127.857 2.57992 127.535 2.48778C126.89 2.31501 126.268 2.10387 125.646 1.96951C123.181 1.36675 120.962 0.944443 119.023 0.67186C118.052 0.552841 117.161 0.422318 116.336 0.337852C115.51 0.253395 114.766 0.214989 114.098 0.16124C113.43 0.107498 112.842 0.0844727 112.335 0.0729523C111.829 0.0614319 111.402 0.0460815 111.061 0.0345612C110.374 0.0153656 110.02 0 110.02 0C110.02 0 110.374 0 111.061 0C111.402 0 111.829 0 112.335 0.0268784C112.842 0.0537491 113.433 0.0268631 114.101 0.107483C114.769 0.188103 115.518 0.211166 116.34 0.272591C117.161 0.334015 118.056 0.479897 119.027 0.598907C121.259 0.912514 123.473 1.33922 125.661 1.87737C126.283 2.01558 126.905 2.21905 127.554 2.39565C127.876 2.48779 128.203 2.57993 128.537 2.67207C128.871 2.76421 129.201 2.86403 129.535 2.9792L131.589 3.6741C132.295 3.9006 132.986 4.21157 133.712 4.48415C136.837 5.7149 139.855 7.19921 142.738 8.92224C149.787 13.1302 155.97 18.6415 160.959 25.162C167.011 33.0936 171.12 42.3333 172.956 52.1398C174.497 60.4461 174.405 68.9728 172.687 77.2442C172.357 78.6724 172.05 80.1159 171.612 81.5364C171.228 82.9761 170.725 84.3812 170.249 85.8094C168.137 91.615 165.196 97.0847 161.519 102.049C157.693 107.231 153.104 111.805 147.909 115.613L145.913 117.022L143.832 118.362C143.149 118.822 142.411 119.206 141.697 119.629L140.619 120.251L139.509 120.823L138.396 121.391L137.839 121.679L137.271 121.936L134.967 122.973C134.199 123.28 133.405 123.591 132.622 123.898L132.03 124.132L131.431 124.335L130.234 124.719L129.028 125.126L127.803 125.476C126.986 125.695 126.176 125.967 125.342 126.136C124.509 126.305 123.68 126.52 122.847 126.708C122.014 126.896 121.162 127.011 120.317 127.161C113.489 128.28 106.525 128.28 99.6968 127.161L97.1668 126.712L94.6752 126.136L94.0494 125.994L93.439 125.821L92.2104 125.476L90.9896 125.126L89.7841 124.719L88.5862 124.335L87.9873 124.132L87.3961 123.898C86.6283 123.591 85.8336 123.28 85.0504 122.973L82.7469 121.936C82.3629 121.771 81.979 121.583 81.6181 121.391L80.5086 120.819L79.3991 120.247L78.3203 119.629C77.6062 119.206 76.8691 118.822 76.1857 118.362L74.1049 117.022L72.1008 115.598C66.9162 111.793 62.3379 107.225 58.5217 102.049C54.8486 97.0861 51.9108 91.6191 49.7991 85.8171C49.323 84.3889 48.8086 82.9837 48.4362 81.544C47.9985 80.1236 47.6914 78.68 47.3612 77.2519C46.7722 74.4139 46.3746 71.5396 46.171 68.6483C45.7656 63.128 46.0818 57.5783 47.1116 52.1398C48.9471 42.3426 53.0535 33.112 59.1014 25.1888C64.0894 18.6684 70.273 13.1571 77.3221 8.94911C80.2015 7.2341 83.2163 5.7575 86.3365 4.53407C87.0582 4.26148 87.7531 3.95435 88.4557 3.72401C89.1583 3.49366 89.8416 3.25563 90.5135 3.03296C90.6786 2.97537 90.8437 2.92162 91.0126 2.86404L91.5117 2.72198C91.8419 2.62984 92.1682 2.5377 92.4907 2.44556C93.1395 2.26896 93.7614 2.06163 94.3834 1.9311C96.5713 1.39034 98.7856 0.962357 101.017 0.648819C101.989 0.529808 102.883 0.403122 103.705 0.322502C104.526 0.241882 105.275 0.207306 105.943 0.157394C106.611 0.107483 107.199 0.084465 107.705 0.0767899C108.212 0.0691147 108.642 0.0575943 108.984 0.0499115C109.69 0.0192032 110.024 0.0191956 110.024 0.0191956Z" fill="#818CF8"/>
<path d="M203 102.006V107.954C203 109.578 196.189 110.893 187.79 110.893C179.388 110.893 173 109.578 173 107.954V102.006H203Z" fill="#6B7280"/>
<path d="M202.999 101.78C202.999 100.156 196.189 98.8398 187.789 98.8398C179.389 98.8398 173 100.156 173 101.78C173 103.403 179.389 104.72 187.789 104.72C196.189 104.72 202.999 103.403 202.999 101.78Z" fill="#4B5563"/>
<path d="M190.446 107.052V107.8C185.515 107.978 180.993 107.658 176.125 106.834V106.076C180.991 106.91 185.518 107.235 190.446 107.052Z" fill="#4B5563"/>
<path d="M193.904 106.841V107.591C193.273 107.642 192.641 107.689 192.008 107.725V106.975C192.638 106.939 193.271 106.895 193.904 106.841Z" fill="#4B5563"/>
<path d="M196.902 106.521V107.275C196.276 107.355 195.649 107.427 195.023 107.489V106.735C195.651 106.675 196.274 106.601 196.902 106.521Z" fill="#4B5563"/>
<path d="M199.881 106.076V106.834C199.27 106.939 198.66 107.035 198.047 107.121V106.365C198.66 106.278 199.27 106.182 199.881 106.076Z" fill="#FACC15"/>
<path d="M203 94.5864V100.534C203 102.158 196.189 103.473 187.79 103.473C179.388 103.473 173 102.158 173 100.534V94.5864H203Z" fill="#6B7280"/>
<path d="M202.999 94.3599C202.999 92.7362 196.189 91.4199 187.789 91.4199C179.389 91.4199 173 92.7362 173 94.3599C173 95.9835 179.389 97.2998 187.789 97.2998C196.189 97.2998 202.999 95.9835 202.999 94.3599Z" fill="#4B5563"/>
<path d="M190.446 99.6315V100.379C185.515 100.557 180.993 100.237 176.125 99.4135V98.6548C180.991 99.4891 185.518 99.814 190.446 99.6315Z" fill="#4B5563"/>
<path d="M193.904 99.4204V100.17C193.273 100.221 192.641 100.268 192.008 100.304V99.5539C192.638 99.5183 193.271 99.4738 193.904 99.4204Z" fill="#4B5563"/>
<path d="M196.902 99.1001V99.8543C196.276 99.9344 195.649 100.006 195.023 100.068V99.3137C195.651 99.2536 196.274 99.1802 196.902 99.1001Z" fill="#4B5563"/>
<path d="M199.881 98.6548V99.4135C199.27 99.5181 198.66 99.6137 198.047 99.7005V98.944C198.66 98.8573 199.27 98.7616 199.881 98.6548Z" fill="#FACC15"/>
<path d="M203 87.1665V93.1136C203 94.7378 196.189 96.0527 187.79 96.0527C179.388 96.0527 173 94.7378 173 93.1136V87.1665H203Z" fill="#6B7280"/>
<path d="M202.999 86.9399C202.999 85.3163 196.189 84 187.789 84C179.389 84 173 85.3163 173 86.9399C173 88.5636 179.389 89.8799 187.789 89.8799C196.189 89.8799 202.999 88.5636 202.999 86.9399Z" fill="#4B5563"/>
<path d="M190.446 92.2106V92.9582C185.515 93.1362 180.993 92.8158 176.125 91.9926V91.2339C180.991 92.0682 185.518 92.393 190.446 92.2106Z" fill="#4B5563"/>
<path d="M193.904 91.9995V92.7493C193.273 92.8005 192.641 92.8472 192.008 92.8828V92.133C192.638 92.0974 193.271 92.0529 193.904 91.9995Z" fill="#4B5563"/>
<path d="M196.902 91.6792V92.4334C196.276 92.5135 195.649 92.5847 195.023 92.647V91.8928C195.651 91.8327 196.274 91.7593 196.902 91.6792Z" fill="#4B5563"/>
<path d="M199.881 91.2339V91.9926C199.27 92.0971 198.66 92.1928 198.047 92.2796V91.5231C198.66 91.4363 199.27 91.3407 199.881 91.2339Z" fill="#FACC15"/>
<path d="M198.903 36.3781C199.547 35.9838 200.242 35.6819 200.968 35.4809L201.391 33.4373L204.85 33.375L205.347 35.3999C206.078 35.5811 206.782 35.8576 207.442 36.2223L209.187 35.0822L211.644 37.4809L210.563 39.2628C210.953 39.9058 211.254 40.5996 211.46 41.3251L213.505 41.7488L213.567 45.1943L211.534 45.6927C211.355 46.4254 211.078 47.1297 210.71 47.7861L211.853 49.5307L209.457 52.0229L207.67 50.945C207.024 51.3347 206.33 51.6344 205.606 51.836L205.182 53.8796L201.723 53.9419L201.226 51.917C200.496 51.7347 199.792 51.4583 199.131 51.0945L197.386 52.2347L194.929 49.836L195.998 48.0416C195.608 47.3986 195.306 46.7048 195.101 45.9793L193.055 45.5556L193 42.1102L195.027 41.6117C195.209 40.8799 195.486 40.1759 195.85 39.5183L194.708 37.7737L197.104 35.2815L198.891 36.3656L198.903 36.3781ZM201.103 40.646C200.659 40.9953 200.301 41.4448 200.058 41.9588C199.816 42.4729 199.695 43.0373 199.705 43.6071C199.715 44.1769 199.856 44.7365 200.117 45.2413C200.378 45.7462 200.751 46.1823 201.207 46.5151C201.866 47.0004 202.664 47.255 203.478 47.2403C204.293 47.2257 205.08 46.9428 205.722 46.4341C206.166 46.0849 206.524 45.6353 206.767 45.1213C207.009 44.6072 207.13 44.0429 207.12 43.473C207.11 42.9032 206.969 42.3436 206.708 41.8388C206.447 41.3339 206.074 40.8978 205.618 40.565C204.958 40.0797 204.161 39.8252 203.347 39.8398C202.532 39.8544 201.745 40.1374 201.103 40.646Z" fill="#22C55E"/>
<path d="M213.579 34.0215C213.579 34.0215 213.579 33.9608 213.579 33.8395C213.574 33.654 213.593 33.4687 213.634 33.2879C213.778 32.6315 214.147 32.0461 214.677 31.6334C215.071 31.3229 215.537 31.118 216.032 31.0379C216.527 30.9578 217.034 31.0052 217.506 31.1756C218.069 31.3709 218.558 31.7349 218.907 32.218C219.291 32.7325 219.5 33.3571 219.503 33.9994C219.5 34.6424 219.293 35.268 218.913 35.7864C218.676 36.1073 218.378 36.3776 218.035 36.5813C217.693 36.785 217.313 36.9181 216.918 36.9726C216.523 37.0271 216.121 37.0019 215.737 36.8986C215.352 36.7953 214.991 36.6159 214.677 36.371C214.146 35.9586 213.777 35.373 213.634 34.7164C213.592 34.5358 213.573 34.3503 213.579 34.1649C213.579 34.0435 213.579 33.9773 213.579 33.9773C213.579 33.9773 213.579 34.2366 213.723 34.6668C213.895 35.2768 214.266 35.8123 214.776 36.189C215.186 36.4962 215.673 36.6833 216.183 36.7293C216.693 36.7753 217.206 36.6784 217.664 36.4494C218.122 36.2203 218.507 35.8683 218.776 35.4326C219.046 34.997 219.188 34.495 219.188 33.9829C219.188 33.4707 219.046 32.9687 218.776 32.5331C218.507 32.0975 218.122 31.7454 217.664 31.5164C217.206 31.2873 216.693 31.1904 216.183 31.2364C215.673 31.2824 215.186 31.4695 214.776 31.7768C214.266 32.1515 213.896 32.685 213.723 33.2935C213.601 33.7678 213.607 34.027 213.579 34.0215Z" fill="#4338CA"/>
<path d="M216.457 36.7579C218.047 36.7579 219.336 35.469 219.336 33.879C219.336 32.289 218.047 31 216.457 31C214.867 31 213.578 32.289 213.578 33.879C213.578 35.469 214.867 36.7579 216.457 36.7579Z" fill="#A5B4FC"/>
<path d="M22.0083 6.03822C23.3282 5.25286 24.7458 4.64548 26.2243 4.23185L27.0893 0.123833L34.1329 0L35.1433 4.07889C36.6342 4.44008 38.0711 4.99599 39.4174 5.73232L42.972 3.43792L48.0602 8.25975L45.8796 11.8506C46.6753 13.1449 47.2915 14.5416 47.7113 16.0024L51.8764 16.8546L52 23.8033L47.864 24.8011C47.4961 26.2739 46.9313 27.69 46.1848 29.0111L48.5182 32.5219L43.6262 37.5185L39.9917 35.3334C38.6749 36.1197 37.2596 36.7271 35.783 37.1398L34.918 41.2478L27.8744 41.3716L26.864 37.2927C25.3731 36.9315 23.9361 36.3756 22.5898 35.6393L19.028 37.941L13.9398 33.1119L16.1205 29.5283C15.3257 28.2335 14.7095 26.8369 14.2887 25.3765L10.1236 24.517L10 17.5756L14.136 16.5705C14.5052 15.0982 15.07 13.6822 15.8152 12.3605L13.4818 8.84975L18.3738 3.8531L22.0083 6.03822ZM26.4933 14.633C25.5891 15.3371 24.861 16.2427 24.3669 17.2779C23.8728 18.313 23.6262 19.4493 23.6467 20.5966C23.6671 21.7439 23.9541 22.8707 24.4848 23.8875C25.0155 24.9043 25.7753 25.7832 26.7041 26.4545C28.0473 27.4326 29.6719 27.946 31.3321 27.917C32.9923 27.8881 34.598 27.3185 35.9066 26.2943C36.8107 25.5901 37.5388 24.6846 38.0329 23.6494C38.527 22.6142 38.7736 21.478 38.7531 20.3307C38.7327 19.1834 38.4457 18.0567 37.915 17.0398C37.3843 16.023 36.6245 15.1441 35.6957 14.4728C34.3525 13.4947 32.728 12.9814 31.0678 13.0103C29.4075 13.0392 27.8018 13.6088 26.4933 14.633Z" fill="#4F46E5"/>
<g filter="url(#filter0_d_5711_234703)">
<rect x="35" y="10" width="150.296" height="107.581" rx="2.53131" fill="white"/>
<path d="M35 12.5313C35 11.1333 36.1333 10 37.5313 10H182.765C184.163 10 185.296 11.1333 185.296 12.5313V25.0296H35V12.5313Z" fill="#FACC15"/>
<path d="M54.3299 41.3491H50V42.1965H54.3299V41.3491Z" fill="#E5E7EB"/>
<path d="M130.161 41.3491H59.4375V42.1965H130.161V41.3491Z" fill="#E5E7EB"/>
<path d="M141.045 41.3491H132.82V42.1965H141.045V41.3491Z" fill="#FACC15"/>
<path d="M167.9 61.3711H145.984V62.2184H167.9V61.3711Z" fill="#E5E7EB"/>
<path d="M169.037 41.3491H142.836V42.1965H169.037V41.3491Z" fill="#6B7280"/>
<path d="M54.3297 45.3525H50V46.2H54.3297V45.3525Z" fill="#E5E7EB"/>
<path d="M96.2585 45.3525H63.6641V46.2H96.2585V45.3525Z" fill="#6B7280"/>
<path d="M144.032 61.3711H131.703V62.2184H144.032V61.3711Z" fill="#6B7280"/>
<path d="M90.5701 57.3652H59.4375V58.2126H90.5701V57.3652Z" fill="#6B7280"/>
<path d="M85.5047 49.3584H63.6641V50.2058H85.5047V49.3584Z" fill="#FACC15"/>
<path d="M170.004 53.3618H138.328V54.2092H170.004V53.3618Z" fill="#6B7280"/>
<path d="M130.16 73.0132H114.039V73.8605H130.16V73.0132Z" fill="#6B7280"/>
<path d="M143.864 49.3584H87.9297V50.2058H143.864V49.3584Z" fill="#6B7280"/>
<path d="M128.882 61.3711H59.4375V62.2184H128.882V61.3711Z" fill="#FACC15"/>
<path d="M140.134 45.3525H98.3047V46.2H140.134V45.3525Z" fill="#E5E7EB"/>
<path d="M161.372 49.3584H147.328V50.2058H161.372V49.3584Z" fill="#E5E7EB"/>
<path d="M54.3297 49.3584H50V50.2058H54.3297V49.3584Z" fill="#E5E7EB"/>
<path d="M54.3299 53.3618H50V54.2092H54.3299V53.3618Z" fill="#6B7280"/>
<path d="M85.0269 53.3618H59.4375V54.2092H85.0269V53.3618Z" fill="#E5E7EB"/>
<path d="M89.2534 65.3745H63.6641V66.2219H89.2534V65.3745Z" fill="#E5E7EB"/>
<path d="M168.154 69.3774H132.43V70.2249H168.154V69.3774Z" fill="#FACC15"/>
<path d="M130.191 69.3774H86.7969V70.2249H130.191V69.3774Z" fill="#E5E7EB"/>
<path d="M82.8988 69.3774H63.6641V70.2249H82.8988V69.3774Z" fill="#6B7280"/>
<path d="M141.05 57.3652H92.3359V58.2126H141.05V57.3652Z" fill="#E5E7EB"/>
<path d="M169.037 57.3652H142.836V58.2126H169.037V57.3652Z" fill="#FACC15"/>
<path d="M136.313 53.3618H87.6328V54.2092H136.313V53.3618Z" fill="#FACC15"/>
<path d="M54.3299 57.3652H50V58.2126H54.3299V57.3652Z" fill="#E5E7EB"/>
<path d="M54.3299 61.3711H50V62.2184H54.3299V61.3711Z" fill="#E5E7EB"/>
<path d="M54.3297 65.3745H50V66.2219H54.3297V65.3745Z" fill="#6B7280"/>
<path d="M54.3297 69.3774H50V70.2249H54.3297V69.3774Z" fill="#E5E7EB"/>
<path d="M54.3299 73.0132H50V73.8605H54.3299V73.0132Z" fill="#E5E7EB"/>
<path d="M110.207 73.0132H59.4375V73.8605H110.207V73.0132Z" fill="#E5E7EB"/>
<path d="M54.3297 77.0195H50V77.8669H54.3297V77.0195Z" fill="#E5E7EB"/>
<path d="M96.2585 77.0195H63.6641V77.8669H96.2585V77.0195Z" fill="#6B7280"/>
<path d="M90.5701 89.0322H59.4375V89.8796H90.5701V89.0322Z" fill="#6B7280"/>
<path d="M85.5047 81.0225H63.6641V81.8699H85.5047V81.0225Z" fill="#FACC15"/>
<path d="M129.657 97.0386H113.672V97.886H129.657V97.0386Z" fill="#FACC15"/>
<path d="M85.5047 105.048H63.6641V105.895H85.5047V105.048Z" fill="#FACC15"/>
<path d="M143.864 81.0225H87.9297V81.8699H143.864V81.0225Z" fill="#6B7280"/>
<path d="M128.882 93.0352H59.4375V93.8825H128.882V93.0352Z" fill="#FACC15"/>
<path d="M140.134 77.0195H98.3047V77.8669H140.134V77.0195Z" fill="#E5E7EB"/>
<path d="M154.338 85.0259H140.32V85.8733H154.338V85.0259Z" fill="#E5E7EB"/>
<path d="M54.3297 81.0225H50V81.8699H54.3297V81.0225Z" fill="#E5E7EB"/>
<path d="M54.3299 85.0259H50V85.8733H54.3299V85.0259Z" fill="#6B7280"/>
<path d="M85.0269 85.0259H59.4375V85.8733H85.0269V85.0259Z" fill="#E5E7EB"/>
<path d="M141.05 89.0322H92.3359V89.8796H141.05V89.0322Z" fill="#E5E7EB"/>
<path d="M136.313 85.0259H87.6328V85.8733H136.313V85.0259Z" fill="#FACC15"/>
<path d="M54.3299 89.0322H50V89.8796H54.3299V89.0322Z" fill="#E5E7EB"/>
<path d="M54.3299 97.0386H50V97.886H54.3299V97.0386Z" fill="#E5E7EB"/>
<path d="M110.207 97.0386H59.4375V97.886H110.207V97.0386Z" fill="#E5E7EB"/>
<path d="M54.3297 101.044H50V101.892H54.3297V101.044Z" fill="#E5E7EB"/>
<path d="M96.2585 101.044H63.6641V101.892H96.2585V101.044Z" fill="#6B7280"/>
<path d="M143.864 105.048H87.9297V105.895H143.864V105.048Z" fill="#6B7280"/>
<path d="M54.3297 105.048H50V105.895H54.3297V105.048Z" fill="#E5E7EB"/>
<path d="M52.1091 33.7347C52.2262 33.8561 52.2262 34.0379 52.1091 34.1547C52.0485 34.2106 51.979 34.2386 51.9041 34.2386C51.8247 34.2386 51.7499 34.2106 51.6894 34.1547L50.3782 32.8247C50.3639 32.8202 50.3593 32.8107 50.3548 32.7968C50.3502 32.7919 50.3405 32.7873 50.3405 32.7873C50.3314 32.7733 50.3314 32.7639 50.3268 32.7499C50.3171 32.7453 50.3125 32.7359 50.3125 32.7313C50.3079 32.7219 50.3079 32.708 50.3034 32.7033C50.3034 32.6894 50.2936 32.6848 50.2936 32.6799V32.6474C50.2936 32.6379 50.2891 32.6335 50.2891 32.6195C50.2891 32.6145 50.2936 32.6005 50.2936 32.596V32.5635C50.2936 32.554 50.3034 32.5495 50.3034 32.5446C50.3079 32.5306 50.3079 32.5214 50.3125 32.5071C50.3125 32.5027 50.3171 32.5027 50.3171 32.4981C50.3268 32.484 50.3314 32.4652 50.3405 32.4561C50.3405 32.4561 50.3405 32.4467 50.3502 32.4467C50.3548 32.4372 50.3639 32.4232 50.3782 32.4141L51.6894 31.0841C51.8059 30.972 51.9972 30.972 52.1091 31.0841C52.2262 31.2006 52.2262 31.3873 52.1091 31.5041L51.0035 32.6195L52.1091 33.7347Z" fill="#FACC15"/>
<path d="M53.2942 33.8826L54.4375 31.1618C54.4934 31.0314 54.6424 30.9706 54.7778 31.0268C54.904 31.0779 54.9646 31.2322 54.9086 31.358L53.7654 34.0834C53.723 34.1814 53.6255 34.2373 53.5272 34.2373C53.4991 34.2373 53.4621 34.2328 53.4341 34.2188C53.2989 34.1673 53.2382 34.0134 53.2942 33.8826Z" fill="#FACC15"/>
<path d="M57.1689 32.7873C57.1689 32.7873 57.1689 32.7919 57.1644 32.7919C57.1546 32.8013 57.1454 32.8153 57.1312 32.8247L55.82 34.1547C55.7641 34.2106 55.6846 34.2386 55.6098 34.2386C55.5304 34.2386 55.4608 34.2106 55.4003 34.1547C55.2832 34.0379 55.2832 33.8561 55.4003 33.7347L56.5059 32.6195L55.4003 31.5041C55.2832 31.3873 55.2832 31.2006 55.4003 31.0841C55.5122 30.972 55.7035 30.972 55.82 31.0841L57.1312 32.4141C57.1454 32.4232 57.1546 32.4372 57.1644 32.4467C57.1689 32.4467 57.1689 32.4561 57.1689 32.4561C57.178 32.4746 57.1871 32.484 57.1924 32.4981C57.1924 32.5027 57.1968 32.5027 57.1968 32.5071C57.2014 32.5214 57.2014 32.5306 57.2106 32.5495C57.2106 32.554 57.2151 32.554 57.2151 32.5635V32.596C57.2151 32.6005 57.2203 32.6145 57.2203 32.6195C57.2203 32.624 57.2151 32.6379 57.2151 32.6425V32.6799C57.2151 32.6848 57.2106 32.6848 57.2106 32.6894C57.2014 32.708 57.2014 32.7219 57.1968 32.7313C57.1968 32.7359 57.1924 32.7359 57.1924 32.7453C57.1871 32.7548 57.178 32.7688 57.1689 32.7873Z" fill="#FACC15"/>
</g>
<defs>
<filter id="filter0_d_5711_234703" x="28.6717" y="5.2538" width="162.953" height="120.237" filterUnits="userSpaceOnUse" color-interpolation-filters="sRGB">
<feFlood flood-opacity="0" result="BackgroundImageFix"/>
<feColorMatrix in="SourceAlpha" type="matrix" values="0 0 0 0 0 0 0 0 0 0 0 0 0 0 0 0 0 0 127 0" result="hardAlpha"/>
<feOffset dy="1.58207"/>
<feGaussianBlur stdDeviation="3.16413"/>
<feComposite in2="hardAlpha" operator="out"/>
<feColorMatrix type="matrix" values="0 0 0 0 0 0 0 0 0 0 0 0 0 0 0 0 0 0 0.15 0"/>
<feBlend mode="normal" in2="BackgroundImageFix" result="effect1_dropShadow_5711_234703"/>
<feBlend mode="normal" in="SourceGraphic" in2="effect1_dropShadow_5711_234703" result="shape"/>
</filter>
</defs>
</svg>
