<svg width="220" height="128" viewBox="0 0 220 128" fill="none" xmlns="http://www.w3.org/2000/svg">
<g clip-path="url(#clip0_5711_234398)">
<path d="M110.841 177.992C156.421 177.992 193.37 141.042 193.37 95.4628C193.37 49.8835 156.421 12.9341 110.841 12.9341C65.2619 12.9341 28.3125 49.8835 28.3125 95.4628C28.3125 141.042 65.2619 177.992 110.841 177.992Z" stroke="#4B5563" stroke-width="0.776842" stroke-linecap="round" stroke-linejoin="round" stroke-dasharray="1.55 2.33"/>
<path d="M80.7971 178.881C68.1252 178.881 57.5845 174.978 50.0338 167.427C27.7224 145.116 39.1217 97.3996 75.4324 61.1072C93.0184 43.5273 113.753 31.1964 133.817 26.398C153.881 21.5996 170.962 24.8939 181.752 35.7086C191.136 45.0983 194.936 59.591 192.445 76.5071L192.147 76.4645C194.619 59.6336 190.85 45.2323 181.533 35.9156C170.797 25.174 153.875 21.9102 133.89 26.6842C113.905 31.4582 93.195 43.7709 75.6516 61.3142C39.4505 97.5153 28.0574 145.018 50.2469 167.202C59.0825 176.037 72.0528 179.837 87.7572 178.193L87.7876 178.497C85.4657 178.746 83.1323 178.874 80.7971 178.881Z" fill="#BAE6FD"/>
<path d="M146.414 164.907C125.491 164.907 101.085 156.54 79.2123 140.172C38.8826 109.993 22.2161 63.8726 42.0674 37.3596C50.769 25.729 65.5661 19.2865 83.7245 19.2256V19.5301C65.6635 19.5909 50.9578 25.9847 42.317 37.5423C22.5815 63.9213 39.2176 109.853 79.4133 139.928C119.609 170.004 168.366 173.012 188.108 146.627C196.28 135.696 198.515 121.319 194.563 105.049L194.861 104.976C198.831 121.344 196.578 135.806 188.351 146.803C179.254 158.945 164.073 164.901 146.414 164.907Z" fill="#BAE6FD"/>
<path d="M72.2831 129.447C65.8759 129.478 59.4751 129.038 53.1322 128.132C34.2553 125.325 22.4968 118.341 20.1097 108.464C17.7227 98.5867 24.9812 87.0109 40.5151 75.8857C56.049 64.7605 77.9462 55.4316 102.237 49.5615C126.527 43.6914 150.3 41.9986 169.158 44.7997C188.017 47.6008 199.8 54.5852 202.187 64.4682C204.574 74.3512 197.315 85.9148 181.782 97.0401C166.248 108.165 144.356 117.488 120.06 123.358C103.418 127.377 87.0193 129.447 72.2831 129.447ZM150.038 43.8071C135.643 43.8071 119.287 45.7557 102.304 49.8599C78.0497 55.7178 56.1647 65.0467 40.6917 76.1232C25.2187 87.1997 18.0515 98.6537 20.4081 108.397C22.7647 118.14 34.4136 125.051 53.1809 127.834C71.9482 130.617 95.7332 128.936 119.987 123.078C170.023 110.991 206.766 84.7152 201.889 64.5535C198.667 51.2056 178.073 43.8071 150.038 43.8071Z" fill="#BAE6FD"/>
<path d="M90.3816 188.113C89.1512 188.11 87.9251 187.965 86.728 187.68C76.8451 185.293 69.9215 173.315 67.2422 153.951C64.5629 134.587 66.3897 110.279 72.412 85.3428C78.4344 60.407 87.9215 37.8947 99.132 21.9407C110.342 5.98663 121.991 -1.55196 131.874 0.83506C141.757 3.22208 148.681 15.1998 151.36 34.5578C154.04 53.9158 152.207 78.2366 146.184 103.172C140.162 128.108 130.65 150.62 119.44 166.593C109.575 180.598 99.406 188.113 90.3816 188.113ZM128.172 0.707184C108.54 0.707184 84.3289 37.0544 72.6617 85.4159C60.2882 136.755 66.5845 182.504 86.7707 187.382C96.5136 189.738 108.035 182.285 119.19 166.398C130.346 150.511 139.851 127.993 145.868 103.069C158.272 51.7175 151.957 5.97446 131.759 1.10299C130.583 0.828416 129.379 0.695534 128.172 0.707184Z" fill="#BAE6FD"/>
<path d="M65.2676 129.981C65.4806 130.194 65.7519 130.339 66.0471 130.397C66.3423 130.455 66.6482 130.425 66.9261 130.31C67.2041 130.194 67.4416 129.999 67.6087 129.749C67.7758 129.499 67.865 129.205 67.865 128.904C67.865 128.603 67.7758 128.309 67.6087 128.058C67.4416 127.808 67.2041 127.613 66.9261 127.498C66.6482 127.382 66.3423 127.352 66.0471 127.41C65.7519 127.469 65.4806 127.613 65.2676 127.826C65.1258 127.967 65.0133 128.135 64.9366 128.32C64.8598 128.505 64.8203 128.703 64.8203 128.904C64.8203 129.104 64.8598 129.302 64.9366 129.487C65.0133 129.672 65.1258 129.84 65.2676 129.981Z" fill="#BAE6FD"/>
<path d="M66.3374 130.576C66.1159 130.573 65.8973 130.525 65.6944 130.437C65.4916 130.348 65.3085 130.219 65.156 130.059C64.8842 129.785 64.7158 129.425 64.6793 129.041C64.6429 128.657 64.7407 128.272 64.9562 127.952C65.1716 127.632 65.4914 127.396 65.8609 127.285C66.2305 127.174 66.6271 127.195 66.9832 127.344C67.3393 127.492 67.6328 127.76 67.8138 128.101C67.9949 128.441 68.0522 128.834 67.976 129.213C67.8999 129.591 67.695 129.931 67.3962 130.175C67.0974 130.419 66.7232 130.552 66.3374 130.552V130.576ZM66.3374 127.531C66.0666 127.532 65.8019 127.612 65.5768 127.763C65.3517 127.913 65.1763 128.127 65.0727 128.377C64.9691 128.628 64.942 128.903 64.9947 129.169C65.0475 129.434 65.1778 129.678 65.3692 129.87C65.6298 130.119 65.9766 130.258 66.3374 130.258C66.6981 130.258 67.0449 130.119 67.3056 129.87C67.4969 129.678 67.6272 129.434 67.68 129.169C67.7328 128.903 67.7056 128.628 67.602 128.377C67.4984 128.127 67.323 127.913 67.0979 127.763C66.8728 127.612 66.6082 127.532 66.3374 127.531Z" fill="#BAE6FD"/>
<path d="M45.0614 104.989C45.2741 105.202 45.5453 105.348 45.8408 105.407C46.1362 105.466 46.4426 105.436 46.721 105.321C46.9994 105.206 47.2375 105.011 47.405 104.76C47.5725 104.51 47.6619 104.215 47.6619 103.914C47.6619 103.613 47.5725 103.318 47.405 103.068C47.2375 102.817 46.9994 102.622 46.721 102.507C46.4426 102.392 46.1362 102.362 45.8408 102.421C45.5453 102.48 45.2741 102.626 45.0614 102.839C44.7769 103.125 44.6172 103.511 44.6172 103.914C44.6172 104.317 44.7769 104.703 45.0614 104.989Z" fill="#BAE6FD"/>
<path d="M46.1349 105.586C45.7473 105.586 45.3718 105.451 45.0723 105.205C44.7729 104.959 44.5681 104.617 44.4928 104.237C44.4176 103.856 44.4765 103.462 44.6597 103.12C44.8428 102.779 45.1388 102.511 45.4971 102.363C45.8554 102.216 46.2539 102.197 46.6246 102.31C46.9953 102.423 47.3153 102.661 47.5299 102.984C47.7445 103.307 47.8406 103.694 47.8016 104.08C47.7626 104.465 47.5911 104.825 47.3163 105.099C47.0024 105.411 46.5776 105.586 46.1349 105.586ZM46.1349 102.541C45.8195 102.543 45.5143 102.654 45.2715 102.855C45.0287 103.057 44.8632 103.336 44.8032 103.646C44.7432 103.956 44.7925 104.277 44.9425 104.554C45.0926 104.832 45.3342 105.048 45.6262 105.168C45.9182 105.287 46.2426 105.302 46.5441 105.209C46.8455 105.116 47.1055 104.921 47.2797 104.658C47.4538 104.395 47.5314 104.08 47.4992 103.766C47.467 103.452 47.3271 103.159 47.1031 102.937C46.8441 102.685 46.4963 102.545 46.1349 102.547V102.541Z" fill="#BAE6FD"/>
<path d="M34.7779 80.8462C34.991 81.0588 35.2622 81.2034 35.5574 81.2618C35.8526 81.3202 36.1585 81.2898 36.4365 81.1745C36.7144 81.0592 36.9519 80.8641 37.119 80.6138C37.2862 80.3635 37.3753 80.0694 37.3753 79.7684C37.3753 79.4675 37.2862 79.1733 37.119 78.9231C36.9519 78.6728 36.7144 78.4777 36.4365 78.3623C36.1585 78.247 35.8526 78.2166 35.5574 78.2751C35.2622 78.3335 34.991 78.4781 34.7779 78.6906C34.6354 78.8316 34.5223 78.9995 34.4451 79.1845C34.3679 79.3695 34.3281 79.568 34.3281 79.7684C34.3281 79.9689 34.3679 80.1674 34.4451 80.3524C34.5223 80.5374 34.6354 80.7052 34.7779 80.8462Z" fill="#BAE6FD"/>
<path d="M35.8512 81.4368C35.4088 81.4357 34.9845 81.2607 34.6699 80.9497C34.4358 80.7155 34.2764 80.4171 34.2118 80.0923C34.1473 79.7675 34.1805 79.4308 34.3072 79.1249C34.434 78.8189 34.6486 78.5574 34.924 78.3735C35.1994 78.1895 35.5231 78.0913 35.8543 78.0913C36.1854 78.0913 36.5091 78.1895 36.7845 78.3735C37.0599 78.5574 37.2745 78.8189 37.4013 79.1249C37.528 79.4308 37.5612 79.7675 37.4967 80.0923C37.4321 80.4171 37.2727 80.7155 37.0386 80.9497C36.7225 81.2622 36.2957 81.4373 35.8512 81.4368ZM34.883 80.7366C35.0745 80.9283 35.3187 81.059 35.5845 81.112C35.8503 81.165 36.1259 81.138 36.3763 81.0343C36.6268 80.9307 36.8409 80.7551 36.9915 80.5297C37.1421 80.3044 37.2225 80.0394 37.2225 79.7684C37.2225 79.4973 37.1421 79.2324 36.9915 79.007C36.8409 78.7817 36.6268 78.606 36.3763 78.5024C36.1259 78.3987 35.8503 78.3717 35.5845 78.4247C35.3187 78.4777 35.0745 78.6084 34.883 78.8002C34.6264 79.0571 34.4823 79.4053 34.4823 79.7684C34.4823 80.1314 34.6264 80.4797 34.883 80.7366Z" fill="#BAE6FD"/>
<path d="M38.6113 126.032C38.8244 126.244 39.0956 126.389 39.3908 126.447C39.686 126.506 39.9919 126.475 40.2699 126.36C40.5478 126.245 40.7853 126.05 40.9524 125.799C41.1195 125.549 41.2087 125.255 41.2087 124.954C41.2087 124.653 41.1195 124.359 40.9524 124.109C40.7853 123.858 40.5478 123.663 40.2699 123.548C39.9919 123.433 39.686 123.402 39.3908 123.461C39.0956 123.519 38.8244 123.664 38.6113 123.876C38.4695 124.018 38.3571 124.186 38.2803 124.371C38.2036 124.555 38.1641 124.754 38.1641 124.954C38.1641 125.154 38.2036 125.352 38.2803 125.537C38.3571 125.722 38.4695 125.89 38.6113 126.032Z" fill="#BAE6FD"/>
<path d="M39.6913 126.625C39.2467 126.626 38.82 126.451 38.5039 126.138C38.1911 125.824 38.0156 125.398 38.0156 124.954C38.0156 124.51 38.1911 124.084 38.5039 123.77C38.6982 123.574 38.9378 123.43 39.2013 123.349C39.4648 123.269 39.7441 123.255 40.0144 123.308C40.2847 123.361 40.5377 123.48 40.751 123.655C40.9643 123.829 41.1312 124.054 41.237 124.308C41.3427 124.562 41.3841 124.839 41.3574 125.113C41.3307 125.387 41.2367 125.651 41.0839 125.88C40.931 126.109 40.7239 126.297 40.481 126.427C40.238 126.557 39.9668 126.625 39.6913 126.625ZM39.6913 123.581C39.4205 123.581 39.1558 123.662 38.9307 123.812C38.7056 123.963 38.5302 124.177 38.4266 124.427C38.323 124.677 38.2959 124.952 38.3486 125.218C38.4014 125.484 38.5317 125.728 38.7231 125.919C38.9837 126.169 39.3306 126.308 39.6913 126.308C40.052 126.308 40.3988 126.169 40.6595 125.919C40.8509 125.728 40.9812 125.484 41.0339 125.218C41.0867 124.952 41.0596 124.677 40.956 124.427C40.8524 124.177 40.6769 123.963 40.4518 123.812C40.2267 123.662 39.9621 123.581 39.6913 123.581Z" fill="#BAE6FD"/>
<path d="M80.8061 56.5658C81.0188 56.7792 81.2901 56.9247 81.5855 56.9838C81.8809 57.0429 82.1873 57.0131 82.4657 56.898C82.7442 56.7829 82.9822 56.5878 83.1497 56.3373C83.3172 56.0869 83.4066 55.7924 83.4066 55.4911C83.4066 55.1898 83.3172 54.8953 83.1497 54.6448C82.9822 54.3944 82.7442 54.1993 82.4657 54.0842C82.1873 53.9691 81.8809 53.9392 81.5855 53.9984C81.2901 54.0575 81.0188 54.2029 80.8061 54.4163C80.6645 54.5572 80.5522 54.7247 80.4755 54.9091C80.3988 55.0936 80.3594 55.2913 80.3594 55.4911C80.3594 55.6908 80.3988 55.8886 80.4755 56.073C80.5522 56.2575 80.6645 56.425 80.8061 56.5658Z" fill="#BAE6FD"/>
<path d="M81.8754 57.1572C81.5996 57.1581 81.3279 57.0909 81.0843 56.9616C80.8408 56.8322 80.6329 56.6447 80.4793 56.4156C80.3256 56.1866 80.2309 55.9232 80.2036 55.6488C80.1762 55.3744 80.2171 55.0974 80.3225 54.8426C80.4279 54.5877 80.5946 54.3629 80.8078 54.188C81.0211 54.0131 81.2742 53.8935 81.5447 53.84C81.8152 53.7864 82.0948 53.8005 82.3586 53.881C82.6224 53.9615 82.8622 54.1059 83.0567 54.3013C83.2898 54.5355 83.4484 54.8334 83.5126 55.1575C83.5767 55.4816 83.5436 55.8174 83.4173 56.1227C83.291 56.4281 83.0772 56.6892 82.8028 56.8733C82.5285 57.0573 82.2058 57.1561 81.8754 57.1572ZM81.8754 54.1126C81.6958 54.1109 81.5177 54.1451 81.3515 54.213C81.1852 54.281 81.0342 54.3814 80.9072 54.5084C80.6786 54.7328 80.535 55.0296 80.501 55.3482C80.467 55.6667 80.5447 55.9872 80.7208 56.2548C80.8969 56.5224 81.1605 56.7205 81.4666 56.8152C81.7726 56.91 82.102 56.8956 82.3985 56.7743C82.6951 56.6531 82.9403 56.4327 83.0923 56.1507C83.2443 55.8686 83.2936 55.5426 83.2318 55.2283C83.17 54.9139 83.001 54.6308 82.7536 54.4273C82.5062 54.2238 82.1958 54.1125 81.8754 54.1126Z" fill="#BAE6FD"/>
<path d="M148.361 25.1181C148.574 25.3315 148.845 25.4769 149.14 25.5361C149.436 25.5952 149.742 25.5653 150.02 25.4502C150.299 25.3352 150.537 25.14 150.704 24.8896C150.872 24.6391 150.961 24.3446 150.961 24.0433C150.961 23.742 150.872 23.4475 150.704 23.1971C150.537 22.9466 150.299 22.7515 150.02 22.6364C149.742 22.5213 149.436 22.4915 149.14 22.5506C148.845 22.6097 148.574 22.7552 148.361 22.9686C148.219 23.1095 148.107 23.2769 148.03 23.4614C147.954 23.6458 147.914 23.8436 147.914 24.0433C147.914 24.2431 147.954 24.4408 148.03 24.6253C148.107 24.8097 148.219 24.9772 148.361 25.1181Z" fill="#BAE6FD"/>
<path d="M149.438 25.7122C149.218 25.7133 149.001 25.6708 148.798 25.5871C148.595 25.5035 148.411 25.3804 148.256 25.2251C148.101 25.0695 147.977 24.8849 147.893 24.6817C147.809 24.4784 147.766 24.2606 147.766 24.0407C147.766 23.8207 147.809 23.6029 147.893 23.3997C147.977 23.1965 148.101 23.0118 148.256 22.8563C148.412 22.7008 148.596 22.5774 148.8 22.4932C149.003 22.409 149.221 22.3657 149.441 22.3657C149.661 22.3657 149.878 22.409 150.082 22.4932C150.285 22.5774 150.469 22.7008 150.625 22.8563C150.938 23.1712 151.113 23.5969 151.113 24.0407C151.113 24.4844 150.938 24.9102 150.625 25.2251C150.469 25.3809 150.284 25.5042 150.08 25.5878C149.876 25.6715 149.658 25.7137 149.438 25.7122ZM149.438 22.6675C149.258 22.6675 149.08 22.703 148.914 22.7719C148.748 22.8409 148.598 22.9419 148.471 23.0692C148.344 23.1965 148.244 23.3476 148.176 23.5138C148.107 23.68 148.073 23.858 148.074 24.0376C148.073 24.2171 148.107 24.395 148.175 24.5612C148.243 24.7273 148.343 24.8784 148.469 25.0058C148.731 25.2556 149.079 25.395 149.441 25.395C149.802 25.395 150.15 25.2556 150.412 25.0058C150.667 24.7482 150.81 24.4002 150.81 24.0376C150.81 23.675 150.667 23.3271 150.412 23.0694C150.152 22.8132 149.802 22.6689 149.438 22.6675Z" fill="#BAE6FD"/>
<path d="M151.228 44.7284C151.441 44.9418 151.712 45.0873 152.007 45.1464C152.303 45.2055 152.609 45.1757 152.888 45.0606C153.166 44.9455 153.404 44.7504 153.572 44.4999C153.739 44.2495 153.828 43.955 153.828 43.6537C153.828 43.3524 153.739 43.0579 153.572 42.8074C153.404 42.557 153.166 42.3619 152.888 42.2468C152.609 42.1317 152.303 42.1018 152.007 42.1609C151.712 42.2201 151.441 42.3655 151.228 42.5789C151.086 42.7198 150.974 42.8873 150.897 43.0717C150.821 43.2562 150.781 43.4539 150.781 43.6537C150.781 43.8534 150.821 44.0512 150.897 44.2356C150.974 44.4201 151.086 44.5876 151.228 44.7284Z" fill="#BAE6FD"/>
<path d="M152.301 45.3311C152.08 45.3326 151.862 45.2903 151.658 45.2067C151.454 45.1231 151.269 44.9998 151.113 44.8439C150.801 44.5291 150.625 44.1033 150.625 43.6595C150.625 43.2158 150.801 42.79 151.113 42.4752C151.308 42.2799 151.547 42.1356 151.811 42.0551C152.074 41.9745 152.353 41.9603 152.624 42.0135C152.894 42.0668 153.147 42.1859 153.36 42.3604C153.574 42.5348 153.741 42.7592 153.846 43.0136C153.952 43.268 153.994 43.5446 153.967 43.8188C153.94 44.0931 153.846 44.3565 153.693 44.5857C153.54 44.8149 153.333 45.0029 153.09 45.1329C152.847 45.2629 152.576 45.331 152.301 45.3311ZM151.332 44.6247C151.593 44.8741 151.94 45.0133 152.301 45.0133C152.661 45.0133 153.008 44.8741 153.269 44.6247C153.397 44.498 153.498 44.3472 153.567 44.181C153.636 44.0147 153.671 43.8365 153.671 43.6565C153.669 43.2935 153.525 42.9457 153.269 42.6883C153.008 42.4389 152.661 42.2997 152.301 42.2997C151.94 42.2997 151.593 42.4389 151.332 42.6883C151.076 42.9452 150.932 43.2934 150.932 43.6565C150.932 44.0196 151.076 44.3678 151.332 44.6247Z" fill="#BAE6FD"/>
<path d="M141.423 117.423C141.636 117.637 141.907 117.782 142.203 117.841C142.498 117.9 142.804 117.87 143.083 117.755C143.361 117.64 143.599 117.445 143.767 117.195C143.934 116.944 144.024 116.65 144.024 116.349C144.024 116.047 143.934 115.753 143.767 115.502C143.599 115.252 143.361 115.057 143.083 114.942C142.804 114.827 142.498 114.797 142.203 114.856C141.907 114.915 141.636 115.06 141.423 115.274C141.282 115.415 141.169 115.582 141.093 115.767C141.016 115.951 140.977 116.149 140.977 116.349C140.977 116.548 141.016 116.746 141.093 116.93C141.169 117.115 141.282 117.282 141.423 117.423Z" fill="#BAE6FD"/>
<path d="M142.489 118.021C142.045 118.021 141.618 117.846 141.302 117.534C141.026 117.26 140.853 116.899 140.813 116.512C140.774 116.125 140.87 115.736 141.084 115.412C141.299 115.088 141.62 114.848 141.992 114.734C142.363 114.62 142.763 114.638 143.123 114.785C143.483 114.933 143.781 115.201 143.965 115.543C144.149 115.886 144.209 116.282 144.135 116.663C144.06 117.045 143.855 117.389 143.555 117.637C143.255 117.884 142.878 118.02 142.489 118.021ZM141.521 117.321C141.713 117.512 141.957 117.641 142.223 117.694C142.488 117.746 142.764 117.719 143.014 117.615C143.263 117.511 143.477 117.335 143.627 117.11C143.778 116.885 143.858 116.62 143.858 116.349C143.858 116.079 143.778 115.814 143.627 115.589C143.477 115.364 143.263 115.188 143.014 115.084C142.764 114.98 142.488 114.953 142.223 115.005C141.957 115.057 141.713 115.187 141.521 115.378C141.264 115.636 141.12 115.985 141.12 116.349C141.12 116.714 141.264 117.063 141.521 117.321Z" fill="#BAE6FD"/>
<path d="M189.845 52.978C190.058 53.1913 190.329 53.3368 190.625 53.3959C190.92 53.455 191.226 53.4252 191.505 53.3101C191.783 53.195 192.021 52.9999 192.189 52.7494C192.356 52.499 192.446 52.2045 192.446 51.9032C192.446 51.6019 192.356 51.3074 192.189 51.0569C192.021 50.8065 191.783 50.6114 191.505 50.4963C191.226 50.3812 190.92 50.3513 190.625 50.4105C190.329 50.4696 190.058 50.615 189.845 50.8284C189.704 50.9693 189.591 51.1368 189.515 51.3212C189.438 51.5057 189.398 51.7035 189.398 51.9032C189.398 52.1029 189.438 52.3007 189.515 52.4852C189.591 52.6696 189.704 52.8371 189.845 52.978Z" fill="#BAE6FD"/>
<path d="M190.925 53.5746C190.7 53.5802 190.475 53.5399 190.266 53.4562C190.057 53.3725 189.867 53.247 189.707 53.0874C189.471 52.8528 189.31 52.5534 189.244 52.2271C189.178 51.9007 189.211 51.5622 189.338 51.2545C189.465 50.9467 189.68 50.6836 189.957 50.4984C190.233 50.3132 190.559 50.2144 190.892 50.2144C191.224 50.2144 191.55 50.3132 191.826 50.4984C192.103 50.6836 192.319 50.9467 192.445 51.2545C192.572 51.5622 192.605 51.9007 192.539 52.2271C192.473 52.5534 192.312 52.8528 192.076 53.0874C191.771 53.3939 191.358 53.5687 190.925 53.5746ZM190.925 50.5299C190.654 50.5301 190.39 50.6106 190.165 50.7612C189.939 50.9118 189.764 51.1257 189.66 51.3759C189.557 51.6261 189.53 51.9014 189.582 52.167C189.635 52.4326 189.766 52.6766 189.957 52.8682C190.218 53.1176 190.564 53.2568 190.925 53.2568C191.286 53.2568 191.633 53.1176 191.893 52.8682C192.085 52.6766 192.215 52.4326 192.268 52.167C192.32 51.9014 192.293 51.6261 192.19 51.3759C192.086 51.1257 191.911 50.9118 191.686 50.7612C191.461 50.6106 191.196 50.5301 190.925 50.5299Z" fill="#BAE6FD"/>
<path d="M90.442 13.1776L90.1406 13.2207L90.6539 16.8135L90.9553 16.7704L90.442 13.1776Z" fill="#BAE6FD"/>
<path d="M139.831 178.475C137.496 178.472 135.163 178.348 132.841 178.104L132.871 177.799C148.575 179.443 161.546 175.643 170.381 166.838C192.571 144.649 181.172 97.1458 144.977 60.9508C127.433 43.4075 106.748 31.1131 86.7382 26.3147C66.7287 21.5163 49.8308 24.8107 39.0892 35.5462C29.7725 44.8628 26.0093 59.2946 28.4816 76.1011L28.1832 76.1437C25.6927 59.2093 29.4863 44.7167 38.8761 35.3452C49.6908 24.5305 66.7165 21.218 86.8113 26.0285C106.906 30.8391 127.61 43.1639 145.19 60.7377C181.507 97.0545 192.906 144.771 170.594 167.057C163.044 174.572 152.497 178.475 139.831 178.475Z" fill="#BAE6FD"/>
<path d="M74.1334 164.541C55.8654 164.541 41.111 158.19 32.2936 146.407C24.0608 135.404 21.8139 120.942 25.7841 104.58L26.0825 104.653C22.1305 120.924 24.3592 135.3 32.5372 146.225C42.0914 159.012 58.6543 165.339 79.1693 164.079C99.6843 162.818 121.782 154.098 141.232 139.52C181.421 109.445 198.064 63.5133 178.322 37.1344C169.681 25.5646 154.975 19.1891 136.914 19.1282V18.8237C155.073 18.8846 169.864 25.321 178.566 36.9517C198.411 63.4646 181.744 109.591 141.421 139.764C121.892 154.378 99.7939 163.123 79.1937 164.383C77.4805 164.485 75.7938 164.537 74.1334 164.541Z" fill="#BAE6FD"/>
<path d="M148.348 129.033C133.606 129.033 117.213 126.968 100.565 122.943C76.2748 117.073 54.3532 107.72 38.8498 96.6313C23.3463 85.5427 16.0574 73.9364 18.4444 64.0534C20.8315 54.1704 32.5595 47.1859 51.4669 44.3849C70.3743 41.5838 94.0922 43.2827 118.395 49.1467C142.697 55.0107 164.613 64.37 180.116 75.4648C195.62 86.5596 202.903 98.1597 200.516 108.037C198.128 117.914 186.4 124.904 167.493 127.705C161.153 128.616 154.754 129.059 148.348 129.033ZM70.6361 43.3801C64.2453 43.3505 57.8609 43.788 51.5339 44.6893C32.7544 47.4782 21.1176 54.3835 18.7611 64.1326C16.4045 73.8816 23.6325 85.3417 39.0446 96.406C54.4567 107.47 76.3966 116.811 100.657 122.669C150.693 134.757 195.364 128.15 200.241 107.988C202.598 98.245 195.37 86.7849 179.958 75.7145C164.546 64.6441 142.6 55.3091 118.34 49.4512C101.692 45.414 85.3297 43.3801 70.6361 43.3801Z" fill="#BAE6FD"/>
<path d="M130.247 187.706C121.228 187.706 111.059 180.217 101.188 166.175C89.9839 150.214 80.4845 127.696 74.4682 102.766C68.452 77.8366 66.613 53.4428 69.2984 34.1578C71.9838 14.8729 78.9195 2.82213 88.7843 0.435114C98.649 -1.9519 110.292 5.53798 121.527 21.5347C132.761 37.5313 142.23 60.0071 148.247 84.9429C154.263 109.879 156.102 134.266 153.416 153.551C150.731 172.836 143.814 184.863 133.967 187.298C132.748 187.583 131.499 187.72 130.247 187.706ZM92.4927 0.30115C91.2743 0.298736 90.06 0.441834 88.8756 0.727404C79.1327 3.08398 72.2822 14.9704 69.609 34.2187C66.9357 53.4671 68.7564 77.8184 74.7727 102.712C80.789 127.605 90.2579 150.093 101.444 166.041C112.63 181.989 124.115 189.375 133.87 187.018C154.062 182.104 160.37 136.361 147.973 84.9977C141.962 60.1045 132.487 37.6227 121.301 21.6686C111.491 7.7484 101.407 0.30115 92.4866 0.30115H92.4927Z" fill="#BAE6FD"/>
<path d="M155.358 129.571C155.146 129.784 154.874 129.93 154.579 129.989C154.283 130.048 153.977 130.018 153.699 129.903C153.42 129.788 153.182 129.593 153.015 129.342C152.847 129.092 152.758 128.797 152.758 128.496C152.758 128.195 152.847 127.9 153.015 127.65C153.182 127.399 153.42 127.204 153.699 127.089C153.977 126.974 154.283 126.944 154.579 127.003C154.874 127.062 155.146 127.208 155.358 127.421C155.5 127.562 155.612 127.73 155.689 127.914C155.766 128.098 155.805 128.296 155.805 128.496C155.805 128.696 155.766 128.893 155.689 129.078C155.612 129.262 155.5 129.43 155.358 129.571Z" fill="#BAE6FD"/>
<path d="M154.282 130.174C153.893 130.176 153.516 130.043 153.214 129.797C152.912 129.552 152.705 129.209 152.627 128.828C152.55 128.446 152.607 128.05 152.79 127.706C152.972 127.363 153.268 127.093 153.627 126.943C153.986 126.793 154.386 126.772 154.759 126.884C155.131 126.996 155.453 127.234 155.67 127.557C155.887 127.881 155.985 128.269 155.947 128.656C155.91 129.043 155.739 129.406 155.464 129.681C155.309 129.837 155.125 129.961 154.923 130.046C154.72 130.131 154.502 130.174 154.282 130.174ZM154.282 127.13C154.102 127.129 153.923 127.165 153.755 127.234C153.588 127.303 153.436 127.404 153.308 127.532C153.181 127.659 153.081 127.81 153.013 127.976C152.945 128.142 152.911 128.32 152.912 128.5C152.912 128.862 153.054 129.21 153.308 129.468C153.569 129.717 153.916 129.856 154.276 129.856C154.637 129.856 154.984 129.717 155.245 129.468C155.501 129.211 155.645 128.863 155.645 128.5C155.645 128.137 155.501 127.788 155.245 127.532C155.119 127.404 154.969 127.303 154.804 127.234C154.639 127.165 154.462 127.129 154.282 127.13Z" fill="#BAE6FD"/>
<path d="M175.566 104.59C175.353 104.802 175.082 104.947 174.787 105.005C174.491 105.064 174.186 105.033 173.908 104.918C173.63 104.803 173.392 104.608 173.225 104.357C173.058 104.107 172.969 103.813 172.969 103.512C172.969 103.211 173.058 102.917 173.225 102.667C173.392 102.416 173.63 102.221 173.908 102.106C174.186 101.991 174.491 101.96 174.787 102.019C175.082 102.077 175.353 102.222 175.566 102.434C175.708 102.576 175.82 102.744 175.897 102.929C175.974 103.114 176.013 103.312 176.013 103.512C176.013 103.712 175.974 103.911 175.897 104.096C175.82 104.28 175.708 104.448 175.566 104.59Z" fill="#BAE6FD"/>
<path d="M174.494 105.185C174.104 105.188 173.724 105.055 173.421 104.808C173.117 104.562 172.909 104.218 172.831 103.835C172.753 103.452 172.81 103.054 172.993 102.709C173.176 102.364 173.473 102.093 173.834 101.942C174.194 101.792 174.596 101.771 174.97 101.884C175.344 101.996 175.668 102.235 175.885 102.56C176.103 102.885 176.2 103.275 176.162 103.664C176.124 104.053 175.952 104.416 175.676 104.692C175.521 104.848 175.337 104.972 175.134 105.057C174.932 105.142 174.714 105.185 174.494 105.185ZM174.494 102.141C174.314 102.14 174.136 102.175 173.969 102.244C173.803 102.313 173.652 102.414 173.526 102.543C173.284 102.802 173.152 103.146 173.159 103.501C173.165 103.856 173.309 104.195 173.56 104.446C173.811 104.697 174.149 104.84 174.504 104.847C174.859 104.853 175.203 104.721 175.462 104.479C175.719 104.222 175.863 103.874 175.863 103.511C175.863 103.148 175.719 102.8 175.462 102.543C175.336 102.415 175.185 102.313 175.019 102.244C174.853 102.175 174.674 102.14 174.494 102.141Z" fill="#BAE6FD"/>
<path d="M185.85 80.4301C185.638 80.6435 185.367 80.7889 185.071 80.8481C184.776 80.9072 184.469 80.8773 184.191 80.7622C183.912 80.6472 183.674 80.452 183.507 80.2016C183.339 79.9511 183.25 79.6566 183.25 79.3553C183.25 79.054 183.339 78.7595 183.507 78.5091C183.674 78.2586 183.912 78.0635 184.191 77.9484C184.469 77.8334 184.776 77.8035 185.071 77.8626C185.367 77.9217 185.638 78.0672 185.85 78.2806C185.992 78.4215 186.104 78.5889 186.181 78.7734C186.258 78.9578 186.297 79.1556 186.297 79.3553C186.297 79.5551 186.258 79.7528 186.181 79.9373C186.104 80.1217 185.992 80.2892 185.85 80.4301Z" fill="#BAE6FD"/>
<path d="M184.776 81.0337C184.388 81.0341 184.011 80.8997 183.71 80.6534C183.409 80.407 183.203 80.064 183.126 79.6827C183.05 79.3014 183.108 78.9054 183.291 78.5623C183.474 78.2192 183.771 77.9501 184.13 77.8009C184.489 77.6518 184.889 77.6317 185.261 77.7443C185.633 77.8568 185.955 78.0949 186.171 78.418C186.387 78.7411 186.485 79.1293 186.447 79.5163C186.409 79.9033 186.239 80.2652 185.964 80.5404C185.808 80.6971 185.623 80.8214 185.42 80.906C185.216 80.9907 184.997 81.0341 184.776 81.0337ZM184.776 77.989C184.596 77.9882 184.418 78.0233 184.252 78.0923C184.085 78.1613 183.935 78.2628 183.808 78.3909C183.552 78.6478 183.407 78.996 183.407 79.3591C183.407 79.7222 183.552 80.0704 183.808 80.3273C184.069 80.5767 184.416 80.7159 184.776 80.7159C185.137 80.7159 185.484 80.5767 185.745 80.3273C186.001 80.0704 186.145 79.7222 186.145 79.3591C186.145 78.996 186.001 78.6478 185.745 78.3909C185.618 78.2625 185.468 78.1608 185.301 78.0918C185.135 78.0228 184.956 77.9878 184.776 77.989Z" fill="#BAE6FD"/>
<path d="M182.03 125.621C181.817 125.834 181.546 125.98 181.251 126.039C180.955 126.098 180.649 126.068 180.371 125.953C180.092 125.838 179.854 125.643 179.687 125.393C179.519 125.142 179.43 124.848 179.43 124.546C179.43 124.245 179.519 123.95 179.687 123.7C179.854 123.45 180.092 123.254 180.371 123.139C180.649 123.024 180.955 122.994 181.251 123.054C181.546 123.113 181.817 123.258 182.03 123.471C182.315 123.757 182.474 124.143 182.474 124.546C182.474 124.949 182.315 125.336 182.03 125.621Z" fill="#BAE6FD"/>
<path d="M180.956 126.223C180.513 126.223 180.088 126.047 179.774 125.735C179.46 125.422 179.283 124.998 179.281 124.555C179.28 124.279 179.348 124.007 179.477 123.764C179.606 123.52 179.794 123.312 180.023 123.158C180.252 123.005 180.515 122.91 180.79 122.883C181.064 122.855 181.341 122.896 181.596 123.002C181.851 123.107 182.076 123.274 182.25 123.487C182.425 123.7 182.545 123.953 182.599 124.224C182.652 124.494 182.638 124.774 182.557 125.038C182.477 125.302 182.333 125.541 182.137 125.736C181.983 125.892 181.798 126.015 181.596 126.098C181.393 126.182 181.175 126.224 180.956 126.223ZM180.956 123.178C180.592 123.178 180.244 123.323 179.987 123.58C179.73 123.837 179.586 124.185 179.586 124.549C179.586 124.819 179.666 125.084 179.817 125.309C179.968 125.534 180.181 125.71 180.432 125.813C180.682 125.917 180.957 125.944 181.223 125.891C181.488 125.838 181.732 125.708 181.924 125.517C182.115 125.325 182.246 125.081 182.298 124.815C182.351 124.55 182.324 124.275 182.22 124.024C182.117 123.774 181.941 123.56 181.716 123.41C181.491 123.259 181.227 123.179 180.956 123.178Z" fill="#BAE6FD"/>
<path d="M139.824 56.1612C139.611 56.3737 139.34 56.5183 139.044 56.5767C138.749 56.6352 138.443 56.6048 138.165 56.4894C137.887 56.3741 137.65 56.179 137.483 55.9287C137.316 55.6785 137.227 55.3843 137.227 55.0834C137.227 54.7824 137.316 54.4883 137.483 54.238C137.65 53.9877 137.887 53.7926 138.165 53.6773C138.443 53.5619 138.749 53.5316 139.044 53.59C139.34 53.6484 139.611 53.793 139.824 54.0056C140.107 54.2927 140.266 54.6799 140.266 55.0834C140.266 55.4868 140.107 55.874 139.824 56.1612Z" fill="#BAE6FD"/>
<path d="M138.753 56.7608C138.533 56.7618 138.315 56.7186 138.112 56.6339C137.909 56.5492 137.725 56.4246 137.571 56.2676C137.415 56.1125 137.291 55.928 137.206 55.7247C137.122 55.5214 137.078 55.3034 137.078 55.0832C137.078 54.863 137.122 54.645 137.206 54.4417C137.291 54.2384 137.415 54.0539 137.571 53.8988C137.726 53.7426 137.91 53.619 138.113 53.5353C138.316 53.4516 138.533 53.4096 138.753 53.4117C138.972 53.4106 139.189 53.4531 139.392 53.5368C139.595 53.6204 139.779 53.7435 139.934 53.8988C140.166 54.1338 140.324 54.432 140.388 54.7562C140.452 55.0803 140.418 55.4161 140.292 55.7215C140.166 56.0268 139.953 56.2883 139.679 56.4732C139.405 56.658 139.083 56.7581 138.753 56.7608ZM138.753 53.7162C138.573 53.715 138.394 53.7499 138.228 53.819C138.062 53.888 137.911 53.9897 137.785 54.1181C137.528 54.3749 137.384 54.7232 137.384 55.0863C137.384 55.4493 137.528 55.7976 137.785 56.0545C138.045 56.3038 138.392 56.443 138.753 56.443C139.113 56.443 139.46 56.3038 139.721 56.0545C139.912 55.8629 140.043 55.6188 140.095 55.3532C140.148 55.0876 140.121 54.8123 140.017 54.5621C139.914 54.3119 139.738 54.098 139.513 53.9474C139.288 53.7969 139.024 53.7164 138.753 53.7162Z" fill="#BAE6FD"/>
<path d="M72.2615 24.7076C72.0484 24.9201 71.7772 25.0647 71.482 25.1231C71.1868 25.1815 70.8809 25.1512 70.6029 25.0358C70.325 24.9205 70.0875 24.7254 69.9204 24.4751C69.7532 24.2249 69.6641 23.9307 69.6641 23.6298C69.6641 23.3288 69.7532 23.0347 69.9204 22.7844C70.0875 22.5341 70.325 22.339 70.6029 22.2237C70.8809 22.1083 71.1868 22.078 71.482 22.1364C71.7772 22.1948 72.0484 22.3394 72.2615 22.5519C72.5448 22.8391 72.7037 23.2263 72.7037 23.6298C72.7037 24.0332 72.5448 24.4204 72.2615 24.7076Z" fill="#BAE6FD"/>
<path d="M71.1829 25.3186C70.7971 25.3115 70.4255 25.1714 70.1311 24.9219C69.8366 24.6724 69.6374 24.3289 69.5671 23.9494C69.4968 23.57 69.5597 23.1779 69.7452 22.8394C69.9307 22.501 70.2273 22.2371 70.585 22.0922C70.9427 21.9473 71.3395 21.9304 71.7082 22.0444C72.0769 22.1584 72.3949 22.3962 72.6084 22.7177C72.822 23.0391 72.918 23.4244 72.8801 23.8085C72.8423 24.1926 72.673 24.5518 72.4008 24.8253C72.2419 24.986 72.052 25.1126 71.8426 25.1974C71.6332 25.2822 71.4088 25.3234 71.1829 25.3186ZM71.1829 22.2739C71.0029 22.2731 70.8245 22.3082 70.6583 22.3772C70.492 22.4462 70.3412 22.5477 70.2147 22.6758C69.9581 22.9327 69.814 23.2809 69.814 23.644C69.814 24.0071 69.9581 24.3553 70.2147 24.6122C70.4754 24.8616 70.8222 25.0008 71.1829 25.0008C71.5436 25.0008 71.8905 24.8616 72.1511 24.6122C72.3425 24.4206 72.4728 24.1766 72.5255 23.911C72.5783 23.6454 72.5512 23.3701 72.4476 23.1199C72.344 22.8697 72.1685 22.6558 71.9435 22.5052C71.7184 22.3546 71.4537 22.2742 71.1829 22.2739Z" fill="#BAE6FD"/>
<path d="M69.4177 44.3296C69.2047 44.5422 68.9334 44.6868 68.6382 44.7452C68.343 44.8036 68.0371 44.7732 67.7592 44.6579C67.4812 44.5426 67.2437 44.3474 67.0766 44.0972C66.9095 43.8469 66.8203 43.5528 66.8203 43.2518C66.8203 42.9509 66.9095 42.6567 67.0766 42.4065C67.2437 42.1562 67.4812 41.9611 67.7592 41.8457C68.0371 41.7304 68.343 41.7 68.6382 41.7585C68.9334 41.8169 69.2047 41.9615 69.4177 42.174C69.7011 42.4612 69.86 42.8484 69.86 43.2518C69.86 43.6553 69.7011 44.0425 69.4177 44.3296Z" fill="#BAE6FD"/>
<path d="M68.3285 44.9233C67.9411 44.9246 67.5651 44.7915 67.2648 44.5466C66.9645 44.3018 66.7584 43.9603 66.6816 43.5805C66.6049 43.2007 66.6622 42.806 66.8439 42.4638C67.0255 42.1215 67.3202 41.8528 67.6778 41.7035C68.0354 41.5542 68.4337 41.5335 68.8048 41.645C69.1759 41.7565 69.4968 41.9932 69.7129 42.3149C69.9291 42.6365 70.0269 43.0231 69.9899 43.4088C69.9529 43.7945 69.7832 44.1555 69.5099 44.4301C69.3555 44.5866 69.1716 44.7108 68.9688 44.7955C68.766 44.8802 68.5483 44.9236 68.3285 44.9233ZM68.3285 41.8787C68.0115 41.8784 67.7043 41.988 67.4591 42.1889C67.2138 42.3898 67.0459 42.6695 66.9838 42.9804C66.9217 43.2912 66.9693 43.614 67.1185 43.8937C67.2677 44.1734 67.5093 44.3927 67.8021 44.5142C68.0948 44.6357 68.4207 44.652 68.7241 44.5602C69.0275 44.4684 69.2897 44.2742 69.466 44.0107C69.6423 43.7473 69.7218 43.4309 69.6909 43.1154C69.6601 42.7999 69.5208 42.5049 69.2967 42.2806C69.17 42.1528 69.0192 42.0514 68.853 41.9824C68.6868 41.9134 68.5085 41.8782 68.3285 41.8787Z" fill="#BAE6FD"/>
<path d="M79.2068 117.019C78.9937 117.231 78.7225 117.376 78.4273 117.434C78.1321 117.493 77.8262 117.462 77.5482 117.347C77.2703 117.232 77.0328 117.036 76.8657 116.786C76.6986 116.536 76.6094 116.242 76.6094 115.941C76.6094 115.64 76.6986 115.346 76.8657 115.095C77.0328 114.845 77.2703 114.65 77.5482 114.535C77.8262 114.419 78.1321 114.389 78.4273 114.447C78.7225 114.506 78.9937 114.65 79.2068 114.863C79.4902 115.15 79.649 115.537 79.649 115.941C79.649 116.344 79.4902 116.731 79.2068 117.019Z" fill="#BAE6FD"/>
<path d="M78.1271 117.62C77.7363 117.623 77.3569 117.489 77.0535 117.243C76.7501 116.997 76.5416 116.653 76.4636 116.27C76.3856 115.887 76.443 115.489 76.6259 115.144C76.8089 114.798 77.106 114.527 77.4665 114.377C77.8271 114.226 78.2288 114.206 78.6029 114.318C78.977 114.431 79.3005 114.67 79.5179 114.995C79.7353 115.319 79.8333 115.709 79.7951 116.098C79.7569 116.487 79.5849 116.851 79.3084 117.127C79.154 117.283 78.9701 117.407 78.7673 117.492C78.5645 117.577 78.3468 117.62 78.1271 117.62ZM78.1271 114.575C77.947 114.574 77.7685 114.609 77.6022 114.678C77.4359 114.747 77.2851 114.849 77.1588 114.977C76.9168 115.237 76.7851 115.581 76.7913 115.935C76.7976 116.29 76.9414 116.629 77.1924 116.88C77.4434 117.131 77.7821 117.275 78.1371 117.281C78.492 117.287 78.8355 117.156 79.0953 116.914C79.2866 116.722 79.4169 116.478 79.4697 116.212C79.5225 115.947 79.4953 115.672 79.3917 115.421C79.2881 115.171 79.1127 114.957 78.8876 114.807C78.6625 114.656 78.3979 114.576 78.1271 114.575Z" fill="#BAE6FD"/>
<path d="M30.788 52.5761C30.5753 52.7895 30.304 52.9349 30.0086 52.9941C29.7131 53.0532 29.4068 53.0233 29.1284 52.9082C28.8499 52.7932 28.6119 52.598 28.4444 52.3476C28.2769 52.0971 28.1875 51.8026 28.1875 51.5013C28.1875 51.2 28.2769 50.9055 28.4444 50.6551C28.6119 50.4046 28.8499 50.2095 29.1284 50.0944C29.4068 49.9793 29.7131 49.9495 30.0086 50.0086C30.304 50.0677 30.5753 50.2132 30.788 50.4266C31.0724 50.7119 31.2322 51.0984 31.2322 51.5013C31.2322 51.9043 31.0724 52.2907 30.788 52.5761Z" fill="#BAE6FD"/>
<path d="M29.713 53.1742C29.3223 53.1767 28.9428 53.0434 28.6394 52.7972C28.336 52.5509 28.1275 52.207 28.0496 51.8241C27.9716 51.4412 28.029 51.0432 28.2119 50.6979C28.3948 50.3526 28.6919 50.0816 29.0525 49.931C29.4131 49.7805 29.8147 49.7598 30.1888 49.8725C30.563 49.9852 30.8864 50.2242 31.1038 50.5489C31.3213 50.8735 31.4192 51.2636 31.381 51.6525C31.3428 52.0414 31.1708 52.4049 30.8943 52.681C30.74 52.8375 30.556 52.9617 30.3532 53.0464C30.1504 53.131 29.9328 53.1745 29.713 53.1742ZM29.713 50.1296C29.533 50.1291 29.3548 50.1643 29.1885 50.2333C29.0223 50.3023 28.8715 50.4037 28.7448 50.5315C28.4882 50.7884 28.3441 51.1366 28.3441 51.4997C28.3441 51.8628 28.4882 52.211 28.7448 52.4679C28.9041 52.6274 29.1002 52.7451 29.3159 52.8106C29.5316 52.8761 29.7601 52.8874 29.9812 52.8435C30.2022 52.7996 30.4091 52.7018 30.5833 52.5588C30.7576 52.4158 30.8938 52.2321 30.9801 52.0238C31.0663 51.8156 31.0998 51.5893 31.0776 51.3649C31.0555 51.1406 30.9783 50.9253 30.853 50.7379C30.7277 50.5506 30.5581 50.397 30.3592 50.2909C30.1604 50.1848 29.9384 50.1294 29.713 50.1296Z" fill="#BAE6FD"/>
<path d="M43 39H23C20.2379 39 18 41.1386 18 43.7668V53.1921C18 55.4845 19.6919 57.3999 21.9493 57.8614L20.8943 60.9836L25.7773 57.9762H43C45.76 57.9762 48 55.8376 48 53.2094V43.7841C48 41.1386 45.76 39 43 39Z" fill="#6366F1"/>
<path d="M21.2344 45.3359H43.717" stroke="white" stroke-width="1.16463" stroke-miterlimit="10" stroke-linecap="round"/>
<path d="M21.2344 48.8281H43.717" stroke="white" stroke-width="1.16463" stroke-miterlimit="10" stroke-linecap="round"/>
<path d="M21.2344 52.3203H43.717" stroke="white" stroke-width="1.16463" stroke-miterlimit="10" stroke-linecap="round"/>
<path d="M197.422 41.6953L169.172 40.8062L168.608 58.721L196.858 59.6101L197.422 41.6953Z" fill="#6366F1"/>
<path d="M197.421 41.716C196.245 42.7706 195.052 43.7781 193.867 44.8184C192.681 45.8587 191.47 46.8469 190.281 47.8451C189.093 48.8434 187.771 49.9307 186.516 50.9595L186.406 51.0587L183.054 53.7802L182.887 53.9056L182.733 53.7701L179.559 50.8385L179.45 50.7371C178.257 49.6328 177.068 48.5162 175.884 47.3873C174.756 46.3209 173.619 45.2308 172.501 44.1459C171.383 43.0611 170.237 41.9521 169.148 40.8262C170.331 41.7964 171.493 42.8173 172.665 43.8152C173.838 44.8131 174.995 45.8385 176.152 46.8733C177.442 48.0086 178.729 49.161 180.014 50.3304C180.976 51.1957 181.937 52.0703 182.899 52.945C183.909 52.1324 184.924 51.3153 185.938 50.5168C187.294 49.4399 188.651 48.3692 190.009 47.3048C191.227 46.3541 192.45 45.4129 193.677 44.4812C194.957 43.5371 196.19 42.6103 197.421 41.716Z" fill="white"/>
<path d="M180.071 50.7247L180.037 50.7516C179.884 50.8774 179.725 50.9984 179.559 51.1144C178.832 51.6933 178.091 52.2438 177.333 52.7751C176.412 53.4319 175.473 54.0601 174.525 54.688C173.577 55.316 172.62 55.9017 171.669 56.4875C170.717 57.0733 169.715 57.6343 168.701 58.1482C169.582 57.4248 170.494 56.7538 171.415 56.1016C172.336 55.4495 173.28 54.8121 174.219 54.1886C175.157 53.565 176.123 52.9656 177.103 52.3853C177.878 51.9199 178.662 51.4641 179.477 51.0605L180.037 50.7656L180.071 50.7247Z" fill="white"/>
<path d="M196.801 59.03C195.821 58.4533 194.875 57.8264 193.943 57.186C193.012 56.5455 192.095 55.8776 191.183 55.2098C190.271 54.5419 189.36 53.8368 188.5 53.124C187.781 52.5462 187.077 51.9549 186.392 51.3316L185.938 50.9348C185.938 50.9348 185.938 50.9348 185.906 50.9058L185.947 50.9304L186.488 51.2599C187.265 51.7509 188.015 52.241 188.774 52.7314C189.71 53.372 190.622 54.0398 191.534 54.7123C192.446 55.3848 193.334 56.0799 194.212 56.7979C195.09 57.516 195.967 58.2527 196.801 59.03Z" fill="white"/>
<path d="M129 5.84701V30.1423C129 30.3698 128.911 30.5879 128.754 30.7488C128.596 30.9096 128.382 31 128.158 31H93.8415C93.6183 31 93.4043 30.9096 93.2465 30.7488C93.0887 30.5879 93 30.3698 93 30.1423V5.84701C93.0028 5.62139 93.0926 5.40597 93.2502 5.24742C93.4077 5.08888 93.6201 4.99998 93.8415 5H128.167C128.387 5.00222 128.597 5.09211 128.753 5.25042C128.909 5.40872 128.997 5.62287 129 5.84701Z" fill="#FACC15"/>
<path d="M127.794 7.50665C127.794 7.63148 127.757 7.75351 127.687 7.8573C127.618 7.96109 127.519 8.04199 127.404 8.08976C127.289 8.13753 127.162 8.15003 127.039 8.12568C126.917 8.10133 126.804 8.04122 126.716 7.95295C126.628 7.86468 126.568 7.75221 126.543 7.62978C126.519 7.50735 126.532 7.38044 126.579 7.26511C126.627 7.14978 126.708 7.05121 126.812 6.98186C126.916 6.9125 127.038 6.87549 127.162 6.87549C127.33 6.87549 127.49 6.94198 127.609 7.06035C127.727 7.17872 127.794 7.33925 127.794 7.50665Z" fill="#6366F1"/>
<path d="M124.528 7.50665C124.528 7.63148 124.491 7.75351 124.422 7.8573C124.352 7.96109 124.254 8.04199 124.138 8.08976C124.023 8.13753 123.896 8.15003 123.774 8.12568C123.651 8.10133 123.539 8.04122 123.45 7.95295C123.362 7.86468 123.302 7.75221 123.278 7.62978C123.253 7.50735 123.266 7.38044 123.314 7.26511C123.361 7.14978 123.442 7.05121 123.546 6.98186C123.65 6.9125 123.772 6.87549 123.897 6.87549C124.064 6.87549 124.225 6.94198 124.343 7.06035C124.461 7.17872 124.528 7.33925 124.528 7.50665Z" fill="#6366F1"/>
<path d="M121.262 7.50665C121.262 7.63148 121.225 7.75351 121.156 7.8573C121.087 7.96109 120.988 8.04199 120.873 8.08976C120.757 8.13753 120.63 8.15003 120.508 8.12568C120.386 8.10133 120.273 8.04122 120.185 7.95295C120.097 7.86468 120.036 7.75221 120.012 7.62978C119.988 7.50735 120 7.38044 120.048 7.26511C120.096 7.14978 120.177 7.05121 120.28 6.98186C120.384 6.9125 120.506 6.87549 120.631 6.87549C120.799 6.87549 120.959 6.94198 121.077 7.06035C121.196 7.17872 121.262 7.33925 121.262 7.50665Z" fill="#6366F1"/>
<path d="M129 9V30.1913C129.001 30.2977 128.979 30.4031 128.938 30.5015C128.896 30.5998 128.835 30.6892 128.757 30.7644C128.68 30.8396 128.588 30.8991 128.486 30.9396C128.385 30.98 128.276 31.0005 128.167 31H93.8332C93.6122 31 93.4003 30.9148 93.244 30.7631C93.0878 30.6115 93 30.4058 93 30.1913V9H129Z" fill="white" fill-opacity="0.6"/>
<g filter="url(#filter0_d_5711_234398)">
<rect x="59" y="49" width="100" height="71.5797" rx="1.68422" fill="white"/>
<path d="M59 50.6842C59 49.7541 59.7541 49 60.6842 49H157.316C158.246 49 159 49.7541 159 50.6842V59.0001H59V50.6842Z" fill="#0EA5E9"/>
</g>
<ellipse cx="71.3734" cy="67.9583" rx="1.84211" ry="1.84212" fill="#9CA3AF"/>
<ellipse cx="85.5843" cy="67.9583" rx="1.84211" ry="1.84212" fill="#9CA3AF"/>
<ellipse cx="99.7952" cy="67.9583" rx="1.84211" ry="1.84212" fill="#E5E7EB"/>
<line x1="73.2109" y1="67.9585" x2="83.7373" y2="67.9585" stroke="#9CA3AF" stroke-width="0.526318"/>
<line x1="87.4219" y1="67.9585" x2="97.9482" y2="67.9585" stroke="#E5E7EB" stroke-width="0.526318"/>
<path d="M71.1094 77.1699H100.583" stroke="#9CA3AF" stroke-width="2.63159" stroke-linecap="round"/>
<path d="M71.1094 85.0635H134.267" stroke="#E5E7EB" stroke-width="2.63159" stroke-linecap="round"/>
<path d="M71.1094 91.9067H144.794" stroke="#E5E7EB" stroke-width="2.63159" stroke-linecap="round"/>
<path d="M71.1094 99.2749H123.741" stroke="#E5E7EB" stroke-width="2.63159" stroke-linecap="round"/>
<rect x="139.531" y="109.276" width="8.42105" height="3.15793" rx="1.05264" fill="#6B7280"/>
</g>
<defs>
<filter id="filter0_d_5711_234398" x="54.7895" y="45.8421" width="108.421" height="80.0007" filterUnits="userSpaceOnUse" color-interpolation-filters="sRGB">
<feFlood flood-opacity="0" result="BackgroundImageFix"/>
<feColorMatrix in="SourceAlpha" type="matrix" values="0 0 0 0 0 0 0 0 0 0 0 0 0 0 0 0 0 0 127 0" result="hardAlpha"/>
<feOffset dy="1.05264"/>
<feGaussianBlur stdDeviation="2.10527"/>
<feComposite in2="hardAlpha" operator="out"/>
<feColorMatrix type="matrix" values="0 0 0 0 0 0 0 0 0 0 0 0 0 0 0 0 0 0 0.15 0"/>
<feBlend mode="normal" in2="BackgroundImageFix" result="effect1_dropShadow_5711_234398"/>
<feBlend mode="normal" in="SourceGraphic" in2="effect1_dropShadow_5711_234398" result="shape"/>
</filter>
<clipPath id="clip0_5711_234398">
<rect width="220" height="128" fill="white"/>
</clipPath>
</defs>
</svg>
