<svg width="279" height="197" viewBox="0 0 279 197" fill="none" xmlns="http://www.w3.org/2000/svg">
<path d="M209.14 99.2987C209.14 99.2987 209.14 98.846 209.093 97.9641C209.093 97.5232 209.063 96.9764 209.046 96.3239C209.028 95.6713 209.01 94.9129 208.928 94.0545C208.846 93.1962 208.787 92.2378 208.699 91.1796C208.611 90.1214 208.423 88.9749 208.27 87.7285C207.856 84.8627 207.299 82.0195 206.6 79.2096C205.719 75.6994 204.604 72.2523 203.261 68.8917C201.674 64.8831 199.76 61.0114 197.54 57.3156C192.128 48.2814 185.047 40.3586 176.675 33.9695C166.511 26.2281 154.676 20.9731 142.117 18.6249C131.472 16.6604 120.545 16.7843 109.947 18.9894C108.112 19.4127 106.266 19.8066 104.444 20.371C102.621 20.9354 100.799 21.5057 98.9702 22.1348C91.5387 24.8414 84.5354 28.6034 78.1757 33.3052C74.9092 35.7505 71.8135 38.4161 68.9101 41.2832C65.9885 44.2438 63.2793 47.4068 60.8028 50.7486C58.293 54.1574 56.0559 57.7588 54.1123 61.5192C53.6361 62.4776 53.1011 63.4064 52.6778 64.3883L51.355 67.3278L50.1791 70.3321L49.8146 71.0788L49.5559 71.843L49.0386 73.3834L48.5153 74.9237L48.0685 76.4935C47.7922 77.54 47.4394 78.5747 47.2219 79.6447C47.0044 80.7147 46.7339 81.7729 46.487 82.8429C46.2401 83.913 46.1049 85.0006 45.8991 86.0824C44.4685 94.8313 44.4685 103.754 45.8991 112.503C46.5939 116.816 47.6399 121.065 49.0268 125.208L49.5442 126.743L49.8146 127.519L50.1145 128.271L51.2903 131.281L52.6131 134.221C52.8247 134.715 53.0658 135.191 53.3127 135.667L54.0476 137.09C55.9898 140.853 58.2269 144.457 60.7381 147.866C63.2146 151.21 65.9238 154.375 68.8454 157.338C71.7516 160.202 74.8471 162.867 78.111 165.316C81.3308 167.683 84.7116 169.822 88.229 171.718C91.6786 173.549 95.2475 175.146 98.9115 176.498C100.74 177.086 102.539 177.768 104.385 178.262C106.231 178.756 108.059 179.214 109.888 179.637C120.488 181.85 131.417 181.976 142.064 180.008C154.629 177.657 166.469 172.4 176.64 164.657C185.012 158.268 192.093 150.345 197.505 141.311C199.722 137.613 201.633 133.739 203.219 129.729C203.572 128.806 203.972 127.913 204.266 127.013C204.56 126.114 204.854 125.249 205.16 124.373C205.465 123.497 205.671 122.657 205.918 121.834C206.165 121.01 206.412 120.205 206.588 119.405C207.288 116.598 207.845 113.756 208.258 110.892C208.411 109.646 208.581 108.5 208.687 107.441C208.793 106.383 208.846 105.425 208.916 104.566C208.987 103.708 209.016 102.956 209.034 102.303C209.052 101.65 209.069 101.127 209.081 100.657C209.081 99.7749 209.128 99.3281 209.128 99.3281C209.128 99.3281 209.128 99.7749 209.128 100.657C209.128 101.104 209.128 101.65 209.128 102.303C209.128 102.956 209.128 103.714 209.022 104.572C208.916 105.431 208.893 106.389 208.811 107.447C208.728 108.505 208.546 109.658 208.393 110.904C207.992 113.774 207.444 116.621 206.753 119.435C206.576 120.234 206.312 121.034 206.089 121.869C205.865 122.704 205.642 123.562 205.336 124.414L204.442 127.06C204.154 127.965 203.754 128.853 203.402 129.788C201.822 133.806 199.914 137.688 197.699 141.393C192.283 150.453 185.192 158.398 176.804 164.804C166.606 172.585 154.726 177.869 142.117 180.231C131.436 182.21 120.471 182.092 109.835 179.884C108.001 179.461 106.143 179.067 104.314 178.503C102.486 177.938 100.658 177.362 98.8174 176.739C95.1418 175.385 91.5612 173.787 88.0997 171.953C84.5705 170.049 81.1779 167.902 77.9464 165.527C71.282 160.607 65.4009 154.706 60.5029 148.025C57.9833 144.601 55.7364 140.984 53.783 137.208L53.0482 135.779C52.8012 135.303 52.5602 134.821 52.3485 134.327L51.014 131.387C50.622 130.384 50.2301 129.378 49.8381 128.371L49.5442 127.613L49.2796 126.843L48.7623 125.296C47.3687 121.139 46.3187 116.874 45.6228 112.544C44.1882 103.762 44.1882 94.8057 45.6228 86.0236L46.2107 82.7724C46.4576 81.7024 46.7026 80.6343 46.9456 79.5683C47.169 78.4924 47.5335 77.4518 47.8039 76.3994L48.2508 74.8297L48.7681 73.2776L49.2914 71.7372L49.5559 70.967L49.8499 70.2086C50.2418 69.2013 50.6338 68.196 51.0257 67.1926L52.3603 64.2531C52.7836 63.2654 53.3186 62.3364 53.7948 61.3723C55.7496 57.5987 57.9964 53.9838 60.5147 50.5605C63.0096 47.218 65.7364 44.0551 68.6749 41.095C71.5881 38.2201 74.6936 35.5467 77.9699 33.0935C81.2014 30.7189 84.594 28.5718 88.1232 26.6676C91.5847 24.8344 95.1653 23.2356 98.8409 21.882C100.681 21.294 102.486 20.6121 104.338 20.1182C106.19 19.6244 108.024 19.1658 109.858 18.7366C120.493 16.5287 131.456 16.4109 142.135 18.3897C154.742 20.7538 166.621 26.0349 176.822 33.8108C185.208 40.2252 192.295 48.1784 197.705 57.2451C199.922 60.9529 201.831 64.8364 203.413 68.8564C204.761 72.2266 205.88 75.6835 206.765 79.2038C207.455 82.0197 208.003 84.8689 208.405 87.7403C208.558 88.9867 208.722 90.139 208.822 91.1972C208.922 92.2555 208.975 93.2138 209.034 94.0721C209.093 94.9305 209.128 95.6889 209.14 96.3415C209.152 96.9941 209.14 97.5467 209.14 97.9877C209.14 98.8519 209.14 99.2987 209.14 99.2987Z" fill="#C7D2FE"/>
<path d="M224.867 98.0441C224.867 98.0441 224.867 97.5091 224.815 96.4567C224.815 95.9335 224.779 95.2809 224.756 94.5048C224.732 93.7288 224.715 92.8234 224.621 91.8004C224.527 90.7775 224.45 89.6369 224.35 88.3788C224.25 87.1206 224.021 85.7508 223.839 84.2633C223.421 81.3238 222.775 77.9021 221.851 74.1218C221.634 73.1752 221.322 72.2228 221.052 71.2292C220.917 70.7354 220.77 70.2357 220.629 69.7301C220.552 69.4773 220.482 69.2245 220.411 68.9658C220.341 68.7071 220.241 68.4602 220.152 68.2015L219.082 65.062C218.736 63.9861 218.259 62.9279 217.842 61.8226C215.949 57.0476 213.67 52.4348 211.028 48.0301C204.583 37.2632 196.147 27.8218 186.171 20.2099C174.057 10.9873 159.953 4.72577 144.987 1.92573C132.303 -0.414099 119.284 -0.266337 106.655 2.3608C104.474 2.8664 102.269 3.33674 100.1 4.00108C97.9306 4.66543 95.7553 5.35916 93.5742 6.08818C84.7189 9.31599 76.375 13.8028 68.7994 19.4104C64.9092 22.3226 61.2222 25.4969 57.7642 28.9111C54.2832 32.438 51.0554 36.2061 48.1048 40.1873C47.3757 41.2044 46.6526 42.2274 45.9236 43.2503C45.1946 44.2733 44.5655 45.3668 43.8835 46.4251C43.2015 47.4833 42.5901 48.5945 41.9493 49.6821L41.0027 51.3283L40.1267 53.0215L39.2566 54.7206C38.9627 55.3085 38.6687 55.8553 38.4218 56.4432L36.8756 59.9354C36.4052 61.1112 35.929 62.3223 35.4587 63.5217L35.1059 64.4153L34.7943 65.3325L34.2064 67.1668L33.5832 69.001L33.0541 70.8706L32.525 72.7402L32.2604 73.675L32.0429 74.6274C31.7489 75.8914 31.455 77.1613 31.1669 78.4371L30.4085 82.2938C29.5912 87.5009 29.1628 92.7616 29.1268 98.0323C29.1628 103.305 29.5911 108.568 30.4085 113.777C30.6437 115.062 30.8749 116.35 31.1022 117.639C31.3903 118.909 31.6902 120.179 31.9724 121.443C32.2546 122.707 32.6485 123.954 32.9836 125.206L33.5127 127.075L34.1359 128.91L34.7532 130.744L35.0648 131.661L35.4175 132.555L36.8285 136.141C37.3577 137.317 37.8868 138.493 38.41 139.639L38.8098 140.509L39.2449 141.356L40.115 143.055L40.991 144.748L41.9375 146.4C42.5783 147.488 43.1663 148.611 43.8718 149.657C44.5773 150.704 45.2298 151.78 45.9118 152.832L48.0871 155.895C51.04 159.878 54.2698 163.648 57.7525 167.177C61.2127 170.593 64.9016 173.769 68.7935 176.684C76.3671 182.294 84.7115 186.781 93.5683 190.006C95.7494 190.735 97.8953 191.517 100.094 192.093C102.264 192.757 104.468 193.228 106.649 193.733C110.973 194.642 115.353 195.253 119.76 195.562C128.194 196.193 136.674 195.725 144.987 194.168C159.968 191.378 174.085 185.114 186.206 175.878C196.181 168.265 204.616 158.824 211.063 148.058C213.705 143.654 215.982 139.041 217.871 134.266C218.295 133.16 218.765 132.102 219.118 131.026L220.182 127.887C220.364 127.375 220.523 126.87 220.658 126.358C220.793 125.847 220.946 125.353 221.087 124.859C221.352 123.871 221.675 122.919 221.881 121.966C222.804 118.192 223.451 114.794 223.868 111.825C224.05 110.337 224.25 108.973 224.38 107.709C224.509 106.445 224.568 105.305 224.65 104.282C224.732 103.259 224.768 102.359 224.785 101.583C224.803 100.807 224.826 100.155 224.844 99.6315C224.873 98.5791 224.897 98.0382 224.897 98.0382C224.897 98.0382 224.897 98.5791 224.897 99.6315C224.897 100.155 224.897 100.807 224.856 101.583C224.815 102.359 224.856 103.265 224.732 104.288C224.609 105.311 224.574 106.457 224.479 107.715C224.385 108.973 224.162 110.343 223.98 111.831C223.499 115.248 222.846 118.639 222.022 121.99C221.81 122.942 221.499 123.895 221.228 124.888C221.087 125.382 220.946 125.882 220.805 126.393C220.664 126.905 220.511 127.41 220.335 127.922L219.271 131.067C218.924 132.149 218.447 133.207 218.03 134.318C216.145 139.103 213.872 143.726 211.234 148.14C204.79 158.935 196.35 168.404 186.365 176.043C174.219 185.311 160.069 191.603 145.052 194.415C132.332 196.775 119.275 196.635 106.608 194.004C104.421 193.498 102.211 193.028 100.035 192.358C97.8307 191.77 95.6789 190.999 93.4918 190.27C84.6014 187.035 76.2252 182.533 68.623 176.901C60.687 171.042 53.6839 164.015 47.852 156.06L45.6943 153.002L43.6425 149.816C42.937 148.769 42.3491 147.641 41.7024 146.547L40.7499 144.895L39.8739 143.196L39.0038 141.491L38.5629 140.639L38.169 139.768L36.5816 136.241C36.1113 135.065 35.6351 133.848 35.1647 132.649L34.8061 131.743L34.4945 130.826L33.9066 128.992L33.2834 127.146L32.7484 125.27C32.4133 124.018 31.9959 122.778 31.7372 121.502C31.4785 120.226 31.1493 118.956 30.8612 117.68C30.5731 116.405 30.3967 115.1 30.1674 113.806C28.4546 103.35 28.4546 92.6851 30.1674 82.2292L30.8553 78.3548L31.7372 74.5392L31.9547 73.5809L32.2193 72.6461L32.7484 70.7648L33.2834 68.8952L33.9066 67.0492L34.4945 65.2149L34.8061 64.2977L35.1647 63.3923C35.6351 62.2165 36.1113 60.9995 36.5816 59.8002L38.169 56.2727C38.4218 55.6848 38.7099 55.0968 39.0038 54.5442L39.8798 52.8451L40.7558 51.146L41.7024 49.494C42.3491 48.4005 42.937 47.2717 43.6425 46.2252L45.6943 43.0387L47.8755 39.9698C53.7015 32.0302 60.6967 25.0192 68.623 19.1752C76.2232 13.5504 84.5951 9.05158 93.4801 5.81774C95.6671 5.08872 97.8189 4.30091 100.024 3.73064C102.199 3.06041 104.409 2.59008 106.596 2.08447C110.942 1.18252 115.344 0.573639 119.772 0.261934C128.225 -0.359009 136.724 0.125206 145.052 1.70233C160.055 4.51304 174.19 10.8015 186.324 20.0629C196.309 27.7014 204.749 37.1708 211.193 47.9654C213.819 52.3748 216.08 56.9916 217.954 61.7697C218.371 62.875 218.841 63.9391 219.194 65.015C219.547 66.0909 219.911 67.1374 220.252 68.1662C220.341 68.419 220.423 68.6718 220.511 68.9305L220.729 69.6948C220.87 70.2004 221.011 70.7001 221.152 71.194C221.422 72.1875 221.74 73.14 221.94 74.0924C222.768 77.4429 223.423 80.8338 223.903 84.2516C224.086 85.739 224.28 87.1089 224.403 88.367C224.526 89.6251 224.579 90.7716 224.656 91.7945C224.732 92.8175 224.768 93.717 224.779 94.4931C224.791 95.2691 224.809 95.9276 224.82 96.4508C224.867 97.5326 224.867 98.0441 224.867 98.0441Z" fill="#818CF8"/>
<path d="M176.463 19.7964C177.277 19.298 178.155 18.9163 179.072 18.6622L179.608 16.0788L183.98 16L184.609 18.5598C185.533 18.7889 186.423 19.1384 187.257 19.5995L189.463 18.1581L192.569 21.1905L191.203 23.4432C191.695 24.2561 192.077 25.1331 192.336 26.0503L194.922 26.5859L195 30.9415L192.43 31.5717C192.203 32.4979 191.853 33.3883 191.389 34.2181L192.833 36.4235L189.805 39.5741L187.545 38.2115C186.729 38.7042 185.851 39.083 184.936 39.3378L184.4 41.9212L180.027 42L179.398 39.4402C178.476 39.2097 177.586 38.8603 176.75 38.4005L174.545 39.8419L171.438 36.8095L172.79 34.541C172.297 33.7282 171.916 32.8511 171.656 31.934L169.07 31.3984L169 27.0427L171.563 26.4126C171.792 25.4875 172.142 24.5975 172.603 23.7661L171.159 21.5607L174.188 18.4102L176.447 19.7807L176.463 19.7964ZM179.243 25.1918C178.682 25.6333 178.23 26.2016 177.923 26.8514C177.616 27.5013 177.463 28.2147 177.476 28.9351C177.489 29.6555 177.667 30.3629 177.997 31.0011C178.326 31.6393 178.798 32.1906 179.375 32.6113C180.209 33.2248 181.216 33.5466 182.246 33.5281C183.276 33.5097 184.271 33.1519 185.083 32.5089C185.644 32.0674 186.096 31.4991 186.403 30.8493C186.71 30.1994 186.863 29.486 186.85 28.7656C186.837 28.0452 186.659 27.3378 186.329 26.6996C186 26.0614 185.528 25.5101 184.951 25.0894C184.118 24.4759 183.11 24.1541 182.08 24.1726C181.051 24.191 180.055 24.5488 179.243 25.1918Z" fill="#22C55E"/>
<path d="M240.416 61.7907C242.11 60.7678 243.937 59.9845 245.847 59.4632L246.962 54.1616L256.062 54L257.371 59.253C259.292 59.7232 261.145 60.4403 262.882 61.3866L267.473 58.4287L273.938 64.6515L271.093 69.2742C272.119 70.9423 272.913 72.7421 273.453 74.6242L278.835 75.7233L278.997 84.6615L273.647 85.9546C273.177 87.8553 272.448 89.6826 271.481 91.3854L274.488 95.9112L268.184 102.376L263.48 99.5802C261.782 100.591 259.956 101.369 258.05 101.891L256.934 107.193L247.835 107.355L246.525 102.102C244.605 101.629 242.752 100.912 241.014 99.9681L236.423 102.926L229.958 96.7031L232.77 92.0481C231.745 90.38 230.951 88.5802 230.411 86.6981L225.028 85.599L224.883 76.6608L230.217 75.3677C230.694 73.4693 231.423 71.643 232.383 69.9369L229.376 65.4112L235.68 58.9459L240.383 61.7584L240.416 61.7907ZM246.202 72.8624C245.034 73.7685 244.093 74.9347 243.454 76.2682C242.816 77.6018 242.497 79.0659 242.524 80.5441C242.551 82.0224 242.922 83.4741 243.608 84.7837C244.294 86.0934 245.276 87.2248 246.477 88.0881C248.212 89.3471 250.309 90.0074 252.452 89.9695C254.595 89.9316 256.668 89.1975 258.357 87.8781C259.525 86.972 260.466 85.8058 261.105 84.4722C261.743 83.1387 262.062 81.6746 262.035 80.1963C262.008 78.718 261.637 77.2664 260.951 75.9567C260.265 74.6471 259.282 73.5156 258.082 72.6523C256.347 71.3934 254.25 70.733 252.107 70.7709C249.964 70.8088 247.891 71.543 246.202 72.8624Z" fill="#4F46E5"/>
<path d="M195.001 16.8196C195.001 16.8196 195.001 16.743 195.001 16.5896C194.995 16.3551 195.018 16.1208 195.071 15.8923C195.252 15.0625 195.719 14.3224 196.389 13.8007C196.887 13.4082 197.476 13.1491 198.102 13.0479C198.728 12.9466 199.369 13.0065 199.966 13.222C200.677 13.4689 201.296 13.929 201.737 14.5397C202.223 15.1902 202.487 15.9798 202.49 16.7918C202.486 17.6047 202.225 18.3954 201.744 19.0508C201.445 19.4564 201.068 19.7982 200.635 20.0557C200.202 20.3133 199.721 20.4815 199.222 20.5504C198.723 20.6192 198.215 20.5874 197.729 20.4568C197.242 20.3262 196.786 20.0994 196.389 19.7898C195.718 19.2685 195.252 18.5282 195.071 17.6981C195.017 17.4698 194.994 17.2354 195.001 17.0009C195.001 16.8475 195.001 16.7639 195.001 16.7639C195.001 16.7639 195.001 17.0916 195.183 17.6354C195.401 18.4066 195.87 19.0835 196.514 19.5597C197.032 19.9482 197.648 20.1847 198.293 20.2429C198.938 20.301 199.586 20.1784 200.165 19.8889C200.744 19.5994 201.231 19.1543 201.572 18.6036C201.912 18.0529 202.092 17.4183 202.092 16.7709C202.092 16.1234 201.912 15.4888 201.572 14.9381C201.231 14.3874 200.744 13.9423 200.165 13.6528C199.586 13.3633 198.938 13.2407 198.293 13.2988C197.648 13.357 197.032 13.5935 196.514 13.982C195.87 14.4557 195.402 15.1302 195.183 15.8993C195.029 16.4989 195.036 16.8266 195.001 16.8196Z" fill="#4338CA"/>
<path d="M198.64 20.279C200.65 20.279 202.279 18.6495 202.279 16.6395C202.279 14.6295 200.65 13 198.64 13C196.629 13 195 14.6295 195 16.6395C195 18.6495 196.629 20.279 198.64 20.279Z" fill="#A5B4FC"/>
<path d="M20.0389 15.6328C22.1445 14.3799 24.4058 13.4109 26.7644 12.7511L28.1443 6.19755L39.3806 6L40.9924 12.507C43.3706 13.0833 45.663 13.9701 47.8106 15.1447L53.481 11.4845L61.598 19.1768L58.1192 24.9053C59.3886 26.97 60.3717 29.1981 61.0414 31.5285L67.6857 32.888L67.8828 43.9733L61.2849 45.5651C60.6981 47.9146 59.797 50.1738 58.6062 52.2813L62.3285 57.8821L54.5246 65.8532L48.7267 62.3672C46.626 63.6216 44.3683 64.5907 42.0128 65.2489L40.6329 71.8025L29.3967 72L27.7849 65.493C25.4066 64.9167 23.1143 64.0299 20.9666 62.8553L15.2847 66.5271L7.1677 58.8232L10.6464 53.1063C9.37853 51.0409 8.39558 48.8129 7.72431 46.4831L1.07996 45.112L0.882812 34.0384L7.48077 32.4349C8.06973 30.0861 8.97064 27.8272 10.1594 25.7187L6.43717 20.118L14.2411 12.1468L20.0389 15.6328ZM27.1935 29.344C25.7511 30.4673 24.5897 31.912 23.8015 33.5633C23.0133 35.2147 22.6199 37.0275 22.6525 38.8577C22.6851 40.688 23.1429 42.4855 23.9895 44.1076C24.8361 45.7297 26.0482 47.1319 27.5298 48.2028C29.6726 49.7631 32.2641 50.5821 34.9125 50.536C37.561 50.4899 40.1225 49.5811 42.2099 47.9472C43.6523 46.8239 44.8137 45.3792 45.6019 43.7278C46.3901 42.0764 46.7835 40.2637 46.7509 38.4335C46.7183 36.6032 46.2605 34.8057 45.4139 33.1836C44.5673 31.5615 43.3552 30.1594 41.8736 29.0884C39.7308 27.5281 37.1393 26.7091 34.4909 26.7552C31.8425 26.8014 29.2809 27.71 27.1935 29.344Z" fill="#4F46E5"/>
<g filter="url(#filter0_d_4644_89794)">
<rect x="36.8828" y="30" width="190" height="136" rx="3.2" fill="white"/>
<path d="M36.8828 33.2C36.8828 31.4327 38.3155 30 40.0828 30H223.683C225.45 30 226.883 31.4327 226.883 33.2V49H36.8828V33.2Z" fill="#FACC15"/>
</g>
<circle cx="60.3828" cy="63.5" r="3.5" fill="#9CA3AF"/>
<circle cx="87.3828" cy="63.5" r="3.5" fill="#9CA3AF"/>
<circle cx="114.383" cy="63.5" r="3.5" fill="#E5E7EB"/>
<line x1="63.8828" y1="63.5" x2="83.8828" y2="63.5" stroke="#9CA3AF"/>
<line x1="90.8828" y1="63.5" x2="110.883" y2="63.5" stroke="#E5E7EB"/>
<path d="M59.8828 81H115.883" stroke="#9CA3AF" stroke-width="5" stroke-linecap="round"/>
<path d="M59.8828 96H179.883" stroke="#E5E7EB" stroke-width="5" stroke-linecap="round"/>
<path d="M59.8828 109H199.883" stroke="#E5E7EB" stroke-width="5" stroke-linecap="round"/>
<path d="M59.8828 123H159.883" stroke="#E5E7EB" stroke-width="5" stroke-linecap="round"/>
<rect x="189.883" y="142" width="16" height="6" rx="2" fill="#6B7280"/>
<defs>
<filter id="filter0_d_4644_89794" x="28.8828" y="24" width="206" height="152" filterUnits="userSpaceOnUse" color-interpolation-filters="sRGB">
<feFlood flood-opacity="0" result="BackgroundImageFix"/>
<feColorMatrix in="SourceAlpha" type="matrix" values="0 0 0 0 0 0 0 0 0 0 0 0 0 0 0 0 0 0 127 0" result="hardAlpha"/>
<feOffset dy="2"/>
<feGaussianBlur stdDeviation="4"/>
<feComposite in2="hardAlpha" operator="out"/>
<feColorMatrix type="matrix" values="0 0 0 0 0 0 0 0 0 0 0 0 0 0 0 0 0 0 0.15 0"/>
<feBlend mode="normal" in2="BackgroundImageFix" result="effect1_dropShadow_4644_89794"/>
<feBlend mode="normal" in="SourceGraphic" in2="effect1_dropShadow_4644_89794" result="shape"/>
</filter>
</defs>
</svg>
