<svg width="297" height="177" viewBox="0 0 297 177" fill="none" xmlns="http://www.w3.org/2000/svg">
<path d="M297.001 80.3623L262.812 67.0117L254.345 88.6945L288.533 102.045L297.001 80.3623Z" fill="#4F46E5"/>
<path d="M296.99 80.3841C295.092 81.1644 293.194 81.8794 291.292 82.6383C289.39 83.3973 287.479 84.0809 285.591 84.7869C283.703 85.4928 281.613 86.2499 279.631 86.9645L279.452 87.038L274.169 88.9143L273.91 88.9952L273.78 88.7623L271.169 83.7965L271.079 83.6252C270.098 81.7553 269.128 79.8726 268.169 77.9771C267.251 76.182 266.333 74.3543 265.435 72.5411C264.538 70.7279 263.617 68.8732 262.773 67.0225C263.799 68.7233 264.779 70.4774 265.78 72.2077C266.782 73.9379 267.753 75.6955 268.72 77.4643C269.805 79.4135 270.88 81.3827 271.945 83.3718C272.747 84.8485 273.544 86.3364 274.341 87.8244C275.93 87.2682 277.527 86.7086 279.115 86.1715C281.242 85.4418 283.367 84.7204 285.492 84.0073C287.396 83.3724 289.3 82.751 291.206 82.1431C293.183 81.5433 295.094 80.9439 296.99 80.3841Z" fill="white"/>
<path d="M271.847 83.8795L271.794 83.8979C271.552 83.9853 271.305 84.0642 271.052 84.1345C269.91 84.5273 268.765 84.8797 267.606 85.2007C266.194 85.6048 264.772 85.9662 263.339 86.3232C261.906 86.6802 260.481 86.982 259.062 87.286C257.643 87.5901 256.174 87.8417 254.709 88.0302C256.101 87.5274 257.509 87.102 258.919 86.7036C260.329 86.3052 261.761 85.9347 263.181 85.5789C264.601 85.2232 266.043 84.9088 267.493 84.6237C268.644 84.3904 269.802 84.1729 270.975 84.0328L271.788 83.9148L271.847 83.8795Z" fill="white"/>
<path d="M288.721 101.315C287.772 100.183 286.886 99.0054 286.024 97.8171C285.162 96.6289 284.33 95.4133 283.503 94.2C282.677 92.9867 281.868 91.7283 281.126 90.4828C280.497 89.4635 279.891 88.4339 279.324 87.3737L278.94 86.6909C278.94 86.6909 278.94 86.6909 278.914 86.6416L278.954 86.6896L279.472 87.3275C280.21 88.266 280.915 89.1913 281.631 90.121C282.499 91.3115 283.326 92.5248 284.15 93.7438C284.974 94.9628 285.759 96.1989 286.521 97.4588C287.284 98.7188 288.038 100.001 288.721 101.315Z" fill="white"/>
<path d="M39.3922 31.2191C47.4517 34.4264 60.3582 33.9322 60.3582 33.9322L52.3927 29.4219C55.039 27.5888 56.9928 24.9342 57.941 21.8839C58.8891 18.8336 58.7766 15.5642 57.6214 12.6C56.4662 9.63581 54.3353 7.14857 51.5705 5.53712C48.8056 3.92567 45.5669 3.28336 42.3737 3.7132C39.1805 4.14303 36.2179 5.62011 33.9608 7.90756C31.7038 10.195 30.2831 13.1603 29.9265 16.328C29.57 19.4957 30.2983 22.6822 31.9947 25.3766C33.691 28.0709 36.2571 30.117 39.2815 31.1868" fill="#4F46E5"/>
<path d="M50.3047 12.3296L35.1894 16.9744" stroke="white" stroke-linecap="round" stroke-linejoin="round"/>
<path d="M51.8359 16.0742L36.7207 20.719" stroke="white" stroke-linecap="round" stroke-linejoin="round"/>
<path d="M53.3594 19.8203L38.2485 24.4638" stroke="white" stroke-linecap="round" stroke-linejoin="round"/>
<g filter="url(#filter0_d_4644_88524)">
<rect x="64.3125" y="18.9795" width="190" height="136" rx="3.2" fill="white"/>
<path d="M64.3125 22.1795C64.3125 20.4122 65.7452 18.9795 67.5125 18.9795H251.113C252.88 18.9795 254.312 20.4122 254.312 22.1795V37.9795H64.3125V22.1795Z" fill="#22C55E"/>
</g>
<rect x="147.312" y="46.9795" width="24" height="10" rx="2" fill="#9CA3AF"/>
<rect x="187.312" y="116.979" width="24" height="10" rx="2" fill="#6366F1"/>
<rect x="141.312" y="66.9795" width="36" height="10" rx="2" fill="#E5E7EB"/>
<rect x="101.312" y="96.9795" width="36" height="10" rx="2" fill="#E5E7EB"/>
<rect x="181.312" y="96.9795" width="36" height="10" rx="2" fill="#E5E7EB"/>
<line x1="159.562" y1="56.9795" x2="159.562" y2="66.9795" stroke="#E5E7EB" stroke-width="0.5"/>
<line x1="159.562" y1="76.9795" x2="159.562" y2="86.9795" stroke="#E5E7EB" stroke-width="0.5"/>
<line x1="119.562" y1="86.9795" x2="119.562" y2="96.9795" stroke="#E5E7EB" stroke-width="0.5"/>
<line x1="199.562" y1="86.9795" x2="199.562" y2="96.9795" stroke="#E5E7EB" stroke-width="0.5"/>
<path d="M119.312 86.7295L199.812 86.7295" stroke="#E5E7EB" stroke-width="0.5"/>
<line x1="199.562" y1="106.979" x2="199.562" y2="116.979" stroke="#E5E7EB" stroke-width="0.5"/>
<path d="M185.989 177V176.646C186.889 176.646 187.788 176.589 188.674 176.528L188.721 176.882C187.835 176.943 186.922 176.981 185.989 177ZM182.634 176.957C181.748 176.924 180.842 176.868 179.95 176.792L180.003 176.443C180.903 176.513 181.802 176.57 182.688 176.608L182.634 176.957ZM192.076 176.518L191.969 176.173C192.861 176.041 193.727 175.885 194.552 175.701L194.7 176.041C193.854 176.225 192.968 176.386 192.069 176.518H192.076ZM176.595 176.438C175.736 176.324 174.843 176.192 173.951 176.046L174.065 175.701C174.95 175.847 175.83 175.975 176.688 176.088L176.595 176.438ZM170.682 175.436C169.83 175.257 168.965 175.063 168.106 174.86L168.267 174.525C169.119 174.728 169.978 174.921 170.823 175.096L170.682 175.436ZM197.874 175.177L197.659 174.855C198.463 174.589 199.243 174.287 199.994 173.953L200.263 174.255C199.488 174.594 198.686 174.902 197.86 175.177H197.874ZM164.938 174.048C164.106 173.816 163.261 173.575 162.435 173.32L162.636 172.999C163.455 173.244 164.294 173.471 165.119 173.717L164.938 174.048ZM202.974 172.805L202.632 172.541C203.287 172.123 203.898 171.672 204.457 171.19L204.846 171.412C204.269 171.909 203.639 172.375 202.96 172.805H202.974ZM159.355 172.333C158.554 172.065 157.749 171.782 156.939 171.482L157.167 171.171C157.979 171.464 158.778 171.742 159.576 172.011L159.355 172.333ZM153.987 170.358C153.195 170.046 152.423 169.725 151.658 169.413L151.913 169.111C152.678 169.432 153.45 169.749 154.235 170.056L153.987 170.358ZM206.745 169.413L206.302 169.243C206.723 168.695 207.084 168.125 207.383 167.538L207.852 167.661C207.541 168.266 207.164 168.853 206.725 169.418L206.745 169.413ZM148.793 168.147C148.034 167.802 147.289 167.448 146.551 167.094L146.84 166.801C147.571 167.155 148.316 167.505 149.068 167.85L148.793 168.147ZM143.807 165.719C143.082 165.341 142.364 164.959 141.659 164.571L141.968 164.293C142.672 164.68 143.384 165.058 144.108 165.431L143.807 165.719ZM208.711 165.341L208.222 165.28C208.365 164.664 208.457 164.042 208.497 163.419H209C208.957 164.065 208.854 164.709 208.691 165.346L208.711 165.341ZM139.015 163.097C138.344 162.691 137.633 162.285 136.955 161.874L137.277 161.605C137.948 162.016 138.619 162.422 139.337 162.823L139.015 163.097ZM208.403 161.085C208.316 160.476 208.188 159.847 208.014 159.224L208.51 159.158C208.685 159.795 208.819 160.428 208.899 161.047L208.403 161.085ZM134.425 160.306C133.754 159.88 133.083 159.455 132.412 159.025L132.761 158.766C133.414 159.197 134.072 159.622 134.734 160.041L134.425 160.306ZM130.003 157.396C129.332 156.956 128.721 156.512 128.084 156.068L128.439 155.813C129.077 156.262 129.714 156.701 130.358 157.14L130.003 157.396ZM207.175 156.947C206.926 156.366 206.631 155.766 206.302 155.166L206.772 155.038C207.108 155.648 207.403 156.252 207.658 156.843L207.175 156.947ZM125.681 154.386C125.05 153.938 124.426 153.484 123.802 153.031L124.158 152.785L126.037 154.136L125.681 154.386ZM121.474 151.321L119.615 149.946L119.984 149.705L121.843 151.075L121.474 151.321ZM117.3 148.231L115.441 146.861L115.81 146.615L117.662 147.985L117.3 148.231ZM113.119 145.151C112.495 144.679 111.877 144.244 111.247 143.791L111.609 143.54L113.481 144.905L113.119 145.151ZM108.891 142.114L106.992 140.772L107.348 140.522L109.254 141.863L108.891 142.114ZM104.596 139.114L102.657 137.805L102.999 137.545L104.945 138.859L104.596 139.114ZM100.201 136.19C99.53 135.765 98.8589 135.339 98.1879 134.914L98.5234 134.65C99.1945 135.075 99.8655 135.505 100.537 135.93L100.201 136.19ZM95.6982 133.355C95.0272 132.944 94.3561 132.533 93.685 132.127L94.0072 131.853C94.6782 132.264 95.3828 132.68 96.0539 133.091L95.6982 133.355ZM91.0746 130.615C90.4036 130.219 89.6855 129.826 88.9742 129.43L89.2896 129.151C90.0009 129.548 90.6988 129.945 91.39 130.341L91.0746 130.615ZM86.3235 127.965C85.6525 127.583 84.9009 127.205 84.1694 126.827L84.4714 126.543C85.2028 126.921 85.9209 127.299 86.6255 127.682L86.3235 127.965ZM81.4516 125.443L79.2438 124.361L79.5324 124.068C80.2773 124.432 81.0154 124.791 81.7402 125.154L81.4516 125.443ZM76.4589 123.043C75.7141 122.698 74.9625 122.353 74.2042 122.013L74.4726 121.715C75.2376 122.056 75.9892 122.4 76.7341 122.745L76.4589 123.043ZM71.3522 120.761C70.5939 120.435 69.8289 120.109 69.0504 119.783L69.3054 119.481C70.0906 119.807 70.8556 120.133 71.6139 120.459L71.3522 120.761ZM66.1447 118.598C65.373 118.286 64.5946 117.979 63.8027 117.653L64.0443 117.341C64.8362 117.653 65.6213 117.96 66.393 118.286L66.1447 118.598ZM60.8434 116.547C60.0582 116.255 59.2664 115.966 58.4611 115.673L58.6893 115.362C59.4945 115.65 60.2931 115.943 61.0782 116.236L60.8434 116.547ZM55.4749 114.615C54.683 114.337 53.8711 114.063 53.0591 113.789L53.2738 113.467C54.0925 113.741 54.8978 114.02 55.6963 114.294L55.4749 114.615ZM50.0125 112.787L47.5631 112.008L47.7644 111.686C48.5965 111.942 49.4152 112.201 50.2205 112.466L50.0125 112.787ZM44.4829 111.063C43.6642 110.817 42.8388 110.59 42 110.331L42.1946 110L44.6775 110.737L44.4829 111.063Z" fill="#A5B4FC"/>
<path d="M39.1126 109.368L37.8672 108.873L38.048 108.404L39.3001 108.9L39.1126 109.368Z" fill="#263238"/>
<path d="M40.7019 100.979L45.121 113.132L35.8341 105.874L0.320312 92.998L40.7019 100.979Z" fill="#FDE047"/>
<path opacity="0.1" d="M40.7019 100.979L45.121 113.132L35.8341 105.874L0.320312 92.998L40.7019 100.979Z" fill="black"/>
<path d="M34.6406 108.705L45.1193 113.131L35.8325 105.873L34.6406 108.705Z" fill="#374151"/>
<path d="M35.8341 105.874L0.320312 92.998L29.4465 121.421L35.8341 105.874Z" fill="#FDE047"/>
<path d="M40.7019 100.979L55.4592 91.4512L0.320312 92.9979L40.7019 100.979Z" fill="#FDE047"/>
<path d="M75.6372 28.6182C75.6355 29.0447 75.5074 29.4612 75.2692 29.815C75.031 30.1688 74.6933 30.4441 74.2988 30.6062C73.9043 30.7682 73.4705 30.8097 73.0524 30.7255C72.6343 30.6413 72.2505 30.435 71.9495 30.1328C71.6485 29.8306 71.4438 29.446 71.3612 29.0275C71.2786 28.6091 71.3218 28.1755 71.4854 27.7816C71.649 27.3877 71.9257 27.0511 72.2805 26.8143C72.6352 26.5776 73.0522 26.4512 73.4787 26.4512C73.7629 26.4512 74.0443 26.5073 74.3067 26.6163C74.5691 26.7253 74.8075 26.885 75.008 27.0864C75.2085 27.2877 75.3674 27.5267 75.4753 27.7895C75.5833 28.0524 75.6383 28.334 75.6372 28.6182Z" fill="#FACC15"/>
<path d="M84.4497 28.6182C84.448 29.0447 84.3199 29.4612 84.0817 29.815C83.8435 30.1688 83.5058 30.4441 83.1113 30.6062C82.7168 30.7682 82.283 30.8097 81.8649 30.7255C81.4468 30.6413 81.063 30.435 80.762 30.1328C80.461 29.8306 80.2563 29.446 80.1737 29.0275C80.0911 28.6091 80.1343 28.1755 80.2979 27.7816C80.4615 27.3877 80.7382 27.0511 81.093 26.8143C81.4477 26.5776 81.8647 26.4512 82.2912 26.4512C82.5754 26.4512 82.8568 26.5073 83.1192 26.6163C83.3816 26.7253 83.62 26.885 83.8205 27.0864C84.021 27.2877 84.1799 27.5267 84.2878 27.7895C84.3958 28.0524 84.4508 28.334 84.4497 28.6182Z" fill="#E5E7EB"/>
<path d="M93.2622 28.6182C93.2605 29.0447 93.1324 29.4612 92.8942 29.815C92.656 30.1688 92.3183 30.4441 91.9238 30.6062C91.5293 30.7682 91.0955 30.8097 90.6774 30.7255C90.2593 30.6413 89.8755 30.435 89.5745 30.1328C89.2735 29.8306 89.0688 29.446 88.9862 29.0275C88.9036 28.6091 88.9468 28.1755 89.1104 27.7816C89.274 27.3877 89.5507 27.0511 89.9055 26.8143C90.2602 26.5776 90.6772 26.4512 91.1037 26.4512C91.3879 26.4512 91.6693 26.5073 91.9317 26.6163C92.1941 26.7253 92.4325 26.885 92.633 27.0864C92.8335 27.2877 92.9923 27.5267 93.1003 27.7895C93.2083 28.0524 93.2633 28.334 93.2622 28.6182Z" fill="#4ADE80"/>
<defs>
<filter id="filter0_d_4644_88524" x="56.3125" y="12.9795" width="206" height="152" filterUnits="userSpaceOnUse" color-interpolation-filters="sRGB">
<feFlood flood-opacity="0" result="BackgroundImageFix"/>
<feColorMatrix in="SourceAlpha" type="matrix" values="0 0 0 0 0 0 0 0 0 0 0 0 0 0 0 0 0 0 127 0" result="hardAlpha"/>
<feOffset dy="2"/>
<feGaussianBlur stdDeviation="4"/>
<feComposite in2="hardAlpha" operator="out"/>
<feColorMatrix type="matrix" values="0 0 0 0 0 0 0 0 0 0 0 0 0 0 0 0 0 0 0.15 0"/>
<feBlend mode="normal" in2="BackgroundImageFix" result="effect1_dropShadow_4644_88524"/>
<feBlend mode="normal" in="SourceGraphic" in2="effect1_dropShadow_4644_88524" result="shape"/>
</filter>
</defs>
</svg>
